<svg width="48" height="56" viewBox="0 0 48 56" fill="none" xmlns="http://www.w3.org/2000/svg">
<path fill-rule="evenodd" clip-rule="evenodd" d="M43 28.9999C43 28.9999 38.5 28.4999 37.6786 32.2719C36.9136 39.5077 31.0957 45.134 24.0323 45.134C16.4478 45.134 10.2989 38.6471 10.2989 30.6455C10.2989 23.9717 15.7743 19.618 21.9943 18.3576C23.0511 18.1432 24.0323 18.9993 24.0323 20.134V23.5506C24.0323 25.0131 25.5942 25.8706 26.7294 25.0314L40.4671 14.8875C40.9258 14.5475 41.1987 13.9962 41.1987 13.4051C41.1987 12.8569 40.9621 12.3362 40.5556 11.9932L26.8179 0.398978C25.6944 -0.548955 24.0323 0.294843 24.0323 1.81092V5.51843C24.0323 6.43726 23.3806 7.21368 22.514 7.31475C10.5181 8.71751 0 17.7895 0 30.6455C0 44.6486 10.7591 56.0008 24.0323 56.0008C36.6843 56.0008 47.0529 45.6853 47.995 32.5919C47.995 30.4999 46 28.9999 43 28.9999Z" fill="black"/>
</svg>
