<svg width="163" height="81" viewBox="0 0 163 81" fill="none" xmlns="http://www.w3.org/2000/svg">
<g id="Buttons/Rect-Medium/PlayIcon/Default">
<g id="Button/Rect-Medium/Background">
<g id="Background" filter="url(#filter0_d_2_724)">
<mask id="path-1-outside-1_2_724" maskUnits="userSpaceOnUse" x="1" y="0" width="161" height="79" fill="black">
<rect fill="white" x="1" width="161" height="79"/>
<path d="M7 14C7 9.58172 10.5817 6 15 6H148C152.418 6 156 9.58172 156 14V65C156 69.4183 152.418 73 148 73H15C10.5817 73 7 69.4183 7 65V14Z"/>
</mask>
<path d="M7 14C7 9.58172 10.5817 6 15 6H148C152.418 6 156 9.58172 156 14V65C156 69.4183 152.418 73 148 73H15C10.5817 73 7 69.4183 7 65V14Z" fill="#519EE6"/>
<path d="M1 14C1 6.26801 7.26801 0 15 0H148C155.732 0 162 6.26801 162 14H150C150 12.8954 149.105 12 148 12H15C13.8954 12 13 12.8954 13 14H1ZM162 65C162 72.732 155.732 79 148 79H15C7.26801 79 1 72.732 1 65H13C13 66.1046 13.8954 67 15 67H148C149.105 67 150 66.1046 150 65H162ZM15 79C7.26801 79 1 72.732 1 65V14C1 6.26801 7.26801 0 15 0V12C13.8954 12 13 12.8954 13 14V65C13 66.1046 13.8954 67 15 67V79ZM148 0C155.732 0 162 6.26801 162 14V65C162 72.732 155.732 79 148 79V67C149.105 67 150 66.1046 150 65V14C150 12.8954 149.105 12 148 12V0Z" fill="#8FD7FF" mask="url(#path-1-outside-1_2_724)"/>
</g>
</g>
<g id="Icon/Play">
<g id="Play" filter="url(#filter1_i_2_724)">
<path d="M95.7107 35.601C99.0298 37.5662 99.0298 42.4338 95.7107 44.399L70.5458 59.2986C67.2008 61.2791 63 58.8301 63 54.8996V25.1004C63 21.1699 67.2008 18.7209 70.5458 20.7014L95.7107 35.601Z" fill="white"/>
</g>
</g>
</g>
<defs>
<filter id="filter0_d_2_724" x="0" y="0" width="163" height="81" filterUnits="userSpaceOnUse" color-interpolation-filters="sRGB">
<feFlood flood-opacity="0" result="BackgroundImageFix"/>
<feColorMatrix in="SourceAlpha" type="matrix" values="0 0 0 0 0 0 0 0 0 0 0 0 0 0 0 0 0 0 127 0" result="hardAlpha"/>
<feOffset dy="1"/>
<feGaussianBlur stdDeviation="0.5"/>
<feComposite in2="hardAlpha" operator="out"/>
<feColorMatrix type="matrix" values="0 0 0 0 0 0 0 0 0 0.1169 0 0 0 0 0.4175 0 0 0 0.6 0"/>
<feBlend mode="normal" in2="BackgroundImageFix" result="effect1_dropShadow_2_724"/>
<feBlend mode="normal" in="SourceGraphic" in2="effect1_dropShadow_2_724" result="shape"/>
</filter>
<filter id="filter1_i_2_724" x="63" y="20" width="35.2" height="41" filterUnits="userSpaceOnUse" color-interpolation-filters="sRGB">
<feFlood flood-opacity="0" result="BackgroundImageFix"/>
<feBlend mode="normal" in="SourceGraphic" in2="BackgroundImageFix" result="shape"/>
<feColorMatrix in="SourceAlpha" type="matrix" values="0 0 0 0 0 0 0 0 0 0 0 0 0 0 0 0 0 0 127 0" result="hardAlpha"/>
<feMorphology radius="1" operator="erode" in="SourceAlpha" result="effect1_innerShadow_2_724"/>
<feOffset dy="1"/>
<feGaussianBlur stdDeviation="0.25"/>
<feComposite in2="hardAlpha" operator="arithmetic" k2="-1" k3="1"/>
<feColorMatrix type="matrix" values="0 0 0 0 0.207843 0 0 0 0 0.454902 0 0 0 0 0.74902 0 0 0 1 0"/>
<feBlend mode="normal" in2="shape" result="effect1_innerShadow_2_724"/>
</filter>
</defs>
</svg>
