<svg width="83" height="83" viewBox="0 0 83 83" fill="none" xmlns="http://www.w3.org/2000/svg">
<g filter="url(#filter0_i_2_546)">
<g filter="url(#filter1_d_2_546)">
<mask id="path-1-outside-1_2_546" maskUnits="userSpaceOnUse" x="1" y="0" width="81" height="81" fill="black">
<rect fill="white" x="1" width="81" height="81"/>
<path d="M5 11C5 7.68629 7.68629 5 11 5H72C75.3137 5 78 7.68629 78 11V70C78 73.3137 75.3137 76 72 76H11C7.68629 76 5 73.3137 5 70V11Z"/>
</mask>
<path d="M5 11C5 7.68629 7.68629 5 11 5H72C75.3137 5 78 7.68629 78 11V70C78 73.3137 75.3137 76 72 76H11C7.68629 76 5 73.3137 5 70V11Z" fill="#519EE6"/>
<path d="M1 10C1 4.47715 5.47715 0 11 0H72C77.5229 0 82 4.47715 82 10L74 11C74 10.4477 73.1046 10 72 10H11C9.89543 10 9 10.4477 9 11L1 10ZM82 71C82 76.5229 77.5229 81 72 81H11C5.47715 81 1 76.5229 1 71L9 70C9 70.5523 9.89543 71 11 71H72C73.1046 71 74 70.5523 74 70L82 71ZM11 81C5.47715 81 1 76.5229 1 71V10C1 4.47715 5.47715 0 11 0V10C9.89543 10 9 10.4477 9 11V70C9 70.5523 9.89543 71 11 71V81ZM72 0C77.5229 0 82 4.47715 82 10V71C82 76.5229 77.5229 81 72 81V71C73.1046 71 74 70.5523 74 70V11C74 10.4477 73.1046 10 72 10V0Z" fill="white" mask="url(#path-1-outside-1_2_546)"/>
</g>
</g>
<g filter="url(#filter2_i_2_546)">
<path fill-rule="evenodd" clip-rule="evenodd" d="M46.5063 31.6667H34.4925V27.7619C34.4925 24.4429 37.2062 21.7095 40.5 21.7095C43.7925 21.7095 46.5063 24.4429 46.5063 27.7619V31.6667ZM40.5 49.2381C38.3675 49.2381 36.625 47.481 36.625 45.3333C36.625 43.1857 38.3675 41.4286 40.5 41.4286C42.6312 41.4286 44.375 43.1857 44.375 45.3333C44.375 47.481 42.6312 49.2381 40.5 49.2381ZM52.125 31.6667H50.1875V27.7619C50.1875 22.2952 45.925 18 40.5 18C35.0737 18 30.8125 22.2952 30.8125 27.7619V31.6667H28.875C26.7425 31.6667 25 33.4238 25 35.5714V55.0952C25 57.2429 26.7425 59 28.875 59H52.125C54.2562 59 56 57.2429 56 55.0952V35.5714C56 33.4238 54.2562 31.6667 52.125 31.6667Z" fill="#F5F5F5"/>
</g>
<defs>
<filter id="filter0_i_2_546" x="1" y="0" width="81" height="81" filterUnits="userSpaceOnUse" color-interpolation-filters="sRGB">
<feFlood flood-opacity="0" result="BackgroundImageFix"/>
<feBlend mode="normal" in="SourceGraphic" in2="BackgroundImageFix" result="shape"/>
<feColorMatrix in="SourceAlpha" type="matrix" values="0 0 0 0 0 0 0 0 0 0 0 0 0 0 0 0 0 0 127 0" result="hardAlpha"/>
<feOffset/>
<feGaussianBlur stdDeviation="2.5"/>
<feComposite in2="hardAlpha" operator="arithmetic" k2="-1" k3="1"/>
<feColorMatrix type="matrix" values="0 0 0 0 0.290196 0 0 0 0 0.564706 0 0 0 0 0.886275 0 0 0 1 0"/>
<feBlend mode="normal" in2="shape" result="effect1_innerShadow_2_546"/>
</filter>
<filter id="filter1_d_2_546" x="0" y="0" width="83" height="83" filterUnits="userSpaceOnUse" color-interpolation-filters="sRGB">
<feFlood flood-opacity="0" result="BackgroundImageFix"/>
<feColorMatrix in="SourceAlpha" type="matrix" values="0 0 0 0 0 0 0 0 0 0 0 0 0 0 0 0 0 0 127 0" result="hardAlpha"/>
<feOffset dy="1"/>
<feGaussianBlur stdDeviation="0.5"/>
<feComposite in2="hardAlpha" operator="out"/>
<feColorMatrix type="matrix" values="0 0 0 0 0 0 0 0 0 0.1169 0 0 0 0 0.4175 0 0 0 0.6 0"/>
<feBlend mode="normal" in2="BackgroundImageFix" result="effect1_dropShadow_2_546"/>
<feBlend mode="normal" in="SourceGraphic" in2="effect1_dropShadow_2_546" result="shape"/>
</filter>
<filter id="filter2_i_2_546" x="25" y="18" width="31" height="42" filterUnits="userSpaceOnUse" color-interpolation-filters="sRGB">
<feFlood flood-opacity="0" result="BackgroundImageFix"/>
<feBlend mode="normal" in="SourceGraphic" in2="BackgroundImageFix" result="shape"/>
<feColorMatrix in="SourceAlpha" type="matrix" values="0 0 0 0 0 0 0 0 0 0 0 0 0 0 0 0 0 0 127 0" result="hardAlpha"/>
<feMorphology radius="1" operator="erode" in="SourceAlpha" result="effect1_innerShadow_2_546"/>
<feOffset dy="1"/>
<feGaussianBlur stdDeviation="0.25"/>
<feComposite in2="hardAlpha" operator="arithmetic" k2="-1" k3="1"/>
<feColorMatrix type="matrix" values="0 0 0 0 0.207843 0 0 0 0 0.454902 0 0 0 0 0.74902 0 0 0 1 0"/>
<feBlend mode="normal" in2="shape" result="effect1_innerShadow_2_546"/>
</filter>
</defs>
</svg>
