<svg width="90" height="90" viewBox="0 0 90 90" fill="none" xmlns="http://www.w3.org/2000/svg">
<path d="M40.6794 7.41795C42.6081 4.10661 47.3919 4.10661 49.3206 7.41794L58.4387 23.0729C59.1453 24.2859 60.3291 25.1461 61.7011 25.4431L79.4075 29.2774C83.1528 30.0884 84.6311 34.6381 82.0778 37.4956L70.0067 51.0052C69.0714 52.0519 68.6192 53.4437 68.7606 54.8403L70.5856 72.865C70.9716 76.6775 67.1015 79.4894 63.5948 77.9441L47.0162 70.6385C45.7317 70.0724 44.2683 70.0724 42.9838 70.6385L26.4052 77.9441C22.8985 79.4894 19.0284 76.6775 19.4144 72.865L21.2394 54.8403C21.3808 53.4437 20.9286 52.0519 19.9933 51.0052L7.92222 37.4956C5.36894 34.6381 6.8472 30.0884 10.5925 29.2774L28.2989 25.4431C29.6709 25.1461 30.8547 24.2859 31.5612 23.0729L40.6794 7.41795Z" fill="#519EE6"/>
<g clip-path="url(#clip0_2_599)">
<g filter="url(#filter0_d_2_599)">
<path d="M40.6794 7.41795C42.6081 4.10661 47.3919 4.10661 49.3206 7.41794L58.4387 23.0729C59.1453 24.2859 60.3291 25.1461 61.7011 25.4431L79.4075 29.2774C83.1528 30.0884 84.6311 34.6381 82.0778 37.4956L70.0067 51.0052C69.0714 52.0519 68.6192 53.4437 68.7606 54.8403L70.5856 72.865C70.9716 76.6775 67.1015 79.4894 63.5948 77.9441L47.0162 70.6385C45.7317 70.0724 44.2683 70.0724 42.9838 70.6385L26.4052 77.9441C22.8985 79.4894 19.0284 76.6775 19.4144 72.865L21.2394 54.8403C21.3808 53.4437 20.9286 52.0519 19.9933 51.0052L7.92222 37.4956C5.36894 34.6381 6.8472 30.0884 10.5925 29.2774L28.2989 25.4431C29.6709 25.1461 30.8547 24.2859 31.5612 23.0729L40.6794 7.41795Z" fill="#519EE6"/>
</g>
</g>
<g filter="url(#filter1_d_2_599)">
<path d="M42.2761 16.5802C43.3757 14.3473 46.5592 14.3473 47.6588 16.5802L54.2367 29.9376C54.6732 30.824 55.5181 31.4386 56.4958 31.5809L71.2153 33.7245C73.6739 34.0825 74.6566 37.103 72.8793 38.8391L62.2199 49.2522C61.5147 49.9411 61.193 50.9325 61.3593 51.9043L63.8745 66.6011C64.294 69.0527 61.7196 70.9207 59.5191 69.7613L46.3658 62.8312C45.4906 62.37 44.4443 62.37 43.569 62.8312L30.4158 69.7613C28.2153 70.9207 25.6408 69.0527 26.0604 66.6011L28.5756 51.9043C28.7419 50.9325 28.4202 49.9411 27.715 49.2522L17.0555 38.8391C15.2782 37.103 16.261 34.0825 18.7196 33.7245L33.4391 31.5809C34.4168 31.4386 35.2616 30.824 35.6981 29.9376L42.2761 16.5802Z" fill="#F8E71C"/>
</g>
<defs>
<filter id="filter0_d_2_599" x="5.64648" y="4.93445" width="78.707" height="75.4417" filterUnits="userSpaceOnUse" color-interpolation-filters="sRGB">
<feFlood flood-opacity="0" result="BackgroundImageFix"/>
<feColorMatrix in="SourceAlpha" type="matrix" values="0 0 0 0 0 0 0 0 0 0 0 0 0 0 0 0 0 0 127 0" result="hardAlpha"/>
<feOffset dy="1"/>
<feGaussianBlur stdDeviation="0.5"/>
<feComposite in2="hardAlpha" operator="out"/>
<feColorMatrix type="matrix" values="0 0 0 0 0.0123999 0 0 0 0 0.414312 0 0 0 0 0.892778 0 0 0 1 0"/>
<feBlend mode="normal" in2="BackgroundImageFix" result="effect1_dropShadow_2_599"/>
<feBlend mode="normal" in="SourceGraphic" in2="effect1_dropShadow_2_599" result="shape"/>
</filter>
<filter id="filter1_d_2_599" x="15.1487" y="14.9055" width="59.6375" height="57.2084" filterUnits="userSpaceOnUse" color-interpolation-filters="sRGB">
<feFlood flood-opacity="0" result="BackgroundImageFix"/>
<feColorMatrix in="SourceAlpha" type="matrix" values="0 0 0 0 0 0 0 0 0 0 0 0 0 0 0 0 0 0 127 0" result="hardAlpha"/>
<feOffset dy="1"/>
<feGaussianBlur stdDeviation="0.5"/>
<feComposite in2="hardAlpha" operator="out"/>
<feColorMatrix type="matrix" values="0 0 0 0 0 0 0 0 0 0.253478 0 0 0 0 0.905278 0 0 0 0.6 0"/>
<feBlend mode="normal" in2="BackgroundImageFix" result="effect1_dropShadow_2_599"/>
<feBlend mode="normal" in="SourceGraphic" in2="effect1_dropShadow_2_599" result="shape"/>
</filter>
<clipPath id="clip0_2_599">
<rect width="90" height="54" fill="white" transform="translate(0 36)"/>
</clipPath>
</defs>
</svg>
