<svg width="606" height="422" viewBox="0 0 606 422" fill="none" xmlns="http://www.w3.org/2000/svg">
<g filter="url(#filter0_d_2_629)">
<g clip-path="url(#clip0_2_629)">
<g filter="url(#filter1_d_2_629)">
<g filter="url(#filter2_i_2_629)">
<path d="M3 -166C3 -174.837 10.1634 -182 19 -182H587C595.837 -182 603 -174.837 603 -166V402C603 410.837 595.837 418 587 418H19C10.1634 418 3 410.837 3 402V-166Z" fill="white"/>
</g>
<path d="M8 -166C8 -172.075 12.9249 -177 19 -177H587C593.075 -177 598 -172.075 598 -166V402C598 408.075 593.075 413 587 413H19C12.9249 413 8 408.075 8 402V-166Z" stroke="#8FD7FF" stroke-opacity="0.4" stroke-width="10"/>
</g>
</g>
<g clip-path="url(#clip1_2_629)">
<g filter="url(#filter3_d_2_629)">
<g filter="url(#filter4_i_2_629)">
<path d="M3 16C3 7.16343 10.1634 0 19 0H587C595.837 0 603 7.16345 603 16V584C603 592.837 595.837 600 587 600H19C10.1634 600 3 592.837 3 584V16Z" fill="white"/>
</g>
<path d="M8 16C8 9.92486 12.9249 5 19 5H587C593.075 5 598 9.92487 598 16V584C598 590.075 593.075 595 587 595H19C12.9249 595 8 590.075 8 584V16Z" stroke="#8FD7FF" stroke-opacity="0.4" stroke-width="10"/>
<g filter="url(#filter5_d_2_629)">
<path d="M13 16C13 12.6863 15.6863 10 19 10H587C590.314 10 593 12.6863 593 16V98H13V16Z" fill="#519EE6"/>
</g>
</g>
</g>
<path d="M209.307 40.03C209.307 39.55 209.52 39.1233 209.947 38.75C210.4 38.35 210.987 38.15 211.707 38.15H216.947C218.627 38.15 220.08 38.3633 221.307 38.79C222.533 39.2167 223.547 39.8167 224.347 40.59C225.147 41.3367 225.733 42.2167 226.107 43.23C226.48 44.2433 226.667 45.3367 226.667 46.51V46.95C226.667 47.9633 226.493 48.9367 226.147 49.87C225.8 50.8033 225.24 51.63 224.467 52.35C223.693 53.07 222.693 53.6567 221.467 54.11C220.24 54.5367 218.733 54.75 216.947 54.75H213.987V62.27C213.987 62.75 213.773 63.19 213.347 63.59C212.947 63.9633 212.4 64.15 211.707 64.15C210.987 64.15 210.4 63.9233 209.947 63.47C209.52 63.0167 209.307 62.55 209.307 62.07V40.03ZM213.987 42.15V50.91H216.947C217.827 50.91 218.587 50.8033 219.227 50.59C219.867 50.3767 220.387 50.0967 220.787 49.75C221.213 49.4033 221.52 49.0033 221.707 48.55C221.92 48.0967 222.027 47.63 222.027 47.15V46.23C222.027 45.0833 221.627 44.1233 220.827 43.35C220.027 42.55 218.733 42.15 216.947 42.15H213.987ZM245.399 64.35C244.732 64.35 244.185 64.15 243.759 63.75C243.359 63.3767 243.159 62.95 243.159 62.47V61.83L242.799 61.71C242.559 62.0567 242.292 62.3767 241.999 62.67C241.732 62.9633 241.399 63.23 240.999 63.47C240.599 63.6833 240.119 63.8433 239.559 63.95C239.025 64.0833 238.359 64.15 237.559 64.15C236.279 64.15 235.159 63.9233 234.199 63.47C233.239 62.99 232.452 62.3767 231.839 61.63C231.225 60.8833 230.759 60.03 230.439 59.07C230.145 58.11 229.999 57.1233 229.999 56.11V52.59C229.999 51.47 230.199 50.3633 230.599 49.27C230.999 48.1767 231.585 47.19 232.359 46.31C233.132 45.43 234.105 44.7233 235.279 44.19C236.452 43.63 237.825 43.35 239.399 43.35C240.865 43.35 242.132 43.55 243.199 43.95C244.265 44.35 245.132 44.91 245.799 45.63C246.492 46.3233 246.999 47.15 247.319 48.11C247.639 49.07 247.799 50.1233 247.799 51.27V62.47C247.799 62.95 247.585 63.3767 247.159 63.75C246.732 64.15 246.145 64.35 245.399 64.35ZM243.159 51.35C243.159 50.0167 242.825 49.0833 242.159 48.55C241.519 47.99 240.599 47.71 239.399 47.71C238.705 47.71 238.079 47.8433 237.519 48.11C236.959 48.35 236.479 48.6967 236.079 49.15C235.679 49.5767 235.359 50.07 235.119 50.63C234.905 51.19 234.799 51.79 234.799 52.43V56.27C234.799 57.23 235.159 58.0567 235.879 58.75C236.599 59.4433 237.492 59.79 238.559 59.79C239.145 59.79 239.705 59.6967 240.239 59.51C240.799 59.2967 241.292 59.0033 241.719 58.63C242.145 58.23 242.492 57.7367 242.759 57.15C243.025 56.5633 243.159 55.8833 243.159 55.11V51.35ZM262.442 43.35C263.908 43.35 265.188 43.55 266.282 43.95C267.402 44.35 268.335 44.9233 269.082 45.67C269.828 46.39 270.388 47.27 270.762 48.31C271.135 49.35 271.322 50.4967 271.322 51.75V62.27C271.322 62.75 271.095 63.19 270.642 63.59C270.188 63.9633 269.615 64.15 268.922 64.15C268.228 64.15 267.668 63.9633 267.242 63.59C266.815 63.19 266.602 62.75 266.602 62.27V51.99C266.602 50.5233 266.202 49.4433 265.402 48.75C264.628 48.0567 263.642 47.71 262.442 47.71C261.242 47.71 260.242 48.0567 259.442 48.75C258.642 49.4433 258.242 50.5233 258.242 51.99V62.27C258.242 62.75 258.028 63.19 257.602 63.59C257.202 63.9633 256.655 64.15 255.962 64.15C255.242 64.15 254.655 63.9633 254.202 63.59C253.775 63.19 253.562 62.75 253.562 62.27V52.15C253.562 50.8967 253.748 49.7367 254.122 48.67C254.495 47.5767 255.055 46.6433 255.802 45.87C256.548 45.07 257.468 44.4567 258.562 44.03C259.682 43.5767 260.975 43.35 262.442 43.35ZM293.481 51.47C293.481 52.7233 293.241 53.6033 292.761 54.11C292.281 54.6167 291.481 54.87 290.361 54.87H280.881V55.91C280.881 57.19 281.268 58.2167 282.041 58.99C282.841 59.7633 283.961 60.15 285.401 60.15C286.121 60.15 286.774 60.11 287.361 60.03C287.974 59.9233 288.454 59.79 288.801 59.63C289.174 59.4433 289.534 59.2567 289.881 59.07C290.228 58.8833 290.548 58.79 290.841 58.79C291.374 58.79 291.788 58.95 292.081 59.27C292.374 59.59 292.534 60.0033 292.561 60.51C292.561 60.9367 292.374 61.3633 292.001 61.79C291.628 62.2167 291.121 62.6033 290.481 62.95C289.841 63.2967 289.081 63.5767 288.201 63.79C287.348 64.03 286.428 64.15 285.441 64.15C284.081 64.15 282.841 63.9367 281.721 63.51C280.601 63.0833 279.628 62.51 278.801 61.79C278.001 61.07 277.374 60.23 276.921 59.27C276.468 58.2833 276.241 57.2433 276.241 56.15V51.91C276.241 50.7367 276.454 49.63 276.881 48.59C277.334 47.55 277.948 46.6433 278.721 45.87C279.494 45.0967 280.414 44.4833 281.481 44.03C282.548 43.5767 283.721 43.35 285.001 43.35C286.521 43.35 287.814 43.6033 288.881 44.11C289.948 44.59 290.814 45.23 291.481 46.03C292.174 46.8033 292.681 47.67 293.001 48.63C293.321 49.59 293.481 50.5367 293.481 51.47ZM284.961 47.23C283.761 47.23 282.801 47.6167 282.081 48.39C281.388 49.1367 280.988 50.1367 280.881 51.39H289.041V50.79C289.041 49.6967 288.654 48.83 287.881 48.19C287.134 47.55 286.161 47.23 284.961 47.23ZM298.805 38.43C298.805 37.95 299.019 37.5233 299.445 37.15C299.899 36.75 300.485 36.55 301.205 36.55C301.899 36.55 302.445 36.75 302.845 37.15C303.272 37.5233 303.485 37.95 303.485 38.43V62.27C303.485 62.75 303.272 63.19 302.845 63.59C302.445 63.9633 301.899 64.15 301.205 64.15C300.485 64.15 299.899 63.9633 299.445 63.59C299.019 63.19 298.805 62.75 298.805 62.27V38.43ZM334.734 38.15C335.507 38.15 336.08 38.35 336.454 38.75C336.854 39.1233 337.054 39.6433 337.054 40.31C337.054 40.9233 336.854 41.43 336.454 41.83C336.08 42.2033 335.507 42.39 334.734 42.39H329.494V62.27C329.494 62.75 329.28 63.19 328.854 63.59C328.454 63.9633 327.907 64.15 327.214 64.15C326.467 64.15 325.88 63.9633 325.454 63.59C325.027 63.19 324.814 62.75 324.814 62.27V42.39H320.094C319.4 42.39 318.84 42.2033 318.414 41.83C318.014 41.43 317.814 40.9233 317.814 40.31C317.814 39.6433 318.014 39.1233 318.414 38.75C318.84 38.35 319.4 38.15 320.094 38.15H334.734ZM341.579 45.23C341.579 44.75 341.792 44.3233 342.219 43.95C342.672 43.55 343.259 43.35 343.979 43.35C344.672 43.35 345.219 43.55 345.619 43.95C346.046 44.3233 346.259 44.75 346.259 45.23V62.27C346.259 62.75 346.046 63.19 345.619 63.59C345.219 63.9633 344.672 64.15 343.979 64.15C343.259 64.15 342.672 63.9633 342.219 63.59C341.792 63.19 341.579 62.75 341.579 62.27V45.23ZM341.579 38.03C341.579 37.55 341.792 37.1233 342.219 36.75C342.672 36.35 343.259 36.15 343.979 36.15C344.672 36.15 345.219 36.35 345.619 36.75C346.046 37.1233 346.259 37.55 346.259 38.03V38.99C346.259 39.47 346.046 39.91 345.619 40.31C345.219 40.6833 344.672 40.87 343.979 40.87C343.259 40.87 342.672 40.6833 342.219 40.31C341.792 39.91 341.579 39.47 341.579 38.99V38.03ZM353.593 43.75V39.63C353.593 39.15 353.806 38.7233 354.233 38.35C354.659 37.95 355.246 37.75 355.993 37.75C356.686 37.75 357.233 37.95 357.633 38.35C358.059 38.7233 358.273 39.15 358.273 39.63V43.75H361.233C361.686 43.75 362.086 43.9233 362.433 44.27C362.779 44.59 362.953 45.0167 362.953 45.55C362.953 46.1367 362.779 46.6033 362.433 46.95C362.086 47.27 361.686 47.43 361.233 47.43H358.273V57.11C358.273 58.23 358.419 58.99 358.713 59.39C359.006 59.79 359.433 59.99 359.993 59.99C360.526 59.99 360.979 59.95 361.353 59.87C361.726 59.7633 362.153 59.71 362.633 59.71C363.246 59.71 363.686 59.8833 363.953 60.23C364.246 60.55 364.393 61.0033 364.393 61.59C364.393 62.0967 364.259 62.51 363.993 62.83C363.726 63.15 363.366 63.4167 362.913 63.63C362.486 63.8167 361.979 63.95 361.393 64.03C360.833 64.11 360.233 64.15 359.593 64.15C357.513 64.15 355.993 63.6167 355.033 62.55C354.073 61.4567 353.593 59.59 353.593 56.95V47.43H351.993C351.539 47.43 351.139 47.27 350.793 46.95C350.446 46.6033 350.273 46.1367 350.273 45.55C350.273 45.0167 350.446 44.59 350.793 44.27C351.139 43.9233 351.539 43.75 351.993 43.75H353.593ZM369.235 38.43C369.235 37.95 369.448 37.5233 369.875 37.15C370.328 36.75 370.915 36.55 371.635 36.55C372.328 36.55 372.875 36.75 373.275 37.15C373.702 37.5233 373.915 37.95 373.915 38.43V62.27C373.915 62.75 373.702 63.19 373.275 63.59C372.875 63.9633 372.328 64.15 371.635 64.15C370.915 64.15 370.328 63.9633 369.875 63.59C369.448 63.19 369.235 62.75 369.235 62.27V38.43ZM396.489 51.47C396.489 52.7233 396.249 53.6033 395.769 54.11C395.289 54.6167 394.489 54.87 393.369 54.87H383.889V55.91C383.889 57.19 384.276 58.2167 385.049 58.99C385.849 59.7633 386.969 60.15 388.409 60.15C389.129 60.15 389.782 60.11 390.369 60.03C390.982 59.9233 391.462 59.79 391.809 59.63C392.182 59.4433 392.542 59.2567 392.889 59.07C393.236 58.8833 393.556 58.79 393.849 58.79C394.382 58.79 394.796 58.95 395.089 59.27C395.382 59.59 395.542 60.0033 395.569 60.51C395.569 60.9367 395.382 61.3633 395.009 61.79C394.636 62.2167 394.129 62.6033 393.489 62.95C392.849 63.2967 392.089 63.5767 391.209 63.79C390.356 64.03 389.436 64.15 388.449 64.15C387.089 64.15 385.849 63.9367 384.729 63.51C383.609 63.0833 382.636 62.51 381.809 61.79C381.009 61.07 380.382 60.23 379.929 59.27C379.476 58.2833 379.249 57.2433 379.249 56.15V51.91C379.249 50.7367 379.462 49.63 379.889 48.59C380.342 47.55 380.956 46.6433 381.729 45.87C382.502 45.0967 383.422 44.4833 384.489 44.03C385.556 43.5767 386.729 43.35 388.009 43.35C389.529 43.35 390.822 43.6033 391.889 44.11C392.956 44.59 393.822 45.23 394.489 46.03C395.182 46.8033 395.689 47.67 396.009 48.63C396.329 49.59 396.489 50.5367 396.489 51.47ZM387.969 47.23C386.769 47.23 385.809 47.6167 385.089 48.39C384.396 49.1367 383.996 50.1367 383.889 51.39H392.049V50.79C392.049 49.6967 391.662 48.83 390.889 48.19C390.142 47.55 389.169 47.23 387.969 47.23Z" fill="#F5F5F5"/>
</g>
<defs>
<filter id="filter0_d_2_629" x="0" y="0" width="606" height="422" filterUnits="userSpaceOnUse" color-interpolation-filters="sRGB">
<feFlood flood-opacity="0" result="BackgroundImageFix"/>
<feColorMatrix in="SourceAlpha" type="matrix" values="0 0 0 0 0 0 0 0 0 0 0 0 0 0 0 0 0 0 127 0" result="hardAlpha"/>
<feOffset dy="1"/>
<feGaussianBlur stdDeviation="0.5"/>
<feComposite in2="hardAlpha" operator="out"/>
<feColorMatrix type="matrix" values="0 0 0 0 0 0 0 0 0 0.1169 0 0 0 0 0.4175 0 0 0 0.6 0"/>
<feBlend mode="normal" in2="BackgroundImageFix" result="effect1_dropShadow_2_629"/>
<feBlend mode="normal" in="SourceGraphic" in2="effect1_dropShadow_2_629" result="shape"/>
</filter>
<filter id="filter1_d_2_629" x="2" y="-182" width="602" height="602" filterUnits="userSpaceOnUse" color-interpolation-filters="sRGB">
<feFlood flood-opacity="0" result="BackgroundImageFix"/>
<feColorMatrix in="SourceAlpha" type="matrix" values="0 0 0 0 0 0 0 0 0 0 0 0 0 0 0 0 0 0 127 0" result="hardAlpha"/>
<feOffset dy="1"/>
<feGaussianBlur stdDeviation="0.5"/>
<feComposite in2="hardAlpha" operator="out"/>
<feColorMatrix type="matrix" values="0 0 0 0 0 0 0 0 0 0.1169 0 0 0 0 0.4175 0 0 0 0.6 0"/>
<feBlend mode="normal" in2="BackgroundImageFix" result="effect1_dropShadow_2_629"/>
<feBlend mode="normal" in="SourceGraphic" in2="effect1_dropShadow_2_629" result="shape"/>
</filter>
<filter id="filter2_i_2_629" x="3" y="-182" width="600" height="600" filterUnits="userSpaceOnUse" color-interpolation-filters="sRGB">
<feFlood flood-opacity="0" result="BackgroundImageFix"/>
<feBlend mode="normal" in="SourceGraphic" in2="BackgroundImageFix" result="shape"/>
<feColorMatrix in="SourceAlpha" type="matrix" values="0 0 0 0 0 0 0 0 0 0 0 0 0 0 0 0 0 0 127 0" result="hardAlpha"/>
<feOffset/>
<feGaussianBlur stdDeviation="2.5"/>
<feComposite in2="hardAlpha" operator="arithmetic" k2="-1" k3="1"/>
<feColorMatrix type="matrix" values="0 0 0 0 0.290196 0 0 0 0 0.564706 0 0 0 0 0.886275 0 0 0 1 0"/>
<feBlend mode="normal" in2="shape" result="effect1_innerShadow_2_629"/>
</filter>
<filter id="filter3_d_2_629" x="2" y="0" width="602" height="602" filterUnits="userSpaceOnUse" color-interpolation-filters="sRGB">
<feFlood flood-opacity="0" result="BackgroundImageFix"/>
<feColorMatrix in="SourceAlpha" type="matrix" values="0 0 0 0 0 0 0 0 0 0 0 0 0 0 0 0 0 0 127 0" result="hardAlpha"/>
<feOffset dy="1"/>
<feGaussianBlur stdDeviation="0.5"/>
<feComposite in2="hardAlpha" operator="out"/>
<feColorMatrix type="matrix" values="0 0 0 0 0 0 0 0 0 0.1169 0 0 0 0 0.4175 0 0 0 0.6 0"/>
<feBlend mode="normal" in2="BackgroundImageFix" result="effect1_dropShadow_2_629"/>
<feBlend mode="normal" in="SourceGraphic" in2="effect1_dropShadow_2_629" result="shape"/>
</filter>
<filter id="filter4_i_2_629" x="3" y="0" width="600" height="600" filterUnits="userSpaceOnUse" color-interpolation-filters="sRGB">
<feFlood flood-opacity="0" result="BackgroundImageFix"/>
<feBlend mode="normal" in="SourceGraphic" in2="BackgroundImageFix" result="shape"/>
<feColorMatrix in="SourceAlpha" type="matrix" values="0 0 0 0 0 0 0 0 0 0 0 0 0 0 0 0 0 0 127 0" result="hardAlpha"/>
<feOffset/>
<feGaussianBlur stdDeviation="2.5"/>
<feComposite in2="hardAlpha" operator="arithmetic" k2="-1" k3="1"/>
<feColorMatrix type="matrix" values="0 0 0 0 0.290196 0 0 0 0 0.564706 0 0 0 0 0.886275 0 0 0 1 0"/>
<feBlend mode="normal" in2="shape" result="effect1_innerShadow_2_629"/>
</filter>
<filter id="filter5_d_2_629" x="12" y="10" width="582" height="90" filterUnits="userSpaceOnUse" color-interpolation-filters="sRGB">
<feFlood flood-opacity="0" result="BackgroundImageFix"/>
<feColorMatrix in="SourceAlpha" type="matrix" values="0 0 0 0 0 0 0 0 0 0 0 0 0 0 0 0 0 0 127 0" result="hardAlpha"/>
<feOffset dy="1"/>
<feGaussianBlur stdDeviation="0.5"/>
<feComposite in2="hardAlpha" operator="out"/>
<feColorMatrix type="matrix" values="0 0 0 0 0.0123999 0 0 0 0 0.414312 0 0 0 0 0.892778 0 0 0 1 0"/>
<feBlend mode="normal" in2="BackgroundImageFix" result="effect1_dropShadow_2_629"/>
<feBlend mode="normal" in="SourceGraphic" in2="effect1_dropShadow_2_629" result="shape"/>
</filter>
<clipPath id="clip0_2_629">
<rect width="604" height="325" fill="white" transform="translate(1 95)"/>
</clipPath>
<clipPath id="clip1_2_629">
<rect width="604" height="98" fill="white" transform="translate(1)"/>
</clipPath>
</defs>
</svg>
