<svg width="81" height="82" viewBox="0 0 81 82" fill="none" xmlns="http://www.w3.org/2000/svg">
<g filter="url(#filter0_d_2_755)">
<mask id="path-1-outside-1_2_755" maskUnits="userSpaceOnUse" x="1" y="0" width="79" height="80" fill="black">
<rect fill="white" x="1" width="79" height="80"/>
<path d="M6 14C6 9.58172 9.58172 6 14 6H67C71.4183 6 75 9.58172 75 14V66C75 70.4183 71.4183 74 67 74H14C9.58172 74 6 70.4183 6 66V14Z"/>
</mask>
<path d="M6 14C6 9.58172 9.58172 6 14 6H67C71.4183 6 75 9.58172 75 14V66C75 70.4183 71.4183 74 67 74H14C9.58172 74 6 70.4183 6 66V14Z" fill="#519EE6"/>
<path d="M1 13C1 5.8203 6.8203 0 14 0H67C74.1797 0 80 5.8203 80 13L70 14C70 12.8954 68.6569 12 67 12H14C12.3431 12 11 12.8954 11 14L1 13ZM80 67C80 74.1797 74.1797 80 67 80H14C6.8203 80 1 74.1797 1 67L11 66C11 67.1046 12.3431 68 14 68H67C68.6569 68 70 67.1046 70 66L80 67ZM14 80C6.8203 80 1 74.1797 1 67V13C1 5.8203 6.8203 0 14 0V12C12.3431 12 11 12.8954 11 14V66C11 67.1046 12.3431 68 14 68V80ZM67 0C74.1797 0 80 5.8203 80 13V67C80 74.1797 74.1797 80 67 80V68C68.6569 68 70 67.1046 70 66V14C70 12.8954 68.6569 12 67 12V0Z" fill="#8FD7FF" mask="url(#path-1-outside-1_2_755)"/>
</g>
<defs>
<filter id="filter0_d_2_755" x="0" y="0" width="81" height="82" filterUnits="userSpaceOnUse" color-interpolation-filters="sRGB">
<feFlood flood-opacity="0" result="BackgroundImageFix"/>
<feColorMatrix in="SourceAlpha" type="matrix" values="0 0 0 0 0 0 0 0 0 0 0 0 0 0 0 0 0 0 127 0" result="hardAlpha"/>
<feOffset dy="1"/>
<feGaussianBlur stdDeviation="0.5"/>
<feComposite in2="hardAlpha" operator="out"/>
<feColorMatrix type="matrix" values="0 0 0 0 0 0 0 0 0 0.1169 0 0 0 0 0.4175 0 0 0 0.6 0"/>
<feBlend mode="normal" in2="BackgroundImageFix" result="effect1_dropShadow_2_755"/>
<feBlend mode="normal" in="SourceGraphic" in2="effect1_dropShadow_2_755" result="shape"/>
</filter>
</defs>
</svg>
