<svg width="81" height="82" viewBox="0 0 81 82" fill="none" xmlns="http://www.w3.org/2000/svg">
<g id="Buttons/Square-Medium/SoundOff/Hover">
<g id="Button/Square-Medium/Background" filter="url(#filter0_i_2_711)">
<g id="Background" filter="url(#filter1_d_2_711)">
<mask id="path-1-outside-1_2_711" maskUnits="userSpaceOnUse" x="1" y="0" width="79" height="80" fill="black">
<rect fill="white" x="1" width="79" height="80"/>
<path d="M6 14C6 9.58172 9.58172 6 14 6H67C71.4183 6 75 9.58172 75 14V66C75 70.4183 71.4183 74 67 74H14C9.58172 74 6 70.4183 6 66V14Z"/>
</mask>
<path d="M6 14C6 9.58172 9.58172 6 14 6H67C71.4183 6 75 9.58172 75 14V66C75 70.4183 71.4183 74 67 74H14C9.58172 74 6 70.4183 6 66V14Z" fill="#519EE6"/>
<path d="M1 13C1 5.8203 6.8203 0 14 0H67C74.1797 0 80 5.8203 80 13L70 14C70 12.8954 68.6569 12 67 12H14C12.3431 12 11 12.8954 11 14L1 13ZM80 67C80 74.1797 74.1797 80 67 80H14C6.8203 80 1 74.1797 1 67L11 66C11 67.1046 12.3431 68 14 68H67C68.6569 68 70 67.1046 70 66L80 67ZM14 80C6.8203 80 1 74.1797 1 67V13C1 5.8203 6.8203 0 14 0V12C12.3431 12 11 12.8954 11 14V66C11 67.1046 12.3431 68 14 68V80ZM67 0C74.1797 0 80 5.8203 80 13V67C80 74.1797 74.1797 80 67 80V68C68.6569 68 70 67.1046 70 66V14C70 12.8954 68.6569 12 67 12V0Z" fill="white" mask="url(#path-1-outside-1_2_711)"/>
</g>
</g>
<g id="Icon/SoundOff" filter="url(#filter2_i_2_711)">
<path id="Vector" d="M35.7738 20.7589L26.9947 28.1282L23.4067 31.148H17.0427C16.3383 31.1498 15.6633 31.4299 15.1652 31.9269C14.6671 32.424 14.3865 33.0977 14.3846 33.8007V46.1914C14.3846 46.8956 14.6645 47.571 15.1627 48.0696C15.661 48.5682 16.3371 48.8492 17.0427 48.851H23.4067L26.9947 51.85L35.7738 59.2332C36.2493 59.6334 36.8296 59.8896 37.4461 59.9715C38.0627 60.0535 38.6899 59.9577 39.2537 59.6957C39.8176 59.4336 40.2946 59.0161 40.6286 58.4924C40.9625 57.9687 41.1394 57.3606 41.1385 56.7398V23.2522C41.1366 22.6327 40.958 22.0265 40.6235 21.5046C40.289 20.9826 39.8125 20.5665 39.2497 20.305C38.687 20.0434 38.0612 19.9472 37.4457 20.0276C36.8301 20.1079 36.2502 20.3616 35.7738 20.7589Z" fill="white"/>
<path id="Union" d="M45.6071 30.8429C44.4694 31.9667 44.4694 33.7889 45.6071 34.9127L50.7569 40L45.6071 45.0873C44.4694 46.2111 44.4694 48.0332 45.6071 49.1571C46.7447 50.281 48.5893 50.281 49.7271 49.1571L54.8769 44.0698L60.0268 49.1571C61.1644 50.281 63.009 50.281 64.1467 49.1571C65.2844 48.0332 65.2844 46.2111 64.1467 45.0873L58.9968 40L64.1467 34.9127C65.2844 33.7888 65.2844 31.9667 64.1467 30.8429C63.009 29.719 61.1644 29.719 60.0268 30.8429L54.8769 35.9301L49.7271 30.8429C48.5893 29.719 46.7449 29.719 45.6071 30.8429Z" fill="white"/>
</g>
</g>
<defs>
<filter id="filter0_i_2_711" x="1" y="0" width="79" height="80" filterUnits="userSpaceOnUse" color-interpolation-filters="sRGB">
<feFlood flood-opacity="0" result="BackgroundImageFix"/>
<feBlend mode="normal" in="SourceGraphic" in2="BackgroundImageFix" result="shape"/>
<feColorMatrix in="SourceAlpha" type="matrix" values="0 0 0 0 0 0 0 0 0 0 0 0 0 0 0 0 0 0 127 0" result="hardAlpha"/>
<feOffset/>
<feGaussianBlur stdDeviation="2.5"/>
<feComposite in2="hardAlpha" operator="arithmetic" k2="-1" k3="1"/>
<feColorMatrix type="matrix" values="0 0 0 0 0.290196 0 0 0 0 0.564706 0 0 0 0 0.886275 0 0 0 1 0"/>
<feBlend mode="normal" in2="shape" result="effect1_innerShadow_2_711"/>
</filter>
<filter id="filter1_d_2_711" x="0" y="0" width="81" height="82" filterUnits="userSpaceOnUse" color-interpolation-filters="sRGB">
<feFlood flood-opacity="0" result="BackgroundImageFix"/>
<feColorMatrix in="SourceAlpha" type="matrix" values="0 0 0 0 0 0 0 0 0 0 0 0 0 0 0 0 0 0 127 0" result="hardAlpha"/>
<feOffset dy="1"/>
<feGaussianBlur stdDeviation="0.5"/>
<feComposite in2="hardAlpha" operator="out"/>
<feColorMatrix type="matrix" values="0 0 0 0 0 0 0 0 0 0.1169 0 0 0 0 0.4175 0 0 0 0.6 0"/>
<feBlend mode="normal" in2="BackgroundImageFix" result="effect1_dropShadow_2_711"/>
<feBlend mode="normal" in="SourceGraphic" in2="effect1_dropShadow_2_711" result="shape"/>
</filter>
<filter id="filter2_i_2_711" x="14.3846" y="20" width="50.6154" height="41" filterUnits="userSpaceOnUse" color-interpolation-filters="sRGB">
<feFlood flood-opacity="0" result="BackgroundImageFix"/>
<feBlend mode="normal" in="SourceGraphic" in2="BackgroundImageFix" result="shape"/>
<feColorMatrix in="SourceAlpha" type="matrix" values="0 0 0 0 0 0 0 0 0 0 0 0 0 0 0 0 0 0 127 0" result="hardAlpha"/>
<feMorphology radius="1" operator="erode" in="SourceAlpha" result="effect1_innerShadow_2_711"/>
<feOffset dy="1"/>
<feGaussianBlur stdDeviation="0.25"/>
<feComposite in2="hardAlpha" operator="arithmetic" k2="-1" k3="1"/>
<feColorMatrix type="matrix" values="0 0 0 0 0.207843 0 0 0 0 0.454902 0 0 0 0 0.74902 0 0 0 1 0"/>
<feBlend mode="normal" in2="shape" result="effect1_innerShadow_2_711"/>
</filter>
</defs>
</svg>
