<svg width="43" height="42" viewBox="0 0 43 42" fill="none" xmlns="http://www.w3.org/2000/svg">
<g filter="url(#filter0_d_2_604)">
<path d="M18.6985 2.07252C19.5803 -0.690841 23.4197 -0.690839 24.3015 2.07252L27.1215 10.9096C27.5159 12.1454 28.6469 12.9821 29.923 12.9821H39.0486C41.9022 12.9821 43.0887 16.7002 40.7801 18.4081L33.3973 23.8697C32.3649 24.6334 31.9329 25.9873 32.3272 27.2231L35.1472 36.0602C36.029 38.8235 32.9228 41.1214 30.6142 39.4136L23.2314 33.952C22.199 33.1882 20.801 33.1882 19.7686 33.952L12.3858 39.4136C10.0772 41.1214 6.971 38.8235 7.8528 36.0602L10.6728 27.2231C11.0671 25.9873 10.6351 24.6334 9.60268 23.8697L2.21991 18.4081C-0.0886828 16.7002 1.09778 12.9821 3.95136 12.9821H13.077C14.3531 12.9821 15.4841 12.1454 15.8785 10.9096L18.6985 2.07252Z" fill="#F8E71C"/>
</g>
<defs>
<filter id="filter0_d_2_604" x="0" y="0" width="43" height="42" filterUnits="userSpaceOnUse" color-interpolation-filters="sRGB">
<feFlood flood-opacity="0" result="BackgroundImageFix"/>
<feColorMatrix in="SourceAlpha" type="matrix" values="0 0 0 0 0 0 0 0 0 0 0 0 0 0 0 0 0 0 127 0" result="hardAlpha"/>
<feOffset dy="1"/>
<feGaussianBlur stdDeviation="0.5"/>
<feComposite in2="hardAlpha" operator="out"/>
<feColorMatrix type="matrix" values="0 0 0 0 0 0 0 0 0 0.1169 0 0 0 0 0.4175 0 0 0 0.6 0"/>
<feBlend mode="normal" in2="BackgroundImageFix" result="effect1_dropShadow_2_604"/>
<feBlend mode="normal" in="SourceGraphic" in2="effect1_dropShadow_2_604" result="shape"/>
</filter>
</defs>
</svg>
