<svg width="163" height="83" viewBox="0 0 163 83" fill="none" xmlns="http://www.w3.org/2000/svg">
<g id="Buttons/Rect-Medium/PlayText/Default">
<g id="Button/Rect-Medium/Background">
<g id="Background" filter="url(#filter0_d_2_723)">
<mask id="path-1-outside-1_2_723" maskUnits="userSpaceOnUse" x="1" y="0" width="161" height="79" fill="black">
<rect fill="white" x="1" width="161" height="79"/>
<path d="M7 14C7 9.58172 10.5817 6 15 6H148C152.418 6 156 9.58172 156 14V65C156 69.4183 152.418 73 148 73H15C10.5817 73 7 69.4183 7 65V14Z"/>
</mask>
<path d="M7 14C7 9.58172 10.5817 6 15 6H148C152.418 6 156 9.58172 156 14V65C156 69.4183 152.418 73 148 73H15C10.5817 73 7 69.4183 7 65V14Z" fill="#519EE6"/>
<path d="M1 14C1 6.26801 7.26801 0 15 0H148C155.732 0 162 6.26801 162 14H150C150 12.8954 149.105 12 148 12H15C13.8954 12 13 12.8954 13 14H1ZM162 65C162 72.732 155.732 79 148 79H15C7.26801 79 1 72.732 1 65H13C13 66.1046 13.8954 67 15 67H148C149.105 67 150 66.1046 150 65H162ZM15 79C7.26801 79 1 72.732 1 65V14C1 6.26801 7.26801 0 15 0V12C13.8954 12 13 12.8954 13 14V65C13 66.1046 13.8954 67 15 67V79ZM148 0C155.732 0 162 6.26801 162 14V65C162 72.732 155.732 79 148 79V67C149.105 67 150 66.1046 150 65V14C150 12.8954 149.105 12 148 12V0Z" fill="#8FD7FF" mask="url(#path-1-outside-1_2_723)"/>
</g>
</g>
<g id="ButtonMediumText">
<text id="ButtonMediumText_2" fill="white" xml:space="preserve" style="white-space: pre" font-family="Ubuntu Titling" font-size="48" font-weight="bold" letter-spacing="0em"><tspan x="29.4844" y="55">PLAY</tspan></text>
</g>
</g>
<defs>
<filter id="filter0_d_2_723" x="0" y="0" width="163" height="81" filterUnits="userSpaceOnUse" color-interpolation-filters="sRGB">
<feFlood flood-opacity="0" result="BackgroundImageFix"/>
<feColorMatrix in="SourceAlpha" type="matrix" values="0 0 0 0 0 0 0 0 0 0 0 0 0 0 0 0 0 0 127 0" result="hardAlpha"/>
<feOffset dy="1"/>
<feGaussianBlur stdDeviation="0.5"/>
<feComposite in2="hardAlpha" operator="out"/>
<feColorMatrix type="matrix" values="0 0 0 0 0 0 0 0 0 0.1169 0 0 0 0 0.4175 0 0 0 0.6 0"/>
<feBlend mode="normal" in2="BackgroundImageFix" result="effect1_dropShadow_2_723"/>
<feBlend mode="normal" in="SourceGraphic" in2="effect1_dropShadow_2_723" result="shape"/>
</filter>
</defs>
</svg>
