<svg width="69" height="22" viewBox="0 0 69 22" fill="none" xmlns="http://www.w3.org/2000/svg">
<g filter="url(#filter0_d_2_589)">
<path d="M10.0651 1.03626C10.5167 -0.34542 12.4833 -0.34542 12.9349 1.03626L14.3793 5.4548C14.5813 6.07271 15.1606 6.49106 15.8142 6.49106H20.4883C21.9499 6.49106 22.5576 8.3501 21.3752 9.20403L17.5938 11.9348C17.0649 12.3167 16.8437 12.9936 17.0457 13.6115L18.49 18.0301C18.9417 19.4118 17.3507 20.5607 16.1683 19.7068L12.3868 16.976C11.858 16.5941 11.142 16.5941 10.6132 16.976L6.83174 19.7068C5.64929 20.5607 4.05832 19.4118 4.50997 18.0301L5.95435 13.6115C6.15633 12.9936 5.93506 12.3167 5.40625 11.9348L1.62483 9.20403C0.442382 8.3501 1.05008 6.49106 2.51167 6.49106H7.18576C7.8394 6.49106 8.41871 6.07271 8.62069 5.4548L10.0651 1.03626Z" fill="#3574BF"/>
</g>
<g filter="url(#filter1_d_2_589)">
<path d="M33.0651 1.03626C33.5167 -0.34542 35.4833 -0.34542 35.9349 1.03626L37.3793 5.4548C37.5813 6.07271 38.1606 6.49106 38.8142 6.49106H43.4883C44.9499 6.49106 45.5576 8.3501 44.3752 9.20403L40.5938 11.9348C40.0649 12.3167 39.8437 12.9936 40.0457 13.6115L41.49 18.0301C41.9417 19.4118 40.3507 20.5607 39.1683 19.7068L35.3868 16.976C34.858 16.5941 34.142 16.5941 33.6132 16.976L29.8317 19.7068C28.6493 20.5607 27.0583 19.4118 27.51 18.0301L28.9543 13.6115C29.1563 12.9936 28.9351 12.3167 28.4063 11.9348L24.6248 9.20403C23.4424 8.3501 24.0501 6.49106 25.5117 6.49106H30.1858C30.8394 6.49106 31.4187 6.07271 31.6207 5.4548L33.0651 1.03626Z" fill="#3574BF"/>
</g>
<g filter="url(#filter2_d_2_589)">
<path d="M56.0651 1.03626C56.5167 -0.34542 58.4833 -0.34542 58.9349 1.03626L60.3793 5.4548C60.5813 6.07271 61.1606 6.49106 61.8142 6.49106H66.4883C67.9499 6.49106 68.5576 8.3501 67.3752 9.20403L63.5938 11.9348C63.0649 12.3167 62.8437 12.9936 63.0457 13.6115L64.49 18.0301C64.9417 19.4118 63.3507 20.5607 62.1683 19.7068L58.3868 16.976C57.858 16.5941 57.142 16.5941 56.6132 16.976L52.8317 19.7068C51.6493 20.5607 50.0583 19.4118 50.51 18.0301L51.9543 13.6115C52.1563 12.9936 51.9351 12.3167 51.4063 11.9348L47.6248 9.20403C46.4424 8.3501 47.0501 6.49106 48.5117 6.49106H53.1858C53.8394 6.49106 54.4187 6.07271 54.6207 5.4548L56.0651 1.03626Z" fill="#3574BF"/>
</g>
<g filter="url(#filter3_d_2_589)">
<path d="M10.0651 1.03626C10.5167 -0.34542 12.4833 -0.34542 12.9349 1.03626L14.3793 5.4548C14.5813 6.07271 15.1606 6.49106 15.8142 6.49106H20.4883C21.9499 6.49106 22.5576 8.3501 21.3752 9.20403L17.5938 11.9348C17.0649 12.3167 16.8437 12.9936 17.0457 13.6115L18.49 18.0301C18.9417 19.4118 17.3507 20.5607 16.1683 19.7068L12.3868 16.976C11.858 16.5941 11.142 16.5941 10.6132 16.976L6.83174 19.7068C5.64929 20.5607 4.05832 19.4118 4.50997 18.0301L5.95435 13.6115C6.15633 12.9936 5.93506 12.3167 5.40625 11.9348L1.62483 9.20403C0.442382 8.3501 1.05008 6.49106 2.51167 6.49106H7.18576C7.8394 6.49106 8.41871 6.07271 8.62069 5.4548L10.0651 1.03626Z" fill="#F8E71C"/>
</g>
<g filter="url(#filter4_d_2_589)">
<path d="M33.0651 1.03626C33.5167 -0.34542 35.4833 -0.34542 35.9349 1.03626L37.3793 5.4548C37.5813 6.07271 38.1606 6.49106 38.8142 6.49106H43.4883C44.9499 6.49106 45.5576 8.3501 44.3752 9.20403L40.5938 11.9348C40.0649 12.3167 39.8437 12.9936 40.0457 13.6115L41.49 18.0301C41.9417 19.4118 40.3507 20.5607 39.1683 19.7068L35.3868 16.976C34.858 16.5941 34.142 16.5941 33.6132 16.976L29.8317 19.7068C28.6493 20.5607 27.0583 19.4118 27.51 18.0301L28.9543 13.6115C29.1563 12.9936 28.9351 12.3167 28.4063 11.9348L24.6248 9.20403C23.4424 8.3501 24.0501 6.49106 25.5117 6.49106H30.1858C30.8394 6.49106 31.4187 6.07271 31.6207 5.4548L33.0651 1.03626Z" fill="#F8E71C"/>
</g>
<defs>
<filter id="filter0_d_2_589" x="0" y="0" width="23" height="22" filterUnits="userSpaceOnUse" color-interpolation-filters="sRGB">
<feFlood flood-opacity="0" result="BackgroundImageFix"/>
<feColorMatrix in="SourceAlpha" type="matrix" values="0 0 0 0 0 0 0 0 0 0 0 0 0 0 0 0 0 0 127 0" result="hardAlpha"/>
<feOffset dy="1"/>
<feGaussianBlur stdDeviation="0.5"/>
<feComposite in2="hardAlpha" operator="out"/>
<feColorMatrix type="matrix" values="0 0 0 0 0 0 0 0 0 0.1169 0 0 0 0 0.4175 0 0 0 0.6 0"/>
<feBlend mode="normal" in2="BackgroundImageFix" result="effect1_dropShadow_2_589"/>
<feBlend mode="normal" in="SourceGraphic" in2="effect1_dropShadow_2_589" result="shape"/>
</filter>
<filter id="filter1_d_2_589" x="23" y="0" width="23" height="22" filterUnits="userSpaceOnUse" color-interpolation-filters="sRGB">
<feFlood flood-opacity="0" result="BackgroundImageFix"/>
<feColorMatrix in="SourceAlpha" type="matrix" values="0 0 0 0 0 0 0 0 0 0 0 0 0 0 0 0 0 0 127 0" result="hardAlpha"/>
<feOffset dy="1"/>
<feGaussianBlur stdDeviation="0.5"/>
<feComposite in2="hardAlpha" operator="out"/>
<feColorMatrix type="matrix" values="0 0 0 0 0 0 0 0 0 0.1169 0 0 0 0 0.4175 0 0 0 0.6 0"/>
<feBlend mode="normal" in2="BackgroundImageFix" result="effect1_dropShadow_2_589"/>
<feBlend mode="normal" in="SourceGraphic" in2="effect1_dropShadow_2_589" result="shape"/>
</filter>
<filter id="filter2_d_2_589" x="46" y="0" width="23" height="22" filterUnits="userSpaceOnUse" color-interpolation-filters="sRGB">
<feFlood flood-opacity="0" result="BackgroundImageFix"/>
<feColorMatrix in="SourceAlpha" type="matrix" values="0 0 0 0 0 0 0 0 0 0 0 0 0 0 0 0 0 0 127 0" result="hardAlpha"/>
<feOffset dy="1"/>
<feGaussianBlur stdDeviation="0.5"/>
<feComposite in2="hardAlpha" operator="out"/>
<feColorMatrix type="matrix" values="0 0 0 0 0 0 0 0 0 0.1169 0 0 0 0 0.4175 0 0 0 0.6 0"/>
<feBlend mode="normal" in2="BackgroundImageFix" result="effect1_dropShadow_2_589"/>
<feBlend mode="normal" in="SourceGraphic" in2="effect1_dropShadow_2_589" result="shape"/>
</filter>
<filter id="filter3_d_2_589" x="0" y="0" width="23" height="22" filterUnits="userSpaceOnUse" color-interpolation-filters="sRGB">
<feFlood flood-opacity="0" result="BackgroundImageFix"/>
<feColorMatrix in="SourceAlpha" type="matrix" values="0 0 0 0 0 0 0 0 0 0 0 0 0 0 0 0 0 0 127 0" result="hardAlpha"/>
<feOffset dy="1"/>
<feGaussianBlur stdDeviation="0.5"/>
<feComposite in2="hardAlpha" operator="out"/>
<feColorMatrix type="matrix" values="0 0 0 0 0 0 0 0 0 0.1169 0 0 0 0 0.4175 0 0 0 0.6 0"/>
<feBlend mode="normal" in2="BackgroundImageFix" result="effect1_dropShadow_2_589"/>
<feBlend mode="normal" in="SourceGraphic" in2="effect1_dropShadow_2_589" result="shape"/>
</filter>
<filter id="filter4_d_2_589" x="23" y="0" width="23" height="22" filterUnits="userSpaceOnUse" color-interpolation-filters="sRGB">
<feFlood flood-opacity="0" result="BackgroundImageFix"/>
<feColorMatrix in="SourceAlpha" type="matrix" values="0 0 0 0 0 0 0 0 0 0 0 0 0 0 0 0 0 0 127 0" result="hardAlpha"/>
<feOffset dy="1"/>
<feGaussianBlur stdDeviation="0.5"/>
<feComposite in2="hardAlpha" operator="out"/>
<feColorMatrix type="matrix" values="0 0 0 0 0 0 0 0 0 0.1169 0 0 0 0 0.4175 0 0 0 0.6 0"/>
<feBlend mode="normal" in2="BackgroundImageFix" result="effect1_dropShadow_2_589"/>
<feBlend mode="normal" in="SourceGraphic" in2="effect1_dropShadow_2_589" result="shape"/>
</filter>
</defs>
</svg>
