<svg width="447" height="382" viewBox="0 0 447 382" fill="none" xmlns="http://www.w3.org/2000/svg">
<rect x="50" y="50" width="143" height="24" rx="4" fill="#FED70A"/>
<path d="M59.0254 67V56.9785H62.7852C63.5508 56.9785 64.1637 57.0811 64.624 57.2861C65.0889 57.4867 65.4512 57.7988 65.7109 58.2227C65.9753 58.6419 66.1074 59.0817 66.1074 59.542C66.1074 59.9704 65.9912 60.3737 65.7588 60.752C65.5264 61.1302 65.1755 61.4355 64.7061 61.668C65.3122 61.8457 65.777 62.1488 66.1006 62.5771C66.4287 63.0055 66.5928 63.5114 66.5928 64.0947C66.5928 64.5641 66.4925 65.0016 66.292 65.4072C66.096 65.8083 65.8522 66.1182 65.5605 66.3369C65.2689 66.5557 64.902 66.722 64.46 66.8359C64.0225 66.9453 63.4847 67 62.8467 67H59.0254ZM60.3516 61.1895H62.5186C63.1064 61.1895 63.528 61.1507 63.7832 61.0732C64.1204 60.973 64.3734 60.8066 64.542 60.5742C64.7152 60.3418 64.8018 60.0501 64.8018 59.6992C64.8018 59.3665 64.722 59.0749 64.5625 58.8242C64.403 58.569 64.1751 58.3958 63.8789 58.3047C63.5827 58.209 63.0745 58.1611 62.3545 58.1611H60.3516V61.1895ZM60.3516 65.8174H62.8467C63.2751 65.8174 63.5758 65.8014 63.749 65.7695C64.0544 65.7148 64.3096 65.6237 64.5146 65.4961C64.7197 65.3685 64.8883 65.1839 65.0205 64.9424C65.1527 64.6963 65.2188 64.4137 65.2188 64.0947C65.2188 63.721 65.123 63.3975 64.9316 63.124C64.7402 62.846 64.4736 62.6523 64.1318 62.543C63.7946 62.429 63.307 62.3721 62.6689 62.3721H60.3516V65.8174ZM73.0186 67V65.9336C72.4535 66.7539 71.6855 67.1641 70.7148 67.1641C70.2865 67.1641 69.8854 67.082 69.5117 66.918C69.1426 66.7539 68.8669 66.5488 68.6846 66.3027C68.5068 66.0521 68.3815 65.7467 68.3086 65.3867C68.2585 65.1452 68.2334 64.7624 68.2334 64.2383V59.7402H69.4639V63.7666C69.4639 64.4092 69.4889 64.8421 69.5391 65.0654C69.6165 65.389 69.7806 65.6442 70.0312 65.8311C70.2819 66.0133 70.5918 66.1045 70.9609 66.1045C71.3301 66.1045 71.6764 66.0111 72 65.8242C72.3236 65.6328 72.5514 65.3753 72.6836 65.0518C72.8203 64.7236 72.8887 64.2497 72.8887 63.6299V59.7402H74.1191V67H73.0186ZM78.7402 65.8994L78.918 66.9863C78.5716 67.0592 78.2617 67.0957 77.9883 67.0957C77.5417 67.0957 77.1953 67.0251 76.9492 66.8838C76.7031 66.7425 76.5299 66.5579 76.4297 66.3301C76.3294 66.0977 76.2793 65.6123 76.2793 64.874V60.6973H75.377V59.7402H76.2793V57.9424L77.5029 57.2041V59.7402H78.7402V60.6973H77.5029V64.9424C77.5029 65.2933 77.5234 65.5189 77.5645 65.6191C77.61 65.7194 77.6807 65.7992 77.7764 65.8584C77.8766 65.9176 78.0179 65.9473 78.2002 65.9473C78.3369 65.9473 78.5169 65.9313 78.7402 65.8994ZM82.6367 65.8994L82.8145 66.9863C82.4681 67.0592 82.1582 67.0957 81.8848 67.0957C81.4382 67.0957 81.0918 67.0251 80.8457 66.8838C80.5996 66.7425 80.4264 66.5579 80.3262 66.3301C80.2259 66.0977 80.1758 65.6123 80.1758 64.874V60.6973H79.2734V59.7402H80.1758V57.9424L81.3994 57.2041V59.7402H82.6367V60.6973H81.3994V64.9424C81.3994 65.2933 81.4199 65.5189 81.4609 65.6191C81.5065 65.7194 81.5771 65.7992 81.6729 65.8584C81.7731 65.9176 81.9144 65.9473 82.0967 65.9473C82.2334 65.9473 82.4134 65.9313 82.6367 65.8994ZM83.3887 63.3701C83.3887 62.0257 83.7624 61.0299 84.5098 60.3828C85.1341 59.8451 85.8952 59.5762 86.793 59.5762C87.791 59.5762 88.6068 59.9043 89.2402 60.5605C89.8737 61.2122 90.1904 62.1146 90.1904 63.2676C90.1904 64.2018 90.0492 64.9378 89.7666 65.4756C89.4886 66.0088 89.0807 66.4235 88.543 66.7197C88.0098 67.016 87.4264 67.1641 86.793 67.1641C85.7767 67.1641 84.9541 66.8382 84.3252 66.1865C83.7008 65.5348 83.3887 64.596 83.3887 63.3701ZM84.6533 63.3701C84.6533 64.2998 84.8561 64.9971 85.2617 65.4619C85.6673 65.9222 86.1777 66.1523 86.793 66.1523C87.4036 66.1523 87.9118 65.9199 88.3174 65.4551C88.723 64.9902 88.9258 64.2816 88.9258 63.3291C88.9258 62.4313 88.7207 61.7523 88.3105 61.292C87.9049 60.8271 87.3991 60.5947 86.793 60.5947C86.1777 60.5947 85.6673 60.8249 85.2617 61.2852C84.8561 61.7454 84.6533 62.4404 84.6533 63.3701ZM91.6396 67V59.7402H92.7471V60.7725C93.2803 59.9749 94.0505 59.5762 95.0576 59.5762C95.4951 59.5762 95.8962 59.6559 96.2607 59.8154C96.6299 59.9704 96.9056 60.1755 97.0879 60.4307C97.2702 60.6859 97.3978 60.9889 97.4707 61.3398C97.5163 61.5677 97.5391 61.9665 97.5391 62.5361V67H96.3086V62.584C96.3086 62.0827 96.2607 61.709 96.165 61.4629C96.0693 61.2122 95.8984 61.014 95.6523 60.8682C95.4108 60.7178 95.126 60.6426 94.7979 60.6426C94.2738 60.6426 93.8203 60.8089 93.4375 61.1416C93.0592 61.4743 92.8701 62.1055 92.8701 63.0352V67H91.6396ZM98.5098 67.1709L101.415 56.8076H102.399L99.501 67.1709H98.5098ZM103.507 67V56.9785H107.95C108.843 56.9785 109.522 57.0697 109.987 57.252C110.452 57.4297 110.824 57.7464 111.102 58.2021C111.38 58.6579 111.519 59.1615 111.519 59.7129C111.519 60.4238 111.288 61.0231 110.828 61.5107C110.368 61.9984 109.657 62.3083 108.695 62.4404C109.046 62.609 109.313 62.7754 109.495 62.9395C109.882 63.2949 110.249 63.7393 110.596 64.2725L112.339 67H110.671L109.345 64.915C108.957 64.3135 108.638 63.8532 108.388 63.5342C108.137 63.2152 107.911 62.9919 107.711 62.8643C107.515 62.7367 107.314 62.6478 107.109 62.5977C106.959 62.5658 106.713 62.5498 106.371 62.5498H104.833V67H103.507ZM104.833 61.4014H107.684C108.29 61.4014 108.764 61.3398 109.105 61.2168C109.447 61.0892 109.707 60.8887 109.885 60.6152C110.062 60.3372 110.151 60.0365 110.151 59.7129C110.151 59.2389 109.978 58.8493 109.632 58.5439C109.29 58.2386 108.748 58.0859 108.005 58.0859H104.833V61.4014ZM118.416 64.6621L119.688 64.8193C119.487 65.5622 119.116 66.1387 118.573 66.5488C118.031 66.959 117.338 67.1641 116.495 67.1641C115.433 67.1641 114.59 66.8382 113.966 66.1865C113.346 65.5303 113.036 64.612 113.036 63.4316C113.036 62.2103 113.351 61.2624 113.979 60.5879C114.608 59.9134 115.424 59.5762 116.427 59.5762C117.397 59.5762 118.19 59.9066 118.806 60.5674C119.421 61.2282 119.729 62.1579 119.729 63.3564C119.729 63.4294 119.726 63.5387 119.722 63.6846H114.308C114.353 64.4821 114.579 65.0928 114.984 65.5166C115.39 65.9404 115.896 66.1523 116.502 66.1523C116.953 66.1523 117.338 66.0339 117.657 65.7969C117.976 65.5599 118.229 65.1816 118.416 64.6621ZM114.376 62.6729H118.43C118.375 62.0622 118.22 61.6042 117.965 61.2988C117.573 60.8249 117.065 60.5879 116.44 60.5879C115.875 60.5879 115.399 60.777 115.012 61.1553C114.629 61.5335 114.417 62.0394 114.376 62.6729ZM125.977 64.3408L127.187 64.498C127.054 65.332 126.715 65.986 126.168 66.46C125.626 66.9294 124.958 67.1641 124.165 67.1641C123.172 67.1641 122.372 66.8405 121.766 66.1934C121.164 65.5417 120.863 64.6097 120.863 63.3975C120.863 62.6136 120.993 61.9277 121.253 61.3398C121.513 60.752 121.907 60.3122 122.436 60.0205C122.969 59.7243 123.548 59.5762 124.172 59.5762C124.96 59.5762 125.605 59.7767 126.106 60.1777C126.608 60.5742 126.929 61.1393 127.07 61.873L125.874 62.0576C125.76 61.57 125.557 61.2031 125.266 60.957C124.979 60.7109 124.63 60.5879 124.22 60.5879C123.6 60.5879 123.096 60.8112 122.709 61.2578C122.322 61.6999 122.128 62.4017 122.128 63.3633C122.128 64.3385 122.315 65.0472 122.688 65.4893C123.062 65.9313 123.55 66.1523 124.151 66.1523C124.634 66.1523 125.038 66.0042 125.361 65.708C125.685 65.4118 125.89 64.9561 125.977 64.3408ZM130.926 65.8994L131.104 66.9863C130.757 67.0592 130.447 67.0957 130.174 67.0957C129.727 67.0957 129.381 67.0251 129.135 66.8838C128.889 66.7425 128.715 66.5579 128.615 66.3301C128.515 66.0977 128.465 65.6123 128.465 64.874V60.6973H127.562V59.7402H128.465V57.9424L129.688 57.2041V59.7402H130.926V60.6973H129.688V64.9424C129.688 65.2933 129.709 65.5189 129.75 65.6191C129.796 65.7194 129.866 65.7992 129.962 65.8584C130.062 65.9176 130.203 65.9473 130.386 65.9473C130.522 65.9473 130.702 65.9313 130.926 65.8994ZM131.213 67.1709L134.118 56.8076H135.103L132.204 67.1709H131.213ZM136.148 67V56.9785H138.145L140.517 64.0742C140.735 64.735 140.895 65.2295 140.995 65.5576C141.109 65.193 141.287 64.6576 141.528 63.9512L143.928 56.9785H145.712V67H144.434V58.6123L141.521 67H140.325L137.427 58.4688V67H136.148ZM152.664 64.6621L153.936 64.8193C153.735 65.5622 153.364 66.1387 152.821 66.5488C152.279 66.959 151.586 67.1641 150.743 67.1641C149.681 67.1641 148.838 66.8382 148.214 66.1865C147.594 65.5303 147.284 64.612 147.284 63.4316C147.284 62.2103 147.599 61.2624 148.228 60.5879C148.856 59.9134 149.672 59.5762 150.675 59.5762C151.646 59.5762 152.438 59.9066 153.054 60.5674C153.669 61.2282 153.977 62.1579 153.977 63.3564C153.977 63.4294 153.974 63.5387 153.97 63.6846H148.556C148.601 64.4821 148.827 65.0928 149.232 65.5166C149.638 65.9404 150.144 66.1523 150.75 66.1523C151.201 66.1523 151.586 66.0339 151.905 65.7969C152.224 65.5599 152.477 65.1816 152.664 64.6621ZM148.624 62.6729H152.678C152.623 62.0622 152.468 61.6042 152.213 61.2988C151.821 60.8249 151.313 60.5879 150.688 60.5879C150.123 60.5879 149.647 60.777 149.26 61.1553C148.877 61.5335 148.665 62.0394 148.624 62.6729ZM160.197 67V66.084C159.737 66.804 159.06 67.1641 158.167 67.1641C157.588 67.1641 157.055 67.0046 156.567 66.6855C156.084 66.3665 155.708 65.9222 155.439 65.3525C155.175 64.7783 155.043 64.1198 155.043 63.377C155.043 62.6523 155.164 61.9961 155.405 61.4082C155.647 60.8158 156.009 60.3623 156.492 60.0479C156.975 59.7334 157.515 59.5762 158.112 59.5762C158.55 59.5762 158.939 59.6696 159.281 59.8564C159.623 60.0387 159.901 60.278 160.115 60.5742V56.9785H161.339V67H160.197ZM156.308 63.377C156.308 64.3066 156.504 65.0016 156.896 65.4619C157.287 65.9222 157.75 66.1523 158.283 66.1523C158.821 66.1523 159.277 65.9336 159.65 65.4961C160.029 65.054 160.218 64.3818 160.218 63.4795C160.218 62.486 160.026 61.7568 159.644 61.292C159.261 60.8271 158.789 60.5947 158.229 60.5947C157.682 60.5947 157.224 60.818 156.854 61.2646C156.49 61.7113 156.308 62.4154 156.308 63.377ZM163.287 58.3936V56.9785H164.518V58.3936H163.287ZM163.287 67V59.7402H164.518V67H163.287ZM171.155 67V65.9336C170.59 66.7539 169.822 67.1641 168.852 67.1641C168.423 67.1641 168.022 67.082 167.648 66.918C167.279 66.7539 167.004 66.5488 166.821 66.3027C166.644 66.0521 166.518 65.7467 166.445 65.3867C166.395 65.1452 166.37 64.7624 166.37 64.2383V59.7402H167.601V63.7666C167.601 64.4092 167.626 64.8421 167.676 65.0654C167.753 65.389 167.917 65.6442 168.168 65.8311C168.419 66.0133 168.729 66.1045 169.098 66.1045C169.467 66.1045 169.813 66.0111 170.137 65.8242C170.46 65.6328 170.688 65.3753 170.82 65.0518C170.957 64.7236 171.025 64.2497 171.025 63.6299V59.7402H172.256V67H171.155ZM174.19 67V59.7402H175.291V60.7588C175.519 60.4033 175.822 60.1185 176.2 59.9043C176.578 59.6855 177.009 59.5762 177.492 59.5762C178.03 59.5762 178.47 59.6878 178.812 59.9111C179.158 60.1344 179.402 60.4466 179.543 60.8477C180.117 60 180.865 59.5762 181.785 59.5762C182.505 59.5762 183.059 59.7767 183.446 60.1777C183.834 60.5742 184.027 61.1872 184.027 62.0166V67H182.804V62.4268C182.804 61.9346 182.763 61.5814 182.681 61.3672C182.603 61.1484 182.46 60.973 182.25 60.8408C182.04 60.7087 181.794 60.6426 181.512 60.6426C181.001 60.6426 180.577 60.8135 180.24 61.1553C179.903 61.4925 179.734 62.0348 179.734 62.7822V67H178.504V62.2832C178.504 61.7363 178.404 61.3262 178.203 61.0527C178.003 60.7793 177.674 60.6426 177.219 60.6426C176.872 60.6426 176.551 60.7337 176.255 60.916C175.963 61.0983 175.751 61.3649 175.619 61.7158C175.487 62.0667 175.421 62.5726 175.421 63.2334V67H174.19Z" fill="#212121"/>
<g filter="url(#filter0_d_2_743)">
<mask id="path-3-outside-1_2_743" maskUnits="userSpaceOnUse" x="50" y="99" width="161" height="79" fill="black">
<rect fill="white" x="50" y="99" width="161" height="79"/>
<path d="M56 113C56 108.582 59.5817 105 64 105H197C201.418 105 205 108.582 205 113V164C205 168.418 201.418 172 197 172H64C59.5817 172 56 168.418 56 164V113Z"/>
</mask>
<path d="M56 113C56 108.582 59.5817 105 64 105H197C201.418 105 205 108.582 205 113V164C205 168.418 201.418 172 197 172H64C59.5817 172 56 168.418 56 164V113Z" fill="#519EE6"/>
<path d="M50 113C50 105.268 56.268 99 64 99H197C204.732 99 211 105.268 211 113H199C199 111.895 198.105 111 197 111H64C62.8954 111 62 111.895 62 113H50ZM211 164C211 171.732 204.732 178 197 178H64C56.268 178 50 171.732 50 164H62C62 165.105 62.8954 166 64 166H197C198.105 166 199 165.105 199 164H211ZM64 178C56.268 178 50 171.732 50 164V113C50 105.268 56.268 99 64 99V111C62.8954 111 62 111.895 62 113V164C62 165.105 62.8954 166 64 166V178ZM197 99C204.732 99 211 105.268 211 113V164C211 171.732 204.732 178 197 178V166C198.105 166 199 165.105 199 164V113C199 111.895 198.105 111 197 111V99Z" fill="#8FD7FF" mask="url(#path-3-outside-1_2_743)"/>
</g>
<g filter="url(#filter1_i_2_743)">
<g filter="url(#filter2_d_2_743)">
<mask id="path-5-outside-2_2_743" maskUnits="userSpaceOnUse" x="236" y="99" width="161" height="79" fill="black">
<rect fill="white" x="236" y="99" width="161" height="79"/>
<path d="M242 113C242 108.582 245.582 105 250 105H383C387.418 105 391 108.582 391 113V164C391 168.418 387.418 172 383 172H250C245.582 172 242 168.418 242 164V113Z"/>
</mask>
<path d="M242 113C242 108.582 245.582 105 250 105H383C387.418 105 391 108.582 391 113V164C391 168.418 387.418 172 383 172H250C245.582 172 242 168.418 242 164V113Z" fill="#519EE6"/>
<path d="M236 113C236 105.268 242.268 99 250 99H383C390.732 99 397 105.268 397 113H385C385 111.895 384.105 111 383 111H250C248.895 111 248 111.895 248 113H236ZM397 164C397 171.732 390.732 178 383 178H250C242.268 178 236 171.732 236 164H248C248 165.105 248.895 166 250 166H383C384.105 166 385 165.105 385 164H397ZM250 178C242.268 178 236 171.732 236 164V113C236 105.268 242.268 99 250 99V111C248.895 111 248 111.895 248 113V164C248 165.105 248.895 166 250 166V178ZM383 99C390.732 99 397 105.268 397 113V164C397 171.732 390.732 178 383 178V166C384.105 166 385 165.105 385 164V113C385 111.895 384.105 111 383 111V99Z" fill="white" mask="url(#path-5-outside-2_2_743)"/>
</g>
</g>
<rect x="50" y="203" width="106" height="24" rx="4" fill="#FED70A"/>
<path d="M59.0254 220V209.979H62.7852C63.5508 209.979 64.1637 210.081 64.624 210.286C65.0889 210.487 65.4512 210.799 65.7109 211.223C65.9753 211.642 66.1074 212.082 66.1074 212.542C66.1074 212.97 65.9912 213.374 65.7588 213.752C65.5264 214.13 65.1755 214.436 64.7061 214.668C65.3122 214.846 65.777 215.149 66.1006 215.577C66.4287 216.006 66.5928 216.511 66.5928 217.095C66.5928 217.564 66.4925 218.002 66.292 218.407C66.096 218.808 65.8522 219.118 65.5605 219.337C65.2689 219.556 64.902 219.722 64.46 219.836C64.0225 219.945 63.4847 220 62.8467 220H59.0254ZM60.3516 214.189H62.5186C63.1064 214.189 63.528 214.151 63.7832 214.073C64.1204 213.973 64.3734 213.807 64.542 213.574C64.7152 213.342 64.8018 213.05 64.8018 212.699C64.8018 212.367 64.722 212.075 64.5625 211.824C64.403 211.569 64.1751 211.396 63.8789 211.305C63.5827 211.209 63.0745 211.161 62.3545 211.161H60.3516V214.189ZM60.3516 218.817H62.8467C63.2751 218.817 63.5758 218.801 63.749 218.77C64.0544 218.715 64.3096 218.624 64.5146 218.496C64.7197 218.368 64.8883 218.184 65.0205 217.942C65.1527 217.696 65.2188 217.414 65.2188 217.095C65.2188 216.721 65.123 216.397 64.9316 216.124C64.7402 215.846 64.4736 215.652 64.1318 215.543C63.7946 215.429 63.307 215.372 62.6689 215.372H60.3516V218.817ZM73.0186 220V218.934C72.4535 219.754 71.6855 220.164 70.7148 220.164C70.2865 220.164 69.8854 220.082 69.5117 219.918C69.1426 219.754 68.8669 219.549 68.6846 219.303C68.5068 219.052 68.3815 218.747 68.3086 218.387C68.2585 218.145 68.2334 217.762 68.2334 217.238V212.74H69.4639V216.767C69.4639 217.409 69.4889 217.842 69.5391 218.065C69.6165 218.389 69.7806 218.644 70.0312 218.831C70.2819 219.013 70.5918 219.104 70.9609 219.104C71.3301 219.104 71.6764 219.011 72 218.824C72.3236 218.633 72.5514 218.375 72.6836 218.052C72.8203 217.724 72.8887 217.25 72.8887 216.63V212.74H74.1191V220H73.0186ZM78.7402 218.899L78.918 219.986C78.5716 220.059 78.2617 220.096 77.9883 220.096C77.5417 220.096 77.1953 220.025 76.9492 219.884C76.7031 219.743 76.5299 219.558 76.4297 219.33C76.3294 219.098 76.2793 218.612 76.2793 217.874V213.697H75.377V212.74H76.2793V210.942L77.5029 210.204V212.74H78.7402V213.697H77.5029V217.942C77.5029 218.293 77.5234 218.519 77.5645 218.619C77.61 218.719 77.6807 218.799 77.7764 218.858C77.8766 218.918 78.0179 218.947 78.2002 218.947C78.3369 218.947 78.5169 218.931 78.7402 218.899ZM82.6367 218.899L82.8145 219.986C82.4681 220.059 82.1582 220.096 81.8848 220.096C81.4382 220.096 81.0918 220.025 80.8457 219.884C80.5996 219.743 80.4264 219.558 80.3262 219.33C80.2259 219.098 80.1758 218.612 80.1758 217.874V213.697H79.2734V212.74H80.1758V210.942L81.3994 210.204V212.74H82.6367V213.697H81.3994V217.942C81.3994 218.293 81.4199 218.519 81.4609 218.619C81.5065 218.719 81.5771 218.799 81.6729 218.858C81.7731 218.918 81.9144 218.947 82.0967 218.947C82.2334 218.947 82.4134 218.931 82.6367 218.899ZM83.3887 216.37C83.3887 215.026 83.7624 214.03 84.5098 213.383C85.1341 212.845 85.8952 212.576 86.793 212.576C87.791 212.576 88.6068 212.904 89.2402 213.561C89.8737 214.212 90.1904 215.115 90.1904 216.268C90.1904 217.202 90.0492 217.938 89.7666 218.476C89.4886 219.009 89.0807 219.424 88.543 219.72C88.0098 220.016 87.4264 220.164 86.793 220.164C85.7767 220.164 84.9541 219.838 84.3252 219.187C83.7008 218.535 83.3887 217.596 83.3887 216.37ZM84.6533 216.37C84.6533 217.3 84.8561 217.997 85.2617 218.462C85.6673 218.922 86.1777 219.152 86.793 219.152C87.4036 219.152 87.9118 218.92 88.3174 218.455C88.723 217.99 88.9258 217.282 88.9258 216.329C88.9258 215.431 88.7207 214.752 88.3105 214.292C87.9049 213.827 87.3991 213.595 86.793 213.595C86.1777 213.595 85.6673 213.825 85.2617 214.285C84.8561 214.745 84.6533 215.44 84.6533 216.37ZM91.6396 220V212.74H92.7471V213.772C93.2803 212.975 94.0505 212.576 95.0576 212.576C95.4951 212.576 95.8962 212.656 96.2607 212.815C96.6299 212.97 96.9056 213.175 97.0879 213.431C97.2702 213.686 97.3978 213.989 97.4707 214.34C97.5163 214.568 97.5391 214.966 97.5391 215.536V220H96.3086V215.584C96.3086 215.083 96.2607 214.709 96.165 214.463C96.0693 214.212 95.8984 214.014 95.6523 213.868C95.4108 213.718 95.126 213.643 94.7979 213.643C94.2738 213.643 93.8203 213.809 93.4375 214.142C93.0592 214.474 92.8701 215.105 92.8701 216.035V220H91.6396ZM98.5098 220.171L101.415 209.808H102.399L99.501 220.171H98.5098ZM103.035 216.78L104.286 216.671C104.345 217.172 104.482 217.585 104.696 217.908C104.915 218.227 105.252 218.487 105.708 218.688C106.164 218.883 106.676 218.981 107.246 218.981C107.752 218.981 108.199 218.906 108.586 218.756C108.973 218.605 109.26 218.4 109.447 218.141C109.639 217.876 109.734 217.589 109.734 217.279C109.734 216.965 109.643 216.691 109.461 216.459C109.279 216.222 108.978 216.024 108.559 215.864C108.29 215.759 107.695 215.598 106.774 215.379C105.854 215.156 105.209 214.946 104.84 214.75C104.361 214.499 104.004 214.189 103.767 213.82C103.534 213.447 103.418 213.03 103.418 212.569C103.418 212.063 103.562 211.592 103.849 211.154C104.136 210.712 104.555 210.377 105.106 210.149C105.658 209.922 106.271 209.808 106.945 209.808C107.688 209.808 108.342 209.928 108.907 210.17C109.477 210.407 109.914 210.758 110.22 211.223C110.525 211.688 110.689 212.214 110.712 212.802L109.44 212.897C109.372 212.264 109.14 211.785 108.743 211.462C108.351 211.138 107.77 210.977 107 210.977C106.198 210.977 105.612 211.125 105.243 211.421C104.879 211.713 104.696 212.066 104.696 212.48C104.696 212.84 104.826 213.137 105.086 213.369C105.341 213.602 106.007 213.841 107.082 214.087C108.162 214.328 108.903 214.54 109.304 214.723C109.887 214.992 110.318 215.333 110.596 215.748C110.874 216.158 111.013 216.632 111.013 217.17C111.013 217.703 110.86 218.207 110.555 218.681C110.249 219.15 109.81 219.517 109.235 219.781C108.666 220.041 108.023 220.171 107.308 220.171C106.401 220.171 105.64 220.039 105.024 219.774C104.414 219.51 103.933 219.114 103.582 218.585C103.236 218.052 103.053 217.45 103.035 216.78ZM117.295 222.782V219.228C117.104 219.496 116.835 219.72 116.488 219.897C116.146 220.075 115.782 220.164 115.395 220.164C114.533 220.164 113.79 219.82 113.166 219.132C112.546 218.444 112.236 217.5 112.236 216.302C112.236 215.573 112.362 214.919 112.612 214.34C112.868 213.761 113.234 213.324 113.713 213.027C114.196 212.727 114.725 212.576 115.299 212.576C116.197 212.576 116.903 212.954 117.418 213.711V212.74H118.525V222.782H117.295ZM113.501 216.35C113.501 217.284 113.697 217.986 114.089 218.455C114.481 218.92 114.95 219.152 115.497 219.152C116.021 219.152 116.472 218.931 116.851 218.489C117.229 218.043 117.418 217.366 117.418 216.459C117.418 215.493 117.217 214.766 116.816 214.278C116.42 213.791 115.953 213.547 115.415 213.547C114.882 213.547 114.428 213.775 114.055 214.23C113.686 214.682 113.501 215.388 113.501 216.35ZM125.218 220V218.934C124.653 219.754 123.885 220.164 122.914 220.164C122.486 220.164 122.085 220.082 121.711 219.918C121.342 219.754 121.066 219.549 120.884 219.303C120.706 219.052 120.581 218.747 120.508 218.387C120.458 218.145 120.433 217.762 120.433 217.238V212.74H121.663V216.767C121.663 217.409 121.688 217.842 121.738 218.065C121.816 218.389 121.98 218.644 122.23 218.831C122.481 219.013 122.791 219.104 123.16 219.104C123.529 219.104 123.876 219.011 124.199 218.824C124.523 218.633 124.751 218.375 124.883 218.052C125.02 217.724 125.088 217.25 125.088 216.63V212.74H126.318V220H125.218ZM132.99 219.104C132.535 219.492 132.095 219.765 131.671 219.925C131.252 220.084 130.8 220.164 130.317 220.164C129.52 220.164 128.907 219.97 128.479 219.583C128.05 219.191 127.836 218.692 127.836 218.086C127.836 217.73 127.916 217.407 128.075 217.115C128.239 216.819 128.451 216.582 128.711 216.404C128.975 216.227 129.271 216.092 129.6 216.001C129.841 215.937 130.206 215.876 130.693 215.816C131.687 215.698 132.418 215.557 132.888 215.393C132.892 215.224 132.895 215.117 132.895 215.071C132.895 214.57 132.778 214.217 132.546 214.012C132.231 213.734 131.764 213.595 131.145 213.595C130.566 213.595 130.137 213.697 129.859 213.902C129.586 214.103 129.383 214.461 129.251 214.976L128.048 214.812C128.157 214.297 128.337 213.882 128.588 213.567C128.839 213.248 129.201 213.005 129.675 212.836C130.149 212.663 130.698 212.576 131.322 212.576C131.942 212.576 132.446 212.649 132.833 212.795C133.22 212.941 133.505 213.125 133.688 213.349C133.87 213.567 133.997 213.845 134.07 214.183C134.111 214.392 134.132 214.771 134.132 215.317V216.958C134.132 218.102 134.157 218.826 134.207 219.132C134.262 219.433 134.367 219.722 134.521 220H133.236C133.109 219.745 133.027 219.446 132.99 219.104ZM132.888 216.356C132.441 216.539 131.771 216.694 130.878 216.821C130.372 216.894 130.014 216.976 129.805 217.067C129.595 217.159 129.433 217.293 129.319 217.471C129.205 217.644 129.148 217.838 129.148 218.052C129.148 218.38 129.271 218.653 129.518 218.872C129.768 219.091 130.133 219.2 130.611 219.2C131.085 219.2 131.507 219.098 131.876 218.893C132.245 218.683 132.516 218.398 132.689 218.038C132.822 217.76 132.888 217.35 132.888 216.808V216.356ZM136.032 220V212.74H137.14V213.841C137.422 213.326 137.682 212.986 137.919 212.822C138.16 212.658 138.425 212.576 138.712 212.576C139.127 212.576 139.548 212.708 139.977 212.973L139.553 214.114C139.252 213.937 138.951 213.848 138.65 213.848C138.382 213.848 138.14 213.93 137.926 214.094C137.712 214.253 137.559 214.477 137.468 214.764C137.331 215.201 137.263 215.68 137.263 216.199V220H136.032ZM145.678 217.662L146.949 217.819C146.749 218.562 146.377 219.139 145.835 219.549C145.293 219.959 144.6 220.164 143.757 220.164C142.695 220.164 141.852 219.838 141.228 219.187C140.608 218.53 140.298 217.612 140.298 216.432C140.298 215.21 140.612 214.262 141.241 213.588C141.87 212.913 142.686 212.576 143.688 212.576C144.659 212.576 145.452 212.907 146.067 213.567C146.683 214.228 146.99 215.158 146.99 216.356C146.99 216.429 146.988 216.539 146.983 216.685H141.569C141.615 217.482 141.84 218.093 142.246 218.517C142.652 218.94 143.158 219.152 143.764 219.152C144.215 219.152 144.6 219.034 144.919 218.797C145.238 218.56 145.491 218.182 145.678 217.662ZM141.638 215.673H145.691C145.637 215.062 145.482 214.604 145.227 214.299C144.835 213.825 144.326 213.588 143.702 213.588C143.137 213.588 142.661 213.777 142.273 214.155C141.891 214.534 141.679 215.039 141.638 215.673Z" fill="#212121"/>
<g filter="url(#filter3_d_2_743)">
<mask id="path-9-outside-3_2_743" maskUnits="userSpaceOnUse" x="50" y="252" width="79" height="80" fill="black">
<rect fill="white" x="50" y="252" width="79" height="80"/>
<path d="M55 266C55 261.582 58.5817 258 63 258H116C120.418 258 124 261.582 124 266V318C124 322.418 120.418 326 116 326H63C58.5817 326 55 322.418 55 318V266Z"/>
</mask>
<path d="M55 266C55 261.582 58.5817 258 63 258H116C120.418 258 124 261.582 124 266V318C124 322.418 120.418 326 116 326H63C58.5817 326 55 322.418 55 318V266Z" fill="#519EE6"/>
<path d="M50 265C50 257.82 55.8203 252 63 252H116C123.18 252 129 257.82 129 265L119 266C119 264.895 117.657 264 116 264H63C61.3431 264 60 264.895 60 266L50 265ZM129 319C129 326.18 123.18 332 116 332H63C55.8203 332 50 326.18 50 319L60 318C60 319.105 61.3431 320 63 320H116C117.657 320 119 319.105 119 318L129 319ZM63 332C55.8203 332 50 326.18 50 319V265C50 257.82 55.8203 252 63 252V264C61.3431 264 60 264.895 60 266V318C60 319.105 61.3431 320 63 320V332ZM116 252C123.18 252 129 257.82 129 265V319C129 326.18 123.18 332 116 332V320C117.657 320 119 319.105 119 318V266C119 264.895 117.657 264 116 264V252Z" fill="#8FD7FF" mask="url(#path-9-outside-3_2_743)"/>
</g>
<g filter="url(#filter4_i_2_743)">
<g filter="url(#filter5_d_2_743)">
<mask id="path-11-outside-4_2_743" maskUnits="userSpaceOnUse" x="154" y="252" width="79" height="80" fill="black">
<rect fill="white" x="154" y="252" width="79" height="80"/>
<path d="M159 266C159 261.582 162.582 258 167 258H220C224.418 258 228 261.582 228 266V318C228 322.418 224.418 326 220 326H167C162.582 326 159 322.418 159 318V266Z"/>
</mask>
<path d="M159 266C159 261.582 162.582 258 167 258H220C224.418 258 228 261.582 228 266V318C228 322.418 224.418 326 220 326H167C162.582 326 159 322.418 159 318V266Z" fill="#519EE6"/>
<path d="M154 265C154 257.82 159.82 252 167 252H220C227.18 252 233 257.82 233 265L223 266C223 264.895 221.657 264 220 264H167C165.343 264 164 264.895 164 266L154 265ZM233 319C233 326.18 227.18 332 220 332H167C159.82 332 154 326.18 154 319L164 318C164 319.105 165.343 320 167 320H220C221.657 320 223 319.105 223 318L233 319ZM167 332C159.82 332 154 326.18 154 319V265C154 257.82 159.82 252 167 252V264C165.343 264 164 264.895 164 266V318C164 319.105 165.343 320 167 320V332ZM220 252C227.18 252 233 257.82 233 265V319C233 326.18 227.18 332 220 332V320C221.657 320 223 319.105 223 318V266C223 264.895 221.657 264 220 264V252Z" fill="white" mask="url(#path-11-outside-4_2_743)"/>
</g>
</g>
<defs>
<filter id="filter0_d_2_743" x="49" y="99" width="163" height="81" filterUnits="userSpaceOnUse" color-interpolation-filters="sRGB">
<feFlood flood-opacity="0" result="BackgroundImageFix"/>
<feColorMatrix in="SourceAlpha" type="matrix" values="0 0 0 0 0 0 0 0 0 0 0 0 0 0 0 0 0 0 127 0" result="hardAlpha"/>
<feOffset dy="1"/>
<feGaussianBlur stdDeviation="0.5"/>
<feComposite in2="hardAlpha" operator="out"/>
<feColorMatrix type="matrix" values="0 0 0 0 0 0 0 0 0 0.1169 0 0 0 0 0.4175 0 0 0 0.6 0"/>
<feBlend mode="normal" in2="BackgroundImageFix" result="effect1_dropShadow_2_743"/>
<feBlend mode="normal" in="SourceGraphic" in2="effect1_dropShadow_2_743" result="shape"/>
</filter>
<filter id="filter1_i_2_743" x="236" y="99" width="161" height="79" filterUnits="userSpaceOnUse" color-interpolation-filters="sRGB">
<feFlood flood-opacity="0" result="BackgroundImageFix"/>
<feBlend mode="normal" in="SourceGraphic" in2="BackgroundImageFix" result="shape"/>
<feColorMatrix in="SourceAlpha" type="matrix" values="0 0 0 0 0 0 0 0 0 0 0 0 0 0 0 0 0 0 127 0" result="hardAlpha"/>
<feOffset/>
<feGaussianBlur stdDeviation="2.5"/>
<feComposite in2="hardAlpha" operator="arithmetic" k2="-1" k3="1"/>
<feColorMatrix type="matrix" values="0 0 0 0 0.290196 0 0 0 0 0.564706 0 0 0 0 0.886275 0 0 0 1 0"/>
<feBlend mode="normal" in2="shape" result="effect1_innerShadow_2_743"/>
</filter>
<filter id="filter2_d_2_743" x="235" y="99" width="163" height="81" filterUnits="userSpaceOnUse" color-interpolation-filters="sRGB">
<feFlood flood-opacity="0" result="BackgroundImageFix"/>
<feColorMatrix in="SourceAlpha" type="matrix" values="0 0 0 0 0 0 0 0 0 0 0 0 0 0 0 0 0 0 127 0" result="hardAlpha"/>
<feOffset dy="1"/>
<feGaussianBlur stdDeviation="0.5"/>
<feComposite in2="hardAlpha" operator="out"/>
<feColorMatrix type="matrix" values="0 0 0 0 0 0 0 0 0 0.1169 0 0 0 0 0.4175 0 0 0 0.6 0"/>
<feBlend mode="normal" in2="BackgroundImageFix" result="effect1_dropShadow_2_743"/>
<feBlend mode="normal" in="SourceGraphic" in2="effect1_dropShadow_2_743" result="shape"/>
</filter>
<filter id="filter3_d_2_743" x="49" y="252" width="81" height="82" filterUnits="userSpaceOnUse" color-interpolation-filters="sRGB">
<feFlood flood-opacity="0" result="BackgroundImageFix"/>
<feColorMatrix in="SourceAlpha" type="matrix" values="0 0 0 0 0 0 0 0 0 0 0 0 0 0 0 0 0 0 127 0" result="hardAlpha"/>
<feOffset dy="1"/>
<feGaussianBlur stdDeviation="0.5"/>
<feComposite in2="hardAlpha" operator="out"/>
<feColorMatrix type="matrix" values="0 0 0 0 0 0 0 0 0 0.1169 0 0 0 0 0.4175 0 0 0 0.6 0"/>
<feBlend mode="normal" in2="BackgroundImageFix" result="effect1_dropShadow_2_743"/>
<feBlend mode="normal" in="SourceGraphic" in2="effect1_dropShadow_2_743" result="shape"/>
</filter>
<filter id="filter4_i_2_743" x="154" y="252" width="79" height="80" filterUnits="userSpaceOnUse" color-interpolation-filters="sRGB">
<feFlood flood-opacity="0" result="BackgroundImageFix"/>
<feBlend mode="normal" in="SourceGraphic" in2="BackgroundImageFix" result="shape"/>
<feColorMatrix in="SourceAlpha" type="matrix" values="0 0 0 0 0 0 0 0 0 0 0 0 0 0 0 0 0 0 127 0" result="hardAlpha"/>
<feOffset/>
<feGaussianBlur stdDeviation="2.5"/>
<feComposite in2="hardAlpha" operator="arithmetic" k2="-1" k3="1"/>
<feColorMatrix type="matrix" values="0 0 0 0 0.290196 0 0 0 0 0.564706 0 0 0 0 0.886275 0 0 0 1 0"/>
<feBlend mode="normal" in2="shape" result="effect1_innerShadow_2_743"/>
</filter>
<filter id="filter5_d_2_743" x="153" y="252" width="81" height="82" filterUnits="userSpaceOnUse" color-interpolation-filters="sRGB">
<feFlood flood-opacity="0" result="BackgroundImageFix"/>
<feColorMatrix in="SourceAlpha" type="matrix" values="0 0 0 0 0 0 0 0 0 0 0 0 0 0 0 0 0 0 127 0" result="hardAlpha"/>
<feOffset dy="1"/>
<feGaussianBlur stdDeviation="0.5"/>
<feComposite in2="hardAlpha" operator="out"/>
<feColorMatrix type="matrix" values="0 0 0 0 0 0 0 0 0 0.1169 0 0 0 0 0.4175 0 0 0 0.6 0"/>
<feBlend mode="normal" in2="BackgroundImageFix" result="effect1_dropShadow_2_743"/>
<feBlend mode="normal" in="SourceGraphic" in2="effect1_dropShadow_2_743" result="shape"/>
</filter>
</defs>
</svg>
