<svg width="880" height="644" viewBox="0 0 880 644" fill="none" xmlns="http://www.w3.org/2000/svg">
<rect x="50" y="50" width="64" height="24" rx="4" fill="#FED70A"/>
<path d="M59.0254 67V56.9785H62.7852C63.5508 56.9785 64.1637 57.0811 64.624 57.2861C65.0889 57.4867 65.4512 57.7988 65.7109 58.2227C65.9753 58.6419 66.1074 59.0817 66.1074 59.542C66.1074 59.9704 65.9912 60.3737 65.7588 60.752C65.5264 61.1302 65.1755 61.4355 64.7061 61.668C65.3122 61.8457 65.777 62.1488 66.1006 62.5771C66.4287 63.0055 66.5928 63.5114 66.5928 64.0947C66.5928 64.5641 66.4925 65.0016 66.292 65.4072C66.096 65.8083 65.8522 66.1182 65.5605 66.3369C65.2689 66.5557 64.902 66.722 64.46 66.8359C64.0225 66.9453 63.4847 67 62.8467 67H59.0254ZM60.3516 61.1895H62.5186C63.1064 61.1895 63.528 61.1507 63.7832 61.0732C64.1204 60.973 64.3734 60.8066 64.542 60.5742C64.7152 60.3418 64.8018 60.0501 64.8018 59.6992C64.8018 59.3665 64.722 59.0749 64.5625 58.8242C64.403 58.569 64.1751 58.3958 63.8789 58.3047C63.5827 58.209 63.0745 58.1611 62.3545 58.1611H60.3516V61.1895ZM60.3516 65.8174H62.8467C63.2751 65.8174 63.5758 65.8014 63.749 65.7695C64.0544 65.7148 64.3096 65.6237 64.5146 65.4961C64.7197 65.3685 64.8883 65.1839 65.0205 64.9424C65.1527 64.6963 65.2188 64.4137 65.2188 64.0947C65.2188 63.721 65.123 63.3975 64.9316 63.124C64.7402 62.846 64.4736 62.6523 64.1318 62.543C63.7946 62.429 63.307 62.3721 62.6689 62.3721H60.3516V65.8174ZM73.0186 67V65.9336C72.4535 66.7539 71.6855 67.1641 70.7148 67.1641C70.2865 67.1641 69.8854 67.082 69.5117 66.918C69.1426 66.7539 68.8669 66.5488 68.6846 66.3027C68.5068 66.0521 68.3815 65.7467 68.3086 65.3867C68.2585 65.1452 68.2334 64.7624 68.2334 64.2383V59.7402H69.4639V63.7666C69.4639 64.4092 69.4889 64.8421 69.5391 65.0654C69.6165 65.389 69.7806 65.6442 70.0312 65.8311C70.2819 66.0133 70.5918 66.1045 70.9609 66.1045C71.3301 66.1045 71.6764 66.0111 72 65.8242C72.3236 65.6328 72.5514 65.3753 72.6836 65.0518C72.8203 64.7236 72.8887 64.2497 72.8887 63.6299V59.7402H74.1191V67H73.0186ZM78.7402 65.8994L78.918 66.9863C78.5716 67.0592 78.2617 67.0957 77.9883 67.0957C77.5417 67.0957 77.1953 67.0251 76.9492 66.8838C76.7031 66.7425 76.5299 66.5579 76.4297 66.3301C76.3294 66.0977 76.2793 65.6123 76.2793 64.874V60.6973H75.377V59.7402H76.2793V57.9424L77.5029 57.2041V59.7402H78.7402V60.6973H77.5029V64.9424C77.5029 65.2933 77.5234 65.5189 77.5645 65.6191C77.61 65.7194 77.6807 65.7992 77.7764 65.8584C77.8766 65.9176 78.0179 65.9473 78.2002 65.9473C78.3369 65.9473 78.5169 65.9313 78.7402 65.8994ZM82.6367 65.8994L82.8145 66.9863C82.4681 67.0592 82.1582 67.0957 81.8848 67.0957C81.4382 67.0957 81.0918 67.0251 80.8457 66.8838C80.5996 66.7425 80.4264 66.5579 80.3262 66.3301C80.2259 66.0977 80.1758 65.6123 80.1758 64.874V60.6973H79.2734V59.7402H80.1758V57.9424L81.3994 57.2041V59.7402H82.6367V60.6973H81.3994V64.9424C81.3994 65.2933 81.4199 65.5189 81.4609 65.6191C81.5065 65.7194 81.5771 65.7992 81.6729 65.8584C81.7731 65.9176 81.9144 65.9473 82.0967 65.9473C82.2334 65.9473 82.4134 65.9313 82.6367 65.8994ZM83.3887 63.3701C83.3887 62.0257 83.7624 61.0299 84.5098 60.3828C85.1341 59.8451 85.8952 59.5762 86.793 59.5762C87.791 59.5762 88.6068 59.9043 89.2402 60.5605C89.8737 61.2122 90.1904 62.1146 90.1904 63.2676C90.1904 64.2018 90.0492 64.9378 89.7666 65.4756C89.4886 66.0088 89.0807 66.4235 88.543 66.7197C88.0098 67.016 87.4264 67.1641 86.793 67.1641C85.7767 67.1641 84.9541 66.8382 84.3252 66.1865C83.7008 65.5348 83.3887 64.596 83.3887 63.3701ZM84.6533 63.3701C84.6533 64.2998 84.8561 64.9971 85.2617 65.4619C85.6673 65.9222 86.1777 66.1523 86.793 66.1523C87.4036 66.1523 87.9118 65.9199 88.3174 65.4551C88.723 64.9902 88.9258 64.2816 88.9258 63.3291C88.9258 62.4313 88.7207 61.7523 88.3105 61.292C87.9049 60.8271 87.3991 60.5947 86.793 60.5947C86.1777 60.5947 85.6673 60.8249 85.2617 61.2852C84.8561 61.7454 84.6533 62.4404 84.6533 63.3701ZM91.6396 67V59.7402H92.7471V60.7725C93.2803 59.9749 94.0505 59.5762 95.0576 59.5762C95.4951 59.5762 95.8962 59.6559 96.2607 59.8154C96.6299 59.9704 96.9056 60.1755 97.0879 60.4307C97.2702 60.6859 97.3978 60.9889 97.4707 61.3398C97.5163 61.5677 97.5391 61.9665 97.5391 62.5361V67H96.3086V62.584C96.3086 62.0827 96.2607 61.709 96.165 61.4629C96.0693 61.2122 95.8984 61.014 95.6523 60.8682C95.4108 60.7178 95.126 60.6426 94.7979 60.6426C94.2738 60.6426 93.8203 60.8089 93.4375 61.1416C93.0592 61.4743 92.8701 62.1055 92.8701 63.0352V67H91.6396ZM98.9404 64.833L100.157 64.6416C100.226 65.1292 100.415 65.5029 100.725 65.7627C101.039 66.0225 101.477 66.1523 102.037 66.1523C102.602 66.1523 103.021 66.0384 103.295 65.8105C103.568 65.5781 103.705 65.307 103.705 64.9971C103.705 64.7191 103.584 64.5003 103.343 64.3408C103.174 64.2314 102.755 64.0924 102.085 63.9238C101.183 63.696 100.556 63.5 100.205 63.3359C99.8587 63.1673 99.5944 62.9372 99.4121 62.6455C99.2344 62.3493 99.1455 62.0234 99.1455 61.668C99.1455 61.3444 99.2184 61.0459 99.3643 60.7725C99.5146 60.4945 99.7174 60.2643 99.9727 60.082C100.164 59.9408 100.424 59.8223 100.752 59.7266C101.085 59.6263 101.44 59.5762 101.818 59.5762C102.388 59.5762 102.887 59.6582 103.315 59.8223C103.748 59.9863 104.067 60.2096 104.272 60.4922C104.478 60.7702 104.619 61.1439 104.696 61.6133L103.493 61.7773C103.438 61.4036 103.279 61.112 103.015 60.9023C102.755 60.6927 102.386 60.5879 101.907 60.5879C101.342 60.5879 100.939 60.6813 100.697 60.8682C100.456 61.055 100.335 61.2738 100.335 61.5244C100.335 61.6839 100.385 61.8275 100.485 61.9551C100.586 62.0872 100.743 62.1966 100.957 62.2832C101.08 62.3288 101.442 62.4336 102.044 62.5977C102.914 62.8301 103.521 63.0215 103.862 63.1719C104.209 63.3177 104.48 63.5319 104.676 63.8145C104.872 64.097 104.97 64.4479 104.97 64.8672C104.97 65.2773 104.849 65.6647 104.607 66.0293C104.37 66.3893 104.026 66.6696 103.575 66.8701C103.124 67.0661 102.614 67.1641 102.044 67.1641C101.101 67.1641 100.381 66.9681 99.8838 66.5762C99.3916 66.1842 99.0771 65.6032 98.9404 64.833Z" fill="#212121"/>
<g filter="url(#filter0_d_2_695)">
<mask id="path-3-outside-1_2_695" maskUnits="userSpaceOnUse" x="50" y="124" width="79" height="80" fill="black">
<rect fill="white" x="50" y="124" width="79" height="80"/>
<path d="M55 138C55 133.582 58.5817 130 63 130H116C120.418 130 124 133.582 124 138V190C124 194.418 120.418 198 116 198H63C58.5817 198 55 194.418 55 190V138Z"/>
</mask>
<path d="M55 138C55 133.582 58.5817 130 63 130H116C120.418 130 124 133.582 124 138V190C124 194.418 120.418 198 116 198H63C58.5817 198 55 194.418 55 190V138Z" fill="#519EE6"/>
<path d="M50 137C50 129.82 55.8203 124 63 124H116C123.18 124 129 129.82 129 137L119 138C119 136.895 117.657 136 116 136H63C61.3431 136 60 136.895 60 138L50 137ZM129 191C129 198.18 123.18 204 116 204H63C55.8203 204 50 198.18 50 191L60 190C60 191.105 61.3431 192 63 192H116C117.657 192 119 191.105 119 190L129 191ZM63 204C55.8203 204 50 198.18 50 191V137C50 129.82 55.8203 124 63 124V136C61.3431 136 60 136.895 60 138V190C60 191.105 61.3431 192 63 192V204ZM116 124C123.18 124 129 129.82 129 137V191C129 198.18 123.18 204 116 204V192C117.657 192 119 191.105 119 190V138C119 136.895 117.657 136 116 136V124Z" fill="#8FD7FF" mask="url(#path-3-outside-1_2_695)"/>
</g>
<g filter="url(#filter1_i_2_695)">
<path d="M84.7738 144.759L75.9947 152.128L72.4067 155.148H66.0427C65.3383 155.15 64.6633 155.43 64.1652 155.927C63.6671 156.424 63.3865 157.098 63.3846 157.801V170.191C63.3846 170.896 63.6645 171.571 64.1627 172.07C64.661 172.568 65.3371 172.849 66.0427 172.851H72.4067L75.9947 175.85L84.7738 183.233C85.2493 183.633 85.8296 183.89 86.4461 183.972C87.0627 184.053 87.6899 183.958 88.2537 183.696C88.8176 183.434 89.2946 183.016 89.6286 182.492C89.9625 181.969 90.1394 181.361 90.1385 180.74V147.252C90.1366 146.633 89.958 146.026 89.6235 145.505C89.289 144.983 88.8125 144.567 88.2497 144.305C87.687 144.043 87.0612 143.947 86.4457 144.028C85.8301 144.108 85.2502 144.362 84.7738 144.759Z" fill="white"/>
<path d="M94.6071 154.843C93.4694 155.967 93.4694 157.789 94.6071 158.913L99.7569 164L94.6071 169.087C93.4694 170.211 93.4694 172.033 94.6071 173.157C95.7447 174.281 97.5893 174.281 98.7271 173.157L103.877 168.07L109.027 173.157C110.164 174.281 112.009 174.281 113.147 173.157C114.284 172.033 114.284 170.211 113.147 169.087L107.997 164L113.147 158.913C114.284 157.789 114.284 155.967 113.147 154.843C112.009 153.719 110.164 153.719 109.027 154.843L103.877 159.93L98.7271 154.843C97.5893 153.719 95.7449 153.719 94.6071 154.843Z" fill="white"/>
</g>
<g filter="url(#filter2_d_2_695)">
<mask id="path-7-outside-2_2_695" maskUnits="userSpaceOnUse" x="150" y="124" width="79" height="80" fill="black">
<rect fill="white" x="150" y="124" width="79" height="80"/>
<path d="M155 138C155 133.582 158.582 130 163 130H216C220.418 130 224 133.582 224 138V190C224 194.418 220.418 198 216 198H163C158.582 198 155 194.418 155 190V138Z"/>
</mask>
<path d="M155 138C155 133.582 158.582 130 163 130H216C220.418 130 224 133.582 224 138V190C224 194.418 220.418 198 216 198H163C158.582 198 155 194.418 155 190V138Z" fill="#519EE6"/>
<path d="M150 137C150 129.82 155.82 124 163 124H216C223.18 124 229 129.82 229 137L219 138C219 136.895 217.657 136 216 136H163C161.343 136 160 136.895 160 138L150 137ZM229 191C229 198.18 223.18 204 216 204H163C155.82 204 150 198.18 150 191L160 190C160 191.105 161.343 192 163 192H216C217.657 192 219 191.105 219 190L229 191ZM163 204C155.82 204 150 198.18 150 191V137C150 129.82 155.82 124 163 124V136C161.343 136 160 136.895 160 138V190C160 191.105 161.343 192 163 192V204ZM216 124C223.18 124 229 129.82 229 137V191C229 198.18 223.18 204 216 204V192C217.657 192 219 191.105 219 190V138C219 136.895 217.657 136 216 136V124Z" fill="#8FD7FF" mask="url(#path-7-outside-2_2_695)"/>
</g>
<g filter="url(#filter3_i_2_695)">
<path d="M189.208 144.767L180.632 152.128L177.106 155.154H170.91C170.567 155.151 170.227 155.218 169.91 155.35C169.593 155.482 169.304 155.677 169.061 155.923C168.818 156.17 168.624 156.463 168.493 156.786C168.361 157.109 168.293 157.456 168.293 157.806V170.173C168.295 170.876 168.569 171.55 169.056 172.047C169.542 172.544 170.202 172.824 170.89 172.826H177.106L180.625 175.845L189.208 183.233C189.672 183.633 190.239 183.89 190.841 183.972C191.444 184.053 192.056 183.958 192.607 183.696C193.158 183.434 193.624 183.016 193.95 182.493C194.276 181.969 194.449 181.361 194.448 180.74V147.26C194.449 146.639 194.276 146.031 193.95 145.507C193.624 144.984 193.158 144.566 192.607 144.304C192.056 144.042 191.444 143.947 190.841 144.028C190.239 144.11 189.672 144.367 189.208 144.767Z" fill="white"/>
<path d="M207.124 154.763C206.664 154.274 206.041 154 205.392 154C204.743 154 204.12 154.274 203.66 154.763C203.429 155.003 203.246 155.29 203.121 155.607C202.996 155.924 202.931 156.264 202.931 156.608C202.931 156.952 202.996 157.292 203.121 157.609C203.246 157.926 203.429 158.213 203.66 158.454C205.038 159.929 205.811 161.925 205.811 164.006C205.811 166.087 205.038 168.083 203.66 169.558C203.429 169.798 203.246 170.085 203.121 170.402C202.996 170.719 202.931 171.059 202.931 171.403C202.931 171.747 202.996 172.087 203.121 172.404C203.246 172.721 203.429 173.008 203.66 173.248C203.883 173.492 204.15 173.685 204.445 173.814C204.74 173.943 205.057 174.006 205.377 173.999C205.7 174.007 206.022 173.944 206.322 173.815C206.623 173.686 206.895 173.493 207.124 173.248C209.418 170.794 210.707 167.47 210.707 164.006C210.707 160.541 209.418 157.218 207.124 154.763Z" fill="white"/>
</g>
<g filter="url(#filter4_d_2_695)">
<mask id="path-11-outside-3_2_695" maskUnits="userSpaceOnUse" x="250" y="124" width="79" height="80" fill="black">
<rect fill="white" x="250" y="124" width="79" height="80"/>
<path d="M255 138C255 133.582 258.582 130 263 130H316C320.418 130 324 133.582 324 138V190C324 194.418 320.418 198 316 198H263C258.582 198 255 194.418 255 190V138Z"/>
</mask>
<path d="M255 138C255 133.582 258.582 130 263 130H316C320.418 130 324 133.582 324 138V190C324 194.418 320.418 198 316 198H263C258.582 198 255 194.418 255 190V138Z" fill="#519EE6"/>
<path d="M250 137C250 129.82 255.82 124 263 124H316C323.18 124 329 129.82 329 137L319 138C319 136.895 317.657 136 316 136H263C261.343 136 260 136.895 260 138L250 137ZM329 191C329 198.18 323.18 204 316 204H263C255.82 204 250 198.18 250 191L260 190C260 191.105 261.343 192 263 192H316C317.657 192 319 191.105 319 190L329 191ZM263 204C255.82 204 250 198.18 250 191V137C250 129.82 255.82 124 263 124V136C261.343 136 260 136.895 260 138V190C260 191.105 261.343 192 263 192V204ZM316 124C323.18 124 329 129.82 329 137V191C329 198.18 323.18 204 316 204V192C317.657 192 319 191.105 319 190V138C319 136.895 317.657 136 316 136V124Z" fill="#8FD7FF" mask="url(#path-11-outside-3_2_695)"/>
</g>
<g filter="url(#filter5_i_2_695)">
<rect x="276.5" y="144.5" width="10.6" height="39" rx="1.5" fill="white" stroke="white"/>
<rect x="293.9" y="144.5" width="10.6" height="39" rx="1.5" fill="white" stroke="white"/>
</g>
<g filter="url(#filter6_d_2_695)">
<mask id="path-15-outside-4_2_695" maskUnits="userSpaceOnUse" x="350" y="124" width="79" height="80" fill="black">
<rect fill="white" x="350" y="124" width="79" height="80"/>
<path d="M355 138C355 133.582 358.582 130 363 130H416C420.418 130 424 133.582 424 138V190C424 194.418 420.418 198 416 198H363C358.582 198 355 194.418 355 190V138Z"/>
</mask>
<path d="M355 138C355 133.582 358.582 130 363 130H416C420.418 130 424 133.582 424 138V190C424 194.418 420.418 198 416 198H363C358.582 198 355 194.418 355 190V138Z" fill="#519EE6"/>
<path d="M350 137C350 129.82 355.82 124 363 124H416C423.18 124 429 129.82 429 137L419 138C419 136.895 417.657 136 416 136H363C361.343 136 360 136.895 360 138L350 137ZM429 191C429 198.18 423.18 204 416 204H363C355.82 204 350 198.18 350 191L360 190C360 191.105 361.343 192 363 192H416C417.657 192 419 191.105 419 190L429 191ZM363 204C355.82 204 350 198.18 350 191V137C350 129.82 355.82 124 363 124V136C361.343 136 360 136.895 360 138V190C360 191.105 361.343 192 363 192V204ZM416 124C423.18 124 429 129.82 429 137V191C429 198.18 423.18 204 416 204V192C417.657 192 419 191.105 419 190V138C419 136.895 417.657 136 416 136V124Z" fill="#8FD7FF" mask="url(#path-15-outside-4_2_695)"/>
</g>
<g filter="url(#filter7_i_2_695)">
<path d="M409.328 162.605L392.658 145.73L391.621 144.68C391.408 144.464 391.155 144.293 390.877 144.177C390.599 144.06 390.301 144 390 144C389.699 144 389.401 144.06 389.123 144.177C388.845 144.293 388.592 144.464 388.379 144.68L387.342 145.73L370.672 162.605C370.459 162.821 370.29 163.076 370.175 163.358C370.059 163.639 370 163.941 370 164.245C370 164.55 370.059 164.851 370.175 165.133C370.29 165.414 370.459 165.67 370.672 165.885L371.701 166.935C371.914 167.151 372.167 167.322 372.445 167.438C372.723 167.555 373.021 167.615 373.322 167.615C373.623 167.615 373.921 167.555 374.199 167.438C374.477 167.322 374.73 167.151 374.942 166.935L376.886 164.968V182.638C376.886 182.817 376.921 182.994 376.989 183.16C377.057 183.325 377.156 183.475 377.281 183.602C377.407 183.728 377.555 183.829 377.719 183.897C377.882 183.965 378.058 184 378.235 184H401.495C401.672 184 401.847 183.965 402.011 183.897C402.174 183.829 402.323 183.728 402.448 183.602C402.573 183.475 402.672 183.325 402.74 183.159C402.807 182.994 402.842 182.817 402.841 182.638V164.704L405.047 166.935C405.477 167.37 406.061 167.614 406.669 167.614C407.277 167.614 407.86 167.37 408.29 166.935L409.328 165.885C409.541 165.67 409.71 165.414 409.825 165.133C409.941 164.851 410 164.55 410 164.245C410 163.941 409.941 163.639 409.825 163.358C409.71 163.076 409.541 162.821 409.328 162.605Z" fill="white"/>
</g>
<g filter="url(#filter8_d_2_695)">
<mask id="path-18-outside-5_2_695" maskUnits="userSpaceOnUse" x="450" y="124" width="79" height="80" fill="black">
<rect fill="white" x="450" y="124" width="79" height="80"/>
<path d="M455 138C455 133.582 458.582 130 463 130H516C520.418 130 524 133.582 524 138V190C524 194.418 520.418 198 516 198H463C458.582 198 455 194.418 455 190V138Z"/>
</mask>
<path d="M455 138C455 133.582 458.582 130 463 130H516C520.418 130 524 133.582 524 138V190C524 194.418 520.418 198 516 198H463C458.582 198 455 194.418 455 190V138Z" fill="#519EE6"/>
<path d="M450 137C450 129.82 455.82 124 463 124H516C523.18 124 529 129.82 529 137L519 138C519 136.895 517.657 136 516 136H463C461.343 136 460 136.895 460 138L450 137ZM529 191C529 198.18 523.18 204 516 204H463C455.82 204 450 198.18 450 191L460 190C460 191.105 461.343 192 463 192H516C517.657 192 519 191.105 519 190L529 191ZM463 204C455.82 204 450 198.18 450 191V137C450 129.82 455.82 124 463 124V136C461.343 136 460 136.895 460 138V190C460 191.105 461.343 192 463 192V204ZM516 124C523.18 124 529 129.82 529 137V191C529 198.18 523.18 204 516 204V192C517.657 192 519 191.105 519 190V138C519 136.895 517.657 136 516 136V124Z" fill="#8FD7FF" mask="url(#path-18-outside-5_2_695)"/>
</g>
<g filter="url(#filter9_i_2_695)">
<path d="M478.793 168.353C476.402 166.121 476.402 161.879 478.793 159.647L494.23 145.234C497.361 142.311 502 144.91 502 149.586V178.414C502 183.09 497.361 185.689 494.23 182.766L478.793 168.353Z" fill="white"/>
</g>
<g filter="url(#filter10_d_2_695)">
<mask id="path-21-outside-6_2_695" maskUnits="userSpaceOnUse" x="550" y="124" width="79" height="80" fill="black">
<rect fill="white" x="550" y="124" width="79" height="80"/>
<path d="M555 138C555 133.582 558.582 130 563 130H616C620.418 130 624 133.582 624 138V190C624 194.418 620.418 198 616 198H563C558.582 198 555 194.418 555 190V138Z"/>
</mask>
<path d="M555 138C555 133.582 558.582 130 563 130H616C620.418 130 624 133.582 624 138V190C624 194.418 620.418 198 616 198H563C558.582 198 555 194.418 555 190V138Z" fill="#519EE6"/>
<path d="M550 137C550 129.82 555.82 124 563 124H616C623.18 124 629 129.82 629 137L619 138C619 136.895 617.657 136 616 136H563C561.343 136 560 136.895 560 138L550 137ZM629 191C629 198.18 623.18 204 616 204H563C555.82 204 550 198.18 550 191L560 190C560 191.105 561.343 192 563 192H616C617.657 192 619 191.105 619 190L629 191ZM563 204C555.82 204 550 198.18 550 191V137C550 129.82 555.82 124 563 124V136C561.343 136 560 136.895 560 138V190C560 191.105 561.343 192 563 192V204ZM616 124C623.18 124 629 129.82 629 137V191C629 198.18 623.18 204 616 204V192C617.657 192 619 191.105 619 190V138C619 136.895 617.657 136 616 136V124Z" fill="#8FD7FF" mask="url(#path-21-outside-6_2_695)"/>
</g>
<g filter="url(#filter11_i_2_695)">
<path d="M601.25 159.368C603.583 161.56 603.583 165.726 601.25 167.918L586.18 182.074C583.124 184.945 578.595 182.392 578.595 177.799V149.487C578.595 144.894 583.124 142.341 586.18 145.212L601.25 159.368Z" fill="white"/>
</g>
<g filter="url(#filter12_d_2_695)">
<mask id="path-24-outside-7_2_695" maskUnits="userSpaceOnUse" x="650" y="124" width="79" height="80" fill="black">
<rect fill="white" x="650" y="124" width="79" height="80"/>
<path d="M655 138C655 133.582 658.582 130 663 130H716C720.418 130 724 133.582 724 138V190C724 194.418 720.418 198 716 198H663C658.582 198 655 194.418 655 190V138Z"/>
</mask>
<path d="M655 138C655 133.582 658.582 130 663 130H716C720.418 130 724 133.582 724 138V190C724 194.418 720.418 198 716 198H663C658.582 198 655 194.418 655 190V138Z" fill="#519EE6"/>
<path d="M650 137C650 129.82 655.82 124 663 124H716C723.18 124 729 129.82 729 137L719 138C719 136.895 717.657 136 716 136H663C661.343 136 660 136.895 660 138L650 137ZM729 191C729 198.18 723.18 204 716 204H663C655.82 204 650 198.18 650 191L660 190C660 191.105 661.343 192 663 192H716C717.657 192 719 191.105 719 190L729 191ZM663 204C655.82 204 650 198.18 650 191V137C650 129.82 655.82 124 663 124V136C661.343 136 660 136.895 660 138V190C660 191.105 661.343 192 663 192V204ZM716 124C723.18 124 729 129.82 729 137V191C729 198.18 723.18 204 716 204V192C717.657 192 719 191.105 719 190V138C719 136.895 717.657 136 716 136V124Z" fill="#8FD7FF" mask="url(#path-24-outside-7_2_695)"/>
</g>
<path fill-rule="evenodd" clip-rule="evenodd" d="M703.458 164.714C703.458 164.714 700.271 164.357 699.689 167.051C699.147 172.22 695.026 176.239 690.023 176.239C684.651 176.239 680.295 171.605 680.295 165.89C680.295 161.123 684.173 158.013 688.579 157.113C689.328 156.959 690.023 157.571 690.023 158.381V160.822C690.023 161.866 691.129 162.479 691.933 161.88L701.664 154.634C701.989 154.391 702.182 153.997 702.182 153.575C702.182 153.183 702.015 152.812 701.727 152.567L691.996 144.285C691.2 143.608 690.023 144.211 690.023 145.293V147.942C690.023 148.598 689.561 149.153 688.947 149.225C680.45 150.227 673 156.707 673 165.89C673 175.892 680.621 184.001 690.023 184.001C698.985 184.001 706.329 176.632 706.996 167.28C706.996 165.786 705.583 164.714 703.458 164.714Z" fill="white"/>
<g filter="url(#filter13_d_2_695)">
<mask id="path-27-outside-8_2_695" maskUnits="userSpaceOnUse" x="750" y="124" width="79" height="80" fill="black">
<rect fill="white" x="750" y="124" width="79" height="80"/>
<path d="M755 138C755 133.582 758.582 130 763 130H816C820.418 130 824 133.582 824 138V190C824 194.418 820.418 198 816 198H763C758.582 198 755 194.418 755 190V138Z"/>
</mask>
<path d="M755 138C755 133.582 758.582 130 763 130H816C820.418 130 824 133.582 824 138V190C824 194.418 820.418 198 816 198H763C758.582 198 755 194.418 755 190V138Z" fill="#519EE6"/>
<path d="M750 137C750 129.82 755.82 124 763 124H816C823.18 124 829 129.82 829 137L819 138C819 136.895 817.657 136 816 136H763C761.343 136 760 136.895 760 138L750 137ZM829 191C829 198.18 823.18 204 816 204H763C755.82 204 750 198.18 750 191L760 190C760 191.105 761.343 192 763 192H816C817.657 192 819 191.105 819 190L829 191ZM763 204C755.82 204 750 198.18 750 191V137C750 129.82 755.82 124 763 124V136C761.343 136 760 136.895 760 138V190C760 191.105 761.343 192 763 192V204ZM816 124C823.18 124 829 129.82 829 137V191C829 198.18 823.18 204 816 204V192C817.657 192 819 191.105 819 190V138C819 136.895 817.657 136 816 136V124Z" fill="#8FD7FF" mask="url(#path-27-outside-8_2_695)"/>
</g>
<g filter="url(#filter14_i_2_695)">
<path d="M784.487 144H771.228C770.55 144 770 144.56 770 145.25V152.75C770 153.44 770.55 154 771.228 154H784.487C785.165 154 785.714 153.44 785.714 152.75V145.25C785.714 144.56 785.165 144 784.487 144Z" fill="white"/>
<path d="M784.487 159H771.228C770.55 159 770 159.56 770 160.25V167.75C770 168.44 770.55 169 771.228 169H784.487C785.165 169 785.714 168.44 785.714 167.75V160.25C785.714 159.56 785.165 159 784.487 159Z" fill="white"/>
<path d="M784.487 174H771.228C770.55 174 770 174.56 770 175.25V182.75C770 183.44 770.55 184 771.228 184H784.487C785.165 184 785.714 183.44 785.714 182.75V175.25C785.714 174.56 785.165 174 784.487 174Z" fill="white"/>
<path d="M808.772 144H795.513C794.835 144 794.286 144.56 794.286 145.25V152.75C794.286 153.44 794.835 154 795.513 154H808.772C809.45 154 810 153.44 810 152.75V145.25C810 144.56 809.45 144 808.772 144Z" fill="white"/>
<path d="M808.772 159H795.513C794.835 159 794.286 159.56 794.286 160.25V167.75C794.286 168.44 794.835 169 795.513 169H808.772C809.45 169 810 168.44 810 167.75V160.25C810 159.56 809.45 159 808.772 159Z" fill="white"/>
<path d="M808.772 174H795.513C794.835 174 794.286 174.56 794.286 175.25V182.75C794.286 183.44 794.835 184 795.513 184H808.772C809.45 184 810 183.44 810 182.75V175.25C810 174.56 809.45 174 808.772 174Z" fill="white"/>
</g>
<g filter="url(#filter15_i_2_695)">
<g filter="url(#filter16_d_2_695)">
<mask id="path-35-outside-9_2_695" maskUnits="userSpaceOnUse" x="50" y="254" width="79" height="80" fill="black">
<rect fill="white" x="50" y="254" width="79" height="80"/>
<path d="M55 268C55 263.582 58.5817 260 63 260H116C120.418 260 124 263.582 124 268V320C124 324.418 120.418 328 116 328H63C58.5817 328 55 324.418 55 320V268Z"/>
</mask>
<path d="M55 268C55 263.582 58.5817 260 63 260H116C120.418 260 124 263.582 124 268V320C124 324.418 120.418 328 116 328H63C58.5817 328 55 324.418 55 320V268Z" fill="#519EE6"/>
<path d="M50 267C50 259.82 55.8203 254 63 254H116C123.18 254 129 259.82 129 267L119 268C119 266.895 117.657 266 116 266H63C61.3431 266 60 266.895 60 268L50 267ZM129 321C129 328.18 123.18 334 116 334H63C55.8203 334 50 328.18 50 321L60 320C60 321.105 61.3431 322 63 322H116C117.657 322 119 321.105 119 320L129 321ZM63 334C55.8203 334 50 328.18 50 321V267C50 259.82 55.8203 254 63 254V266C61.3431 266 60 266.895 60 268V320C60 321.105 61.3431 322 63 322V334ZM116 254C123.18 254 129 259.82 129 267V321C129 328.18 123.18 334 116 334V322C117.657 322 119 321.105 119 320V268C119 266.895 117.657 266 116 266V254Z" fill="white" mask="url(#path-35-outside-9_2_695)"/>
</g>
</g>
<g filter="url(#filter17_i_2_695)">
<path d="M84.7738 274.759L75.9947 282.128L72.4067 285.148H66.0427C65.3383 285.15 64.6633 285.43 64.1652 285.927C63.6671 286.424 63.3865 287.098 63.3846 287.801V300.191C63.3846 300.896 63.6645 301.571 64.1627 302.07C64.661 302.568 65.3371 302.849 66.0427 302.851H72.4067L75.9947 305.85L84.7738 313.233C85.2493 313.633 85.8296 313.89 86.4461 313.972C87.0627 314.053 87.6899 313.958 88.2537 313.696C88.8176 313.434 89.2946 313.016 89.6286 312.492C89.9625 311.969 90.1394 311.361 90.1385 310.74V277.252C90.1366 276.633 89.958 276.026 89.6235 275.505C89.289 274.983 88.8125 274.567 88.2497 274.305C87.687 274.043 87.0612 273.947 86.4457 274.028C85.8301 274.108 85.2502 274.362 84.7738 274.759Z" fill="white"/>
<path d="M94.6071 284.843C93.4694 285.967 93.4694 287.789 94.6071 288.913L99.7569 294L94.6071 299.087C93.4694 300.211 93.4694 302.033 94.6071 303.157C95.7447 304.281 97.5893 304.281 98.7271 303.157L103.877 298.07L109.027 303.157C110.164 304.281 112.009 304.281 113.147 303.157C114.284 302.033 114.284 300.211 113.147 299.087L107.997 294L113.147 288.913C114.284 287.789 114.284 285.967 113.147 284.843C112.009 283.719 110.164 283.719 109.027 284.843L103.877 289.93L98.7271 284.843C97.5893 283.719 95.7449 283.719 94.6071 284.843Z" fill="white"/>
</g>
<g filter="url(#filter18_i_2_695)">
<g filter="url(#filter19_d_2_695)">
<mask id="path-39-outside-10_2_695" maskUnits="userSpaceOnUse" x="150" y="254" width="79" height="80" fill="black">
<rect fill="white" x="150" y="254" width="79" height="80"/>
<path d="M155 268C155 263.582 158.582 260 163 260H216C220.418 260 224 263.582 224 268V320C224 324.418 220.418 328 216 328H163C158.582 328 155 324.418 155 320V268Z"/>
</mask>
<path d="M155 268C155 263.582 158.582 260 163 260H216C220.418 260 224 263.582 224 268V320C224 324.418 220.418 328 216 328H163C158.582 328 155 324.418 155 320V268Z" fill="#519EE6"/>
<path d="M150 267C150 259.82 155.82 254 163 254H216C223.18 254 229 259.82 229 267L219 268C219 266.895 217.657 266 216 266H163C161.343 266 160 266.895 160 268L150 267ZM229 321C229 328.18 223.18 334 216 334H163C155.82 334 150 328.18 150 321L160 320C160 321.105 161.343 322 163 322H216C217.657 322 219 321.105 219 320L229 321ZM163 334C155.82 334 150 328.18 150 321V267C150 259.82 155.82 254 163 254V266C161.343 266 160 266.895 160 268V320C160 321.105 161.343 322 163 322V334ZM216 254C223.18 254 229 259.82 229 267V321C229 328.18 223.18 334 216 334V322C217.657 322 219 321.105 219 320V268C219 266.895 217.657 266 216 266V254Z" fill="white" mask="url(#path-39-outside-10_2_695)"/>
</g>
</g>
<g filter="url(#filter20_i_2_695)">
<path d="M189.208 274.767L180.632 282.128L177.106 285.154H170.91C170.567 285.151 170.227 285.218 169.91 285.35C169.593 285.482 169.304 285.677 169.061 285.923C168.818 286.17 168.624 286.463 168.493 286.786C168.361 287.109 168.293 287.456 168.293 287.806V300.173C168.295 300.876 168.569 301.55 169.056 302.047C169.542 302.544 170.202 302.824 170.89 302.826H177.106L180.625 305.845L189.208 313.233C189.672 313.633 190.239 313.89 190.841 313.972C191.444 314.053 192.056 313.958 192.607 313.696C193.158 313.434 193.624 313.016 193.95 312.493C194.276 311.969 194.449 311.361 194.448 310.74V277.26C194.449 276.639 194.276 276.031 193.95 275.507C193.624 274.984 193.158 274.566 192.607 274.304C192.056 274.042 191.444 273.947 190.841 274.028C190.239 274.11 189.672 274.367 189.208 274.767Z" fill="white"/>
<path d="M207.124 284.763C206.664 284.274 206.041 284 205.392 284C204.743 284 204.12 284.274 203.66 284.763C203.429 285.003 203.246 285.29 203.121 285.607C202.996 285.924 202.931 286.264 202.931 286.608C202.931 286.952 202.996 287.292 203.121 287.609C203.246 287.926 203.429 288.213 203.66 288.454C205.038 289.929 205.811 291.925 205.811 294.006C205.811 296.087 205.038 298.083 203.66 299.558C203.429 299.798 203.246 300.085 203.121 300.402C202.996 300.719 202.931 301.059 202.931 301.403C202.931 301.747 202.996 302.087 203.121 302.404C203.246 302.721 203.429 303.008 203.66 303.248C203.883 303.492 204.15 303.685 204.445 303.814C204.74 303.943 205.057 304.006 205.377 303.999C205.7 304.007 206.022 303.944 206.322 303.815C206.623 303.686 206.895 303.493 207.124 303.248C209.418 300.794 210.707 297.47 210.707 294.006C210.707 290.541 209.418 287.218 207.124 284.763Z" fill="white"/>
</g>
<g filter="url(#filter21_i_2_695)">
<g filter="url(#filter22_d_2_695)">
<mask id="path-43-outside-11_2_695" maskUnits="userSpaceOnUse" x="250" y="254" width="79" height="80" fill="black">
<rect fill="white" x="250" y="254" width="79" height="80"/>
<path d="M255 268C255 263.582 258.582 260 263 260H316C320.418 260 324 263.582 324 268V320C324 324.418 320.418 328 316 328H263C258.582 328 255 324.418 255 320V268Z"/>
</mask>
<path d="M255 268C255 263.582 258.582 260 263 260H316C320.418 260 324 263.582 324 268V320C324 324.418 320.418 328 316 328H263C258.582 328 255 324.418 255 320V268Z" fill="#519EE6"/>
<path d="M250 267C250 259.82 255.82 254 263 254H316C323.18 254 329 259.82 329 267L319 268C319 266.895 317.657 266 316 266H263C261.343 266 260 266.895 260 268L250 267ZM329 321C329 328.18 323.18 334 316 334H263C255.82 334 250 328.18 250 321L260 320C260 321.105 261.343 322 263 322H316C317.657 322 319 321.105 319 320L329 321ZM263 334C255.82 334 250 328.18 250 321V267C250 259.82 255.82 254 263 254V266C261.343 266 260 266.895 260 268V320C260 321.105 261.343 322 263 322V334ZM316 254C323.18 254 329 259.82 329 267V321C329 328.18 323.18 334 316 334V322C317.657 322 319 321.105 319 320V268C319 266.895 317.657 266 316 266V254Z" fill="white" mask="url(#path-43-outside-11_2_695)"/>
</g>
</g>
<g filter="url(#filter23_i_2_695)">
<rect x="276.5" y="274.5" width="10.6" height="39" rx="1.5" fill="white" stroke="white"/>
<rect x="293.9" y="274.5" width="10.6" height="39" rx="1.5" fill="white" stroke="white"/>
</g>
<g filter="url(#filter24_i_2_695)">
<g filter="url(#filter25_d_2_695)">
<mask id="path-47-outside-12_2_695" maskUnits="userSpaceOnUse" x="350" y="254" width="79" height="80" fill="black">
<rect fill="white" x="350" y="254" width="79" height="80"/>
<path d="M355 268C355 263.582 358.582 260 363 260H416C420.418 260 424 263.582 424 268V320C424 324.418 420.418 328 416 328H363C358.582 328 355 324.418 355 320V268Z"/>
</mask>
<path d="M355 268C355 263.582 358.582 260 363 260H416C420.418 260 424 263.582 424 268V320C424 324.418 420.418 328 416 328H363C358.582 328 355 324.418 355 320V268Z" fill="#519EE6"/>
<path d="M350 267C350 259.82 355.82 254 363 254H416C423.18 254 429 259.82 429 267L419 268C419 266.895 417.657 266 416 266H363C361.343 266 360 266.895 360 268L350 267ZM429 321C429 328.18 423.18 334 416 334H363C355.82 334 350 328.18 350 321L360 320C360 321.105 361.343 322 363 322H416C417.657 322 419 321.105 419 320L429 321ZM363 334C355.82 334 350 328.18 350 321V267C350 259.82 355.82 254 363 254V266C361.343 266 360 266.895 360 268V320C360 321.105 361.343 322 363 322V334ZM416 254C423.18 254 429 259.82 429 267V321C429 328.18 423.18 334 416 334V322C417.657 322 419 321.105 419 320V268C419 266.895 417.657 266 416 266V254Z" fill="white" mask="url(#path-47-outside-12_2_695)"/>
</g>
</g>
<g filter="url(#filter26_i_2_695)">
<path d="M409.328 292.605L392.658 275.73L391.621 274.68C391.408 274.464 391.155 274.293 390.877 274.177C390.599 274.06 390.301 274 390 274C389.699 274 389.401 274.06 389.123 274.177C388.845 274.293 388.592 274.464 388.379 274.68L387.342 275.73L370.672 292.605C370.459 292.821 370.29 293.076 370.175 293.358C370.059 293.639 370 293.941 370 294.245C370 294.55 370.059 294.851 370.175 295.133C370.29 295.414 370.459 295.67 370.672 295.885L371.701 296.935C371.914 297.151 372.167 297.322 372.445 297.438C372.723 297.555 373.021 297.615 373.322 297.615C373.623 297.615 373.921 297.555 374.199 297.438C374.477 297.322 374.73 297.151 374.942 296.935L376.886 294.968V312.638C376.886 312.817 376.921 312.994 376.989 313.16C377.057 313.325 377.156 313.475 377.281 313.602C377.407 313.728 377.555 313.829 377.719 313.897C377.882 313.965 378.058 314 378.235 314H401.495C401.672 314 401.847 313.965 402.011 313.897C402.174 313.829 402.323 313.728 402.448 313.602C402.573 313.475 402.672 313.325 402.74 313.159C402.807 312.994 402.842 312.817 402.841 312.638V294.704L405.047 296.935C405.477 297.37 406.061 297.614 406.669 297.614C407.277 297.614 407.86 297.37 408.29 296.935L409.328 295.885C409.541 295.67 409.71 295.414 409.825 295.133C409.941 294.851 410 294.55 410 294.245C410 293.941 409.941 293.639 409.825 293.358C409.71 293.076 409.541 292.821 409.328 292.605Z" fill="white"/>
</g>
<g filter="url(#filter27_i_2_695)">
<g filter="url(#filter28_d_2_695)">
<mask id="path-50-outside-13_2_695" maskUnits="userSpaceOnUse" x="450" y="254" width="79" height="80" fill="black">
<rect fill="white" x="450" y="254" width="79" height="80"/>
<path d="M455 268C455 263.582 458.582 260 463 260H516C520.418 260 524 263.582 524 268V320C524 324.418 520.418 328 516 328H463C458.582 328 455 324.418 455 320V268Z"/>
</mask>
<path d="M455 268C455 263.582 458.582 260 463 260H516C520.418 260 524 263.582 524 268V320C524 324.418 520.418 328 516 328H463C458.582 328 455 324.418 455 320V268Z" fill="#519EE6"/>
<path d="M450 267C450 259.82 455.82 254 463 254H516C523.18 254 529 259.82 529 267L519 268C519 266.895 517.657 266 516 266H463C461.343 266 460 266.895 460 268L450 267ZM529 321C529 328.18 523.18 334 516 334H463C455.82 334 450 328.18 450 321L460 320C460 321.105 461.343 322 463 322H516C517.657 322 519 321.105 519 320L529 321ZM463 334C455.82 334 450 328.18 450 321V267C450 259.82 455.82 254 463 254V266C461.343 266 460 266.895 460 268V320C460 321.105 461.343 322 463 322V334ZM516 254C523.18 254 529 259.82 529 267V321C529 328.18 523.18 334 516 334V322C517.657 322 519 321.105 519 320V268C519 266.895 517.657 266 516 266V254Z" fill="white" mask="url(#path-50-outside-13_2_695)"/>
</g>
</g>
<g filter="url(#filter29_i_2_695)">
<path d="M478.793 298.353C476.402 296.121 476.402 291.879 478.793 289.647L494.23 275.234C497.361 272.311 502 274.91 502 279.586V308.414C502 313.09 497.361 315.689 494.23 312.766L478.793 298.353Z" fill="white"/>
</g>
<g filter="url(#filter30_i_2_695)">
<g filter="url(#filter31_d_2_695)">
<mask id="path-53-outside-14_2_695" maskUnits="userSpaceOnUse" x="550" y="254" width="79" height="80" fill="black">
<rect fill="white" x="550" y="254" width="79" height="80"/>
<path d="M555 268C555 263.582 558.582 260 563 260H616C620.418 260 624 263.582 624 268V320C624 324.418 620.418 328 616 328H563C558.582 328 555 324.418 555 320V268Z"/>
</mask>
<path d="M555 268C555 263.582 558.582 260 563 260H616C620.418 260 624 263.582 624 268V320C624 324.418 620.418 328 616 328H563C558.582 328 555 324.418 555 320V268Z" fill="#519EE6"/>
<path d="M550 267C550 259.82 555.82 254 563 254H616C623.18 254 629 259.82 629 267L619 268C619 266.895 617.657 266 616 266H563C561.343 266 560 266.895 560 268L550 267ZM629 321C629 328.18 623.18 334 616 334H563C555.82 334 550 328.18 550 321L560 320C560 321.105 561.343 322 563 322H616C617.657 322 619 321.105 619 320L629 321ZM563 334C555.82 334 550 328.18 550 321V267C550 259.82 555.82 254 563 254V266C561.343 266 560 266.895 560 268V320C560 321.105 561.343 322 563 322V334ZM616 254C623.18 254 629 259.82 629 267V321C629 328.18 623.18 334 616 334V322C617.657 322 619 321.105 619 320V268C619 266.895 617.657 266 616 266V254Z" fill="white" mask="url(#path-53-outside-14_2_695)"/>
</g>
</g>
<g filter="url(#filter32_i_2_695)">
<path d="M601.25 289.368C603.583 291.56 603.583 295.726 601.25 297.918L586.18 312.074C583.124 314.945 578.595 312.392 578.595 307.799V279.487C578.595 274.894 583.124 272.341 586.18 275.212L601.25 289.368Z" fill="white"/>
</g>
<g filter="url(#filter33_i_2_695)">
<g filter="url(#filter34_d_2_695)">
<mask id="path-56-outside-15_2_695" maskUnits="userSpaceOnUse" x="650" y="254" width="79" height="80" fill="black">
<rect fill="white" x="650" y="254" width="79" height="80"/>
<path d="M655 268C655 263.582 658.582 260 663 260H716C720.418 260 724 263.582 724 268V320C724 324.418 720.418 328 716 328H663C658.582 328 655 324.418 655 320V268Z"/>
</mask>
<path d="M655 268C655 263.582 658.582 260 663 260H716C720.418 260 724 263.582 724 268V320C724 324.418 720.418 328 716 328H663C658.582 328 655 324.418 655 320V268Z" fill="#519EE6"/>
<path d="M650 267C650 259.82 655.82 254 663 254H716C723.18 254 729 259.82 729 267L719 268C719 266.895 717.657 266 716 266H663C661.343 266 660 266.895 660 268L650 267ZM729 321C729 328.18 723.18 334 716 334H663C655.82 334 650 328.18 650 321L660 320C660 321.105 661.343 322 663 322H716C717.657 322 719 321.105 719 320L729 321ZM663 334C655.82 334 650 328.18 650 321V267C650 259.82 655.82 254 663 254V266C661.343 266 660 266.895 660 268V320C660 321.105 661.343 322 663 322V334ZM716 254C723.18 254 729 259.82 729 267V321C729 328.18 723.18 334 716 334V322C717.657 322 719 321.105 719 320V268C719 266.895 717.657 266 716 266V254Z" fill="white" mask="url(#path-56-outside-15_2_695)"/>
</g>
</g>
<path fill-rule="evenodd" clip-rule="evenodd" d="M703.458 294.714C703.458 294.714 700.271 294.357 699.689 297.051C699.147 302.22 695.026 306.239 690.023 306.239C684.651 306.239 680.295 301.605 680.295 295.89C680.295 291.123 684.173 288.013 688.579 287.113C689.328 286.959 690.023 287.571 690.023 288.381V290.822C690.023 291.866 691.129 292.479 691.933 291.88L701.664 284.634C701.989 284.391 702.182 283.997 702.182 283.575C702.182 283.183 702.015 282.812 701.727 282.567L691.996 274.285C691.2 273.608 690.023 274.211 690.023 275.293V277.942C690.023 278.598 689.561 279.153 688.947 279.225C680.45 280.227 673 286.707 673 295.89C673 305.892 680.621 314.001 690.023 314.001C698.985 314.001 706.329 306.632 706.996 297.28C706.996 295.786 705.583 294.714 703.458 294.714Z" fill="white"/>
<g filter="url(#filter35_i_2_695)">
<g filter="url(#filter36_d_2_695)">
<mask id="path-59-outside-16_2_695" maskUnits="userSpaceOnUse" x="750" y="254" width="79" height="80" fill="black">
<rect fill="white" x="750" y="254" width="79" height="80"/>
<path d="M755 268C755 263.582 758.582 260 763 260H816C820.418 260 824 263.582 824 268V320C824 324.418 820.418 328 816 328H763C758.582 328 755 324.418 755 320V268Z"/>
</mask>
<path d="M755 268C755 263.582 758.582 260 763 260H816C820.418 260 824 263.582 824 268V320C824 324.418 820.418 328 816 328H763C758.582 328 755 324.418 755 320V268Z" fill="#519EE6"/>
<path d="M750 267C750 259.82 755.82 254 763 254H816C823.18 254 829 259.82 829 267L819 268C819 266.895 817.657 266 816 266H763C761.343 266 760 266.895 760 268L750 267ZM829 321C829 328.18 823.18 334 816 334H763C755.82 334 750 328.18 750 321L760 320C760 321.105 761.343 322 763 322H816C817.657 322 819 321.105 819 320L829 321ZM763 334C755.82 334 750 328.18 750 321V267C750 259.82 755.82 254 763 254V266C761.343 266 760 266.895 760 268V320C760 321.105 761.343 322 763 322V334ZM816 254C823.18 254 829 259.82 829 267V321C829 328.18 823.18 334 816 334V322C817.657 322 819 321.105 819 320V268C819 266.895 817.657 266 816 266V254Z" fill="white" mask="url(#path-59-outside-16_2_695)"/>
</g>
</g>
<g filter="url(#filter37_i_2_695)">
<path d="M784.487 274H771.228C770.55 274 770 274.56 770 275.25V282.75C770 283.44 770.55 284 771.228 284H784.487C785.165 284 785.714 283.44 785.714 282.75V275.25C785.714 274.56 785.165 274 784.487 274Z" fill="white"/>
<path d="M784.487 289H771.228C770.55 289 770 289.56 770 290.25V297.75C770 298.44 770.55 299 771.228 299H784.487C785.165 299 785.714 298.44 785.714 297.75V290.25C785.714 289.56 785.165 289 784.487 289Z" fill="white"/>
<path d="M784.487 304H771.228C770.55 304 770 304.56 770 305.25V312.75C770 313.44 770.55 314 771.228 314H784.487C785.165 314 785.714 313.44 785.714 312.75V305.25C785.714 304.56 785.165 304 784.487 304Z" fill="white"/>
<path d="M808.772 274H795.513C794.835 274 794.286 274.56 794.286 275.25V282.75C794.286 283.44 794.835 284 795.513 284H808.772C809.45 284 810 283.44 810 282.75V275.25C810 274.56 809.45 274 808.772 274Z" fill="white"/>
<path d="M808.772 289H795.513C794.835 289 794.286 289.56 794.286 290.25V297.75C794.286 298.44 794.835 299 795.513 299H808.772C809.45 299 810 298.44 810 297.75V290.25C810 289.56 809.45 289 808.772 289Z" fill="white"/>
<path d="M808.772 304H795.513C794.835 304 794.286 304.56 794.286 305.25V312.75C794.286 313.44 794.835 314 795.513 314H808.772C809.45 314 810 313.44 810 312.75V305.25C810 304.56 809.45 304 808.772 304Z" fill="white"/>
</g>
<g filter="url(#filter38_d_2_695)">
<mask id="path-67-outside-17_2_695" maskUnits="userSpaceOnUse" x="50" y="384" width="161" height="79" fill="black">
<rect fill="white" x="50" y="384" width="161" height="79"/>
<path d="M56 398C56 393.582 59.5817 390 64 390H197C201.418 390 205 393.582 205 398V449C205 453.418 201.418 457 197 457H64C59.5817 457 56 453.418 56 449V398Z"/>
</mask>
<path d="M56 398C56 393.582 59.5817 390 64 390H197C201.418 390 205 393.582 205 398V449C205 453.418 201.418 457 197 457H64C59.5817 457 56 453.418 56 449V398Z" fill="#519EE6"/>
<path d="M50 398C50 390.268 56.268 384 64 384H197C204.732 384 211 390.268 211 398H199C199 396.895 198.105 396 197 396H64C62.8954 396 62 396.895 62 398H50ZM211 449C211 456.732 204.732 463 197 463H64C56.268 463 50 456.732 50 449H62C62 450.105 62.8954 451 64 451H197C198.105 451 199 450.105 199 449H211ZM64 463C56.268 463 50 456.732 50 449V398C50 390.268 56.268 384 64 384V396C62.8954 396 62 396.895 62 398V449C62 450.105 62.8954 451 64 451V463ZM197 384C204.732 384 211 390.268 211 398V449C211 456.732 204.732 463 197 463V451C198.105 451 199 450.105 199 449V398C199 396.895 198.105 396 197 396V384Z" fill="#8FD7FF" mask="url(#path-67-outside-17_2_695)"/>
</g>
<path d="M81.9884 410.536C81.9884 409.96 82.2444 409.448 82.7564 409C83.3004 408.52 84.0044 408.28 84.8684 408.28H91.1564C93.1724 408.28 94.9164 408.536 96.3884 409.048C97.8604 409.56 99.0764 410.28 100.036 411.208C100.996 412.104 101.7 413.16 102.148 414.376C102.596 415.592 102.82 416.904 102.82 418.312V418.84C102.82 420.056 102.612 421.224 102.196 422.344C101.78 423.464 101.108 424.456 100.18 425.32C99.2524 426.184 98.0524 426.888 96.5804 427.432C95.1084 427.944 93.3004 428.2 91.1564 428.2H87.6044V437.224C87.6044 437.8 87.3484 438.328 86.8364 438.808C86.3564 439.256 85.7004 439.48 84.8684 439.48C84.0044 439.48 83.3004 439.208 82.7564 438.664C82.2444 438.12 81.9884 437.56 81.9884 436.984V410.536ZM87.6044 413.08V423.592H91.1564C92.2124 423.592 93.1244 423.464 93.8924 423.208C94.6604 422.952 95.2844 422.616 95.7644 422.2C96.2764 421.784 96.6444 421.304 96.8684 420.76C97.1244 420.216 97.2524 419.656 97.2524 419.08V417.976C97.2524 416.6 96.7724 415.448 95.8124 414.52C94.8524 413.56 93.3004 413.08 91.1564 413.08H87.6044ZM108.803 410.056C108.803 409.48 109.059 408.968 109.571 408.52C110.083 408.04 110.787 407.8 111.683 407.8C112.483 407.8 113.139 408.04 113.651 408.52C114.163 408.968 114.419 409.48 114.419 410.056V433.912H124.643C125.539 433.912 126.211 434.152 126.659 434.632C127.139 435.08 127.379 435.704 127.379 436.504C127.379 437.24 127.139 437.848 126.659 438.328C126.211 438.776 125.539 439 124.643 439H111.395C110.563 438.936 109.923 438.68 109.475 438.232C109.027 437.784 108.803 437.288 108.803 436.744V410.056ZM156.546 436.36C156.706 436.904 156.61 437.48 156.258 438.088C155.906 438.664 155.298 439.064 154.434 439.288C153.634 439.48 152.914 439.416 152.274 439.096C151.666 438.776 151.282 438.344 151.122 437.8L149.394 432.232H138.93L137.154 437.848C136.962 438.392 136.546 438.824 135.906 439.144C135.298 439.464 134.61 439.528 133.842 439.336C132.978 439.112 132.354 438.712 131.97 438.136C131.618 437.528 131.522 436.952 131.682 436.408L141.09 409.816C141.25 409.272 141.602 408.808 142.146 408.424C142.722 408.008 143.41 407.8 144.21 407.8C144.978 407.8 145.65 408.008 146.226 408.424C146.802 408.808 147.17 409.272 147.33 409.816L156.546 436.36ZM140.418 427.528H147.906L144.21 415.624L140.418 427.528ZM165.397 427.528L156.709 411.64C156.357 411.192 156.261 410.648 156.421 410.008C156.581 409.336 156.997 408.792 157.669 408.376C158.405 407.928 159.125 407.768 159.829 407.896C160.533 407.992 161.061 408.264 161.413 408.712L168.325 422.296L175.285 408.712C175.637 408.264 176.165 407.992 176.869 407.896C177.573 407.768 178.293 407.928 179.029 408.376C179.701 408.792 180.101 409.336 180.229 410.008C180.389 410.648 180.309 411.192 179.989 411.64L170.965 428.056V437.176C170.965 437.752 170.709 438.28 170.197 438.76C169.717 439.208 169.077 439.432 168.277 439.432C167.381 439.432 166.677 439.208 166.165 438.76C165.653 438.28 165.397 437.752 165.397 437.176V427.528Z" fill="white"/>
<g filter="url(#filter39_d_2_695)">
<mask id="path-70-outside-18_2_695" maskUnits="userSpaceOnUse" x="230" y="384" width="161" height="79" fill="black">
<rect fill="white" x="230" y="384" width="161" height="79"/>
<path d="M236 398C236 393.582 239.582 390 244 390H377C381.418 390 385 393.582 385 398V449C385 453.418 381.418 457 377 457H244C239.582 457 236 453.418 236 449V398Z"/>
</mask>
<path d="M236 398C236 393.582 239.582 390 244 390H377C381.418 390 385 393.582 385 398V449C385 453.418 381.418 457 377 457H244C239.582 457 236 453.418 236 449V398Z" fill="#519EE6"/>
<path d="M230 398C230 390.268 236.268 384 244 384H377C384.732 384 391 390.268 391 398H379C379 396.895 378.105 396 377 396H244C242.895 396 242 396.895 242 398H230ZM391 449C391 456.732 384.732 463 377 463H244C236.268 463 230 456.732 230 449H242C242 450.105 242.895 451 244 451H377C378.105 451 379 450.105 379 449H391ZM244 463C236.268 463 230 456.732 230 449V398C230 390.268 236.268 384 244 384V396C242.895 396 242 396.895 242 398V449C242 450.105 242.895 451 244 451V463ZM377 384C384.732 384 391 390.268 391 398V449C391 456.732 384.732 463 377 463V451C378.105 451 379 450.105 379 449V398C379 396.895 378.105 396 377 396V384Z" fill="#8FD7FF" mask="url(#path-70-outside-18_2_695)"/>
</g>
<g filter="url(#filter40_i_2_695)">
<path d="M324.711 419.601C328.03 421.566 328.03 426.434 324.711 428.399L299.546 443.299C296.201 445.279 292 442.83 292 438.9V409.1C292 405.17 296.201 402.721 299.546 404.701L324.711 419.601Z" fill="white"/>
</g>
<g filter="url(#filter41_i_2_695)">
<g filter="url(#filter42_d_2_695)">
<mask id="path-73-outside-19_2_695" maskUnits="userSpaceOnUse" x="50" y="514" width="161" height="79" fill="black">
<rect fill="white" x="50" y="514" width="161" height="79"/>
<path d="M56 528C56 523.582 59.5817 520 64 520H197C201.418 520 205 523.582 205 528V579C205 583.418 201.418 587 197 587H64C59.5817 587 56 583.418 56 579V528Z"/>
</mask>
<path d="M56 528C56 523.582 59.5817 520 64 520H197C201.418 520 205 523.582 205 528V579C205 583.418 201.418 587 197 587H64C59.5817 587 56 583.418 56 579V528Z" fill="#519EE6"/>
<path d="M50 528C50 520.268 56.268 514 64 514H197C204.732 514 211 520.268 211 528H199C199 526.895 198.105 526 197 526H64C62.8954 526 62 526.895 62 528H50ZM211 579C211 586.732 204.732 593 197 593H64C56.268 593 50 586.732 50 579H62C62 580.105 62.8954 581 64 581H197C198.105 581 199 580.105 199 579H211ZM64 593C56.268 593 50 586.732 50 579V528C50 520.268 56.268 514 64 514V526C62.8954 526 62 526.895 62 528V579C62 580.105 62.8954 581 64 581V593ZM197 514C204.732 514 211 520.268 211 528V579C211 586.732 204.732 593 197 593V581C198.105 581 199 580.105 199 579V528C199 526.895 198.105 526 197 526V514Z" fill="white" mask="url(#path-73-outside-19_2_695)"/>
</g>
</g>
<path d="M81.9884 540.536C81.9884 539.96 82.2444 539.448 82.7564 539C83.3004 538.52 84.0044 538.28 84.8684 538.28H91.1564C93.1724 538.28 94.9164 538.536 96.3884 539.048C97.8604 539.56 99.0764 540.28 100.036 541.208C100.996 542.104 101.7 543.16 102.148 544.376C102.596 545.592 102.82 546.904 102.82 548.312V548.84C102.82 550.056 102.612 551.224 102.196 552.344C101.78 553.464 101.108 554.456 100.18 555.32C99.2524 556.184 98.0524 556.888 96.5804 557.432C95.1084 557.944 93.3004 558.2 91.1564 558.2H87.6044V567.224C87.6044 567.8 87.3484 568.328 86.8364 568.808C86.3564 569.256 85.7004 569.48 84.8684 569.48C84.0044 569.48 83.3004 569.208 82.7564 568.664C82.2444 568.12 81.9884 567.56 81.9884 566.984V540.536ZM87.6044 543.08V553.592H91.1564C92.2124 553.592 93.1244 553.464 93.8924 553.208C94.6604 552.952 95.2844 552.616 95.7644 552.2C96.2764 551.784 96.6444 551.304 96.8684 550.76C97.1244 550.216 97.2524 549.656 97.2524 549.08V547.976C97.2524 546.6 96.7724 545.448 95.8124 544.52C94.8524 543.56 93.3004 543.08 91.1564 543.08H87.6044ZM108.803 540.056C108.803 539.48 109.059 538.968 109.571 538.52C110.083 538.04 110.787 537.8 111.683 537.8C112.483 537.8 113.139 538.04 113.651 538.52C114.163 538.968 114.419 539.48 114.419 540.056V563.912H124.643C125.539 563.912 126.211 564.152 126.659 564.632C127.139 565.08 127.379 565.704 127.379 566.504C127.379 567.24 127.139 567.848 126.659 568.328C126.211 568.776 125.539 569 124.643 569H111.395C110.563 568.936 109.923 568.68 109.475 568.232C109.027 567.784 108.803 567.288 108.803 566.744V540.056ZM156.546 566.36C156.706 566.904 156.61 567.48 156.258 568.088C155.906 568.664 155.298 569.064 154.434 569.288C153.634 569.48 152.914 569.416 152.274 569.096C151.666 568.776 151.282 568.344 151.122 567.8L149.394 562.232H138.93L137.154 567.848C136.962 568.392 136.546 568.824 135.906 569.144C135.298 569.464 134.61 569.528 133.842 569.336C132.978 569.112 132.354 568.712 131.97 568.136C131.618 567.528 131.522 566.952 131.682 566.408L141.09 539.816C141.25 539.272 141.602 538.808 142.146 538.424C142.722 538.008 143.41 537.8 144.21 537.8C144.978 537.8 145.65 538.008 146.226 538.424C146.802 538.808 147.17 539.272 147.33 539.816L156.546 566.36ZM140.418 557.528H147.906L144.21 545.624L140.418 557.528ZM165.397 557.528L156.709 541.64C156.357 541.192 156.261 540.648 156.421 540.008C156.581 539.336 156.997 538.792 157.669 538.376C158.405 537.928 159.125 537.768 159.829 537.896C160.533 537.992 161.061 538.264 161.413 538.712L168.325 552.296L175.285 538.712C175.637 538.264 176.165 537.992 176.869 537.896C177.573 537.768 178.293 537.928 179.029 538.376C179.701 538.792 180.101 539.336 180.229 540.008C180.389 540.648 180.309 541.192 179.989 541.64L170.965 558.056V567.176C170.965 567.752 170.709 568.28 170.197 568.76C169.717 569.208 169.077 569.432 168.277 569.432C167.381 569.432 166.677 569.208 166.165 568.76C165.653 568.28 165.397 567.752 165.397 567.176V557.528Z" fill="white"/>
<g filter="url(#filter43_i_2_695)">
<g filter="url(#filter44_d_2_695)">
<mask id="path-76-outside-20_2_695" maskUnits="userSpaceOnUse" x="230" y="514" width="161" height="79" fill="black">
<rect fill="white" x="230" y="514" width="161" height="79"/>
<path d="M236 528C236 523.582 239.582 520 244 520H377C381.418 520 385 523.582 385 528V579C385 583.418 381.418 587 377 587H244C239.582 587 236 583.418 236 579V528Z"/>
</mask>
<path d="M236 528C236 523.582 239.582 520 244 520H377C381.418 520 385 523.582 385 528V579C385 583.418 381.418 587 377 587H244C239.582 587 236 583.418 236 579V528Z" fill="#519EE6"/>
<path d="M230 528C230 520.268 236.268 514 244 514H377C384.732 514 391 520.268 391 528H379C379 526.895 378.105 526 377 526H244C242.895 526 242 526.895 242 528H230ZM391 579C391 586.732 384.732 593 377 593H244C236.268 593 230 586.732 230 579H242C242 580.105 242.895 581 244 581H377C378.105 581 379 580.105 379 579H391ZM244 593C236.268 593 230 586.732 230 579V528C230 520.268 236.268 514 244 514V526C242.895 526 242 526.895 242 528V579C242 580.105 242.895 581 244 581V593ZM377 514C384.732 514 391 520.268 391 528V579C391 586.732 384.732 593 377 593V581C378.105 581 379 580.105 379 579V528C379 526.895 378.105 526 377 526V514Z" fill="white" mask="url(#path-76-outside-20_2_695)"/>
</g>
</g>
<g filter="url(#filter45_i_2_695)">
<path d="M324.711 549.601C328.03 551.566 328.03 556.434 324.711 558.399L299.546 573.299C296.201 575.279 292 572.83 292 568.9V539.1C292 535.17 296.201 532.721 299.546 534.701L324.711 549.601Z" fill="white"/>
</g>
<defs>
<filter id="filter0_d_2_695" x="49" y="124" width="81" height="82" filterUnits="userSpaceOnUse" color-interpolation-filters="sRGB">
<feFlood flood-opacity="0" result="BackgroundImageFix"/>
<feColorMatrix in="SourceAlpha" type="matrix" values="0 0 0 0 0 0 0 0 0 0 0 0 0 0 0 0 0 0 127 0" result="hardAlpha"/>
<feOffset dy="1"/>
<feGaussianBlur stdDeviation="0.5"/>
<feComposite in2="hardAlpha" operator="out"/>
<feColorMatrix type="matrix" values="0 0 0 0 0 0 0 0 0 0.1169 0 0 0 0 0.4175 0 0 0 0.6 0"/>
<feBlend mode="normal" in2="BackgroundImageFix" result="effect1_dropShadow_2_695"/>
<feBlend mode="normal" in="SourceGraphic" in2="effect1_dropShadow_2_695" result="shape"/>
</filter>
<filter id="filter1_i_2_695" x="63.3846" y="144" width="50.6154" height="41" filterUnits="userSpaceOnUse" color-interpolation-filters="sRGB">
<feFlood flood-opacity="0" result="BackgroundImageFix"/>
<feBlend mode="normal" in="SourceGraphic" in2="BackgroundImageFix" result="shape"/>
<feColorMatrix in="SourceAlpha" type="matrix" values="0 0 0 0 0 0 0 0 0 0 0 0 0 0 0 0 0 0 127 0" result="hardAlpha"/>
<feMorphology radius="1" operator="erode" in="SourceAlpha" result="effect1_innerShadow_2_695"/>
<feOffset dy="1"/>
<feGaussianBlur stdDeviation="0.25"/>
<feComposite in2="hardAlpha" operator="arithmetic" k2="-1" k3="1"/>
<feColorMatrix type="matrix" values="0 0 0 0 0.207843 0 0 0 0 0.454902 0 0 0 0 0.74902 0 0 0 1 0"/>
<feBlend mode="normal" in2="shape" result="effect1_innerShadow_2_695"/>
</filter>
<filter id="filter2_d_2_695" x="149" y="124" width="81" height="82" filterUnits="userSpaceOnUse" color-interpolation-filters="sRGB">
<feFlood flood-opacity="0" result="BackgroundImageFix"/>
<feColorMatrix in="SourceAlpha" type="matrix" values="0 0 0 0 0 0 0 0 0 0 0 0 0 0 0 0 0 0 127 0" result="hardAlpha"/>
<feOffset dy="1"/>
<feGaussianBlur stdDeviation="0.5"/>
<feComposite in2="hardAlpha" operator="out"/>
<feColorMatrix type="matrix" values="0 0 0 0 0 0 0 0 0 0.1169 0 0 0 0 0.4175 0 0 0 0.6 0"/>
<feBlend mode="normal" in2="BackgroundImageFix" result="effect1_dropShadow_2_695"/>
<feBlend mode="normal" in="SourceGraphic" in2="effect1_dropShadow_2_695" result="shape"/>
</filter>
<filter id="filter3_i_2_695" x="168.293" y="144" width="42.4138" height="41" filterUnits="userSpaceOnUse" color-interpolation-filters="sRGB">
<feFlood flood-opacity="0" result="BackgroundImageFix"/>
<feBlend mode="normal" in="SourceGraphic" in2="BackgroundImageFix" result="shape"/>
<feColorMatrix in="SourceAlpha" type="matrix" values="0 0 0 0 0 0 0 0 0 0 0 0 0 0 0 0 0 0 127 0" result="hardAlpha"/>
<feMorphology radius="1" operator="erode" in="SourceAlpha" result="effect1_innerShadow_2_695"/>
<feOffset dy="1"/>
<feGaussianBlur stdDeviation="0.25"/>
<feComposite in2="hardAlpha" operator="arithmetic" k2="-1" k3="1"/>
<feColorMatrix type="matrix" values="0 0 0 0 0.207843 0 0 0 0 0.454902 0 0 0 0 0.74902 0 0 0 1 0"/>
<feBlend mode="normal" in2="shape" result="effect1_innerShadow_2_695"/>
</filter>
<filter id="filter4_d_2_695" x="249" y="124" width="81" height="82" filterUnits="userSpaceOnUse" color-interpolation-filters="sRGB">
<feFlood flood-opacity="0" result="BackgroundImageFix"/>
<feColorMatrix in="SourceAlpha" type="matrix" values="0 0 0 0 0 0 0 0 0 0 0 0 0 0 0 0 0 0 127 0" result="hardAlpha"/>
<feOffset dy="1"/>
<feGaussianBlur stdDeviation="0.5"/>
<feComposite in2="hardAlpha" operator="out"/>
<feColorMatrix type="matrix" values="0 0 0 0 0 0 0 0 0 0.1169 0 0 0 0 0.4175 0 0 0 0.6 0"/>
<feBlend mode="normal" in2="BackgroundImageFix" result="effect1_dropShadow_2_695"/>
<feBlend mode="normal" in="SourceGraphic" in2="effect1_dropShadow_2_695" result="shape"/>
</filter>
<filter id="filter5_i_2_695" x="276" y="144" width="29" height="41" filterUnits="userSpaceOnUse" color-interpolation-filters="sRGB">
<feFlood flood-opacity="0" result="BackgroundImageFix"/>
<feBlend mode="normal" in="SourceGraphic" in2="BackgroundImageFix" result="shape"/>
<feColorMatrix in="SourceAlpha" type="matrix" values="0 0 0 0 0 0 0 0 0 0 0 0 0 0 0 0 0 0 127 0" result="hardAlpha"/>
<feMorphology radius="1" operator="erode" in="SourceAlpha" result="effect1_innerShadow_2_695"/>
<feOffset dy="1"/>
<feGaussianBlur stdDeviation="0.25"/>
<feComposite in2="hardAlpha" operator="arithmetic" k2="-1" k3="1"/>
<feColorMatrix type="matrix" values="0 0 0 0 0.207843 0 0 0 0 0.454902 0 0 0 0 0.74902 0 0 0 1 0"/>
<feBlend mode="normal" in2="shape" result="effect1_innerShadow_2_695"/>
</filter>
<filter id="filter6_d_2_695" x="349" y="124" width="81" height="82" filterUnits="userSpaceOnUse" color-interpolation-filters="sRGB">
<feFlood flood-opacity="0" result="BackgroundImageFix"/>
<feColorMatrix in="SourceAlpha" type="matrix" values="0 0 0 0 0 0 0 0 0 0 0 0 0 0 0 0 0 0 127 0" result="hardAlpha"/>
<feOffset dy="1"/>
<feGaussianBlur stdDeviation="0.5"/>
<feComposite in2="hardAlpha" operator="out"/>
<feColorMatrix type="matrix" values="0 0 0 0 0 0 0 0 0 0.1169 0 0 0 0 0.4175 0 0 0 0.6 0"/>
<feBlend mode="normal" in2="BackgroundImageFix" result="effect1_dropShadow_2_695"/>
<feBlend mode="normal" in="SourceGraphic" in2="effect1_dropShadow_2_695" result="shape"/>
</filter>
<filter id="filter7_i_2_695" x="370" y="144" width="40" height="41" filterUnits="userSpaceOnUse" color-interpolation-filters="sRGB">
<feFlood flood-opacity="0" result="BackgroundImageFix"/>
<feBlend mode="normal" in="SourceGraphic" in2="BackgroundImageFix" result="shape"/>
<feColorMatrix in="SourceAlpha" type="matrix" values="0 0 0 0 0 0 0 0 0 0 0 0 0 0 0 0 0 0 127 0" result="hardAlpha"/>
<feMorphology radius="1" operator="erode" in="SourceAlpha" result="effect1_innerShadow_2_695"/>
<feOffset dy="1"/>
<feGaussianBlur stdDeviation="0.25"/>
<feComposite in2="hardAlpha" operator="arithmetic" k2="-1" k3="1"/>
<feColorMatrix type="matrix" values="0 0 0 0 0.207843 0 0 0 0 0.454902 0 0 0 0 0.74902 0 0 0 1 0"/>
<feBlend mode="normal" in2="shape" result="effect1_innerShadow_2_695"/>
</filter>
<filter id="filter8_d_2_695" x="449" y="124" width="81" height="82" filterUnits="userSpaceOnUse" color-interpolation-filters="sRGB">
<feFlood flood-opacity="0" result="BackgroundImageFix"/>
<feColorMatrix in="SourceAlpha" type="matrix" values="0 0 0 0 0 0 0 0 0 0 0 0 0 0 0 0 0 0 127 0" result="hardAlpha"/>
<feOffset dy="1"/>
<feGaussianBlur stdDeviation="0.5"/>
<feComposite in2="hardAlpha" operator="out"/>
<feColorMatrix type="matrix" values="0 0 0 0 0 0 0 0 0 0.1169 0 0 0 0 0.4175 0 0 0 0.6 0"/>
<feBlend mode="normal" in2="BackgroundImageFix" result="effect1_dropShadow_2_695"/>
<feBlend mode="normal" in="SourceGraphic" in2="effect1_dropShadow_2_695" result="shape"/>
</filter>
<filter id="filter9_i_2_695" x="477" y="144" width="25" height="41" filterUnits="userSpaceOnUse" color-interpolation-filters="sRGB">
<feFlood flood-opacity="0" result="BackgroundImageFix"/>
<feBlend mode="normal" in="SourceGraphic" in2="BackgroundImageFix" result="shape"/>
<feColorMatrix in="SourceAlpha" type="matrix" values="0 0 0 0 0 0 0 0 0 0 0 0 0 0 0 0 0 0 127 0" result="hardAlpha"/>
<feMorphology radius="1" operator="erode" in="SourceAlpha" result="effect1_innerShadow_2_695"/>
<feOffset dy="1"/>
<feGaussianBlur stdDeviation="0.25"/>
<feComposite in2="hardAlpha" operator="arithmetic" k2="-1" k3="1"/>
<feColorMatrix type="matrix" values="0 0 0 0 0.207843 0 0 0 0 0.454902 0 0 0 0 0.74902 0 0 0 1 0"/>
<feBlend mode="normal" in2="shape" result="effect1_innerShadow_2_695"/>
</filter>
<filter id="filter10_d_2_695" x="549" y="124" width="81" height="82" filterUnits="userSpaceOnUse" color-interpolation-filters="sRGB">
<feFlood flood-opacity="0" result="BackgroundImageFix"/>
<feColorMatrix in="SourceAlpha" type="matrix" values="0 0 0 0 0 0 0 0 0 0 0 0 0 0 0 0 0 0 127 0" result="hardAlpha"/>
<feOffset dy="1"/>
<feGaussianBlur stdDeviation="0.5"/>
<feComposite in2="hardAlpha" operator="out"/>
<feColorMatrix type="matrix" values="0 0 0 0 0 0 0 0 0 0.1169 0 0 0 0 0.4175 0 0 0 0.6 0"/>
<feBlend mode="normal" in2="BackgroundImageFix" result="effect1_dropShadow_2_695"/>
<feBlend mode="normal" in="SourceGraphic" in2="effect1_dropShadow_2_695" result="shape"/>
</filter>
<filter id="filter11_i_2_695" x="578.595" y="144" width="24.4048" height="40.2858" filterUnits="userSpaceOnUse" color-interpolation-filters="sRGB">
<feFlood flood-opacity="0" result="BackgroundImageFix"/>
<feBlend mode="normal" in="SourceGraphic" in2="BackgroundImageFix" result="shape"/>
<feColorMatrix in="SourceAlpha" type="matrix" values="0 0 0 0 0 0 0 0 0 0 0 0 0 0 0 0 0 0 127 0" result="hardAlpha"/>
<feMorphology radius="1" operator="erode" in="SourceAlpha" result="effect1_innerShadow_2_695"/>
<feOffset dy="1"/>
<feGaussianBlur stdDeviation="0.25"/>
<feComposite in2="hardAlpha" operator="arithmetic" k2="-1" k3="1"/>
<feColorMatrix type="matrix" values="0 0 0 0 0.207843 0 0 0 0 0.454902 0 0 0 0 0.74902 0 0 0 1 0"/>
<feBlend mode="normal" in2="shape" result="effect1_innerShadow_2_695"/>
</filter>
<filter id="filter12_d_2_695" x="649" y="124" width="81" height="82" filterUnits="userSpaceOnUse" color-interpolation-filters="sRGB">
<feFlood flood-opacity="0" result="BackgroundImageFix"/>
<feColorMatrix in="SourceAlpha" type="matrix" values="0 0 0 0 0 0 0 0 0 0 0 0 0 0 0 0 0 0 127 0" result="hardAlpha"/>
<feOffset dy="1"/>
<feGaussianBlur stdDeviation="0.5"/>
<feComposite in2="hardAlpha" operator="out"/>
<feColorMatrix type="matrix" values="0 0 0 0 0 0 0 0 0 0.1169 0 0 0 0 0.4175 0 0 0 0.6 0"/>
<feBlend mode="normal" in2="BackgroundImageFix" result="effect1_dropShadow_2_695"/>
<feBlend mode="normal" in="SourceGraphic" in2="effect1_dropShadow_2_695" result="shape"/>
</filter>
<filter id="filter13_d_2_695" x="749" y="124" width="81" height="82" filterUnits="userSpaceOnUse" color-interpolation-filters="sRGB">
<feFlood flood-opacity="0" result="BackgroundImageFix"/>
<feColorMatrix in="SourceAlpha" type="matrix" values="0 0 0 0 0 0 0 0 0 0 0 0 0 0 0 0 0 0 127 0" result="hardAlpha"/>
<feOffset dy="1"/>
<feGaussianBlur stdDeviation="0.5"/>
<feComposite in2="hardAlpha" operator="out"/>
<feColorMatrix type="matrix" values="0 0 0 0 0 0 0 0 0 0.1169 0 0 0 0 0.4175 0 0 0 0.6 0"/>
<feBlend mode="normal" in2="BackgroundImageFix" result="effect1_dropShadow_2_695"/>
<feBlend mode="normal" in="SourceGraphic" in2="effect1_dropShadow_2_695" result="shape"/>
</filter>
<filter id="filter14_i_2_695" x="770" y="144" width="40" height="41" filterUnits="userSpaceOnUse" color-interpolation-filters="sRGB">
<feFlood flood-opacity="0" result="BackgroundImageFix"/>
<feBlend mode="normal" in="SourceGraphic" in2="BackgroundImageFix" result="shape"/>
<feColorMatrix in="SourceAlpha" type="matrix" values="0 0 0 0 0 0 0 0 0 0 0 0 0 0 0 0 0 0 127 0" result="hardAlpha"/>
<feMorphology radius="1" operator="erode" in="SourceAlpha" result="effect1_innerShadow_2_695"/>
<feOffset dy="1"/>
<feGaussianBlur stdDeviation="0.25"/>
<feComposite in2="hardAlpha" operator="arithmetic" k2="-1" k3="1"/>
<feColorMatrix type="matrix" values="0 0 0 0 0.207843 0 0 0 0 0.454902 0 0 0 0 0.74902 0 0 0 1 0"/>
<feBlend mode="normal" in2="shape" result="effect1_innerShadow_2_695"/>
</filter>
<filter id="filter15_i_2_695" x="50" y="254" width="79" height="80" filterUnits="userSpaceOnUse" color-interpolation-filters="sRGB">
<feFlood flood-opacity="0" result="BackgroundImageFix"/>
<feBlend mode="normal" in="SourceGraphic" in2="BackgroundImageFix" result="shape"/>
<feColorMatrix in="SourceAlpha" type="matrix" values="0 0 0 0 0 0 0 0 0 0 0 0 0 0 0 0 0 0 127 0" result="hardAlpha"/>
<feOffset/>
<feGaussianBlur stdDeviation="2.5"/>
<feComposite in2="hardAlpha" operator="arithmetic" k2="-1" k3="1"/>
<feColorMatrix type="matrix" values="0 0 0 0 0.290196 0 0 0 0 0.564706 0 0 0 0 0.886275 0 0 0 1 0"/>
<feBlend mode="normal" in2="shape" result="effect1_innerShadow_2_695"/>
</filter>
<filter id="filter16_d_2_695" x="49" y="254" width="81" height="82" filterUnits="userSpaceOnUse" color-interpolation-filters="sRGB">
<feFlood flood-opacity="0" result="BackgroundImageFix"/>
<feColorMatrix in="SourceAlpha" type="matrix" values="0 0 0 0 0 0 0 0 0 0 0 0 0 0 0 0 0 0 127 0" result="hardAlpha"/>
<feOffset dy="1"/>
<feGaussianBlur stdDeviation="0.5"/>
<feComposite in2="hardAlpha" operator="out"/>
<feColorMatrix type="matrix" values="0 0 0 0 0 0 0 0 0 0.1169 0 0 0 0 0.4175 0 0 0 0.6 0"/>
<feBlend mode="normal" in2="BackgroundImageFix" result="effect1_dropShadow_2_695"/>
<feBlend mode="normal" in="SourceGraphic" in2="effect1_dropShadow_2_695" result="shape"/>
</filter>
<filter id="filter17_i_2_695" x="63.3846" y="274" width="50.6154" height="41" filterUnits="userSpaceOnUse" color-interpolation-filters="sRGB">
<feFlood flood-opacity="0" result="BackgroundImageFix"/>
<feBlend mode="normal" in="SourceGraphic" in2="BackgroundImageFix" result="shape"/>
<feColorMatrix in="SourceAlpha" type="matrix" values="0 0 0 0 0 0 0 0 0 0 0 0 0 0 0 0 0 0 127 0" result="hardAlpha"/>
<feMorphology radius="1" operator="erode" in="SourceAlpha" result="effect1_innerShadow_2_695"/>
<feOffset dy="1"/>
<feGaussianBlur stdDeviation="0.25"/>
<feComposite in2="hardAlpha" operator="arithmetic" k2="-1" k3="1"/>
<feColorMatrix type="matrix" values="0 0 0 0 0.207843 0 0 0 0 0.454902 0 0 0 0 0.74902 0 0 0 1 0"/>
<feBlend mode="normal" in2="shape" result="effect1_innerShadow_2_695"/>
</filter>
<filter id="filter18_i_2_695" x="150" y="254" width="79" height="80" filterUnits="userSpaceOnUse" color-interpolation-filters="sRGB">
<feFlood flood-opacity="0" result="BackgroundImageFix"/>
<feBlend mode="normal" in="SourceGraphic" in2="BackgroundImageFix" result="shape"/>
<feColorMatrix in="SourceAlpha" type="matrix" values="0 0 0 0 0 0 0 0 0 0 0 0 0 0 0 0 0 0 127 0" result="hardAlpha"/>
<feOffset/>
<feGaussianBlur stdDeviation="2.5"/>
<feComposite in2="hardAlpha" operator="arithmetic" k2="-1" k3="1"/>
<feColorMatrix type="matrix" values="0 0 0 0 0.290196 0 0 0 0 0.564706 0 0 0 0 0.886275 0 0 0 1 0"/>
<feBlend mode="normal" in2="shape" result="effect1_innerShadow_2_695"/>
</filter>
<filter id="filter19_d_2_695" x="149" y="254" width="81" height="82" filterUnits="userSpaceOnUse" color-interpolation-filters="sRGB">
<feFlood flood-opacity="0" result="BackgroundImageFix"/>
<feColorMatrix in="SourceAlpha" type="matrix" values="0 0 0 0 0 0 0 0 0 0 0 0 0 0 0 0 0 0 127 0" result="hardAlpha"/>
<feOffset dy="1"/>
<feGaussianBlur stdDeviation="0.5"/>
<feComposite in2="hardAlpha" operator="out"/>
<feColorMatrix type="matrix" values="0 0 0 0 0 0 0 0 0 0.1169 0 0 0 0 0.4175 0 0 0 0.6 0"/>
<feBlend mode="normal" in2="BackgroundImageFix" result="effect1_dropShadow_2_695"/>
<feBlend mode="normal" in="SourceGraphic" in2="effect1_dropShadow_2_695" result="shape"/>
</filter>
<filter id="filter20_i_2_695" x="168.293" y="274" width="42.4138" height="41" filterUnits="userSpaceOnUse" color-interpolation-filters="sRGB">
<feFlood flood-opacity="0" result="BackgroundImageFix"/>
<feBlend mode="normal" in="SourceGraphic" in2="BackgroundImageFix" result="shape"/>
<feColorMatrix in="SourceAlpha" type="matrix" values="0 0 0 0 0 0 0 0 0 0 0 0 0 0 0 0 0 0 127 0" result="hardAlpha"/>
<feMorphology radius="1" operator="erode" in="SourceAlpha" result="effect1_innerShadow_2_695"/>
<feOffset dy="1"/>
<feGaussianBlur stdDeviation="0.25"/>
<feComposite in2="hardAlpha" operator="arithmetic" k2="-1" k3="1"/>
<feColorMatrix type="matrix" values="0 0 0 0 0.207843 0 0 0 0 0.454902 0 0 0 0 0.74902 0 0 0 1 0"/>
<feBlend mode="normal" in2="shape" result="effect1_innerShadow_2_695"/>
</filter>
<filter id="filter21_i_2_695" x="250" y="254" width="79" height="80" filterUnits="userSpaceOnUse" color-interpolation-filters="sRGB">
<feFlood flood-opacity="0" result="BackgroundImageFix"/>
<feBlend mode="normal" in="SourceGraphic" in2="BackgroundImageFix" result="shape"/>
<feColorMatrix in="SourceAlpha" type="matrix" values="0 0 0 0 0 0 0 0 0 0 0 0 0 0 0 0 0 0 127 0" result="hardAlpha"/>
<feOffset/>
<feGaussianBlur stdDeviation="2.5"/>
<feComposite in2="hardAlpha" operator="arithmetic" k2="-1" k3="1"/>
<feColorMatrix type="matrix" values="0 0 0 0 0.290196 0 0 0 0 0.564706 0 0 0 0 0.886275 0 0 0 1 0"/>
<feBlend mode="normal" in2="shape" result="effect1_innerShadow_2_695"/>
</filter>
<filter id="filter22_d_2_695" x="249" y="254" width="81" height="82" filterUnits="userSpaceOnUse" color-interpolation-filters="sRGB">
<feFlood flood-opacity="0" result="BackgroundImageFix"/>
<feColorMatrix in="SourceAlpha" type="matrix" values="0 0 0 0 0 0 0 0 0 0 0 0 0 0 0 0 0 0 127 0" result="hardAlpha"/>
<feOffset dy="1"/>
<feGaussianBlur stdDeviation="0.5"/>
<feComposite in2="hardAlpha" operator="out"/>
<feColorMatrix type="matrix" values="0 0 0 0 0 0 0 0 0 0.1169 0 0 0 0 0.4175 0 0 0 0.6 0"/>
<feBlend mode="normal" in2="BackgroundImageFix" result="effect1_dropShadow_2_695"/>
<feBlend mode="normal" in="SourceGraphic" in2="effect1_dropShadow_2_695" result="shape"/>
</filter>
<filter id="filter23_i_2_695" x="276" y="274" width="29" height="41" filterUnits="userSpaceOnUse" color-interpolation-filters="sRGB">
<feFlood flood-opacity="0" result="BackgroundImageFix"/>
<feBlend mode="normal" in="SourceGraphic" in2="BackgroundImageFix" result="shape"/>
<feColorMatrix in="SourceAlpha" type="matrix" values="0 0 0 0 0 0 0 0 0 0 0 0 0 0 0 0 0 0 127 0" result="hardAlpha"/>
<feMorphology radius="1" operator="erode" in="SourceAlpha" result="effect1_innerShadow_2_695"/>
<feOffset dy="1"/>
<feGaussianBlur stdDeviation="0.25"/>
<feComposite in2="hardAlpha" operator="arithmetic" k2="-1" k3="1"/>
<feColorMatrix type="matrix" values="0 0 0 0 0.207843 0 0 0 0 0.454902 0 0 0 0 0.74902 0 0 0 1 0"/>
<feBlend mode="normal" in2="shape" result="effect1_innerShadow_2_695"/>
</filter>
<filter id="filter24_i_2_695" x="350" y="254" width="79" height="80" filterUnits="userSpaceOnUse" color-interpolation-filters="sRGB">
<feFlood flood-opacity="0" result="BackgroundImageFix"/>
<feBlend mode="normal" in="SourceGraphic" in2="BackgroundImageFix" result="shape"/>
<feColorMatrix in="SourceAlpha" type="matrix" values="0 0 0 0 0 0 0 0 0 0 0 0 0 0 0 0 0 0 127 0" result="hardAlpha"/>
<feOffset/>
<feGaussianBlur stdDeviation="2.5"/>
<feComposite in2="hardAlpha" operator="arithmetic" k2="-1" k3="1"/>
<feColorMatrix type="matrix" values="0 0 0 0 0.290196 0 0 0 0 0.564706 0 0 0 0 0.886275 0 0 0 1 0"/>
<feBlend mode="normal" in2="shape" result="effect1_innerShadow_2_695"/>
</filter>
<filter id="filter25_d_2_695" x="349" y="254" width="81" height="82" filterUnits="userSpaceOnUse" color-interpolation-filters="sRGB">
<feFlood flood-opacity="0" result="BackgroundImageFix"/>
<feColorMatrix in="SourceAlpha" type="matrix" values="0 0 0 0 0 0 0 0 0 0 0 0 0 0 0 0 0 0 127 0" result="hardAlpha"/>
<feOffset dy="1"/>
<feGaussianBlur stdDeviation="0.5"/>
<feComposite in2="hardAlpha" operator="out"/>
<feColorMatrix type="matrix" values="0 0 0 0 0 0 0 0 0 0.1169 0 0 0 0 0.4175 0 0 0 0.6 0"/>
<feBlend mode="normal" in2="BackgroundImageFix" result="effect1_dropShadow_2_695"/>
<feBlend mode="normal" in="SourceGraphic" in2="effect1_dropShadow_2_695" result="shape"/>
</filter>
<filter id="filter26_i_2_695" x="370" y="274" width="40" height="41" filterUnits="userSpaceOnUse" color-interpolation-filters="sRGB">
<feFlood flood-opacity="0" result="BackgroundImageFix"/>
<feBlend mode="normal" in="SourceGraphic" in2="BackgroundImageFix" result="shape"/>
<feColorMatrix in="SourceAlpha" type="matrix" values="0 0 0 0 0 0 0 0 0 0 0 0 0 0 0 0 0 0 127 0" result="hardAlpha"/>
<feMorphology radius="1" operator="erode" in="SourceAlpha" result="effect1_innerShadow_2_695"/>
<feOffset dy="1"/>
<feGaussianBlur stdDeviation="0.25"/>
<feComposite in2="hardAlpha" operator="arithmetic" k2="-1" k3="1"/>
<feColorMatrix type="matrix" values="0 0 0 0 0.207843 0 0 0 0 0.454902 0 0 0 0 0.74902 0 0 0 1 0"/>
<feBlend mode="normal" in2="shape" result="effect1_innerShadow_2_695"/>
</filter>
<filter id="filter27_i_2_695" x="450" y="254" width="79" height="80" filterUnits="userSpaceOnUse" color-interpolation-filters="sRGB">
<feFlood flood-opacity="0" result="BackgroundImageFix"/>
<feBlend mode="normal" in="SourceGraphic" in2="BackgroundImageFix" result="shape"/>
<feColorMatrix in="SourceAlpha" type="matrix" values="0 0 0 0 0 0 0 0 0 0 0 0 0 0 0 0 0 0 127 0" result="hardAlpha"/>
<feOffset/>
<feGaussianBlur stdDeviation="2.5"/>
<feComposite in2="hardAlpha" operator="arithmetic" k2="-1" k3="1"/>
<feColorMatrix type="matrix" values="0 0 0 0 0.290196 0 0 0 0 0.564706 0 0 0 0 0.886275 0 0 0 1 0"/>
<feBlend mode="normal" in2="shape" result="effect1_innerShadow_2_695"/>
</filter>
<filter id="filter28_d_2_695" x="449" y="254" width="81" height="82" filterUnits="userSpaceOnUse" color-interpolation-filters="sRGB">
<feFlood flood-opacity="0" result="BackgroundImageFix"/>
<feColorMatrix in="SourceAlpha" type="matrix" values="0 0 0 0 0 0 0 0 0 0 0 0 0 0 0 0 0 0 127 0" result="hardAlpha"/>
<feOffset dy="1"/>
<feGaussianBlur stdDeviation="0.5"/>
<feComposite in2="hardAlpha" operator="out"/>
<feColorMatrix type="matrix" values="0 0 0 0 0 0 0 0 0 0.1169 0 0 0 0 0.4175 0 0 0 0.6 0"/>
<feBlend mode="normal" in2="BackgroundImageFix" result="effect1_dropShadow_2_695"/>
<feBlend mode="normal" in="SourceGraphic" in2="effect1_dropShadow_2_695" result="shape"/>
</filter>
<filter id="filter29_i_2_695" x="477" y="274" width="25" height="41" filterUnits="userSpaceOnUse" color-interpolation-filters="sRGB">
<feFlood flood-opacity="0" result="BackgroundImageFix"/>
<feBlend mode="normal" in="SourceGraphic" in2="BackgroundImageFix" result="shape"/>
<feColorMatrix in="SourceAlpha" type="matrix" values="0 0 0 0 0 0 0 0 0 0 0 0 0 0 0 0 0 0 127 0" result="hardAlpha"/>
<feMorphology radius="1" operator="erode" in="SourceAlpha" result="effect1_innerShadow_2_695"/>
<feOffset dy="1"/>
<feGaussianBlur stdDeviation="0.25"/>
<feComposite in2="hardAlpha" operator="arithmetic" k2="-1" k3="1"/>
<feColorMatrix type="matrix" values="0 0 0 0 0.207843 0 0 0 0 0.454902 0 0 0 0 0.74902 0 0 0 1 0"/>
<feBlend mode="normal" in2="shape" result="effect1_innerShadow_2_695"/>
</filter>
<filter id="filter30_i_2_695" x="550" y="254" width="79" height="80" filterUnits="userSpaceOnUse" color-interpolation-filters="sRGB">
<feFlood flood-opacity="0" result="BackgroundImageFix"/>
<feBlend mode="normal" in="SourceGraphic" in2="BackgroundImageFix" result="shape"/>
<feColorMatrix in="SourceAlpha" type="matrix" values="0 0 0 0 0 0 0 0 0 0 0 0 0 0 0 0 0 0 127 0" result="hardAlpha"/>
<feOffset/>
<feGaussianBlur stdDeviation="2.5"/>
<feComposite in2="hardAlpha" operator="arithmetic" k2="-1" k3="1"/>
<feColorMatrix type="matrix" values="0 0 0 0 0.290196 0 0 0 0 0.564706 0 0 0 0 0.886275 0 0 0 1 0"/>
<feBlend mode="normal" in2="shape" result="effect1_innerShadow_2_695"/>
</filter>
<filter id="filter31_d_2_695" x="549" y="254" width="81" height="82" filterUnits="userSpaceOnUse" color-interpolation-filters="sRGB">
<feFlood flood-opacity="0" result="BackgroundImageFix"/>
<feColorMatrix in="SourceAlpha" type="matrix" values="0 0 0 0 0 0 0 0 0 0 0 0 0 0 0 0 0 0 127 0" result="hardAlpha"/>
<feOffset dy="1"/>
<feGaussianBlur stdDeviation="0.5"/>
<feComposite in2="hardAlpha" operator="out"/>
<feColorMatrix type="matrix" values="0 0 0 0 0 0 0 0 0 0.1169 0 0 0 0 0.4175 0 0 0 0.6 0"/>
<feBlend mode="normal" in2="BackgroundImageFix" result="effect1_dropShadow_2_695"/>
<feBlend mode="normal" in="SourceGraphic" in2="effect1_dropShadow_2_695" result="shape"/>
</filter>
<filter id="filter32_i_2_695" x="578.595" y="274" width="24.4048" height="40.2858" filterUnits="userSpaceOnUse" color-interpolation-filters="sRGB">
<feFlood flood-opacity="0" result="BackgroundImageFix"/>
<feBlend mode="normal" in="SourceGraphic" in2="BackgroundImageFix" result="shape"/>
<feColorMatrix in="SourceAlpha" type="matrix" values="0 0 0 0 0 0 0 0 0 0 0 0 0 0 0 0 0 0 127 0" result="hardAlpha"/>
<feMorphology radius="1" operator="erode" in="SourceAlpha" result="effect1_innerShadow_2_695"/>
<feOffset dy="1"/>
<feGaussianBlur stdDeviation="0.25"/>
<feComposite in2="hardAlpha" operator="arithmetic" k2="-1" k3="1"/>
<feColorMatrix type="matrix" values="0 0 0 0 0.207843 0 0 0 0 0.454902 0 0 0 0 0.74902 0 0 0 1 0"/>
<feBlend mode="normal" in2="shape" result="effect1_innerShadow_2_695"/>
</filter>
<filter id="filter33_i_2_695" x="650" y="254" width="79" height="80" filterUnits="userSpaceOnUse" color-interpolation-filters="sRGB">
<feFlood flood-opacity="0" result="BackgroundImageFix"/>
<feBlend mode="normal" in="SourceGraphic" in2="BackgroundImageFix" result="shape"/>
<feColorMatrix in="SourceAlpha" type="matrix" values="0 0 0 0 0 0 0 0 0 0 0 0 0 0 0 0 0 0 127 0" result="hardAlpha"/>
<feOffset/>
<feGaussianBlur stdDeviation="2.5"/>
<feComposite in2="hardAlpha" operator="arithmetic" k2="-1" k3="1"/>
<feColorMatrix type="matrix" values="0 0 0 0 0.290196 0 0 0 0 0.564706 0 0 0 0 0.886275 0 0 0 1 0"/>
<feBlend mode="normal" in2="shape" result="effect1_innerShadow_2_695"/>
</filter>
<filter id="filter34_d_2_695" x="649" y="254" width="81" height="82" filterUnits="userSpaceOnUse" color-interpolation-filters="sRGB">
<feFlood flood-opacity="0" result="BackgroundImageFix"/>
<feColorMatrix in="SourceAlpha" type="matrix" values="0 0 0 0 0 0 0 0 0 0 0 0 0 0 0 0 0 0 127 0" result="hardAlpha"/>
<feOffset dy="1"/>
<feGaussianBlur stdDeviation="0.5"/>
<feComposite in2="hardAlpha" operator="out"/>
<feColorMatrix type="matrix" values="0 0 0 0 0 0 0 0 0 0.1169 0 0 0 0 0.4175 0 0 0 0.6 0"/>
<feBlend mode="normal" in2="BackgroundImageFix" result="effect1_dropShadow_2_695"/>
<feBlend mode="normal" in="SourceGraphic" in2="effect1_dropShadow_2_695" result="shape"/>
</filter>
<filter id="filter35_i_2_695" x="750" y="254" width="79" height="80" filterUnits="userSpaceOnUse" color-interpolation-filters="sRGB">
<feFlood flood-opacity="0" result="BackgroundImageFix"/>
<feBlend mode="normal" in="SourceGraphic" in2="BackgroundImageFix" result="shape"/>
<feColorMatrix in="SourceAlpha" type="matrix" values="0 0 0 0 0 0 0 0 0 0 0 0 0 0 0 0 0 0 127 0" result="hardAlpha"/>
<feOffset/>
<feGaussianBlur stdDeviation="2.5"/>
<feComposite in2="hardAlpha" operator="arithmetic" k2="-1" k3="1"/>
<feColorMatrix type="matrix" values="0 0 0 0 0.290196 0 0 0 0 0.564706 0 0 0 0 0.886275 0 0 0 1 0"/>
<feBlend mode="normal" in2="shape" result="effect1_innerShadow_2_695"/>
</filter>
<filter id="filter36_d_2_695" x="749" y="254" width="81" height="82" filterUnits="userSpaceOnUse" color-interpolation-filters="sRGB">
<feFlood flood-opacity="0" result="BackgroundImageFix"/>
<feColorMatrix in="SourceAlpha" type="matrix" values="0 0 0 0 0 0 0 0 0 0 0 0 0 0 0 0 0 0 127 0" result="hardAlpha"/>
<feOffset dy="1"/>
<feGaussianBlur stdDeviation="0.5"/>
<feComposite in2="hardAlpha" operator="out"/>
<feColorMatrix type="matrix" values="0 0 0 0 0 0 0 0 0 0.1169 0 0 0 0 0.4175 0 0 0 0.6 0"/>
<feBlend mode="normal" in2="BackgroundImageFix" result="effect1_dropShadow_2_695"/>
<feBlend mode="normal" in="SourceGraphic" in2="effect1_dropShadow_2_695" result="shape"/>
</filter>
<filter id="filter37_i_2_695" x="770" y="274" width="40" height="41" filterUnits="userSpaceOnUse" color-interpolation-filters="sRGB">
<feFlood flood-opacity="0" result="BackgroundImageFix"/>
<feBlend mode="normal" in="SourceGraphic" in2="BackgroundImageFix" result="shape"/>
<feColorMatrix in="SourceAlpha" type="matrix" values="0 0 0 0 0 0 0 0 0 0 0 0 0 0 0 0 0 0 127 0" result="hardAlpha"/>
<feMorphology radius="1" operator="erode" in="SourceAlpha" result="effect1_innerShadow_2_695"/>
<feOffset dy="1"/>
<feGaussianBlur stdDeviation="0.25"/>
<feComposite in2="hardAlpha" operator="arithmetic" k2="-1" k3="1"/>
<feColorMatrix type="matrix" values="0 0 0 0 0.207843 0 0 0 0 0.454902 0 0 0 0 0.74902 0 0 0 1 0"/>
<feBlend mode="normal" in2="shape" result="effect1_innerShadow_2_695"/>
</filter>
<filter id="filter38_d_2_695" x="49" y="384" width="163" height="81" filterUnits="userSpaceOnUse" color-interpolation-filters="sRGB">
<feFlood flood-opacity="0" result="BackgroundImageFix"/>
<feColorMatrix in="SourceAlpha" type="matrix" values="0 0 0 0 0 0 0 0 0 0 0 0 0 0 0 0 0 0 127 0" result="hardAlpha"/>
<feOffset dy="1"/>
<feGaussianBlur stdDeviation="0.5"/>
<feComposite in2="hardAlpha" operator="out"/>
<feColorMatrix type="matrix" values="0 0 0 0 0 0 0 0 0 0.1169 0 0 0 0 0.4175 0 0 0 0.6 0"/>
<feBlend mode="normal" in2="BackgroundImageFix" result="effect1_dropShadow_2_695"/>
<feBlend mode="normal" in="SourceGraphic" in2="effect1_dropShadow_2_695" result="shape"/>
</filter>
<filter id="filter39_d_2_695" x="229" y="384" width="163" height="81" filterUnits="userSpaceOnUse" color-interpolation-filters="sRGB">
<feFlood flood-opacity="0" result="BackgroundImageFix"/>
<feColorMatrix in="SourceAlpha" type="matrix" values="0 0 0 0 0 0 0 0 0 0 0 0 0 0 0 0 0 0 127 0" result="hardAlpha"/>
<feOffset dy="1"/>
<feGaussianBlur stdDeviation="0.5"/>
<feComposite in2="hardAlpha" operator="out"/>
<feColorMatrix type="matrix" values="0 0 0 0 0 0 0 0 0 0.1169 0 0 0 0 0.4175 0 0 0 0.6 0"/>
<feBlend mode="normal" in2="BackgroundImageFix" result="effect1_dropShadow_2_695"/>
<feBlend mode="normal" in="SourceGraphic" in2="effect1_dropShadow_2_695" result="shape"/>
</filter>
<filter id="filter40_i_2_695" x="292" y="404" width="35.2" height="41" filterUnits="userSpaceOnUse" color-interpolation-filters="sRGB">
<feFlood flood-opacity="0" result="BackgroundImageFix"/>
<feBlend mode="normal" in="SourceGraphic" in2="BackgroundImageFix" result="shape"/>
<feColorMatrix in="SourceAlpha" type="matrix" values="0 0 0 0 0 0 0 0 0 0 0 0 0 0 0 0 0 0 127 0" result="hardAlpha"/>
<feMorphology radius="1" operator="erode" in="SourceAlpha" result="effect1_innerShadow_2_695"/>
<feOffset dy="1"/>
<feGaussianBlur stdDeviation="0.25"/>
<feComposite in2="hardAlpha" operator="arithmetic" k2="-1" k3="1"/>
<feColorMatrix type="matrix" values="0 0 0 0 0.207843 0 0 0 0 0.454902 0 0 0 0 0.74902 0 0 0 1 0"/>
<feBlend mode="normal" in2="shape" result="effect1_innerShadow_2_695"/>
</filter>
<filter id="filter41_i_2_695" x="50" y="514" width="161" height="79" filterUnits="userSpaceOnUse" color-interpolation-filters="sRGB">
<feFlood flood-opacity="0" result="BackgroundImageFix"/>
<feBlend mode="normal" in="SourceGraphic" in2="BackgroundImageFix" result="shape"/>
<feColorMatrix in="SourceAlpha" type="matrix" values="0 0 0 0 0 0 0 0 0 0 0 0 0 0 0 0 0 0 127 0" result="hardAlpha"/>
<feOffset/>
<feGaussianBlur stdDeviation="2.5"/>
<feComposite in2="hardAlpha" operator="arithmetic" k2="-1" k3="1"/>
<feColorMatrix type="matrix" values="0 0 0 0 0.290196 0 0 0 0 0.564706 0 0 0 0 0.886275 0 0 0 1 0"/>
<feBlend mode="normal" in2="shape" result="effect1_innerShadow_2_695"/>
</filter>
<filter id="filter42_d_2_695" x="49" y="514" width="163" height="81" filterUnits="userSpaceOnUse" color-interpolation-filters="sRGB">
<feFlood flood-opacity="0" result="BackgroundImageFix"/>
<feColorMatrix in="SourceAlpha" type="matrix" values="0 0 0 0 0 0 0 0 0 0 0 0 0 0 0 0 0 0 127 0" result="hardAlpha"/>
<feOffset dy="1"/>
<feGaussianBlur stdDeviation="0.5"/>
<feComposite in2="hardAlpha" operator="out"/>
<feColorMatrix type="matrix" values="0 0 0 0 0 0 0 0 0 0.1169 0 0 0 0 0.4175 0 0 0 0.6 0"/>
<feBlend mode="normal" in2="BackgroundImageFix" result="effect1_dropShadow_2_695"/>
<feBlend mode="normal" in="SourceGraphic" in2="effect1_dropShadow_2_695" result="shape"/>
</filter>
<filter id="filter43_i_2_695" x="230" y="514" width="161" height="79" filterUnits="userSpaceOnUse" color-interpolation-filters="sRGB">
<feFlood flood-opacity="0" result="BackgroundImageFix"/>
<feBlend mode="normal" in="SourceGraphic" in2="BackgroundImageFix" result="shape"/>
<feColorMatrix in="SourceAlpha" type="matrix" values="0 0 0 0 0 0 0 0 0 0 0 0 0 0 0 0 0 0 127 0" result="hardAlpha"/>
<feOffset/>
<feGaussianBlur stdDeviation="2.5"/>
<feComposite in2="hardAlpha" operator="arithmetic" k2="-1" k3="1"/>
<feColorMatrix type="matrix" values="0 0 0 0 0.290196 0 0 0 0 0.564706 0 0 0 0 0.886275 0 0 0 1 0"/>
<feBlend mode="normal" in2="shape" result="effect1_innerShadow_2_695"/>
</filter>
<filter id="filter44_d_2_695" x="229" y="514" width="163" height="81" filterUnits="userSpaceOnUse" color-interpolation-filters="sRGB">
<feFlood flood-opacity="0" result="BackgroundImageFix"/>
<feColorMatrix in="SourceAlpha" type="matrix" values="0 0 0 0 0 0 0 0 0 0 0 0 0 0 0 0 0 0 127 0" result="hardAlpha"/>
<feOffset dy="1"/>
<feGaussianBlur stdDeviation="0.5"/>
<feComposite in2="hardAlpha" operator="out"/>
<feColorMatrix type="matrix" values="0 0 0 0 0 0 0 0 0 0.1169 0 0 0 0 0.4175 0 0 0 0.6 0"/>
<feBlend mode="normal" in2="BackgroundImageFix" result="effect1_dropShadow_2_695"/>
<feBlend mode="normal" in="SourceGraphic" in2="effect1_dropShadow_2_695" result="shape"/>
</filter>
<filter id="filter45_i_2_695" x="292" y="534" width="35.2" height="41" filterUnits="userSpaceOnUse" color-interpolation-filters="sRGB">
<feFlood flood-opacity="0" result="BackgroundImageFix"/>
<feBlend mode="normal" in="SourceGraphic" in2="BackgroundImageFix" result="shape"/>
<feColorMatrix in="SourceAlpha" type="matrix" values="0 0 0 0 0 0 0 0 0 0 0 0 0 0 0 0 0 0 127 0" result="hardAlpha"/>
<feMorphology radius="1" operator="erode" in="SourceAlpha" result="effect1_innerShadow_2_695"/>
<feOffset dy="1"/>
<feGaussianBlur stdDeviation="0.25"/>
<feComposite in2="hardAlpha" operator="arithmetic" k2="-1" k3="1"/>
<feColorMatrix type="matrix" values="0 0 0 0 0.207843 0 0 0 0 0.454902 0 0 0 0 0.74902 0 0 0 1 0"/>
<feBlend mode="normal" in2="shape" result="effect1_innerShadow_2_695"/>
</filter>
</defs>
</svg>
