<svg width="547" height="370" viewBox="0 0 547 370" fill="none" xmlns="http://www.w3.org/2000/svg">
<rect x="50" y="50" width="205" height="24" rx="4" fill="#FED70A"/>
<path d="M59.0254 67V56.9785H60.3516V65.8174H65.2871V67H59.0254ZM71.6855 64.6621L72.957 64.8193C72.7565 65.5622 72.3851 66.1387 71.8428 66.5488C71.3005 66.959 70.6077 67.1641 69.7646 67.1641C68.7028 67.1641 67.8597 66.8382 67.2354 66.1865C66.6156 65.5303 66.3057 64.612 66.3057 63.4316C66.3057 62.2103 66.6201 61.2624 67.249 60.5879C67.8779 59.9134 68.6937 59.5762 69.6963 59.5762C70.667 59.5762 71.46 59.9066 72.0752 60.5674C72.6904 61.2282 72.998 62.1579 72.998 63.3564C72.998 63.4294 72.9958 63.5387 72.9912 63.6846H67.5771C67.6227 64.4821 67.8483 65.0928 68.2539 65.5166C68.6595 65.9404 69.1654 66.1523 69.7715 66.1523C70.2227 66.1523 70.6077 66.0339 70.9268 65.7969C71.2458 65.5599 71.4987 65.1816 71.6855 64.6621ZM67.6455 62.6729H71.6992C71.6445 62.0622 71.4896 61.6042 71.2344 61.2988C70.8424 60.8249 70.3343 60.5879 69.71 60.5879C69.1449 60.5879 68.6686 60.777 68.2812 61.1553C67.8984 61.5335 67.6865 62.0394 67.6455 62.6729ZM76.5254 67L73.7637 59.7402H75.0625L76.6211 64.0879C76.7897 64.5573 76.9447 65.0449 77.0859 65.5508C77.1953 65.168 77.348 64.7077 77.5439 64.1699L79.1572 59.7402H80.4219L77.6738 67H76.5254ZM86.4785 64.6621L87.75 64.8193C87.5495 65.5622 87.1781 66.1387 86.6357 66.5488C86.0934 66.959 85.4007 67.1641 84.5576 67.1641C83.4958 67.1641 82.6527 66.8382 82.0283 66.1865C81.4085 65.5303 81.0986 64.612 81.0986 63.4316C81.0986 62.2103 81.4131 61.2624 82.042 60.5879C82.6709 59.9134 83.4867 59.5762 84.4893 59.5762C85.46 59.5762 86.2529 59.9066 86.8682 60.5674C87.4834 61.2282 87.791 62.1579 87.791 63.3564C87.791 63.4294 87.7887 63.5387 87.7842 63.6846H82.3701C82.4157 64.4821 82.6413 65.0928 83.0469 65.5166C83.4525 65.9404 83.9583 66.1523 84.5645 66.1523C85.0156 66.1523 85.4007 66.0339 85.7197 65.7969C86.0387 65.5599 86.2917 65.1816 86.4785 64.6621ZM82.4385 62.6729H86.4922C86.4375 62.0622 86.2826 61.6042 86.0273 61.2988C85.6354 60.8249 85.1273 60.5879 84.5029 60.5879C83.9378 60.5879 83.4616 60.777 83.0742 61.1553C82.6914 61.5335 82.4795 62.0394 82.4385 62.6729ZM89.2744 67V56.9785H90.5049V67H89.2744ZM91.4961 67.1709L94.4014 56.8076H95.3857L92.4873 67.1709H91.4961ZM96.418 67V56.9785H100.178C100.943 56.9785 101.556 57.0811 102.017 57.2861C102.481 57.4867 102.844 57.7988 103.104 58.2227C103.368 58.6419 103.5 59.0817 103.5 59.542C103.5 59.9704 103.384 60.3737 103.151 60.752C102.919 61.1302 102.568 61.4355 102.099 61.668C102.705 61.8457 103.17 62.1488 103.493 62.5771C103.821 63.0055 103.985 63.5114 103.985 64.0947C103.985 64.5641 103.885 65.0016 103.685 65.4072C103.489 65.8083 103.245 66.1182 102.953 66.3369C102.661 66.5557 102.295 66.722 101.853 66.8359C101.415 66.9453 100.877 67 100.239 67H96.418ZM97.7441 61.1895H99.9111C100.499 61.1895 100.921 61.1507 101.176 61.0732C101.513 60.973 101.766 60.8066 101.935 60.5742C102.108 60.3418 102.194 60.0501 102.194 59.6992C102.194 59.3665 102.115 59.0749 101.955 58.8242C101.796 58.569 101.568 58.3958 101.271 58.3047C100.975 58.209 100.467 58.1611 99.7471 58.1611H97.7441V61.1895ZM97.7441 65.8174H100.239C100.668 65.8174 100.968 65.8014 101.142 65.7695C101.447 65.7148 101.702 65.6237 101.907 65.4961C102.112 65.3685 102.281 65.1839 102.413 64.9424C102.545 64.6963 102.611 64.4137 102.611 64.0947C102.611 63.721 102.516 63.3975 102.324 63.124C102.133 62.846 101.866 62.6523 101.524 62.543C101.187 62.429 100.7 62.3721 100.062 62.3721H97.7441V65.8174ZM110.411 67V65.9336C109.846 66.7539 109.078 67.1641 108.107 67.1641C107.679 67.1641 107.278 67.082 106.904 66.918C106.535 66.7539 106.259 66.5488 106.077 66.3027C105.899 66.0521 105.774 65.7467 105.701 65.3867C105.651 65.1452 105.626 64.7624 105.626 64.2383V59.7402H106.856V63.7666C106.856 64.4092 106.882 64.8421 106.932 65.0654C107.009 65.389 107.173 65.6442 107.424 65.8311C107.674 66.0133 107.984 66.1045 108.354 66.1045C108.723 66.1045 109.069 66.0111 109.393 65.8242C109.716 65.6328 109.944 65.3753 110.076 65.0518C110.213 64.7236 110.281 64.2497 110.281 63.6299V59.7402H111.512V67H110.411ZM116.133 65.8994L116.311 66.9863C115.964 67.0592 115.654 67.0957 115.381 67.0957C114.934 67.0957 114.588 67.0251 114.342 66.8838C114.096 66.7425 113.923 66.5579 113.822 66.3301C113.722 66.0977 113.672 65.6123 113.672 64.874V60.6973H112.77V59.7402H113.672V57.9424L114.896 57.2041V59.7402H116.133V60.6973H114.896V64.9424C114.896 65.2933 114.916 65.5189 114.957 65.6191C115.003 65.7194 115.073 65.7992 115.169 65.8584C115.269 65.9176 115.41 65.9473 115.593 65.9473C115.729 65.9473 115.91 65.9313 116.133 65.8994ZM120.029 65.8994L120.207 66.9863C119.861 67.0592 119.551 67.0957 119.277 67.0957C118.831 67.0957 118.484 67.0251 118.238 66.8838C117.992 66.7425 117.819 66.5579 117.719 66.3301C117.618 66.0977 117.568 65.6123 117.568 64.874V60.6973H116.666V59.7402H117.568V57.9424L118.792 57.2041V59.7402H120.029V60.6973H118.792V64.9424C118.792 65.2933 118.812 65.5189 118.854 65.6191C118.899 65.7194 118.97 65.7992 119.065 65.8584C119.166 65.9176 119.307 65.9473 119.489 65.9473C119.626 65.9473 119.806 65.9313 120.029 65.8994ZM120.781 63.3701C120.781 62.0257 121.155 61.0299 121.902 60.3828C122.527 59.8451 123.288 59.5762 124.186 59.5762C125.184 59.5762 125.999 59.9043 126.633 60.5605C127.266 61.2122 127.583 62.1146 127.583 63.2676C127.583 64.2018 127.442 64.9378 127.159 65.4756C126.881 66.0088 126.473 66.4235 125.936 66.7197C125.402 67.016 124.819 67.1641 124.186 67.1641C123.169 67.1641 122.347 66.8382 121.718 66.1865C121.093 65.5348 120.781 64.596 120.781 63.3701ZM122.046 63.3701C122.046 64.2998 122.249 64.9971 122.654 65.4619C123.06 65.9222 123.57 66.1523 124.186 66.1523C124.796 66.1523 125.304 65.9199 125.71 65.4551C126.116 64.9902 126.318 64.2816 126.318 63.3291C126.318 62.4313 126.113 61.7523 125.703 61.292C125.298 60.8271 124.792 60.5947 124.186 60.5947C123.57 60.5947 123.06 60.8249 122.654 61.2852C122.249 61.7454 122.046 62.4404 122.046 63.3701ZM129.032 67V59.7402H130.14V60.7725C130.673 59.9749 131.443 59.5762 132.45 59.5762C132.888 59.5762 133.289 59.6559 133.653 59.8154C134.022 59.9704 134.298 60.1755 134.48 60.4307C134.663 60.6859 134.79 60.9889 134.863 61.3398C134.909 61.5677 134.932 61.9665 134.932 62.5361V67H133.701V62.584C133.701 62.0827 133.653 61.709 133.558 61.4629C133.462 61.2122 133.291 61.014 133.045 60.8682C132.803 60.7178 132.519 60.6426 132.19 60.6426C131.666 60.6426 131.213 60.8089 130.83 61.1416C130.452 61.4743 130.263 62.1055 130.263 63.0352V67H129.032ZM135.902 67.1709L138.808 56.8076H139.792L136.894 67.1709H135.902ZM147.455 56.9785H148.781V62.7686C148.781 63.7757 148.667 64.5755 148.439 65.168C148.212 65.7604 147.799 66.2435 147.202 66.6172C146.61 66.9863 145.83 67.1709 144.864 67.1709C143.925 67.1709 143.158 67.0091 142.561 66.6855C141.964 66.362 141.537 65.8949 141.282 65.2842C141.027 64.6689 140.899 63.8304 140.899 62.7686V56.9785H142.226V62.7617C142.226 63.6322 142.305 64.2747 142.465 64.6895C142.629 65.0996 142.907 65.4163 143.299 65.6396C143.695 65.863 144.178 65.9746 144.748 65.9746C145.723 65.9746 146.418 65.7536 146.833 65.3115C147.248 64.8695 147.455 64.0195 147.455 62.7617V56.9785ZM150.839 67V59.7402H151.946V60.7725C152.479 59.9749 153.25 59.5762 154.257 59.5762C154.694 59.5762 155.095 59.6559 155.46 59.8154C155.829 59.9704 156.105 60.1755 156.287 60.4307C156.469 60.6859 156.597 60.9889 156.67 61.3398C156.715 61.5677 156.738 61.9665 156.738 62.5361V67H155.508V62.584C155.508 62.0827 155.46 61.709 155.364 61.4629C155.269 61.2122 155.098 61.014 154.852 60.8682C154.61 60.7178 154.325 60.6426 153.997 60.6426C153.473 60.6426 153.02 60.8089 152.637 61.1416C152.258 61.4743 152.069 62.1055 152.069 63.0352V67H150.839ZM158.604 67V56.9785H159.835V67H158.604ZM161.291 63.3701C161.291 62.0257 161.665 61.0299 162.412 60.3828C163.036 59.8451 163.798 59.5762 164.695 59.5762C165.693 59.5762 166.509 59.9043 167.143 60.5605C167.776 61.2122 168.093 62.1146 168.093 63.2676C168.093 64.2018 167.951 64.9378 167.669 65.4756C167.391 66.0088 166.983 66.4235 166.445 66.7197C165.912 67.016 165.329 67.1641 164.695 67.1641C163.679 67.1641 162.856 66.8382 162.228 66.1865C161.603 65.5348 161.291 64.596 161.291 63.3701ZM162.556 63.3701C162.556 64.2998 162.758 64.9971 163.164 65.4619C163.57 65.9222 164.08 66.1523 164.695 66.1523C165.306 66.1523 165.814 65.9199 166.22 65.4551C166.625 64.9902 166.828 64.2816 166.828 63.3291C166.828 62.4313 166.623 61.7523 166.213 61.292C165.807 60.8271 165.301 60.5947 164.695 60.5947C164.08 60.5947 163.57 60.8249 163.164 61.2852C162.758 61.7454 162.556 62.4404 162.556 63.3701ZM174.279 64.3408L175.489 64.498C175.357 65.332 175.018 65.986 174.471 66.46C173.928 66.9294 173.261 67.1641 172.468 67.1641C171.474 67.1641 170.674 66.8405 170.068 66.1934C169.467 65.5417 169.166 64.6097 169.166 63.3975C169.166 62.6136 169.296 61.9277 169.556 61.3398C169.815 60.752 170.21 60.3122 170.738 60.0205C171.271 59.7243 171.85 59.5762 172.475 59.5762C173.263 59.5762 173.908 59.7767 174.409 60.1777C174.91 60.5742 175.232 61.1393 175.373 61.873L174.177 62.0576C174.063 61.57 173.86 61.2031 173.568 60.957C173.281 60.7109 172.933 60.5879 172.522 60.5879C171.903 60.5879 171.399 60.8112 171.012 61.2578C170.624 61.6999 170.431 62.4017 170.431 63.3633C170.431 64.3385 170.618 65.0472 170.991 65.4893C171.365 65.9313 171.853 66.1523 172.454 66.1523C172.937 66.1523 173.34 66.0042 173.664 65.708C173.988 65.4118 174.193 64.9561 174.279 64.3408ZM176.549 67V56.9785H177.779V62.6934L180.691 59.7402H182.284L179.509 62.4336L182.564 67H181.047L178.647 63.2881L177.779 64.1221V67H176.549ZM188.512 64.6621L189.783 64.8193C189.583 65.5622 189.211 66.1387 188.669 66.5488C188.127 66.959 187.434 67.1641 186.591 67.1641C185.529 67.1641 184.686 66.8382 184.062 66.1865C183.442 65.5303 183.132 64.612 183.132 63.4316C183.132 62.2103 183.446 61.2624 184.075 60.5879C184.704 59.9134 185.52 59.5762 186.522 59.5762C187.493 59.5762 188.286 59.9066 188.901 60.5674C189.517 61.2282 189.824 62.1579 189.824 63.3564C189.824 63.4294 189.822 63.5387 189.817 63.6846H184.403C184.449 64.4821 184.674 65.0928 185.08 65.5166C185.486 65.9404 185.992 66.1523 186.598 66.1523C187.049 66.1523 187.434 66.0339 187.753 65.7969C188.072 65.5599 188.325 65.1816 188.512 64.6621ZM184.472 62.6729H188.525C188.471 62.0622 188.316 61.6042 188.061 61.2988C187.669 60.8249 187.16 60.5879 186.536 60.5879C185.971 60.5879 185.495 60.777 185.107 61.1553C184.725 61.5335 184.513 62.0394 184.472 62.6729ZM196.045 67V66.084C195.585 66.804 194.908 67.1641 194.015 67.1641C193.436 67.1641 192.903 67.0046 192.415 66.6855C191.932 66.3665 191.556 65.9222 191.287 65.3525C191.023 64.7783 190.891 64.1198 190.891 63.377C190.891 62.6523 191.011 61.9961 191.253 61.4082C191.494 60.8158 191.857 60.3623 192.34 60.0479C192.823 59.7334 193.363 59.5762 193.96 59.5762C194.397 59.5762 194.787 59.6696 195.129 59.8564C195.471 60.0387 195.749 60.278 195.963 60.5742V56.9785H197.187V67H196.045ZM192.155 63.377C192.155 64.3066 192.351 65.0016 192.743 65.4619C193.135 65.9222 193.598 66.1523 194.131 66.1523C194.669 66.1523 195.124 65.9336 195.498 65.4961C195.876 65.054 196.065 64.3818 196.065 63.4795C196.065 62.486 195.874 61.7568 195.491 61.292C195.108 60.8271 194.637 60.5947 194.076 60.5947C193.529 60.5947 193.071 60.818 192.702 61.2646C192.338 61.7113 192.155 62.4154 192.155 63.377ZM198.205 67.1709L201.11 56.8076H202.095L199.196 67.1709H198.205ZM203.182 67V56.9785H206.634C207.413 56.9785 208.008 57.0264 208.418 57.1221C208.992 57.2542 209.482 57.4935 209.888 57.8398C210.416 58.2865 210.811 58.8584 211.07 59.5557C211.335 60.2484 211.467 61.0413 211.467 61.9346C211.467 62.6956 211.378 63.3701 211.2 63.958C211.022 64.5459 210.795 65.0335 210.517 65.4209C210.239 65.8037 209.933 66.1068 209.601 66.3301C209.272 66.5488 208.874 66.7152 208.404 66.8291C207.939 66.943 207.404 67 206.798 67H203.182ZM204.508 65.8174H206.647C207.308 65.8174 207.826 65.7559 208.199 65.6328C208.577 65.5098 208.878 65.3366 209.102 65.1133C209.416 64.7988 209.66 64.3773 209.833 63.8486C210.011 63.3154 210.1 62.6706 210.1 61.9141C210.1 60.8659 209.926 60.0615 209.58 59.501C209.238 58.9359 208.821 58.5576 208.329 58.3662C207.974 58.2295 207.402 58.1611 206.613 58.1611H204.508V65.8174ZM218.111 64.6621L219.383 64.8193C219.182 65.5622 218.811 66.1387 218.269 66.5488C217.726 66.959 217.034 67.1641 216.19 67.1641C215.129 67.1641 214.285 66.8382 213.661 66.1865C213.041 65.5303 212.731 64.612 212.731 63.4316C212.731 62.2103 213.046 61.2624 213.675 60.5879C214.304 59.9134 215.119 59.5762 216.122 59.5762C217.093 59.5762 217.886 59.9066 218.501 60.5674C219.116 61.2282 219.424 62.1579 219.424 63.3564C219.424 63.4294 219.422 63.5387 219.417 63.6846H214.003C214.049 64.4821 214.274 65.0928 214.68 65.5166C215.085 65.9404 215.591 66.1523 216.197 66.1523C216.648 66.1523 217.034 66.0339 217.353 65.7969C217.672 65.5599 217.924 65.1816 218.111 64.6621ZM214.071 62.6729H218.125C218.07 62.0622 217.915 61.6042 217.66 61.2988C217.268 60.8249 216.76 60.5879 216.136 60.5879C215.571 60.5879 215.094 60.777 214.707 61.1553C214.324 61.5335 214.112 62.0394 214.071 62.6729ZM221.229 67V60.6973H220.142V59.7402H221.229V58.9678C221.229 58.4801 221.272 58.1178 221.358 57.8809C221.477 57.5618 221.684 57.3044 221.98 57.1084C222.281 56.9079 222.701 56.8076 223.238 56.8076C223.585 56.8076 223.967 56.8486 224.387 56.9307L224.202 58.0039C223.947 57.9583 223.705 57.9355 223.478 57.9355C223.104 57.9355 222.84 58.0153 222.685 58.1748C222.53 58.3343 222.452 58.6328 222.452 59.0703V59.7402H223.867V60.6973H222.452V67H221.229ZM229.568 66.1045C229.113 66.4919 228.673 66.7653 228.249 66.9248C227.83 67.0843 227.379 67.1641 226.896 67.1641C226.098 67.1641 225.485 66.9704 225.057 66.583C224.628 66.1911 224.414 65.6921 224.414 65.0859C224.414 64.7305 224.494 64.4069 224.653 64.1152C224.817 63.819 225.029 63.582 225.289 63.4043C225.553 63.2266 225.85 63.0921 226.178 63.001C226.419 62.9372 226.784 62.8757 227.271 62.8164C228.265 62.6979 228.996 62.5566 229.466 62.3926C229.47 62.224 229.473 62.1169 229.473 62.0713C229.473 61.57 229.356 61.2168 229.124 61.0117C228.81 60.7337 228.342 60.5947 227.723 60.5947C227.144 60.5947 226.715 60.6973 226.438 60.9023C226.164 61.1029 225.961 61.4606 225.829 61.9756L224.626 61.8115C224.735 61.2965 224.915 60.8818 225.166 60.5674C225.417 60.2484 225.779 60.0046 226.253 59.8359C226.727 59.6628 227.276 59.5762 227.9 59.5762C228.52 59.5762 229.024 59.6491 229.411 59.7949C229.799 59.9408 230.083 60.1253 230.266 60.3486C230.448 60.5674 230.576 60.8454 230.648 61.1826C230.689 61.3923 230.71 61.7705 230.71 62.3174V63.958C230.71 65.1019 230.735 65.8265 230.785 66.1318C230.84 66.4326 230.945 66.722 231.1 67H229.814C229.687 66.7448 229.605 66.4463 229.568 66.1045ZM229.466 63.3564C229.019 63.5387 228.349 63.6937 227.456 63.8213C226.95 63.8942 226.592 63.9762 226.383 64.0674C226.173 64.1585 226.011 64.293 225.897 64.4707C225.784 64.6439 225.727 64.8376 225.727 65.0518C225.727 65.3799 225.85 65.6533 226.096 65.8721C226.346 66.0908 226.711 66.2002 227.189 66.2002C227.663 66.2002 228.085 66.0977 228.454 65.8926C228.823 65.6829 229.094 65.3981 229.268 65.0381C229.4 64.7601 229.466 64.3499 229.466 63.8076V63.3564ZM237.382 67V65.9336C236.817 66.7539 236.049 67.1641 235.078 67.1641C234.65 67.1641 234.249 67.082 233.875 66.918C233.506 66.7539 233.23 66.5488 233.048 66.3027C232.87 66.0521 232.745 65.7467 232.672 65.3867C232.622 65.1452 232.597 64.7624 232.597 64.2383V59.7402H233.827V63.7666C233.827 64.4092 233.852 64.8421 233.902 65.0654C233.98 65.389 234.144 65.6442 234.395 65.8311C234.645 66.0133 234.955 66.1045 235.324 66.1045C235.693 66.1045 236.04 66.0111 236.363 65.8242C236.687 65.6328 236.915 65.3753 237.047 65.0518C237.184 64.7236 237.252 64.2497 237.252 63.6299V59.7402H238.482V67H237.382ZM240.39 67V56.9785H241.62V67H240.39ZM246.221 65.8994L246.398 66.9863C246.052 67.0592 245.742 67.0957 245.469 67.0957C245.022 67.0957 244.676 67.0251 244.43 66.8838C244.184 66.7425 244.01 66.5579 243.91 66.3301C243.81 66.0977 243.76 65.6123 243.76 64.874V60.6973H242.857V59.7402H243.76V57.9424L244.983 57.2041V59.7402H246.221V60.6973H244.983V64.9424C244.983 65.2933 245.004 65.5189 245.045 65.6191C245.09 65.7194 245.161 65.7992 245.257 65.8584C245.357 65.9176 245.498 65.9473 245.681 65.9473C245.817 65.9473 245.997 65.9313 246.221 65.8994Z" fill="#212121"/>
<g filter="url(#filter0_d_2_547)">
<mask id="path-3-outside-1_2_547" maskUnits="userSpaceOnUse" x="50" y="94" width="81" height="81" fill="black">
<rect fill="white" x="50" y="94" width="81" height="81"/>
<path d="M54 105C54 101.686 56.6863 99 60 99H121C124.314 99 127 101.686 127 105V164C127 167.314 124.314 170 121 170H60C56.6863 170 54 167.314 54 164V105Z"/>
</mask>
<path d="M54 105C54 101.686 56.6863 99 60 99H121C124.314 99 127 101.686 127 105V164C127 167.314 124.314 170 121 170H60C56.6863 170 54 167.314 54 164V105Z" fill="#519EE6"/>
<path d="M50 104C50 98.4772 54.4772 94 60 94H121C126.523 94 131 98.4772 131 104L123 105C123 104.448 122.105 104 121 104H60C58.8954 104 58 104.448 58 105L50 104ZM131 165C131 170.523 126.523 175 121 175H60C54.4772 175 50 170.523 50 165L58 164C58 164.552 58.8954 165 60 165H121C122.105 165 123 164.552 123 164L131 165ZM60 175C54.4772 175 50 170.523 50 165V104C50 98.4772 54.4772 94 60 94V104C58.8954 104 58 104.448 58 105V164C58 164.552 58.8954 165 60 165V175ZM121 94C126.523 94 131 98.4772 131 104V165C131 170.523 126.523 175 121 175V165C122.105 165 123 164.552 123 164V105C123 104.448 122.105 104 121 104V94Z" fill="#8FD7FF" mask="url(#path-3-outside-1_2_547)"/>
</g>
<rect x="50" y="195" width="198" height="24" rx="4" fill="#FED70A"/>
<path d="M59.0254 212V201.979H60.3516V210.817H65.2871V212H59.0254ZM71.6855 209.662L72.957 209.819C72.7565 210.562 72.3851 211.139 71.8428 211.549C71.3005 211.959 70.6077 212.164 69.7646 212.164C68.7028 212.164 67.8597 211.838 67.2354 211.187C66.6156 210.53 66.3057 209.612 66.3057 208.432C66.3057 207.21 66.6201 206.262 67.249 205.588C67.8779 204.913 68.6937 204.576 69.6963 204.576C70.667 204.576 71.46 204.907 72.0752 205.567C72.6904 206.228 72.998 207.158 72.998 208.356C72.998 208.429 72.9958 208.539 72.9912 208.685H67.5771C67.6227 209.482 67.8483 210.093 68.2539 210.517C68.6595 210.94 69.1654 211.152 69.7715 211.152C70.2227 211.152 70.6077 211.034 70.9268 210.797C71.2458 210.56 71.4987 210.182 71.6855 209.662ZM67.6455 207.673H71.6992C71.6445 207.062 71.4896 206.604 71.2344 206.299C70.8424 205.825 70.3343 205.588 69.71 205.588C69.1449 205.588 68.6686 205.777 68.2812 206.155C67.8984 206.534 67.6865 207.039 67.6455 207.673ZM76.5254 212L73.7637 204.74H75.0625L76.6211 209.088C76.7897 209.557 76.9447 210.045 77.0859 210.551C77.1953 210.168 77.348 209.708 77.5439 209.17L79.1572 204.74H80.4219L77.6738 212H76.5254ZM86.4785 209.662L87.75 209.819C87.5495 210.562 87.1781 211.139 86.6357 211.549C86.0934 211.959 85.4007 212.164 84.5576 212.164C83.4958 212.164 82.6527 211.838 82.0283 211.187C81.4085 210.53 81.0986 209.612 81.0986 208.432C81.0986 207.21 81.4131 206.262 82.042 205.588C82.6709 204.913 83.4867 204.576 84.4893 204.576C85.46 204.576 86.2529 204.907 86.8682 205.567C87.4834 206.228 87.791 207.158 87.791 208.356C87.791 208.429 87.7887 208.539 87.7842 208.685H82.3701C82.4157 209.482 82.6413 210.093 83.0469 210.517C83.4525 210.94 83.9583 211.152 84.5645 211.152C85.0156 211.152 85.4007 211.034 85.7197 210.797C86.0387 210.56 86.2917 210.182 86.4785 209.662ZM82.4385 207.673H86.4922C86.4375 207.062 86.2826 206.604 86.0273 206.299C85.6354 205.825 85.1273 205.588 84.5029 205.588C83.9378 205.588 83.4616 205.777 83.0742 206.155C82.6914 206.534 82.4795 207.039 82.4385 207.673ZM89.2744 212V201.979H90.5049V212H89.2744ZM91.4961 212.171L94.4014 201.808H95.3857L92.4873 212.171H91.4961ZM96.418 212V201.979H100.178C100.943 201.979 101.556 202.081 102.017 202.286C102.481 202.487 102.844 202.799 103.104 203.223C103.368 203.642 103.5 204.082 103.5 204.542C103.5 204.97 103.384 205.374 103.151 205.752C102.919 206.13 102.568 206.436 102.099 206.668C102.705 206.846 103.17 207.149 103.493 207.577C103.821 208.006 103.985 208.511 103.985 209.095C103.985 209.564 103.885 210.002 103.685 210.407C103.489 210.808 103.245 211.118 102.953 211.337C102.661 211.556 102.295 211.722 101.853 211.836C101.415 211.945 100.877 212 100.239 212H96.418ZM97.7441 206.189H99.9111C100.499 206.189 100.921 206.151 101.176 206.073C101.513 205.973 101.766 205.807 101.935 205.574C102.108 205.342 102.194 205.05 102.194 204.699C102.194 204.367 102.115 204.075 101.955 203.824C101.796 203.569 101.568 203.396 101.271 203.305C100.975 203.209 100.467 203.161 99.7471 203.161H97.7441V206.189ZM97.7441 210.817H100.239C100.668 210.817 100.968 210.801 101.142 210.77C101.447 210.715 101.702 210.624 101.907 210.496C102.112 210.368 102.281 210.184 102.413 209.942C102.545 209.696 102.611 209.414 102.611 209.095C102.611 208.721 102.516 208.397 102.324 208.124C102.133 207.846 101.866 207.652 101.524 207.543C101.187 207.429 100.7 207.372 100.062 207.372H97.7441V210.817ZM110.411 212V210.934C109.846 211.754 109.078 212.164 108.107 212.164C107.679 212.164 107.278 212.082 106.904 211.918C106.535 211.754 106.259 211.549 106.077 211.303C105.899 211.052 105.774 210.747 105.701 210.387C105.651 210.145 105.626 209.762 105.626 209.238V204.74H106.856V208.767C106.856 209.409 106.882 209.842 106.932 210.065C107.009 210.389 107.173 210.644 107.424 210.831C107.674 211.013 107.984 211.104 108.354 211.104C108.723 211.104 109.069 211.011 109.393 210.824C109.716 210.633 109.944 210.375 110.076 210.052C110.213 209.724 110.281 209.25 110.281 208.63V204.74H111.512V212H110.411ZM116.133 210.899L116.311 211.986C115.964 212.059 115.654 212.096 115.381 212.096C114.934 212.096 114.588 212.025 114.342 211.884C114.096 211.743 113.923 211.558 113.822 211.33C113.722 211.098 113.672 210.612 113.672 209.874V205.697H112.77V204.74H113.672V202.942L114.896 202.204V204.74H116.133V205.697H114.896V209.942C114.896 210.293 114.916 210.519 114.957 210.619C115.003 210.719 115.073 210.799 115.169 210.858C115.269 210.918 115.41 210.947 115.593 210.947C115.729 210.947 115.91 210.931 116.133 210.899ZM120.029 210.899L120.207 211.986C119.861 212.059 119.551 212.096 119.277 212.096C118.831 212.096 118.484 212.025 118.238 211.884C117.992 211.743 117.819 211.558 117.719 211.33C117.618 211.098 117.568 210.612 117.568 209.874V205.697H116.666V204.74H117.568V202.942L118.792 202.204V204.74H120.029V205.697H118.792V209.942C118.792 210.293 118.812 210.519 118.854 210.619C118.899 210.719 118.97 210.799 119.065 210.858C119.166 210.918 119.307 210.947 119.489 210.947C119.626 210.947 119.806 210.931 120.029 210.899ZM120.781 208.37C120.781 207.026 121.155 206.03 121.902 205.383C122.527 204.845 123.288 204.576 124.186 204.576C125.184 204.576 125.999 204.904 126.633 205.561C127.266 206.212 127.583 207.115 127.583 208.268C127.583 209.202 127.442 209.938 127.159 210.476C126.881 211.009 126.473 211.424 125.936 211.72C125.402 212.016 124.819 212.164 124.186 212.164C123.169 212.164 122.347 211.838 121.718 211.187C121.093 210.535 120.781 209.596 120.781 208.37ZM122.046 208.37C122.046 209.3 122.249 209.997 122.654 210.462C123.06 210.922 123.57 211.152 124.186 211.152C124.796 211.152 125.304 210.92 125.71 210.455C126.116 209.99 126.318 209.282 126.318 208.329C126.318 207.431 126.113 206.752 125.703 206.292C125.298 205.827 124.792 205.595 124.186 205.595C123.57 205.595 123.06 205.825 122.654 206.285C122.249 206.745 122.046 207.44 122.046 208.37ZM129.032 212V204.74H130.14V205.772C130.673 204.975 131.443 204.576 132.45 204.576C132.888 204.576 133.289 204.656 133.653 204.815C134.022 204.97 134.298 205.175 134.48 205.431C134.663 205.686 134.79 205.989 134.863 206.34C134.909 206.568 134.932 206.966 134.932 207.536V212H133.701V207.584C133.701 207.083 133.653 206.709 133.558 206.463C133.462 206.212 133.291 206.014 133.045 205.868C132.803 205.718 132.519 205.643 132.19 205.643C131.666 205.643 131.213 205.809 130.83 206.142C130.452 206.474 130.263 207.105 130.263 208.035V212H129.032ZM135.902 212.171L138.808 201.808H139.792L136.894 212.171H135.902ZM147.455 201.979H148.781V207.769C148.781 208.776 148.667 209.576 148.439 210.168C148.212 210.76 147.799 211.243 147.202 211.617C146.61 211.986 145.83 212.171 144.864 212.171C143.925 212.171 143.158 212.009 142.561 211.686C141.964 211.362 141.537 210.895 141.282 210.284C141.027 209.669 140.899 208.83 140.899 207.769V201.979H142.226V207.762C142.226 208.632 142.305 209.275 142.465 209.689C142.629 210.1 142.907 210.416 143.299 210.64C143.695 210.863 144.178 210.975 144.748 210.975C145.723 210.975 146.418 210.754 146.833 210.312C147.248 209.869 147.455 209.02 147.455 207.762V201.979ZM150.839 212V204.74H151.946V205.772C152.479 204.975 153.25 204.576 154.257 204.576C154.694 204.576 155.095 204.656 155.46 204.815C155.829 204.97 156.105 205.175 156.287 205.431C156.469 205.686 156.597 205.989 156.67 206.34C156.715 206.568 156.738 206.966 156.738 207.536V212H155.508V207.584C155.508 207.083 155.46 206.709 155.364 206.463C155.269 206.212 155.098 206.014 154.852 205.868C154.61 205.718 154.325 205.643 153.997 205.643C153.473 205.643 153.02 205.809 152.637 206.142C152.258 206.474 152.069 207.105 152.069 208.035V212H150.839ZM158.604 212V201.979H159.835V212H158.604ZM161.291 208.37C161.291 207.026 161.665 206.03 162.412 205.383C163.036 204.845 163.798 204.576 164.695 204.576C165.693 204.576 166.509 204.904 167.143 205.561C167.776 206.212 168.093 207.115 168.093 208.268C168.093 209.202 167.951 209.938 167.669 210.476C167.391 211.009 166.983 211.424 166.445 211.72C165.912 212.016 165.329 212.164 164.695 212.164C163.679 212.164 162.856 211.838 162.228 211.187C161.603 210.535 161.291 209.596 161.291 208.37ZM162.556 208.37C162.556 209.3 162.758 209.997 163.164 210.462C163.57 210.922 164.08 211.152 164.695 211.152C165.306 211.152 165.814 210.92 166.22 210.455C166.625 209.99 166.828 209.282 166.828 208.329C166.828 207.431 166.623 206.752 166.213 206.292C165.807 205.827 165.301 205.595 164.695 205.595C164.08 205.595 163.57 205.825 163.164 206.285C162.758 206.745 162.556 207.44 162.556 208.37ZM174.279 209.341L175.489 209.498C175.357 210.332 175.018 210.986 174.471 211.46C173.928 211.929 173.261 212.164 172.468 212.164C171.474 212.164 170.674 211.84 170.068 211.193C169.467 210.542 169.166 209.61 169.166 208.397C169.166 207.614 169.296 206.928 169.556 206.34C169.815 205.752 170.21 205.312 170.738 205.021C171.271 204.724 171.85 204.576 172.475 204.576C173.263 204.576 173.908 204.777 174.409 205.178C174.91 205.574 175.232 206.139 175.373 206.873L174.177 207.058C174.063 206.57 173.86 206.203 173.568 205.957C173.281 205.711 172.933 205.588 172.522 205.588C171.903 205.588 171.399 205.811 171.012 206.258C170.624 206.7 170.431 207.402 170.431 208.363C170.431 209.339 170.618 210.047 170.991 210.489C171.365 210.931 171.853 211.152 172.454 211.152C172.937 211.152 173.34 211.004 173.664 210.708C173.988 210.412 174.193 209.956 174.279 209.341ZM176.549 212V201.979H177.779V207.693L180.691 204.74H182.284L179.509 207.434L182.564 212H181.047L178.647 208.288L177.779 209.122V212H176.549ZM188.512 209.662L189.783 209.819C189.583 210.562 189.211 211.139 188.669 211.549C188.127 211.959 187.434 212.164 186.591 212.164C185.529 212.164 184.686 211.838 184.062 211.187C183.442 210.53 183.132 209.612 183.132 208.432C183.132 207.21 183.446 206.262 184.075 205.588C184.704 204.913 185.52 204.576 186.522 204.576C187.493 204.576 188.286 204.907 188.901 205.567C189.517 206.228 189.824 207.158 189.824 208.356C189.824 208.429 189.822 208.539 189.817 208.685H184.403C184.449 209.482 184.674 210.093 185.08 210.517C185.486 210.94 185.992 211.152 186.598 211.152C187.049 211.152 187.434 211.034 187.753 210.797C188.072 210.56 188.325 210.182 188.512 209.662ZM184.472 207.673H188.525C188.471 207.062 188.316 206.604 188.061 206.299C187.669 205.825 187.16 205.588 186.536 205.588C185.971 205.588 185.495 205.777 185.107 206.155C184.725 206.534 184.513 207.039 184.472 207.673ZM196.045 212V211.084C195.585 211.804 194.908 212.164 194.015 212.164C193.436 212.164 192.903 212.005 192.415 211.686C191.932 211.367 191.556 210.922 191.287 210.353C191.023 209.778 190.891 209.12 190.891 208.377C190.891 207.652 191.011 206.996 191.253 206.408C191.494 205.816 191.857 205.362 192.34 205.048C192.823 204.733 193.363 204.576 193.96 204.576C194.397 204.576 194.787 204.67 195.129 204.856C195.471 205.039 195.749 205.278 195.963 205.574V201.979H197.187V212H196.045ZM192.155 208.377C192.155 209.307 192.351 210.002 192.743 210.462C193.135 210.922 193.598 211.152 194.131 211.152C194.669 211.152 195.124 210.934 195.498 210.496C195.876 210.054 196.065 209.382 196.065 208.479C196.065 207.486 195.874 206.757 195.491 206.292C195.108 205.827 194.637 205.595 194.076 205.595C193.529 205.595 193.071 205.818 192.702 206.265C192.338 206.711 192.155 207.415 192.155 208.377ZM198.205 212.171L201.11 201.808H202.095L199.196 212.171H198.205ZM203.223 212V201.979H204.549V206.094H209.758V201.979H211.084V212H209.758V207.276H204.549V212H203.223ZM212.684 208.37C212.684 207.026 213.057 206.03 213.805 205.383C214.429 204.845 215.19 204.576 216.088 204.576C217.086 204.576 217.902 204.904 218.535 205.561C219.169 206.212 219.485 207.115 219.485 208.268C219.485 209.202 219.344 209.938 219.062 210.476C218.784 211.009 218.376 211.424 217.838 211.72C217.305 212.016 216.721 212.164 216.088 212.164C215.072 212.164 214.249 211.838 213.62 211.187C212.996 210.535 212.684 209.596 212.684 208.37ZM213.948 208.37C213.948 209.3 214.151 209.997 214.557 210.462C214.962 210.922 215.473 211.152 216.088 211.152C216.699 211.152 217.207 210.92 217.612 210.455C218.018 209.99 218.221 209.282 218.221 208.329C218.221 207.431 218.016 206.752 217.605 206.292C217.2 205.827 216.694 205.595 216.088 205.595C215.473 205.595 214.962 205.825 214.557 206.285C214.151 206.745 213.948 207.44 213.948 208.37ZM222.951 212L220.189 204.74H221.488L223.047 209.088C223.215 209.557 223.37 210.045 223.512 210.551C223.621 210.168 223.774 209.708 223.97 209.17L225.583 204.74H226.848L224.1 212H222.951ZM232.904 209.662L234.176 209.819C233.975 210.562 233.604 211.139 233.062 211.549C232.519 211.959 231.826 212.164 230.983 212.164C229.922 212.164 229.078 211.838 228.454 211.187C227.834 210.53 227.524 209.612 227.524 208.432C227.524 207.21 227.839 206.262 228.468 205.588C229.097 204.913 229.912 204.576 230.915 204.576C231.886 204.576 232.679 204.907 233.294 205.567C233.909 206.228 234.217 207.158 234.217 208.356C234.217 208.429 234.215 208.539 234.21 208.685H228.796C228.841 209.482 229.067 210.093 229.473 210.517C229.878 210.94 230.384 211.152 230.99 211.152C231.441 211.152 231.826 211.034 232.146 210.797C232.465 210.56 232.717 210.182 232.904 209.662ZM228.864 207.673H232.918C232.863 207.062 232.708 206.604 232.453 206.299C232.061 205.825 231.553 205.588 230.929 205.588C230.364 205.588 229.887 205.777 229.5 206.155C229.117 206.534 228.905 207.039 228.864 207.673ZM235.714 212V204.74H236.821V205.841C237.104 205.326 237.364 204.986 237.601 204.822C237.842 204.658 238.106 204.576 238.394 204.576C238.808 204.576 239.23 204.708 239.658 204.973L239.234 206.114C238.934 205.937 238.633 205.848 238.332 205.848C238.063 205.848 237.822 205.93 237.607 206.094C237.393 206.253 237.241 206.477 237.149 206.764C237.013 207.201 236.944 207.68 236.944 208.199V212H235.714Z" fill="#212121"/>
<g filter="url(#filter1_i_2_547)">
<g filter="url(#filter2_d_2_547)">
<mask id="path-7-outside-2_2_547" maskUnits="userSpaceOnUse" x="50" y="239" width="81" height="81" fill="black">
<rect fill="white" x="50" y="239" width="81" height="81"/>
<path d="M54 250C54 246.686 56.6863 244 60 244H121C124.314 244 127 246.686 127 250V309C127 312.314 124.314 315 121 315H60C56.6863 315 54 312.314 54 309V250Z"/>
</mask>
<path d="M54 250C54 246.686 56.6863 244 60 244H121C124.314 244 127 246.686 127 250V309C127 312.314 124.314 315 121 315H60C56.6863 315 54 312.314 54 309V250Z" fill="#519EE6"/>
<path d="M50 249C50 243.477 54.4772 239 60 239H121C126.523 239 131 243.477 131 249L123 250C123 249.448 122.105 249 121 249H60C58.8954 249 58 249.448 58 250L50 249ZM131 310C131 315.523 126.523 320 121 320H60C54.4772 320 50 315.523 50 310L58 309C58 309.552 58.8954 310 60 310H121C122.105 310 123 309.552 123 309L131 310ZM60 320C54.4772 320 50 315.523 50 310V249C50 243.477 54.4772 239 60 239V249C58.8954 249 58 249.448 58 250V309C58 309.552 58.8954 310 60 310V320ZM121 239C126.523 239 131 243.477 131 249V310C131 315.523 126.523 320 121 320V310C122.105 310 123 309.552 123 309V250C123 249.448 122.105 249 121 249V239Z" fill="white" mask="url(#path-7-outside-2_2_547)"/>
</g>
</g>
<rect x="305" y="50" width="192" height="24" rx="4" fill="#FED70A"/>
<path d="M314.025 67V56.9785H315.352V65.8174H320.287V67H314.025ZM326.686 64.6621L327.957 64.8193C327.757 65.5622 327.385 66.1387 326.843 66.5488C326.3 66.959 325.608 67.1641 324.765 67.1641C323.703 67.1641 322.86 66.8382 322.235 66.1865C321.616 65.5303 321.306 64.612 321.306 63.4316C321.306 62.2103 321.62 61.2624 322.249 60.5879C322.878 59.9134 323.694 59.5762 324.696 59.5762C325.667 59.5762 326.46 59.9066 327.075 60.5674C327.69 61.2282 327.998 62.1579 327.998 63.3564C327.998 63.4294 327.996 63.5387 327.991 63.6846H322.577C322.623 64.4821 322.848 65.0928 323.254 65.5166C323.66 65.9404 324.165 66.1523 324.771 66.1523C325.223 66.1523 325.608 66.0339 325.927 65.7969C326.246 65.5599 326.499 65.1816 326.686 64.6621ZM322.646 62.6729H326.699C326.645 62.0622 326.49 61.6042 326.234 61.2988C325.842 60.8249 325.334 60.5879 324.71 60.5879C324.145 60.5879 323.669 60.777 323.281 61.1553C322.898 61.5335 322.687 62.0394 322.646 62.6729ZM331.525 67L328.764 59.7402H330.062L331.621 64.0879C331.79 64.5573 331.945 65.0449 332.086 65.5508C332.195 65.168 332.348 64.7077 332.544 64.1699L334.157 59.7402H335.422L332.674 67H331.525ZM341.479 64.6621L342.75 64.8193C342.549 65.5622 342.178 66.1387 341.636 66.5488C341.093 66.959 340.401 67.1641 339.558 67.1641C338.496 67.1641 337.653 66.8382 337.028 66.1865C336.409 65.5303 336.099 64.612 336.099 63.4316C336.099 62.2103 336.413 61.2624 337.042 60.5879C337.671 59.9134 338.487 59.5762 339.489 59.5762C340.46 59.5762 341.253 59.9066 341.868 60.5674C342.483 61.2282 342.791 62.1579 342.791 63.3564C342.791 63.4294 342.789 63.5387 342.784 63.6846H337.37C337.416 64.4821 337.641 65.0928 338.047 65.5166C338.452 65.9404 338.958 66.1523 339.564 66.1523C340.016 66.1523 340.401 66.0339 340.72 65.7969C341.039 65.5599 341.292 65.1816 341.479 64.6621ZM337.438 62.6729H341.492C341.438 62.0622 341.283 61.6042 341.027 61.2988C340.635 60.8249 340.127 60.5879 339.503 60.5879C338.938 60.5879 338.462 60.777 338.074 61.1553C337.691 61.5335 337.479 62.0394 337.438 62.6729ZM344.274 67V56.9785H345.505V67H344.274ZM346.496 67.1709L349.401 56.8076H350.386L347.487 67.1709H346.496ZM351.418 67V56.9785H355.178C355.943 56.9785 356.556 57.0811 357.017 57.2861C357.481 57.4867 357.844 57.7988 358.104 58.2227C358.368 58.6419 358.5 59.0817 358.5 59.542C358.5 59.9704 358.384 60.3737 358.151 60.752C357.919 61.1302 357.568 61.4355 357.099 61.668C357.705 61.8457 358.17 62.1488 358.493 62.5771C358.821 63.0055 358.985 63.5114 358.985 64.0947C358.985 64.5641 358.885 65.0016 358.685 65.4072C358.489 65.8083 358.245 66.1182 357.953 66.3369C357.661 66.5557 357.295 66.722 356.853 66.8359C356.415 66.9453 355.877 67 355.239 67H351.418ZM352.744 61.1895H354.911C355.499 61.1895 355.921 61.1507 356.176 61.0732C356.513 60.973 356.766 60.8066 356.935 60.5742C357.108 60.3418 357.194 60.0501 357.194 59.6992C357.194 59.3665 357.115 59.0749 356.955 58.8242C356.796 58.569 356.568 58.3958 356.271 58.3047C355.975 58.209 355.467 58.1611 354.747 58.1611H352.744V61.1895ZM352.744 65.8174H355.239C355.668 65.8174 355.968 65.8014 356.142 65.7695C356.447 65.7148 356.702 65.6237 356.907 65.4961C357.112 65.3685 357.281 65.1839 357.413 64.9424C357.545 64.6963 357.611 64.4137 357.611 64.0947C357.611 63.721 357.516 63.3975 357.324 63.124C357.133 62.846 356.866 62.6523 356.524 62.543C356.187 62.429 355.7 62.3721 355.062 62.3721H352.744V65.8174ZM365.411 67V65.9336C364.846 66.7539 364.078 67.1641 363.107 67.1641C362.679 67.1641 362.278 67.082 361.904 66.918C361.535 66.7539 361.259 66.5488 361.077 66.3027C360.899 66.0521 360.774 65.7467 360.701 65.3867C360.651 65.1452 360.626 64.7624 360.626 64.2383V59.7402H361.856V63.7666C361.856 64.4092 361.882 64.8421 361.932 65.0654C362.009 65.389 362.173 65.6442 362.424 65.8311C362.674 66.0133 362.984 66.1045 363.354 66.1045C363.723 66.1045 364.069 66.0111 364.393 65.8242C364.716 65.6328 364.944 65.3753 365.076 65.0518C365.213 64.7236 365.281 64.2497 365.281 63.6299V59.7402H366.512V67H365.411ZM371.133 65.8994L371.311 66.9863C370.964 67.0592 370.654 67.0957 370.381 67.0957C369.934 67.0957 369.588 67.0251 369.342 66.8838C369.096 66.7425 368.923 66.5579 368.822 66.3301C368.722 66.0977 368.672 65.6123 368.672 64.874V60.6973H367.77V59.7402H368.672V57.9424L369.896 57.2041V59.7402H371.133V60.6973H369.896V64.9424C369.896 65.2933 369.916 65.5189 369.957 65.6191C370.003 65.7194 370.073 65.7992 370.169 65.8584C370.269 65.9176 370.41 65.9473 370.593 65.9473C370.729 65.9473 370.91 65.9313 371.133 65.8994ZM375.029 65.8994L375.207 66.9863C374.861 67.0592 374.551 67.0957 374.277 67.0957C373.831 67.0957 373.484 67.0251 373.238 66.8838C372.992 66.7425 372.819 66.5579 372.719 66.3301C372.618 66.0977 372.568 65.6123 372.568 64.874V60.6973H371.666V59.7402H372.568V57.9424L373.792 57.2041V59.7402H375.029V60.6973H373.792V64.9424C373.792 65.2933 373.812 65.5189 373.854 65.6191C373.899 65.7194 373.97 65.7992 374.065 65.8584C374.166 65.9176 374.307 65.9473 374.489 65.9473C374.626 65.9473 374.806 65.9313 375.029 65.8994ZM375.781 63.3701C375.781 62.0257 376.155 61.0299 376.902 60.3828C377.527 59.8451 378.288 59.5762 379.186 59.5762C380.184 59.5762 380.999 59.9043 381.633 60.5605C382.266 61.2122 382.583 62.1146 382.583 63.2676C382.583 64.2018 382.442 64.9378 382.159 65.4756C381.881 66.0088 381.473 66.4235 380.936 66.7197C380.402 67.016 379.819 67.1641 379.186 67.1641C378.169 67.1641 377.347 66.8382 376.718 66.1865C376.093 65.5348 375.781 64.596 375.781 63.3701ZM377.046 63.3701C377.046 64.2998 377.249 64.9971 377.654 65.4619C378.06 65.9222 378.57 66.1523 379.186 66.1523C379.796 66.1523 380.304 65.9199 380.71 65.4551C381.116 64.9902 381.318 64.2816 381.318 63.3291C381.318 62.4313 381.113 61.7523 380.703 61.292C380.298 60.8271 379.792 60.5947 379.186 60.5947C378.57 60.5947 378.06 60.8249 377.654 61.2852C377.249 61.7454 377.046 62.4404 377.046 63.3701ZM384.032 67V59.7402H385.14V60.7725C385.673 59.9749 386.443 59.5762 387.45 59.5762C387.888 59.5762 388.289 59.6559 388.653 59.8154C389.022 59.9704 389.298 60.1755 389.48 60.4307C389.663 60.6859 389.79 60.9889 389.863 61.3398C389.909 61.5677 389.932 61.9665 389.932 62.5361V67H388.701V62.584C388.701 62.0827 388.653 61.709 388.558 61.4629C388.462 61.2122 388.291 61.014 388.045 60.8682C387.803 60.7178 387.519 60.6426 387.19 60.6426C386.666 60.6426 386.213 60.8089 385.83 61.1416C385.452 61.4743 385.263 62.1055 385.263 63.0352V67H384.032ZM390.902 67.1709L393.808 56.8076H394.792L391.894 67.1709H390.902ZM395.824 67V56.9785H397.15V65.8174H402.086V67H395.824ZM403.057 63.3701C403.057 62.0257 403.43 61.0299 404.178 60.3828C404.802 59.8451 405.563 59.5762 406.461 59.5762C407.459 59.5762 408.275 59.9043 408.908 60.5605C409.542 61.2122 409.858 62.1146 409.858 63.2676C409.858 64.2018 409.717 64.9378 409.435 65.4756C409.157 66.0088 408.749 66.4235 408.211 66.7197C407.678 67.016 407.094 67.1641 406.461 67.1641C405.445 67.1641 404.622 66.8382 403.993 66.1865C403.369 65.5348 403.057 64.596 403.057 63.3701ZM404.321 63.3701C404.321 64.2998 404.524 64.9971 404.93 65.4619C405.335 65.9222 405.846 66.1523 406.461 66.1523C407.072 66.1523 407.58 65.9199 407.985 65.4551C408.391 64.9902 408.594 64.2816 408.594 63.3291C408.594 62.4313 408.389 61.7523 407.979 61.292C407.573 60.8271 407.067 60.5947 406.461 60.5947C405.846 60.5947 405.335 60.8249 404.93 61.2852C404.524 61.7454 404.321 62.4404 404.321 63.3701ZM416.045 64.3408L417.255 64.498C417.123 65.332 416.783 65.986 416.236 66.46C415.694 66.9294 415.026 67.1641 414.233 67.1641C413.24 67.1641 412.44 66.8405 411.834 66.1934C411.232 65.5417 410.932 64.6097 410.932 63.3975C410.932 62.6136 411.062 61.9277 411.321 61.3398C411.581 60.752 411.975 60.3122 412.504 60.0205C413.037 59.7243 413.616 59.5762 414.24 59.5762C415.029 59.5762 415.674 59.7767 416.175 60.1777C416.676 60.5742 416.997 61.1393 417.139 61.873L415.942 62.0576C415.828 61.57 415.626 61.2031 415.334 60.957C415.047 60.7109 414.698 60.5879 414.288 60.5879C413.668 60.5879 413.165 60.8112 412.777 61.2578C412.39 61.6999 412.196 62.4017 412.196 63.3633C412.196 64.3385 412.383 65.0472 412.757 65.4893C413.131 65.9313 413.618 66.1523 414.22 66.1523C414.703 66.1523 415.106 66.0042 415.43 65.708C415.753 65.4118 415.958 64.9561 416.045 64.3408ZM418.314 67V56.9785H419.545V62.6934L422.457 59.7402H424.05L421.274 62.4336L424.33 67H422.812L420.413 63.2881L419.545 64.1221V67H418.314ZM430.277 64.6621L431.549 64.8193C431.348 65.5622 430.977 66.1387 430.435 66.5488C429.892 66.959 429.2 67.1641 428.356 67.1641C427.295 67.1641 426.451 66.8382 425.827 66.1865C425.207 65.5303 424.897 64.612 424.897 63.4316C424.897 62.2103 425.212 61.2624 425.841 60.5879C426.47 59.9134 427.285 59.5762 428.288 59.5762C429.259 59.5762 430.052 59.9066 430.667 60.5674C431.282 61.2282 431.59 62.1579 431.59 63.3564C431.59 63.4294 431.588 63.5387 431.583 63.6846H426.169C426.215 64.4821 426.44 65.0928 426.846 65.5166C427.251 65.9404 427.757 66.1523 428.363 66.1523C428.814 66.1523 429.2 66.0339 429.519 65.7969C429.838 65.5599 430.09 65.1816 430.277 64.6621ZM426.237 62.6729H430.291C430.236 62.0622 430.081 61.6042 429.826 61.2988C429.434 60.8249 428.926 60.5879 428.302 60.5879C427.737 60.5879 427.26 60.777 426.873 61.1553C426.49 61.5335 426.278 62.0394 426.237 62.6729ZM437.811 67V66.084C437.35 66.804 436.674 67.1641 435.78 67.1641C435.201 67.1641 434.668 67.0046 434.181 66.6855C433.698 66.3665 433.322 65.9222 433.053 65.3525C432.788 64.7783 432.656 64.1198 432.656 63.377C432.656 62.6523 432.777 61.9961 433.019 61.4082C433.26 60.8158 433.622 60.3623 434.105 60.0479C434.589 59.7334 435.129 59.5762 435.726 59.5762C436.163 59.5762 436.553 59.6696 436.895 59.8564C437.236 60.0387 437.514 60.278 437.729 60.5742V56.9785H438.952V67H437.811ZM433.921 63.377C433.921 64.3066 434.117 65.0016 434.509 65.4619C434.901 65.9222 435.363 66.1523 435.896 66.1523C436.434 66.1523 436.89 65.9336 437.264 65.4961C437.642 65.054 437.831 64.3818 437.831 63.4795C437.831 62.486 437.64 61.7568 437.257 61.292C436.874 60.8271 436.402 60.5947 435.842 60.5947C435.295 60.5947 434.837 60.818 434.468 61.2646C434.103 61.7113 433.921 62.4154 433.921 63.377ZM439.971 67.1709L442.876 56.8076H443.86L440.962 67.1709H439.971ZM444.947 67V56.9785H448.399C449.179 56.9785 449.773 57.0264 450.184 57.1221C450.758 57.2542 451.248 57.4935 451.653 57.8398C452.182 58.2865 452.576 58.8584 452.836 59.5557C453.1 60.2484 453.232 61.0413 453.232 61.9346C453.232 62.6956 453.144 63.3701 452.966 63.958C452.788 64.5459 452.56 65.0335 452.282 65.4209C452.004 65.8037 451.699 66.1068 451.366 66.3301C451.038 66.5488 450.639 66.7152 450.17 66.8291C449.705 66.943 449.17 67 448.563 67H444.947ZM446.273 65.8174H448.413C449.074 65.8174 449.591 65.7559 449.965 65.6328C450.343 65.5098 450.644 65.3366 450.867 65.1133C451.182 64.7988 451.425 64.3773 451.599 63.8486C451.776 63.3154 451.865 62.6706 451.865 61.9141C451.865 60.8659 451.692 60.0615 451.346 59.501C451.004 58.9359 450.587 58.5576 450.095 58.3662C449.739 58.2295 449.167 58.1611 448.379 58.1611H446.273V65.8174ZM459.877 64.6621L461.148 64.8193C460.948 65.5622 460.576 66.1387 460.034 66.5488C459.492 66.959 458.799 67.1641 457.956 67.1641C456.894 67.1641 456.051 66.8382 455.427 66.1865C454.807 65.5303 454.497 64.612 454.497 63.4316C454.497 62.2103 454.812 61.2624 455.44 60.5879C456.069 59.9134 456.885 59.5762 457.888 59.5762C458.858 59.5762 459.651 59.9066 460.267 60.5674C460.882 61.2282 461.189 62.1579 461.189 63.3564C461.189 63.4294 461.187 63.5387 461.183 63.6846H455.769C455.814 64.4821 456.04 65.0928 456.445 65.5166C456.851 65.9404 457.357 66.1523 457.963 66.1523C458.414 66.1523 458.799 66.0339 459.118 65.7969C459.437 65.5599 459.69 65.1816 459.877 64.6621ZM455.837 62.6729H459.891C459.836 62.0622 459.681 61.6042 459.426 61.2988C459.034 60.8249 458.526 60.5879 457.901 60.5879C457.336 60.5879 456.86 60.777 456.473 61.1553C456.09 61.5335 455.878 62.0394 455.837 62.6729ZM462.994 67V60.6973H461.907V59.7402H462.994V58.9678C462.994 58.4801 463.037 58.1178 463.124 57.8809C463.243 57.5618 463.45 57.3044 463.746 57.1084C464.047 56.9079 464.466 56.8076 465.004 56.8076C465.35 56.8076 465.733 56.8486 466.152 56.9307L465.968 58.0039C465.713 57.9583 465.471 57.9355 465.243 57.9355C464.869 57.9355 464.605 58.0153 464.45 58.1748C464.295 58.3343 464.218 58.6328 464.218 59.0703V59.7402H465.633V60.6973H464.218V67H462.994ZM471.334 66.1045C470.878 66.4919 470.438 66.7653 470.015 66.9248C469.595 67.0843 469.144 67.1641 468.661 67.1641C467.864 67.1641 467.251 66.9704 466.822 66.583C466.394 66.1911 466.18 65.6921 466.18 65.0859C466.18 64.7305 466.259 64.4069 466.419 64.1152C466.583 63.819 466.795 63.582 467.055 63.4043C467.319 63.2266 467.615 63.0921 467.943 63.001C468.185 62.9372 468.549 62.8757 469.037 62.8164C470.031 62.6979 470.762 62.5566 471.231 62.3926C471.236 62.224 471.238 62.1169 471.238 62.0713C471.238 61.57 471.122 61.2168 470.89 61.0117C470.575 60.7337 470.108 60.5947 469.488 60.5947C468.91 60.5947 468.481 60.6973 468.203 60.9023C467.93 61.1029 467.727 61.4606 467.595 61.9756L466.392 61.8115C466.501 61.2965 466.681 60.8818 466.932 60.5674C467.182 60.2484 467.545 60.0046 468.019 59.8359C468.493 59.6628 469.042 59.5762 469.666 59.5762C470.286 59.5762 470.789 59.6491 471.177 59.7949C471.564 59.9408 471.849 60.1253 472.031 60.3486C472.214 60.5674 472.341 60.8454 472.414 61.1826C472.455 61.3923 472.476 61.7705 472.476 62.3174V63.958C472.476 65.1019 472.501 65.8265 472.551 66.1318C472.605 66.4326 472.71 66.722 472.865 67H471.58C471.452 66.7448 471.37 66.4463 471.334 66.1045ZM471.231 63.3564C470.785 63.5387 470.115 63.6937 469.222 63.8213C468.716 63.8942 468.358 63.9762 468.148 64.0674C467.939 64.1585 467.777 64.293 467.663 64.4707C467.549 64.6439 467.492 64.8376 467.492 65.0518C467.492 65.3799 467.615 65.6533 467.861 65.8721C468.112 66.0908 468.477 66.2002 468.955 66.2002C469.429 66.2002 469.851 66.0977 470.22 65.8926C470.589 65.6829 470.86 65.3981 471.033 65.0381C471.165 64.7601 471.231 64.3499 471.231 63.8076V63.3564ZM479.147 67V65.9336C478.582 66.7539 477.814 67.1641 476.844 67.1641C476.415 67.1641 476.014 67.082 475.641 66.918C475.271 66.7539 474.996 66.5488 474.813 66.3027C474.636 66.0521 474.51 65.7467 474.438 65.3867C474.387 65.1452 474.362 64.7624 474.362 64.2383V59.7402H475.593V63.7666C475.593 64.4092 475.618 64.8421 475.668 65.0654C475.745 65.389 475.91 65.6442 476.16 65.8311C476.411 66.0133 476.721 66.1045 477.09 66.1045C477.459 66.1045 477.805 66.0111 478.129 65.8242C478.452 65.6328 478.68 65.3753 478.812 65.0518C478.949 64.7236 479.018 64.2497 479.018 63.6299V59.7402H480.248V67H479.147ZM482.155 67V56.9785H483.386V67H482.155ZM487.986 65.8994L488.164 66.9863C487.818 67.0592 487.508 67.0957 487.234 67.0957C486.788 67.0957 486.441 67.0251 486.195 66.8838C485.949 66.7425 485.776 66.5579 485.676 66.3301C485.576 66.0977 485.525 65.6123 485.525 64.874V60.6973H484.623V59.7402H485.525V57.9424L486.749 57.2041V59.7402H487.986V60.6973H486.749V64.9424C486.749 65.2933 486.77 65.5189 486.811 65.6191C486.856 65.7194 486.927 65.7992 487.022 65.8584C487.123 65.9176 487.264 65.9473 487.446 65.9473C487.583 65.9473 487.763 65.9313 487.986 65.8994Z" fill="#212121"/>
<g filter="url(#filter3_d_2_547)">
<mask id="path-11-outside-3_2_547" maskUnits="userSpaceOnUse" x="305" y="94" width="81" height="81" fill="black">
<rect fill="white" x="305" y="94" width="81" height="81"/>
<path d="M309 105C309 101.686 311.686 99 315 99H376C379.314 99 382 101.686 382 105V164C382 167.314 379.314 170 376 170H315C311.686 170 309 167.314 309 164V105Z"/>
</mask>
<path d="M309 105C309 101.686 311.686 99 315 99H376C379.314 99 382 101.686 382 105V164C382 167.314 379.314 170 376 170H315C311.686 170 309 167.314 309 164V105Z" fill="#519EE6"/>
<path d="M305 104C305 98.4772 309.477 94 315 94H376C381.523 94 386 98.4772 386 104L378 105C378 104.448 377.105 104 376 104H315C313.895 104 313 104.448 313 105L305 104ZM386 165C386 170.523 381.523 175 376 175H315C309.477 175 305 170.523 305 165L313 164C313 164.552 313.895 165 315 165H376C377.105 165 378 164.552 378 164L386 165ZM315 175C309.477 175 305 170.523 305 165V104C305 98.4772 309.477 94 315 94V104C313.895 104 313 104.448 313 105V164C313 164.552 313.895 165 315 165V175ZM376 94C381.523 94 386 98.4772 386 104V165C386 170.523 381.523 175 376 175V165C377.105 165 378 164.552 378 164V105C378 104.448 377.105 104 376 104V94Z" fill="#8FD7FF" mask="url(#path-11-outside-3_2_547)"/>
</g>
<g filter="url(#filter4_i_2_547)">
<path fill-rule="evenodd" clip-rule="evenodd" d="M350.506 125.667H338.492V121.762C338.492 118.443 341.206 115.71 344.5 115.71C347.792 115.71 350.506 118.443 350.506 121.762V125.667ZM344.5 143.238C342.367 143.238 340.625 141.481 340.625 139.333C340.625 137.186 342.367 135.429 344.5 135.429C346.631 135.429 348.375 137.186 348.375 139.333C348.375 141.481 346.631 143.238 344.5 143.238ZM356.125 125.667H354.188V121.762C354.188 116.295 349.925 112 344.5 112C339.074 112 334.812 116.295 334.812 121.762V125.667H332.875C330.742 125.667 329 127.424 329 129.571V149.095C329 151.243 330.742 153 332.875 153H356.125C358.256 153 360 151.243 360 149.095V129.571C360 127.424 358.256 125.667 356.125 125.667Z" fill="#F5F5F5"/>
</g>
<rect x="305" y="194" width="185" height="24" rx="4" fill="#FED70A"/>
<path d="M314.025 211V200.979H315.352V209.817H320.287V211H314.025ZM326.686 208.662L327.957 208.819C327.757 209.562 327.385 210.139 326.843 210.549C326.3 210.959 325.608 211.164 324.765 211.164C323.703 211.164 322.86 210.838 322.235 210.187C321.616 209.53 321.306 208.612 321.306 207.432C321.306 206.21 321.62 205.262 322.249 204.588C322.878 203.913 323.694 203.576 324.696 203.576C325.667 203.576 326.46 203.907 327.075 204.567C327.69 205.228 327.998 206.158 327.998 207.356C327.998 207.429 327.996 207.539 327.991 207.685H322.577C322.623 208.482 322.848 209.093 323.254 209.517C323.66 209.94 324.165 210.152 324.771 210.152C325.223 210.152 325.608 210.034 325.927 209.797C326.246 209.56 326.499 209.182 326.686 208.662ZM322.646 206.673H326.699C326.645 206.062 326.49 205.604 326.234 205.299C325.842 204.825 325.334 204.588 324.71 204.588C324.145 204.588 323.669 204.777 323.281 205.155C322.898 205.534 322.687 206.039 322.646 206.673ZM331.525 211L328.764 203.74H330.062L331.621 208.088C331.79 208.557 331.945 209.045 332.086 209.551C332.195 209.168 332.348 208.708 332.544 208.17L334.157 203.74H335.422L332.674 211H331.525ZM341.479 208.662L342.75 208.819C342.549 209.562 342.178 210.139 341.636 210.549C341.093 210.959 340.401 211.164 339.558 211.164C338.496 211.164 337.653 210.838 337.028 210.187C336.409 209.53 336.099 208.612 336.099 207.432C336.099 206.21 336.413 205.262 337.042 204.588C337.671 203.913 338.487 203.576 339.489 203.576C340.46 203.576 341.253 203.907 341.868 204.567C342.483 205.228 342.791 206.158 342.791 207.356C342.791 207.429 342.789 207.539 342.784 207.685H337.37C337.416 208.482 337.641 209.093 338.047 209.517C338.452 209.94 338.958 210.152 339.564 210.152C340.016 210.152 340.401 210.034 340.72 209.797C341.039 209.56 341.292 209.182 341.479 208.662ZM337.438 206.673H341.492C341.438 206.062 341.283 205.604 341.027 205.299C340.635 204.825 340.127 204.588 339.503 204.588C338.938 204.588 338.462 204.777 338.074 205.155C337.691 205.534 337.479 206.039 337.438 206.673ZM344.274 211V200.979H345.505V211H344.274ZM346.496 211.171L349.401 200.808H350.386L347.487 211.171H346.496ZM351.418 211V200.979H355.178C355.943 200.979 356.556 201.081 357.017 201.286C357.481 201.487 357.844 201.799 358.104 202.223C358.368 202.642 358.5 203.082 358.5 203.542C358.5 203.97 358.384 204.374 358.151 204.752C357.919 205.13 357.568 205.436 357.099 205.668C357.705 205.846 358.17 206.149 358.493 206.577C358.821 207.006 358.985 207.511 358.985 208.095C358.985 208.564 358.885 209.002 358.685 209.407C358.489 209.808 358.245 210.118 357.953 210.337C357.661 210.556 357.295 210.722 356.853 210.836C356.415 210.945 355.877 211 355.239 211H351.418ZM352.744 205.189H354.911C355.499 205.189 355.921 205.151 356.176 205.073C356.513 204.973 356.766 204.807 356.935 204.574C357.108 204.342 357.194 204.05 357.194 203.699C357.194 203.367 357.115 203.075 356.955 202.824C356.796 202.569 356.568 202.396 356.271 202.305C355.975 202.209 355.467 202.161 354.747 202.161H352.744V205.189ZM352.744 209.817H355.239C355.668 209.817 355.968 209.801 356.142 209.77C356.447 209.715 356.702 209.624 356.907 209.496C357.112 209.368 357.281 209.184 357.413 208.942C357.545 208.696 357.611 208.414 357.611 208.095C357.611 207.721 357.516 207.397 357.324 207.124C357.133 206.846 356.866 206.652 356.524 206.543C356.187 206.429 355.7 206.372 355.062 206.372H352.744V209.817ZM365.411 211V209.934C364.846 210.754 364.078 211.164 363.107 211.164C362.679 211.164 362.278 211.082 361.904 210.918C361.535 210.754 361.259 210.549 361.077 210.303C360.899 210.052 360.774 209.747 360.701 209.387C360.651 209.145 360.626 208.762 360.626 208.238V203.74H361.856V207.767C361.856 208.409 361.882 208.842 361.932 209.065C362.009 209.389 362.173 209.644 362.424 209.831C362.674 210.013 362.984 210.104 363.354 210.104C363.723 210.104 364.069 210.011 364.393 209.824C364.716 209.633 364.944 209.375 365.076 209.052C365.213 208.724 365.281 208.25 365.281 207.63V203.74H366.512V211H365.411ZM371.133 209.899L371.311 210.986C370.964 211.059 370.654 211.096 370.381 211.096C369.934 211.096 369.588 211.025 369.342 210.884C369.096 210.743 368.923 210.558 368.822 210.33C368.722 210.098 368.672 209.612 368.672 208.874V204.697H367.77V203.74H368.672V201.942L369.896 201.204V203.74H371.133V204.697H369.896V208.942C369.896 209.293 369.916 209.519 369.957 209.619C370.003 209.719 370.073 209.799 370.169 209.858C370.269 209.918 370.41 209.947 370.593 209.947C370.729 209.947 370.91 209.931 371.133 209.899ZM375.029 209.899L375.207 210.986C374.861 211.059 374.551 211.096 374.277 211.096C373.831 211.096 373.484 211.025 373.238 210.884C372.992 210.743 372.819 210.558 372.719 210.33C372.618 210.098 372.568 209.612 372.568 208.874V204.697H371.666V203.74H372.568V201.942L373.792 201.204V203.74H375.029V204.697H373.792V208.942C373.792 209.293 373.812 209.519 373.854 209.619C373.899 209.719 373.97 209.799 374.065 209.858C374.166 209.918 374.307 209.947 374.489 209.947C374.626 209.947 374.806 209.931 375.029 209.899ZM375.781 207.37C375.781 206.026 376.155 205.03 376.902 204.383C377.527 203.845 378.288 203.576 379.186 203.576C380.184 203.576 380.999 203.904 381.633 204.561C382.266 205.212 382.583 206.115 382.583 207.268C382.583 208.202 382.442 208.938 382.159 209.476C381.881 210.009 381.473 210.424 380.936 210.72C380.402 211.016 379.819 211.164 379.186 211.164C378.169 211.164 377.347 210.838 376.718 210.187C376.093 209.535 375.781 208.596 375.781 207.37ZM377.046 207.37C377.046 208.3 377.249 208.997 377.654 209.462C378.06 209.922 378.57 210.152 379.186 210.152C379.796 210.152 380.304 209.92 380.71 209.455C381.116 208.99 381.318 208.282 381.318 207.329C381.318 206.431 381.113 205.752 380.703 205.292C380.298 204.827 379.792 204.595 379.186 204.595C378.57 204.595 378.06 204.825 377.654 205.285C377.249 205.745 377.046 206.44 377.046 207.37ZM384.032 211V203.74H385.14V204.772C385.673 203.975 386.443 203.576 387.45 203.576C387.888 203.576 388.289 203.656 388.653 203.815C389.022 203.97 389.298 204.175 389.48 204.431C389.663 204.686 389.79 204.989 389.863 205.34C389.909 205.568 389.932 205.966 389.932 206.536V211H388.701V206.584C388.701 206.083 388.653 205.709 388.558 205.463C388.462 205.212 388.291 205.014 388.045 204.868C387.803 204.718 387.519 204.643 387.19 204.643C386.666 204.643 386.213 204.809 385.83 205.142C385.452 205.474 385.263 206.105 385.263 207.035V211H384.032ZM390.902 211.171L393.808 200.808H394.792L391.894 211.171H390.902ZM395.824 211V200.979H397.15V209.817H402.086V211H395.824ZM403.057 207.37C403.057 206.026 403.43 205.03 404.178 204.383C404.802 203.845 405.563 203.576 406.461 203.576C407.459 203.576 408.275 203.904 408.908 204.561C409.542 205.212 409.858 206.115 409.858 207.268C409.858 208.202 409.717 208.938 409.435 209.476C409.157 210.009 408.749 210.424 408.211 210.72C407.678 211.016 407.094 211.164 406.461 211.164C405.445 211.164 404.622 210.838 403.993 210.187C403.369 209.535 403.057 208.596 403.057 207.37ZM404.321 207.37C404.321 208.3 404.524 208.997 404.93 209.462C405.335 209.922 405.846 210.152 406.461 210.152C407.072 210.152 407.58 209.92 407.985 209.455C408.391 208.99 408.594 208.282 408.594 207.329C408.594 206.431 408.389 205.752 407.979 205.292C407.573 204.827 407.067 204.595 406.461 204.595C405.846 204.595 405.335 204.825 404.93 205.285C404.524 205.745 404.321 206.44 404.321 207.37ZM416.045 208.341L417.255 208.498C417.123 209.332 416.783 209.986 416.236 210.46C415.694 210.929 415.026 211.164 414.233 211.164C413.24 211.164 412.44 210.84 411.834 210.193C411.232 209.542 410.932 208.61 410.932 207.397C410.932 206.614 411.062 205.928 411.321 205.34C411.581 204.752 411.975 204.312 412.504 204.021C413.037 203.724 413.616 203.576 414.24 203.576C415.029 203.576 415.674 203.777 416.175 204.178C416.676 204.574 416.997 205.139 417.139 205.873L415.942 206.058C415.828 205.57 415.626 205.203 415.334 204.957C415.047 204.711 414.698 204.588 414.288 204.588C413.668 204.588 413.165 204.811 412.777 205.258C412.39 205.7 412.196 206.402 412.196 207.363C412.196 208.339 412.383 209.047 412.757 209.489C413.131 209.931 413.618 210.152 414.22 210.152C414.703 210.152 415.106 210.004 415.43 209.708C415.753 209.412 415.958 208.956 416.045 208.341ZM418.314 211V200.979H419.545V206.693L422.457 203.74H424.05L421.274 206.434L424.33 211H422.812L420.413 207.288L419.545 208.122V211H418.314ZM430.277 208.662L431.549 208.819C431.348 209.562 430.977 210.139 430.435 210.549C429.892 210.959 429.2 211.164 428.356 211.164C427.295 211.164 426.451 210.838 425.827 210.187C425.207 209.53 424.897 208.612 424.897 207.432C424.897 206.21 425.212 205.262 425.841 204.588C426.47 203.913 427.285 203.576 428.288 203.576C429.259 203.576 430.052 203.907 430.667 204.567C431.282 205.228 431.59 206.158 431.59 207.356C431.59 207.429 431.588 207.539 431.583 207.685H426.169C426.215 208.482 426.44 209.093 426.846 209.517C427.251 209.94 427.757 210.152 428.363 210.152C428.814 210.152 429.2 210.034 429.519 209.797C429.838 209.56 430.09 209.182 430.277 208.662ZM426.237 206.673H430.291C430.236 206.062 430.081 205.604 429.826 205.299C429.434 204.825 428.926 204.588 428.302 204.588C427.737 204.588 427.26 204.777 426.873 205.155C426.49 205.534 426.278 206.039 426.237 206.673ZM437.811 211V210.084C437.35 210.804 436.674 211.164 435.78 211.164C435.201 211.164 434.668 211.005 434.181 210.686C433.698 210.367 433.322 209.922 433.053 209.353C432.788 208.778 432.656 208.12 432.656 207.377C432.656 206.652 432.777 205.996 433.019 205.408C433.26 204.816 433.622 204.362 434.105 204.048C434.589 203.733 435.129 203.576 435.726 203.576C436.163 203.576 436.553 203.67 436.895 203.856C437.236 204.039 437.514 204.278 437.729 204.574V200.979H438.952V211H437.811ZM433.921 207.377C433.921 208.307 434.117 209.002 434.509 209.462C434.901 209.922 435.363 210.152 435.896 210.152C436.434 210.152 436.89 209.934 437.264 209.496C437.642 209.054 437.831 208.382 437.831 207.479C437.831 206.486 437.64 205.757 437.257 205.292C436.874 204.827 436.402 204.595 435.842 204.595C435.295 204.595 434.837 204.818 434.468 205.265C434.103 205.711 433.921 206.415 433.921 207.377ZM439.971 211.171L442.876 200.808H443.86L440.962 211.171H439.971ZM444.988 211V200.979H446.314V205.094H451.523V200.979H452.85V211H451.523V206.276H446.314V211H444.988ZM454.449 207.37C454.449 206.026 454.823 205.03 455.57 204.383C456.195 203.845 456.956 203.576 457.854 203.576C458.852 203.576 459.667 203.904 460.301 204.561C460.934 205.212 461.251 206.115 461.251 207.268C461.251 208.202 461.11 208.938 460.827 209.476C460.549 210.009 460.141 210.424 459.604 210.72C459.07 211.016 458.487 211.164 457.854 211.164C456.837 211.164 456.015 210.838 455.386 210.187C454.761 209.535 454.449 208.596 454.449 207.37ZM455.714 207.37C455.714 208.3 455.917 208.997 456.322 209.462C456.728 209.922 457.238 210.152 457.854 210.152C458.464 210.152 458.972 209.92 459.378 209.455C459.784 208.99 459.986 208.282 459.986 207.329C459.986 206.431 459.781 205.752 459.371 205.292C458.965 204.827 458.46 204.595 457.854 204.595C457.238 204.595 456.728 204.825 456.322 205.285C455.917 205.745 455.714 206.44 455.714 207.37ZM464.717 211L461.955 203.74H463.254L464.812 208.088C464.981 208.557 465.136 209.045 465.277 209.551C465.387 209.168 465.539 208.708 465.735 208.17L467.349 203.74H468.613L465.865 211H464.717ZM474.67 208.662L475.941 208.819C475.741 209.562 475.369 210.139 474.827 210.549C474.285 210.959 473.592 211.164 472.749 211.164C471.687 211.164 470.844 210.838 470.22 210.187C469.6 209.53 469.29 208.612 469.29 207.432C469.29 206.21 469.604 205.262 470.233 204.588C470.862 203.913 471.678 203.576 472.681 203.576C473.651 203.576 474.444 203.907 475.06 204.567C475.675 205.228 475.982 206.158 475.982 207.356C475.982 207.429 475.98 207.539 475.976 207.685H470.562C470.607 208.482 470.833 209.093 471.238 209.517C471.644 209.94 472.15 210.152 472.756 210.152C473.207 210.152 473.592 210.034 473.911 209.797C474.23 209.56 474.483 209.182 474.67 208.662ZM470.63 206.673H474.684C474.629 206.062 474.474 205.604 474.219 205.299C473.827 204.825 473.319 204.588 472.694 204.588C472.129 204.588 471.653 204.777 471.266 205.155C470.883 205.534 470.671 206.039 470.63 206.673ZM477.479 211V203.74H478.587V204.841C478.869 204.326 479.129 203.986 479.366 203.822C479.608 203.658 479.872 203.576 480.159 203.576C480.574 203.576 480.995 203.708 481.424 203.973L481 205.114C480.699 204.937 480.398 204.848 480.098 204.848C479.829 204.848 479.587 204.93 479.373 205.094C479.159 205.253 479.006 205.477 478.915 205.764C478.778 206.201 478.71 206.68 478.71 207.199V211H477.479Z" fill="#212121"/>
<g filter="url(#filter5_i_2_547)">
<g filter="url(#filter6_d_2_547)">
<mask id="path-16-outside-4_2_547" maskUnits="userSpaceOnUse" x="305" y="238" width="81" height="81" fill="black">
<rect fill="white" x="305" y="238" width="81" height="81"/>
<path d="M309 249C309 245.686 311.686 243 315 243H376C379.314 243 382 245.686 382 249V308C382 311.314 379.314 314 376 314H315C311.686 314 309 311.314 309 308V249Z"/>
</mask>
<path d="M309 249C309 245.686 311.686 243 315 243H376C379.314 243 382 245.686 382 249V308C382 311.314 379.314 314 376 314H315C311.686 314 309 311.314 309 308V249Z" fill="#519EE6"/>
<path d="M305 248C305 242.477 309.477 238 315 238H376C381.523 238 386 242.477 386 248L378 249C378 248.448 377.105 248 376 248H315C313.895 248 313 248.448 313 249L305 248ZM386 309C386 314.523 381.523 319 376 319H315C309.477 319 305 314.523 305 309L313 308C313 308.552 313.895 309 315 309H376C377.105 309 378 308.552 378 308L386 309ZM315 319C309.477 319 305 314.523 305 309V248C305 242.477 309.477 238 315 238V248C313.895 248 313 248.448 313 249V308C313 308.552 313.895 309 315 309V319ZM376 238C381.523 238 386 242.477 386 248V309C386 314.523 381.523 319 376 319V309C377.105 309 378 308.552 378 308V249C378 248.448 377.105 248 376 248V238Z" fill="white" mask="url(#path-16-outside-4_2_547)"/>
</g>
</g>
<g filter="url(#filter7_i_2_547)">
<path fill-rule="evenodd" clip-rule="evenodd" d="M350.506 269.667H338.492V265.762C338.492 262.443 341.206 259.71 344.5 259.71C347.792 259.71 350.506 262.443 350.506 265.762V269.667ZM344.5 287.238C342.367 287.238 340.625 285.481 340.625 283.333C340.625 281.186 342.367 279.429 344.5 279.429C346.631 279.429 348.375 281.186 348.375 283.333C348.375 285.481 346.631 287.238 344.5 287.238ZM356.125 269.667H354.188V265.762C354.188 260.295 349.925 256 344.5 256C339.074 256 334.812 260.295 334.812 265.762V269.667H332.875C330.742 269.667 329 271.424 329 273.571V293.095C329 295.243 330.742 297 332.875 297H356.125C358.256 297 360 295.243 360 293.095V273.571C360 271.424 358.256 269.667 356.125 269.667Z" fill="#F5F5F5"/>
</g>
<defs>
<filter id="filter0_d_2_547" x="49" y="94" width="83" height="83" filterUnits="userSpaceOnUse" color-interpolation-filters="sRGB">
<feFlood flood-opacity="0" result="BackgroundImageFix"/>
<feColorMatrix in="SourceAlpha" type="matrix" values="0 0 0 0 0 0 0 0 0 0 0 0 0 0 0 0 0 0 127 0" result="hardAlpha"/>
<feOffset dy="1"/>
<feGaussianBlur stdDeviation="0.5"/>
<feComposite in2="hardAlpha" operator="out"/>
<feColorMatrix type="matrix" values="0 0 0 0 0 0 0 0 0 0.1169 0 0 0 0 0.4175 0 0 0 0.6 0"/>
<feBlend mode="normal" in2="BackgroundImageFix" result="effect1_dropShadow_2_547"/>
<feBlend mode="normal" in="SourceGraphic" in2="effect1_dropShadow_2_547" result="shape"/>
</filter>
<filter id="filter1_i_2_547" x="50" y="239" width="81" height="81" filterUnits="userSpaceOnUse" color-interpolation-filters="sRGB">
<feFlood flood-opacity="0" result="BackgroundImageFix"/>
<feBlend mode="normal" in="SourceGraphic" in2="BackgroundImageFix" result="shape"/>
<feColorMatrix in="SourceAlpha" type="matrix" values="0 0 0 0 0 0 0 0 0 0 0 0 0 0 0 0 0 0 127 0" result="hardAlpha"/>
<feOffset/>
<feGaussianBlur stdDeviation="2.5"/>
<feComposite in2="hardAlpha" operator="arithmetic" k2="-1" k3="1"/>
<feColorMatrix type="matrix" values="0 0 0 0 0.290196 0 0 0 0 0.564706 0 0 0 0 0.886275 0 0 0 1 0"/>
<feBlend mode="normal" in2="shape" result="effect1_innerShadow_2_547"/>
</filter>
<filter id="filter2_d_2_547" x="49" y="239" width="83" height="83" filterUnits="userSpaceOnUse" color-interpolation-filters="sRGB">
<feFlood flood-opacity="0" result="BackgroundImageFix"/>
<feColorMatrix in="SourceAlpha" type="matrix" values="0 0 0 0 0 0 0 0 0 0 0 0 0 0 0 0 0 0 127 0" result="hardAlpha"/>
<feOffset dy="1"/>
<feGaussianBlur stdDeviation="0.5"/>
<feComposite in2="hardAlpha" operator="out"/>
<feColorMatrix type="matrix" values="0 0 0 0 0 0 0 0 0 0.1169 0 0 0 0 0.4175 0 0 0 0.6 0"/>
<feBlend mode="normal" in2="BackgroundImageFix" result="effect1_dropShadow_2_547"/>
<feBlend mode="normal" in="SourceGraphic" in2="effect1_dropShadow_2_547" result="shape"/>
</filter>
<filter id="filter3_d_2_547" x="304" y="94" width="83" height="83" filterUnits="userSpaceOnUse" color-interpolation-filters="sRGB">
<feFlood flood-opacity="0" result="BackgroundImageFix"/>
<feColorMatrix in="SourceAlpha" type="matrix" values="0 0 0 0 0 0 0 0 0 0 0 0 0 0 0 0 0 0 127 0" result="hardAlpha"/>
<feOffset dy="1"/>
<feGaussianBlur stdDeviation="0.5"/>
<feComposite in2="hardAlpha" operator="out"/>
<feColorMatrix type="matrix" values="0 0 0 0 0 0 0 0 0 0.1169 0 0 0 0 0.4175 0 0 0 0.6 0"/>
<feBlend mode="normal" in2="BackgroundImageFix" result="effect1_dropShadow_2_547"/>
<feBlend mode="normal" in="SourceGraphic" in2="effect1_dropShadow_2_547" result="shape"/>
</filter>
<filter id="filter4_i_2_547" x="329" y="112" width="31" height="42" filterUnits="userSpaceOnUse" color-interpolation-filters="sRGB">
<feFlood flood-opacity="0" result="BackgroundImageFix"/>
<feBlend mode="normal" in="SourceGraphic" in2="BackgroundImageFix" result="shape"/>
<feColorMatrix in="SourceAlpha" type="matrix" values="0 0 0 0 0 0 0 0 0 0 0 0 0 0 0 0 0 0 127 0" result="hardAlpha"/>
<feMorphology radius="1" operator="erode" in="SourceAlpha" result="effect1_innerShadow_2_547"/>
<feOffset dy="1"/>
<feGaussianBlur stdDeviation="0.25"/>
<feComposite in2="hardAlpha" operator="arithmetic" k2="-1" k3="1"/>
<feColorMatrix type="matrix" values="0 0 0 0 0.207843 0 0 0 0 0.454902 0 0 0 0 0.74902 0 0 0 1 0"/>
<feBlend mode="normal" in2="shape" result="effect1_innerShadow_2_547"/>
</filter>
<filter id="filter5_i_2_547" x="305" y="238" width="81" height="81" filterUnits="userSpaceOnUse" color-interpolation-filters="sRGB">
<feFlood flood-opacity="0" result="BackgroundImageFix"/>
<feBlend mode="normal" in="SourceGraphic" in2="BackgroundImageFix" result="shape"/>
<feColorMatrix in="SourceAlpha" type="matrix" values="0 0 0 0 0 0 0 0 0 0 0 0 0 0 0 0 0 0 127 0" result="hardAlpha"/>
<feOffset/>
<feGaussianBlur stdDeviation="2.5"/>
<feComposite in2="hardAlpha" operator="arithmetic" k2="-1" k3="1"/>
<feColorMatrix type="matrix" values="0 0 0 0 0.290196 0 0 0 0 0.564706 0 0 0 0 0.886275 0 0 0 1 0"/>
<feBlend mode="normal" in2="shape" result="effect1_innerShadow_2_547"/>
</filter>
<filter id="filter6_d_2_547" x="304" y="238" width="83" height="83" filterUnits="userSpaceOnUse" color-interpolation-filters="sRGB">
<feFlood flood-opacity="0" result="BackgroundImageFix"/>
<feColorMatrix in="SourceAlpha" type="matrix" values="0 0 0 0 0 0 0 0 0 0 0 0 0 0 0 0 0 0 127 0" result="hardAlpha"/>
<feOffset dy="1"/>
<feGaussianBlur stdDeviation="0.5"/>
<feComposite in2="hardAlpha" operator="out"/>
<feColorMatrix type="matrix" values="0 0 0 0 0 0 0 0 0 0.1169 0 0 0 0 0.4175 0 0 0 0.6 0"/>
<feBlend mode="normal" in2="BackgroundImageFix" result="effect1_dropShadow_2_547"/>
<feBlend mode="normal" in="SourceGraphic" in2="effect1_dropShadow_2_547" result="shape"/>
</filter>
<filter id="filter7_i_2_547" x="329" y="256" width="31" height="42" filterUnits="userSpaceOnUse" color-interpolation-filters="sRGB">
<feFlood flood-opacity="0" result="BackgroundImageFix"/>
<feBlend mode="normal" in="SourceGraphic" in2="BackgroundImageFix" result="shape"/>
<feColorMatrix in="SourceAlpha" type="matrix" values="0 0 0 0 0 0 0 0 0 0 0 0 0 0 0 0 0 0 127 0" result="hardAlpha"/>
<feMorphology radius="1" operator="erode" in="SourceAlpha" result="effect1_innerShadow_2_547"/>
<feOffset dy="1"/>
<feGaussianBlur stdDeviation="0.25"/>
<feComposite in2="hardAlpha" operator="arithmetic" k2="-1" k3="1"/>
<feColorMatrix type="matrix" values="0 0 0 0 0.207843 0 0 0 0 0.454902 0 0 0 0 0.74902 0 0 0 1 0"/>
<feBlend mode="normal" in2="shape" result="effect1_innerShadow_2_547"/>
</filter>
</defs>
</svg>
