<svg width="580" height="400" viewBox="0 0 580 400" fill="none" xmlns="http://www.w3.org/2000/svg">
<rect x="50" y="50" width="129" height="24" rx="4" fill="#FED70A"/>
<path d="M59.0801 67V56.9785H62.8604C63.5257 56.9785 64.0339 57.0104 64.3848 57.0742C64.877 57.1562 65.2894 57.3135 65.6221 57.5459C65.9548 57.7738 66.2214 58.0951 66.4219 58.5098C66.627 58.9245 66.7295 59.3802 66.7295 59.877C66.7295 60.7292 66.4583 61.4515 65.916 62.0439C65.3737 62.6318 64.3939 62.9258 62.9766 62.9258H60.4062V67H59.0801ZM60.4062 61.7432H62.9971C63.8538 61.7432 64.4622 61.5837 64.8223 61.2646C65.1823 60.9456 65.3623 60.4967 65.3623 59.918C65.3623 59.4987 65.2552 59.141 65.041 58.8447C64.8314 58.5439 64.5534 58.3457 64.207 58.25C63.9837 58.1908 63.5713 58.1611 62.9697 58.1611H60.4062V61.7432ZM68.2471 67V59.7402H69.3545V60.8408C69.637 60.3258 69.8968 59.9863 70.1338 59.8223C70.3753 59.6582 70.6396 59.5762 70.9268 59.5762C71.3415 59.5762 71.763 59.7083 72.1914 59.9727L71.7676 61.1143C71.4668 60.9365 71.166 60.8477 70.8652 60.8477C70.5964 60.8477 70.3548 60.9297 70.1406 61.0938C69.9264 61.2533 69.7738 61.4766 69.6826 61.7637C69.5459 62.2012 69.4775 62.6797 69.4775 63.1992V67H68.2471ZM72.4648 63.3701C72.4648 62.0257 72.8385 61.0299 73.5859 60.3828C74.2103 59.8451 74.9714 59.5762 75.8691 59.5762C76.8672 59.5762 77.6829 59.9043 78.3164 60.5605C78.9499 61.2122 79.2666 62.1146 79.2666 63.2676C79.2666 64.2018 79.1253 64.9378 78.8428 65.4756C78.5648 66.0088 78.1569 66.4235 77.6191 66.7197C77.0859 67.016 76.5026 67.1641 75.8691 67.1641C74.8529 67.1641 74.0303 66.8382 73.4014 66.1865C72.777 65.5348 72.4648 64.596 72.4648 63.3701ZM73.7295 63.3701C73.7295 64.2998 73.9323 64.9971 74.3379 65.4619C74.7435 65.9222 75.2539 66.1523 75.8691 66.1523C76.4798 66.1523 76.988 65.9199 77.3936 65.4551C77.7992 64.9902 78.002 64.2816 78.002 63.3291C78.002 62.4313 77.7969 61.7523 77.3867 61.292C76.9811 60.8271 76.4753 60.5947 75.8691 60.5947C75.2539 60.5947 74.7435 60.8249 74.3379 61.2852C73.9323 61.7454 73.7295 62.4404 73.7295 63.3701ZM80.4902 67.6016L81.6865 67.7793C81.7367 68.1484 81.8757 68.4173 82.1035 68.5859C82.4089 68.8138 82.8258 68.9277 83.3545 68.9277C83.9242 68.9277 84.3639 68.8138 84.6738 68.5859C84.9837 68.3581 85.1934 68.0391 85.3027 67.6289C85.3665 67.3783 85.3962 66.8519 85.3916 66.0498C84.8538 66.6833 84.1839 67 83.3818 67C82.3838 67 81.6113 66.64 81.0645 65.9199C80.5176 65.1999 80.2441 64.3363 80.2441 63.3291C80.2441 62.6364 80.3695 61.9984 80.6201 61.415C80.8708 60.8271 81.2331 60.3737 81.707 60.0547C82.1855 59.7357 82.7461 59.5762 83.3887 59.5762C84.2454 59.5762 84.9518 59.9225 85.5078 60.6152V59.7402H86.6426V66.0156C86.6426 67.1458 86.5264 67.9456 86.2939 68.415C86.0661 68.889 85.7015 69.2627 85.2002 69.5361C84.7035 69.8096 84.0905 69.9463 83.3613 69.9463C82.4954 69.9463 81.7959 69.7503 81.2627 69.3584C80.7295 68.971 80.472 68.3854 80.4902 67.6016ZM81.5088 63.2402C81.5088 64.1927 81.6979 64.8877 82.0762 65.3252C82.4544 65.7627 82.9284 65.9814 83.498 65.9814C84.0632 65.9814 84.5371 65.765 84.9199 65.332C85.3027 64.8945 85.4941 64.2109 85.4941 63.2812C85.4941 62.3926 85.2959 61.7227 84.8994 61.2715C84.5075 60.8203 84.0335 60.5947 83.4775 60.5947C82.9307 60.5947 82.4658 60.818 82.083 61.2646C81.7002 61.7067 81.5088 62.3652 81.5088 63.2402ZM88.4951 67V59.7402H89.6025V60.8408C89.8851 60.3258 90.1449 59.9863 90.3818 59.8223C90.6234 59.6582 90.8877 59.5762 91.1748 59.5762C91.5895 59.5762 92.0111 59.7083 92.4395 59.9727L92.0156 61.1143C91.7148 60.9365 91.4141 60.8477 91.1133 60.8477C90.8444 60.8477 90.6029 60.9297 90.3887 61.0938C90.1745 61.2533 90.0218 61.4766 89.9307 61.7637C89.7939 62.2012 89.7256 62.6797 89.7256 63.1992V67H88.4951ZM98.1406 64.6621L99.4121 64.8193C99.2116 65.5622 98.8402 66.1387 98.2979 66.5488C97.7555 66.959 97.0628 67.1641 96.2197 67.1641C95.1579 67.1641 94.3148 66.8382 93.6904 66.1865C93.0706 65.5303 92.7607 64.612 92.7607 63.4316C92.7607 62.2103 93.0752 61.2624 93.7041 60.5879C94.333 59.9134 95.1488 59.5762 96.1514 59.5762C97.1221 59.5762 97.915 59.9066 98.5303 60.5674C99.1455 61.2282 99.4531 62.1579 99.4531 63.3564C99.4531 63.4294 99.4508 63.5387 99.4463 63.6846H94.0322C94.0778 64.4821 94.3034 65.0928 94.709 65.5166C95.1146 65.9404 95.6204 66.1523 96.2266 66.1523C96.6777 66.1523 97.0628 66.0339 97.3818 65.7969C97.7008 65.5599 97.9538 65.1816 98.1406 64.6621ZM94.1006 62.6729H98.1543C98.0996 62.0622 97.9447 61.6042 97.6895 61.2988C97.2975 60.8249 96.7894 60.5879 96.165 60.5879C95.5999 60.5879 95.1237 60.777 94.7363 61.1553C94.3535 61.5335 94.1416 62.0394 94.1006 62.6729ZM100.472 64.833L101.688 64.6416C101.757 65.1292 101.946 65.5029 102.256 65.7627C102.57 66.0225 103.008 66.1523 103.568 66.1523C104.133 66.1523 104.553 66.0384 104.826 65.8105C105.1 65.5781 105.236 65.307 105.236 64.9971C105.236 64.7191 105.116 64.5003 104.874 64.3408C104.705 64.2314 104.286 64.0924 103.616 63.9238C102.714 63.696 102.087 63.5 101.736 63.3359C101.39 63.1673 101.126 62.9372 100.943 62.6455C100.766 62.3493 100.677 62.0234 100.677 61.668C100.677 61.3444 100.75 61.0459 100.896 60.7725C101.046 60.4945 101.249 60.2643 101.504 60.082C101.695 59.9408 101.955 59.8223 102.283 59.7266C102.616 59.6263 102.971 59.5762 103.35 59.5762C103.919 59.5762 104.418 59.6582 104.847 59.8223C105.28 59.9863 105.599 60.2096 105.804 60.4922C106.009 60.7702 106.15 61.1439 106.228 61.6133L105.024 61.7773C104.97 61.4036 104.81 61.112 104.546 60.9023C104.286 60.6927 103.917 60.5879 103.438 60.5879C102.873 60.5879 102.47 60.6813 102.229 60.8682C101.987 61.055 101.866 61.2738 101.866 61.5244C101.866 61.6839 101.916 61.8275 102.017 61.9551C102.117 62.0872 102.274 62.1966 102.488 62.2832C102.611 62.3288 102.974 62.4336 103.575 62.5977C104.446 62.8301 105.052 63.0215 105.394 63.1719C105.74 63.3177 106.011 63.5319 106.207 63.8145C106.403 64.097 106.501 64.4479 106.501 64.8672C106.501 65.2773 106.38 65.6647 106.139 66.0293C105.902 66.3893 105.558 66.6696 105.106 66.8701C104.655 67.0661 104.145 67.1641 103.575 67.1641C102.632 67.1641 101.912 66.9681 101.415 66.5762C100.923 66.1842 100.608 65.6032 100.472 64.833ZM107.472 64.833L108.688 64.6416C108.757 65.1292 108.946 65.5029 109.256 65.7627C109.57 66.0225 110.008 66.1523 110.568 66.1523C111.133 66.1523 111.553 66.0384 111.826 65.8105C112.1 65.5781 112.236 65.307 112.236 64.9971C112.236 64.7191 112.116 64.5003 111.874 64.3408C111.705 64.2314 111.286 64.0924 110.616 63.9238C109.714 63.696 109.087 63.5 108.736 63.3359C108.39 63.1673 108.126 62.9372 107.943 62.6455C107.766 62.3493 107.677 62.0234 107.677 61.668C107.677 61.3444 107.75 61.0459 107.896 60.7725C108.046 60.4945 108.249 60.2643 108.504 60.082C108.695 59.9408 108.955 59.8223 109.283 59.7266C109.616 59.6263 109.971 59.5762 110.35 59.5762C110.919 59.5762 111.418 59.6582 111.847 59.8223C112.28 59.9863 112.599 60.2096 112.804 60.4922C113.009 60.7702 113.15 61.1439 113.228 61.6133L112.024 61.7773C111.97 61.4036 111.81 61.112 111.546 60.9023C111.286 60.6927 110.917 60.5879 110.438 60.5879C109.873 60.5879 109.47 60.6813 109.229 60.8682C108.987 61.055 108.866 61.2738 108.866 61.5244C108.866 61.6839 108.916 61.8275 109.017 61.9551C109.117 62.0872 109.274 62.1966 109.488 62.2832C109.611 62.3288 109.974 62.4336 110.575 62.5977C111.446 62.8301 112.052 63.0215 112.394 63.1719C112.74 63.3177 113.011 63.5319 113.207 63.8145C113.403 64.097 113.501 64.4479 113.501 64.8672C113.501 65.2773 113.38 65.6647 113.139 66.0293C112.902 66.3893 112.558 66.6696 112.106 66.8701C111.655 67.0661 111.145 67.1641 110.575 67.1641C109.632 67.1641 108.912 66.9681 108.415 66.5762C107.923 66.1842 107.608 65.6032 107.472 64.833ZM118.963 67V56.9785H122.723C123.488 56.9785 124.101 57.0811 124.562 57.2861C125.026 57.4867 125.389 57.7988 125.648 58.2227C125.913 58.6419 126.045 59.0817 126.045 59.542C126.045 59.9704 125.929 60.3737 125.696 60.752C125.464 61.1302 125.113 61.4355 124.644 61.668C125.25 61.8457 125.715 62.1488 126.038 62.5771C126.366 63.0055 126.53 63.5114 126.53 64.0947C126.53 64.5641 126.43 65.0016 126.229 65.4072C126.034 65.8083 125.79 66.1182 125.498 66.3369C125.206 66.5557 124.84 66.722 124.397 66.8359C123.96 66.9453 123.422 67 122.784 67H118.963ZM120.289 61.1895H122.456C123.044 61.1895 123.465 61.1507 123.721 61.0732C124.058 60.973 124.311 60.8066 124.479 60.5742C124.653 60.3418 124.739 60.0501 124.739 59.6992C124.739 59.3665 124.66 59.0749 124.5 58.8242C124.34 58.569 124.113 58.3958 123.816 58.3047C123.52 58.209 123.012 58.1611 122.292 58.1611H120.289V61.1895ZM120.289 65.8174H122.784C123.213 65.8174 123.513 65.8014 123.687 65.7695C123.992 65.7148 124.247 65.6237 124.452 65.4961C124.657 65.3685 124.826 65.1839 124.958 64.9424C125.09 64.6963 125.156 64.4137 125.156 64.0947C125.156 63.721 125.061 63.3975 124.869 63.124C124.678 62.846 124.411 62.6523 124.069 62.543C123.732 62.429 123.244 62.3721 122.606 62.3721H120.289V65.8174ZM132.936 66.1045C132.48 66.4919 132.04 66.7653 131.616 66.9248C131.197 67.0843 130.746 67.1641 130.263 67.1641C129.465 67.1641 128.852 66.9704 128.424 66.583C127.995 66.1911 127.781 65.6921 127.781 65.0859C127.781 64.7305 127.861 64.4069 128.021 64.1152C128.185 63.819 128.396 63.582 128.656 63.4043C128.921 63.2266 129.217 63.0921 129.545 63.001C129.786 62.9372 130.151 62.8757 130.639 62.8164C131.632 62.6979 132.364 62.5566 132.833 62.3926C132.838 62.224 132.84 62.1169 132.84 62.0713C132.84 61.57 132.724 61.2168 132.491 61.0117C132.177 60.7337 131.71 60.5947 131.09 60.5947C130.511 60.5947 130.083 60.6973 129.805 60.9023C129.531 61.1029 129.328 61.4606 129.196 61.9756L127.993 61.8115C128.103 61.2965 128.283 60.8818 128.533 60.5674C128.784 60.2484 129.146 60.0046 129.62 59.8359C130.094 59.6628 130.643 59.5762 131.268 59.5762C131.887 59.5762 132.391 59.6491 132.778 59.7949C133.166 59.9408 133.451 60.1253 133.633 60.3486C133.815 60.5674 133.943 60.8454 134.016 61.1826C134.057 61.3923 134.077 61.7705 134.077 62.3174V63.958C134.077 65.1019 134.102 65.8265 134.152 66.1318C134.207 66.4326 134.312 66.722 134.467 67H133.182C133.054 66.7448 132.972 66.4463 132.936 66.1045ZM132.833 63.3564C132.386 63.5387 131.716 63.6937 130.823 63.8213C130.317 63.8942 129.96 63.9762 129.75 64.0674C129.54 64.1585 129.379 64.293 129.265 64.4707C129.151 64.6439 129.094 64.8376 129.094 65.0518C129.094 65.3799 129.217 65.6533 129.463 65.8721C129.714 66.0908 130.078 66.2002 130.557 66.2002C131.031 66.2002 131.452 66.0977 131.821 65.8926C132.19 65.6829 132.462 65.3981 132.635 65.0381C132.767 64.7601 132.833 64.3499 132.833 63.8076V63.3564ZM135.978 67V59.7402H137.085V60.8408C137.368 60.3258 137.627 59.9863 137.864 59.8223C138.106 59.6582 138.37 59.5762 138.657 59.5762C139.072 59.5762 139.493 59.7083 139.922 59.9727L139.498 61.1143C139.197 60.9365 138.896 60.8477 138.596 60.8477C138.327 60.8477 138.085 60.9297 137.871 61.0938C137.657 61.2533 137.504 61.4766 137.413 61.7637C137.276 62.2012 137.208 62.6797 137.208 63.1992V67H135.978ZM139.73 67.1709L142.636 56.8076H143.62L140.722 67.1709H139.73ZM144.652 67V56.9785H145.979V65.8174H150.914V67H144.652ZM152.35 58.3936V56.9785H153.58V58.3936H152.35ZM152.35 67V59.7402H153.58V67H152.35ZM155.46 67V59.7402H156.567V60.7725C157.101 59.9749 157.871 59.5762 158.878 59.5762C159.315 59.5762 159.716 59.6559 160.081 59.8154C160.45 59.9704 160.726 60.1755 160.908 60.4307C161.09 60.6859 161.218 60.9889 161.291 61.3398C161.337 61.5677 161.359 61.9665 161.359 62.5361V67H160.129V62.584C160.129 62.0827 160.081 61.709 159.985 61.4629C159.89 61.2122 159.719 61.014 159.473 60.8682C159.231 60.7178 158.946 60.6426 158.618 60.6426C158.094 60.6426 157.641 60.8089 157.258 61.1416C156.88 61.4743 156.69 62.1055 156.69 63.0352V67H155.46ZM168.223 64.6621L169.494 64.8193C169.294 65.5622 168.922 66.1387 168.38 66.5488C167.838 66.959 167.145 67.1641 166.302 67.1641C165.24 67.1641 164.397 66.8382 163.772 66.1865C163.153 65.5303 162.843 64.612 162.843 63.4316C162.843 62.2103 163.157 61.2624 163.786 60.5879C164.415 59.9134 165.231 59.5762 166.233 59.5762C167.204 59.5762 167.997 59.9066 168.612 60.5674C169.228 61.2282 169.535 62.1579 169.535 63.3564C169.535 63.4294 169.533 63.5387 169.528 63.6846H164.114C164.16 64.4821 164.385 65.0928 164.791 65.5166C165.197 65.9404 165.702 66.1523 166.309 66.1523C166.76 66.1523 167.145 66.0339 167.464 65.7969C167.783 65.5599 168.036 65.1816 168.223 64.6621ZM164.183 62.6729H168.236C168.182 62.0622 168.027 61.6042 167.771 61.2988C167.38 60.8249 166.871 60.5879 166.247 60.5879C165.682 60.5879 165.206 60.777 164.818 61.1553C164.436 61.5335 164.224 62.0394 164.183 62.6729Z" fill="#212121"/>
<g filter="url(#filter0_d_2_941)">
<rect x="50" y="94" width="480" height="32" rx="7" fill="#519EE6"/>
</g>
<rect x="50" y="146" width="177" height="24" rx="4" fill="#FED70A"/>
<path d="M59.0801 163V152.979H62.8604C63.5257 152.979 64.0339 153.01 64.3848 153.074C64.877 153.156 65.2894 153.313 65.6221 153.546C65.9548 153.774 66.2214 154.095 66.4219 154.51C66.627 154.924 66.7295 155.38 66.7295 155.877C66.7295 156.729 66.4583 157.451 65.916 158.044C65.3737 158.632 64.3939 158.926 62.9766 158.926H60.4062V163H59.0801ZM60.4062 157.743H62.9971C63.8538 157.743 64.4622 157.584 64.8223 157.265C65.1823 156.946 65.3623 156.497 65.3623 155.918C65.3623 155.499 65.2552 155.141 65.041 154.845C64.8314 154.544 64.5534 154.346 64.207 154.25C63.9837 154.191 63.5713 154.161 62.9697 154.161H60.4062V157.743ZM68.2471 163V155.74H69.3545V156.841C69.637 156.326 69.8968 155.986 70.1338 155.822C70.3753 155.658 70.6396 155.576 70.9268 155.576C71.3415 155.576 71.763 155.708 72.1914 155.973L71.7676 157.114C71.4668 156.937 71.166 156.848 70.8652 156.848C70.5964 156.848 70.3548 156.93 70.1406 157.094C69.9264 157.253 69.7738 157.477 69.6826 157.764C69.5459 158.201 69.4775 158.68 69.4775 159.199V163H68.2471ZM72.4648 159.37C72.4648 158.026 72.8385 157.03 73.5859 156.383C74.2103 155.845 74.9714 155.576 75.8691 155.576C76.8672 155.576 77.6829 155.904 78.3164 156.561C78.9499 157.212 79.2666 158.115 79.2666 159.268C79.2666 160.202 79.1253 160.938 78.8428 161.476C78.5648 162.009 78.1569 162.424 77.6191 162.72C77.0859 163.016 76.5026 163.164 75.8691 163.164C74.8529 163.164 74.0303 162.838 73.4014 162.187C72.777 161.535 72.4648 160.596 72.4648 159.37ZM73.7295 159.37C73.7295 160.3 73.9323 160.997 74.3379 161.462C74.7435 161.922 75.2539 162.152 75.8691 162.152C76.4798 162.152 76.988 161.92 77.3936 161.455C77.7992 160.99 78.002 160.282 78.002 159.329C78.002 158.431 77.7969 157.752 77.3867 157.292C76.9811 156.827 76.4753 156.595 75.8691 156.595C75.2539 156.595 74.7435 156.825 74.3379 157.285C73.9323 157.745 73.7295 158.44 73.7295 159.37ZM80.4902 163.602L81.6865 163.779C81.7367 164.148 81.8757 164.417 82.1035 164.586C82.4089 164.814 82.8258 164.928 83.3545 164.928C83.9242 164.928 84.3639 164.814 84.6738 164.586C84.9837 164.358 85.1934 164.039 85.3027 163.629C85.3665 163.378 85.3962 162.852 85.3916 162.05C84.8538 162.683 84.1839 163 83.3818 163C82.3838 163 81.6113 162.64 81.0645 161.92C80.5176 161.2 80.2441 160.336 80.2441 159.329C80.2441 158.636 80.3695 157.998 80.6201 157.415C80.8708 156.827 81.2331 156.374 81.707 156.055C82.1855 155.736 82.7461 155.576 83.3887 155.576C84.2454 155.576 84.9518 155.923 85.5078 156.615V155.74H86.6426V162.016C86.6426 163.146 86.5264 163.946 86.2939 164.415C86.0661 164.889 85.7015 165.263 85.2002 165.536C84.7035 165.81 84.0905 165.946 83.3613 165.946C82.4954 165.946 81.7959 165.75 81.2627 165.358C80.7295 164.971 80.472 164.385 80.4902 163.602ZM81.5088 159.24C81.5088 160.193 81.6979 160.888 82.0762 161.325C82.4544 161.763 82.9284 161.981 83.498 161.981C84.0632 161.981 84.5371 161.765 84.9199 161.332C85.3027 160.895 85.4941 160.211 85.4941 159.281C85.4941 158.393 85.2959 157.723 84.8994 157.271C84.5075 156.82 84.0335 156.595 83.4775 156.595C82.9307 156.595 82.4658 156.818 82.083 157.265C81.7002 157.707 81.5088 158.365 81.5088 159.24ZM88.4951 163V155.74H89.6025V156.841C89.8851 156.326 90.1449 155.986 90.3818 155.822C90.6234 155.658 90.8877 155.576 91.1748 155.576C91.5895 155.576 92.0111 155.708 92.4395 155.973L92.0156 157.114C91.7148 156.937 91.4141 156.848 91.1133 156.848C90.8444 156.848 90.6029 156.93 90.3887 157.094C90.1745 157.253 90.0218 157.477 89.9307 157.764C89.7939 158.201 89.7256 158.68 89.7256 159.199V163H88.4951ZM98.1406 160.662L99.4121 160.819C99.2116 161.562 98.8402 162.139 98.2979 162.549C97.7555 162.959 97.0628 163.164 96.2197 163.164C95.1579 163.164 94.3148 162.838 93.6904 162.187C93.0706 161.53 92.7607 160.612 92.7607 159.432C92.7607 158.21 93.0752 157.262 93.7041 156.588C94.333 155.913 95.1488 155.576 96.1514 155.576C97.1221 155.576 97.915 155.907 98.5303 156.567C99.1455 157.228 99.4531 158.158 99.4531 159.356C99.4531 159.429 99.4508 159.539 99.4463 159.685H94.0322C94.0778 160.482 94.3034 161.093 94.709 161.517C95.1146 161.94 95.6204 162.152 96.2266 162.152C96.6777 162.152 97.0628 162.034 97.3818 161.797C97.7008 161.56 97.9538 161.182 98.1406 160.662ZM94.1006 158.673H98.1543C98.0996 158.062 97.9447 157.604 97.6895 157.299C97.2975 156.825 96.7894 156.588 96.165 156.588C95.5999 156.588 95.1237 156.777 94.7363 157.155C94.3535 157.534 94.1416 158.039 94.1006 158.673ZM100.472 160.833L101.688 160.642C101.757 161.129 101.946 161.503 102.256 161.763C102.57 162.022 103.008 162.152 103.568 162.152C104.133 162.152 104.553 162.038 104.826 161.811C105.1 161.578 105.236 161.307 105.236 160.997C105.236 160.719 105.116 160.5 104.874 160.341C104.705 160.231 104.286 160.092 103.616 159.924C102.714 159.696 102.087 159.5 101.736 159.336C101.39 159.167 101.126 158.937 100.943 158.646C100.766 158.349 100.677 158.023 100.677 157.668C100.677 157.344 100.75 157.046 100.896 156.772C101.046 156.494 101.249 156.264 101.504 156.082C101.695 155.941 101.955 155.822 102.283 155.727C102.616 155.626 102.971 155.576 103.35 155.576C103.919 155.576 104.418 155.658 104.847 155.822C105.28 155.986 105.599 156.21 105.804 156.492C106.009 156.77 106.15 157.144 106.228 157.613L105.024 157.777C104.97 157.404 104.81 157.112 104.546 156.902C104.286 156.693 103.917 156.588 103.438 156.588C102.873 156.588 102.47 156.681 102.229 156.868C101.987 157.055 101.866 157.274 101.866 157.524C101.866 157.684 101.916 157.827 102.017 157.955C102.117 158.087 102.274 158.197 102.488 158.283C102.611 158.329 102.974 158.434 103.575 158.598C104.446 158.83 105.052 159.021 105.394 159.172C105.74 159.318 106.011 159.532 106.207 159.814C106.403 160.097 106.501 160.448 106.501 160.867C106.501 161.277 106.38 161.665 106.139 162.029C105.902 162.389 105.558 162.67 105.106 162.87C104.655 163.066 104.145 163.164 103.575 163.164C102.632 163.164 101.912 162.968 101.415 162.576C100.923 162.184 100.608 161.603 100.472 160.833ZM107.472 160.833L108.688 160.642C108.757 161.129 108.946 161.503 109.256 161.763C109.57 162.022 110.008 162.152 110.568 162.152C111.133 162.152 111.553 162.038 111.826 161.811C112.1 161.578 112.236 161.307 112.236 160.997C112.236 160.719 112.116 160.5 111.874 160.341C111.705 160.231 111.286 160.092 110.616 159.924C109.714 159.696 109.087 159.5 108.736 159.336C108.39 159.167 108.126 158.937 107.943 158.646C107.766 158.349 107.677 158.023 107.677 157.668C107.677 157.344 107.75 157.046 107.896 156.772C108.046 156.494 108.249 156.264 108.504 156.082C108.695 155.941 108.955 155.822 109.283 155.727C109.616 155.626 109.971 155.576 110.35 155.576C110.919 155.576 111.418 155.658 111.847 155.822C112.28 155.986 112.599 156.21 112.804 156.492C113.009 156.77 113.15 157.144 113.228 157.613L112.024 157.777C111.97 157.404 111.81 157.112 111.546 156.902C111.286 156.693 110.917 156.588 110.438 156.588C109.873 156.588 109.47 156.681 109.229 156.868C108.987 157.055 108.866 157.274 108.866 157.524C108.866 157.684 108.916 157.827 109.017 157.955C109.117 158.087 109.274 158.197 109.488 158.283C109.611 158.329 109.974 158.434 110.575 158.598C111.446 158.83 112.052 159.021 112.394 159.172C112.74 159.318 113.011 159.532 113.207 159.814C113.403 160.097 113.501 160.448 113.501 160.867C113.501 161.277 113.38 161.665 113.139 162.029C112.902 162.389 112.558 162.67 112.106 162.87C111.655 163.066 111.145 163.164 110.575 163.164C109.632 163.164 108.912 162.968 108.415 162.576C107.923 162.184 107.608 161.603 107.472 160.833ZM118.963 163V152.979H122.723C123.488 152.979 124.101 153.081 124.562 153.286C125.026 153.487 125.389 153.799 125.648 154.223C125.913 154.642 126.045 155.082 126.045 155.542C126.045 155.97 125.929 156.374 125.696 156.752C125.464 157.13 125.113 157.436 124.644 157.668C125.25 157.846 125.715 158.149 126.038 158.577C126.366 159.006 126.53 159.511 126.53 160.095C126.53 160.564 126.43 161.002 126.229 161.407C126.034 161.808 125.79 162.118 125.498 162.337C125.206 162.556 124.84 162.722 124.397 162.836C123.96 162.945 123.422 163 122.784 163H118.963ZM120.289 157.189H122.456C123.044 157.189 123.465 157.151 123.721 157.073C124.058 156.973 124.311 156.807 124.479 156.574C124.653 156.342 124.739 156.05 124.739 155.699C124.739 155.367 124.66 155.075 124.5 154.824C124.34 154.569 124.113 154.396 123.816 154.305C123.52 154.209 123.012 154.161 122.292 154.161H120.289V157.189ZM120.289 161.817H122.784C123.213 161.817 123.513 161.801 123.687 161.77C123.992 161.715 124.247 161.624 124.452 161.496C124.657 161.368 124.826 161.184 124.958 160.942C125.09 160.696 125.156 160.414 125.156 160.095C125.156 159.721 125.061 159.397 124.869 159.124C124.678 158.846 124.411 158.652 124.069 158.543C123.732 158.429 123.244 158.372 122.606 158.372H120.289V161.817ZM132.936 162.104C132.48 162.492 132.04 162.765 131.616 162.925C131.197 163.084 130.746 163.164 130.263 163.164C129.465 163.164 128.852 162.97 128.424 162.583C127.995 162.191 127.781 161.692 127.781 161.086C127.781 160.73 127.861 160.407 128.021 160.115C128.185 159.819 128.396 159.582 128.656 159.404C128.921 159.227 129.217 159.092 129.545 159.001C129.786 158.937 130.151 158.876 130.639 158.816C131.632 158.698 132.364 158.557 132.833 158.393C132.838 158.224 132.84 158.117 132.84 158.071C132.84 157.57 132.724 157.217 132.491 157.012C132.177 156.734 131.71 156.595 131.09 156.595C130.511 156.595 130.083 156.697 129.805 156.902C129.531 157.103 129.328 157.461 129.196 157.976L127.993 157.812C128.103 157.297 128.283 156.882 128.533 156.567C128.784 156.248 129.146 156.005 129.62 155.836C130.094 155.663 130.643 155.576 131.268 155.576C131.887 155.576 132.391 155.649 132.778 155.795C133.166 155.941 133.451 156.125 133.633 156.349C133.815 156.567 133.943 156.845 134.016 157.183C134.057 157.392 134.077 157.771 134.077 158.317V159.958C134.077 161.102 134.102 161.826 134.152 162.132C134.207 162.433 134.312 162.722 134.467 163H133.182C133.054 162.745 132.972 162.446 132.936 162.104ZM132.833 159.356C132.386 159.539 131.716 159.694 130.823 159.821C130.317 159.894 129.96 159.976 129.75 160.067C129.54 160.159 129.379 160.293 129.265 160.471C129.151 160.644 129.094 160.838 129.094 161.052C129.094 161.38 129.217 161.653 129.463 161.872C129.714 162.091 130.078 162.2 130.557 162.2C131.031 162.2 131.452 162.098 131.821 161.893C132.19 161.683 132.462 161.398 132.635 161.038C132.767 160.76 132.833 160.35 132.833 159.808V159.356ZM135.978 163V155.74H137.085V156.841C137.368 156.326 137.627 155.986 137.864 155.822C138.106 155.658 138.37 155.576 138.657 155.576C139.072 155.576 139.493 155.708 139.922 155.973L139.498 157.114C139.197 156.937 138.896 156.848 138.596 156.848C138.327 156.848 138.085 156.93 137.871 157.094C137.657 157.253 137.504 157.477 137.413 157.764C137.276 158.201 137.208 158.68 137.208 159.199V163H135.978ZM139.73 163.171L142.636 152.808H143.62L140.722 163.171H139.73ZM144.652 163V152.979H148.412C149.178 152.979 149.791 153.081 150.251 153.286C150.716 153.487 151.078 153.799 151.338 154.223C151.602 154.642 151.734 155.082 151.734 155.542C151.734 155.97 151.618 156.374 151.386 156.752C151.153 157.13 150.802 157.436 150.333 157.668C150.939 157.846 151.404 158.149 151.728 158.577C152.056 159.006 152.22 159.511 152.22 160.095C152.22 160.564 152.119 161.002 151.919 161.407C151.723 161.808 151.479 162.118 151.188 162.337C150.896 162.556 150.529 162.722 150.087 162.836C149.649 162.945 149.112 163 148.474 163H144.652ZM145.979 157.189H148.146C148.733 157.189 149.155 157.151 149.41 157.073C149.747 156.973 150 156.807 150.169 156.574C150.342 156.342 150.429 156.05 150.429 155.699C150.429 155.367 150.349 155.075 150.189 154.824C150.03 154.569 149.802 154.396 149.506 154.305C149.21 154.209 148.701 154.161 147.981 154.161H145.979V157.189ZM145.979 161.817H148.474C148.902 161.817 149.203 161.801 149.376 161.77C149.681 161.715 149.937 161.624 150.142 161.496C150.347 161.368 150.515 161.184 150.647 160.942C150.78 160.696 150.846 160.414 150.846 160.095C150.846 159.721 150.75 159.397 150.559 159.124C150.367 158.846 150.101 158.652 149.759 158.543C149.422 158.429 148.934 158.372 148.296 158.372H145.979V161.817ZM158.625 162.104C158.169 162.492 157.729 162.765 157.306 162.925C156.886 163.084 156.435 163.164 155.952 163.164C155.155 163.164 154.542 162.97 154.113 162.583C153.685 162.191 153.471 161.692 153.471 161.086C153.471 160.73 153.55 160.407 153.71 160.115C153.874 159.819 154.086 159.582 154.346 159.404C154.61 159.227 154.906 159.092 155.234 159.001C155.476 158.937 155.84 158.876 156.328 158.816C157.322 158.698 158.053 158.557 158.522 158.393C158.527 158.224 158.529 158.117 158.529 158.071C158.529 157.57 158.413 157.217 158.181 157.012C157.866 156.734 157.399 156.595 156.779 156.595C156.201 156.595 155.772 156.697 155.494 156.902C155.221 157.103 155.018 157.461 154.886 157.976L153.683 157.812C153.792 157.297 153.972 156.882 154.223 156.567C154.473 156.248 154.836 156.005 155.31 155.836C155.784 155.663 156.333 155.576 156.957 155.576C157.577 155.576 158.08 155.649 158.468 155.795C158.855 155.941 159.14 156.125 159.322 156.349C159.505 156.567 159.632 156.845 159.705 157.183C159.746 157.392 159.767 157.771 159.767 158.317V159.958C159.767 161.102 159.792 161.826 159.842 162.132C159.896 162.433 160.001 162.722 160.156 163H158.871C158.743 162.745 158.661 162.446 158.625 162.104ZM158.522 159.356C158.076 159.539 157.406 159.694 156.513 159.821C156.007 159.894 155.649 159.976 155.439 160.067C155.23 160.159 155.068 160.293 154.954 160.471C154.84 160.644 154.783 160.838 154.783 161.052C154.783 161.38 154.906 161.653 155.152 161.872C155.403 162.091 155.768 162.2 156.246 162.2C156.72 162.2 157.142 162.098 157.511 161.893C157.88 161.683 158.151 161.398 158.324 161.038C158.456 160.76 158.522 160.35 158.522 159.808V159.356ZM166.418 160.341L167.628 160.498C167.496 161.332 167.156 161.986 166.609 162.46C166.067 162.929 165.399 163.164 164.606 163.164C163.613 163.164 162.813 162.84 162.207 162.193C161.605 161.542 161.305 160.61 161.305 159.397C161.305 158.614 161.435 157.928 161.694 157.34C161.954 156.752 162.348 156.312 162.877 156.021C163.41 155.724 163.989 155.576 164.613 155.576C165.402 155.576 166.047 155.777 166.548 156.178C167.049 156.574 167.37 157.139 167.512 157.873L166.315 158.058C166.201 157.57 165.999 157.203 165.707 156.957C165.42 156.711 165.071 156.588 164.661 156.588C164.041 156.588 163.538 156.811 163.15 157.258C162.763 157.7 162.569 158.402 162.569 159.363C162.569 160.339 162.756 161.047 163.13 161.489C163.504 161.931 163.991 162.152 164.593 162.152C165.076 162.152 165.479 162.004 165.803 161.708C166.126 161.412 166.331 160.956 166.418 160.341ZM168.688 163V152.979H169.918V158.693L172.83 155.74H174.423L171.647 158.434L174.703 163H173.186L170.786 159.288L169.918 160.122V163H168.688ZM175.455 163.602L176.651 163.779C176.701 164.148 176.84 164.417 177.068 164.586C177.374 164.814 177.791 164.928 178.319 164.928C178.889 164.928 179.329 164.814 179.639 164.586C179.949 164.358 180.158 164.039 180.268 163.629C180.331 163.378 180.361 162.852 180.356 162.05C179.819 162.683 179.149 163 178.347 163C177.349 163 176.576 162.64 176.029 161.92C175.482 161.2 175.209 160.336 175.209 159.329C175.209 158.636 175.334 157.998 175.585 157.415C175.836 156.827 176.198 156.374 176.672 156.055C177.15 155.736 177.711 155.576 178.354 155.576C179.21 155.576 179.917 155.923 180.473 156.615V155.74H181.607V162.016C181.607 163.146 181.491 163.946 181.259 164.415C181.031 164.889 180.666 165.263 180.165 165.536C179.668 165.81 179.055 165.946 178.326 165.946C177.46 165.946 176.761 165.75 176.228 165.358C175.694 164.971 175.437 164.385 175.455 163.602ZM176.474 159.24C176.474 160.193 176.663 160.888 177.041 161.325C177.419 161.763 177.893 161.981 178.463 161.981C179.028 161.981 179.502 161.765 179.885 161.332C180.268 160.895 180.459 160.211 180.459 159.281C180.459 158.393 180.261 157.723 179.864 157.271C179.472 156.82 178.998 156.595 178.442 156.595C177.896 156.595 177.431 156.818 177.048 157.265C176.665 157.707 176.474 158.365 176.474 159.24ZM183.46 163V155.74H184.567V156.841C184.85 156.326 185.11 155.986 185.347 155.822C185.588 155.658 185.853 155.576 186.14 155.576C186.554 155.576 186.976 155.708 187.404 155.973L186.98 157.114C186.68 156.937 186.379 156.848 186.078 156.848C185.809 156.848 185.568 156.93 185.354 157.094C185.139 157.253 184.987 157.477 184.896 157.764C184.759 158.201 184.69 158.68 184.69 159.199V163H183.46ZM187.678 159.37C187.678 158.026 188.051 157.03 188.799 156.383C189.423 155.845 190.184 155.576 191.082 155.576C192.08 155.576 192.896 155.904 193.529 156.561C194.163 157.212 194.479 158.115 194.479 159.268C194.479 160.202 194.338 160.938 194.056 161.476C193.778 162.009 193.37 162.424 192.832 162.72C192.299 163.016 191.715 163.164 191.082 163.164C190.066 163.164 189.243 162.838 188.614 162.187C187.99 161.535 187.678 160.596 187.678 159.37ZM188.942 159.37C188.942 160.3 189.145 160.997 189.551 161.462C189.956 161.922 190.467 162.152 191.082 162.152C191.693 162.152 192.201 161.92 192.606 161.455C193.012 160.99 193.215 160.282 193.215 159.329C193.215 158.431 193.01 157.752 192.6 157.292C192.194 156.827 191.688 156.595 191.082 156.595C190.467 156.595 189.956 156.825 189.551 157.285C189.145 157.745 188.942 158.44 188.942 159.37ZM200.687 163V161.934C200.121 162.754 199.354 163.164 198.383 163.164C197.954 163.164 197.553 163.082 197.18 162.918C196.811 162.754 196.535 162.549 196.353 162.303C196.175 162.052 196.049 161.747 195.977 161.387C195.926 161.145 195.901 160.762 195.901 160.238V155.74H197.132V159.767C197.132 160.409 197.157 160.842 197.207 161.065C197.285 161.389 197.449 161.644 197.699 161.831C197.95 162.013 198.26 162.104 198.629 162.104C198.998 162.104 199.344 162.011 199.668 161.824C199.992 161.633 200.219 161.375 200.352 161.052C200.488 160.724 200.557 160.25 200.557 159.63V155.74H201.787V163H200.687ZM203.722 163V155.74H204.829V156.772C205.362 155.975 206.132 155.576 207.14 155.576C207.577 155.576 207.978 155.656 208.343 155.815C208.712 155.97 208.988 156.175 209.17 156.431C209.352 156.686 209.48 156.989 209.553 157.34C209.598 157.568 209.621 157.966 209.621 158.536V163H208.391V158.584C208.391 158.083 208.343 157.709 208.247 157.463C208.151 157.212 207.98 157.014 207.734 156.868C207.493 156.718 207.208 156.643 206.88 156.643C206.356 156.643 205.902 156.809 205.52 157.142C205.141 157.474 204.952 158.105 204.952 159.035V163H203.722ZM216.225 163V162.084C215.764 162.804 215.088 163.164 214.194 163.164C213.616 163.164 213.082 163.005 212.595 162.686C212.112 162.367 211.736 161.922 211.467 161.353C211.202 160.778 211.07 160.12 211.07 159.377C211.07 158.652 211.191 157.996 211.433 157.408C211.674 156.816 212.036 156.362 212.52 156.048C213.003 155.733 213.543 155.576 214.14 155.576C214.577 155.576 214.967 155.67 215.309 155.856C215.65 156.039 215.928 156.278 216.143 156.574V152.979H217.366V163H216.225ZM212.335 159.377C212.335 160.307 212.531 161.002 212.923 161.462C213.315 161.922 213.777 162.152 214.311 162.152C214.848 162.152 215.304 161.934 215.678 161.496C216.056 161.054 216.245 160.382 216.245 159.479C216.245 158.486 216.054 157.757 215.671 157.292C215.288 156.827 214.816 156.595 214.256 156.595C213.709 156.595 213.251 156.818 212.882 157.265C212.517 157.711 212.335 158.415 212.335 159.377Z" fill="#212121"/>
<g opacity="0.85" filter="url(#filter1_d_2_941)">
<rect x="50" y="190" width="480" height="48" rx="8" fill="white"/>
<rect x="52" y="192" width="476" height="44" rx="6" stroke="#8FD7FF" stroke-width="4"/>
</g>
<rect x="50" y="258" width="157" height="24" rx="4" fill="#FED70A"/>
<path d="M59.0801 275V264.979H62.8604C63.5257 264.979 64.0339 265.01 64.3848 265.074C64.877 265.156 65.2894 265.313 65.6221 265.546C65.9548 265.774 66.2214 266.095 66.4219 266.51C66.627 266.924 66.7295 267.38 66.7295 267.877C66.7295 268.729 66.4583 269.451 65.916 270.044C65.3737 270.632 64.3939 270.926 62.9766 270.926H60.4062V275H59.0801ZM60.4062 269.743H62.9971C63.8538 269.743 64.4622 269.584 64.8223 269.265C65.1823 268.946 65.3623 268.497 65.3623 267.918C65.3623 267.499 65.2552 267.141 65.041 266.845C64.8314 266.544 64.5534 266.346 64.207 266.25C63.9837 266.191 63.5713 266.161 62.9697 266.161H60.4062V269.743ZM68.2471 275V267.74H69.3545V268.841C69.637 268.326 69.8968 267.986 70.1338 267.822C70.3753 267.658 70.6396 267.576 70.9268 267.576C71.3415 267.576 71.763 267.708 72.1914 267.973L71.7676 269.114C71.4668 268.937 71.166 268.848 70.8652 268.848C70.5964 268.848 70.3548 268.93 70.1406 269.094C69.9264 269.253 69.7738 269.477 69.6826 269.764C69.5459 270.201 69.4775 270.68 69.4775 271.199V275H68.2471ZM72.4648 271.37C72.4648 270.026 72.8385 269.03 73.5859 268.383C74.2103 267.845 74.9714 267.576 75.8691 267.576C76.8672 267.576 77.6829 267.904 78.3164 268.561C78.9499 269.212 79.2666 270.115 79.2666 271.268C79.2666 272.202 79.1253 272.938 78.8428 273.476C78.5648 274.009 78.1569 274.424 77.6191 274.72C77.0859 275.016 76.5026 275.164 75.8691 275.164C74.8529 275.164 74.0303 274.838 73.4014 274.187C72.777 273.535 72.4648 272.596 72.4648 271.37ZM73.7295 271.37C73.7295 272.3 73.9323 272.997 74.3379 273.462C74.7435 273.922 75.2539 274.152 75.8691 274.152C76.4798 274.152 76.988 273.92 77.3936 273.455C77.7992 272.99 78.002 272.282 78.002 271.329C78.002 270.431 77.7969 269.752 77.3867 269.292C76.9811 268.827 76.4753 268.595 75.8691 268.595C75.2539 268.595 74.7435 268.825 74.3379 269.285C73.9323 269.745 73.7295 270.44 73.7295 271.37ZM80.4902 275.602L81.6865 275.779C81.7367 276.148 81.8757 276.417 82.1035 276.586C82.4089 276.814 82.8258 276.928 83.3545 276.928C83.9242 276.928 84.3639 276.814 84.6738 276.586C84.9837 276.358 85.1934 276.039 85.3027 275.629C85.3665 275.378 85.3962 274.852 85.3916 274.05C84.8538 274.683 84.1839 275 83.3818 275C82.3838 275 81.6113 274.64 81.0645 273.92C80.5176 273.2 80.2441 272.336 80.2441 271.329C80.2441 270.636 80.3695 269.998 80.6201 269.415C80.8708 268.827 81.2331 268.374 81.707 268.055C82.1855 267.736 82.7461 267.576 83.3887 267.576C84.2454 267.576 84.9518 267.923 85.5078 268.615V267.74H86.6426V274.016C86.6426 275.146 86.5264 275.946 86.2939 276.415C86.0661 276.889 85.7015 277.263 85.2002 277.536C84.7035 277.81 84.0905 277.946 83.3613 277.946C82.4954 277.946 81.7959 277.75 81.2627 277.358C80.7295 276.971 80.472 276.385 80.4902 275.602ZM81.5088 271.24C81.5088 272.193 81.6979 272.888 82.0762 273.325C82.4544 273.763 82.9284 273.981 83.498 273.981C84.0632 273.981 84.5371 273.765 84.9199 273.332C85.3027 272.895 85.4941 272.211 85.4941 271.281C85.4941 270.393 85.2959 269.723 84.8994 269.271C84.5075 268.82 84.0335 268.595 83.4775 268.595C82.9307 268.595 82.4658 268.818 82.083 269.265C81.7002 269.707 81.5088 270.365 81.5088 271.24ZM88.4951 275V267.74H89.6025V268.841C89.8851 268.326 90.1449 267.986 90.3818 267.822C90.6234 267.658 90.8877 267.576 91.1748 267.576C91.5895 267.576 92.0111 267.708 92.4395 267.973L92.0156 269.114C91.7148 268.937 91.4141 268.848 91.1133 268.848C90.8444 268.848 90.6029 268.93 90.3887 269.094C90.1745 269.253 90.0218 269.477 89.9307 269.764C89.7939 270.201 89.7256 270.68 89.7256 271.199V275H88.4951ZM98.1406 272.662L99.4121 272.819C99.2116 273.562 98.8402 274.139 98.2979 274.549C97.7555 274.959 97.0628 275.164 96.2197 275.164C95.1579 275.164 94.3148 274.838 93.6904 274.187C93.0706 273.53 92.7607 272.612 92.7607 271.432C92.7607 270.21 93.0752 269.262 93.7041 268.588C94.333 267.913 95.1488 267.576 96.1514 267.576C97.1221 267.576 97.915 267.907 98.5303 268.567C99.1455 269.228 99.4531 270.158 99.4531 271.356C99.4531 271.429 99.4508 271.539 99.4463 271.685H94.0322C94.0778 272.482 94.3034 273.093 94.709 273.517C95.1146 273.94 95.6204 274.152 96.2266 274.152C96.6777 274.152 97.0628 274.034 97.3818 273.797C97.7008 273.56 97.9538 273.182 98.1406 272.662ZM94.1006 270.673H98.1543C98.0996 270.062 97.9447 269.604 97.6895 269.299C97.2975 268.825 96.7894 268.588 96.165 268.588C95.5999 268.588 95.1237 268.777 94.7363 269.155C94.3535 269.534 94.1416 270.039 94.1006 270.673ZM100.472 272.833L101.688 272.642C101.757 273.129 101.946 273.503 102.256 273.763C102.57 274.022 103.008 274.152 103.568 274.152C104.133 274.152 104.553 274.038 104.826 273.811C105.1 273.578 105.236 273.307 105.236 272.997C105.236 272.719 105.116 272.5 104.874 272.341C104.705 272.231 104.286 272.092 103.616 271.924C102.714 271.696 102.087 271.5 101.736 271.336C101.39 271.167 101.126 270.937 100.943 270.646C100.766 270.349 100.677 270.023 100.677 269.668C100.677 269.344 100.75 269.046 100.896 268.772C101.046 268.494 101.249 268.264 101.504 268.082C101.695 267.941 101.955 267.822 102.283 267.727C102.616 267.626 102.971 267.576 103.35 267.576C103.919 267.576 104.418 267.658 104.847 267.822C105.28 267.986 105.599 268.21 105.804 268.492C106.009 268.77 106.15 269.144 106.228 269.613L105.024 269.777C104.97 269.404 104.81 269.112 104.546 268.902C104.286 268.693 103.917 268.588 103.438 268.588C102.873 268.588 102.47 268.681 102.229 268.868C101.987 269.055 101.866 269.274 101.866 269.524C101.866 269.684 101.916 269.827 102.017 269.955C102.117 270.087 102.274 270.197 102.488 270.283C102.611 270.329 102.974 270.434 103.575 270.598C104.446 270.83 105.052 271.021 105.394 271.172C105.74 271.318 106.011 271.532 106.207 271.814C106.403 272.097 106.501 272.448 106.501 272.867C106.501 273.277 106.38 273.665 106.139 274.029C105.902 274.389 105.558 274.67 105.106 274.87C104.655 275.066 104.145 275.164 103.575 275.164C102.632 275.164 101.912 274.968 101.415 274.576C100.923 274.184 100.608 273.603 100.472 272.833ZM107.472 272.833L108.688 272.642C108.757 273.129 108.946 273.503 109.256 273.763C109.57 274.022 110.008 274.152 110.568 274.152C111.133 274.152 111.553 274.038 111.826 273.811C112.1 273.578 112.236 273.307 112.236 272.997C112.236 272.719 112.116 272.5 111.874 272.341C111.705 272.231 111.286 272.092 110.616 271.924C109.714 271.696 109.087 271.5 108.736 271.336C108.39 271.167 108.126 270.937 107.943 270.646C107.766 270.349 107.677 270.023 107.677 269.668C107.677 269.344 107.75 269.046 107.896 268.772C108.046 268.494 108.249 268.264 108.504 268.082C108.695 267.941 108.955 267.822 109.283 267.727C109.616 267.626 109.971 267.576 110.35 267.576C110.919 267.576 111.418 267.658 111.847 267.822C112.28 267.986 112.599 268.21 112.804 268.492C113.009 268.77 113.15 269.144 113.228 269.613L112.024 269.777C111.97 269.404 111.81 269.112 111.546 268.902C111.286 268.693 110.917 268.588 110.438 268.588C109.873 268.588 109.47 268.681 109.229 268.868C108.987 269.055 108.866 269.274 108.866 269.524C108.866 269.684 108.916 269.827 109.017 269.955C109.117 270.087 109.274 270.197 109.488 270.283C109.611 270.329 109.974 270.434 110.575 270.598C111.446 270.83 112.052 271.021 112.394 271.172C112.74 271.318 113.011 271.532 113.207 271.814C113.403 272.097 113.501 272.448 113.501 272.867C113.501 273.277 113.38 273.665 113.139 274.029C112.902 274.389 112.558 274.67 112.106 274.87C111.655 275.066 111.145 275.164 110.575 275.164C109.632 275.164 108.912 274.968 108.415 274.576C107.923 274.184 107.608 273.603 107.472 272.833ZM118.963 275V264.979H122.723C123.488 264.979 124.101 265.081 124.562 265.286C125.026 265.487 125.389 265.799 125.648 266.223C125.913 266.642 126.045 267.082 126.045 267.542C126.045 267.97 125.929 268.374 125.696 268.752C125.464 269.13 125.113 269.436 124.644 269.668C125.25 269.846 125.715 270.149 126.038 270.577C126.366 271.006 126.53 271.511 126.53 272.095C126.53 272.564 126.43 273.002 126.229 273.407C126.034 273.808 125.79 274.118 125.498 274.337C125.206 274.556 124.84 274.722 124.397 274.836C123.96 274.945 123.422 275 122.784 275H118.963ZM120.289 269.189H122.456C123.044 269.189 123.465 269.151 123.721 269.073C124.058 268.973 124.311 268.807 124.479 268.574C124.653 268.342 124.739 268.05 124.739 267.699C124.739 267.367 124.66 267.075 124.5 266.824C124.34 266.569 124.113 266.396 123.816 266.305C123.52 266.209 123.012 266.161 122.292 266.161H120.289V269.189ZM120.289 273.817H122.784C123.213 273.817 123.513 273.801 123.687 273.77C123.992 273.715 124.247 273.624 124.452 273.496C124.657 273.368 124.826 273.184 124.958 272.942C125.09 272.696 125.156 272.414 125.156 272.095C125.156 271.721 125.061 271.397 124.869 271.124C124.678 270.846 124.411 270.652 124.069 270.543C123.732 270.429 123.244 270.372 122.606 270.372H120.289V273.817ZM132.936 274.104C132.48 274.492 132.04 274.765 131.616 274.925C131.197 275.084 130.746 275.164 130.263 275.164C129.465 275.164 128.852 274.97 128.424 274.583C127.995 274.191 127.781 273.692 127.781 273.086C127.781 272.73 127.861 272.407 128.021 272.115C128.185 271.819 128.396 271.582 128.656 271.404C128.921 271.227 129.217 271.092 129.545 271.001C129.786 270.937 130.151 270.876 130.639 270.816C131.632 270.698 132.364 270.557 132.833 270.393C132.838 270.224 132.84 270.117 132.84 270.071C132.84 269.57 132.724 269.217 132.491 269.012C132.177 268.734 131.71 268.595 131.09 268.595C130.511 268.595 130.083 268.697 129.805 268.902C129.531 269.103 129.328 269.461 129.196 269.976L127.993 269.812C128.103 269.297 128.283 268.882 128.533 268.567C128.784 268.248 129.146 268.005 129.62 267.836C130.094 267.663 130.643 267.576 131.268 267.576C131.887 267.576 132.391 267.649 132.778 267.795C133.166 267.941 133.451 268.125 133.633 268.349C133.815 268.567 133.943 268.845 134.016 269.183C134.057 269.392 134.077 269.771 134.077 270.317V271.958C134.077 273.102 134.102 273.826 134.152 274.132C134.207 274.433 134.312 274.722 134.467 275H133.182C133.054 274.745 132.972 274.446 132.936 274.104ZM132.833 271.356C132.386 271.539 131.716 271.694 130.823 271.821C130.317 271.894 129.96 271.976 129.75 272.067C129.54 272.159 129.379 272.293 129.265 272.471C129.151 272.644 129.094 272.838 129.094 273.052C129.094 273.38 129.217 273.653 129.463 273.872C129.714 274.091 130.078 274.2 130.557 274.2C131.031 274.2 131.452 274.098 131.821 273.893C132.19 273.683 132.462 273.398 132.635 273.038C132.767 272.76 132.833 272.35 132.833 271.808V271.356ZM135.978 275V267.74H137.085V268.841C137.368 268.326 137.627 267.986 137.864 267.822C138.106 267.658 138.37 267.576 138.657 267.576C139.072 267.576 139.493 267.708 139.922 267.973L139.498 269.114C139.197 268.937 138.896 268.848 138.596 268.848C138.327 268.848 138.085 268.93 137.871 269.094C137.657 269.253 137.504 269.477 137.413 269.764C137.276 270.201 137.208 270.68 137.208 271.199V275H135.978ZM139.73 275.171L142.636 264.808H143.62L140.722 275.171H139.73ZM144.734 275V264.979H151.98V266.161H146.061V269.23H151.604V270.406H146.061V273.817H152.213V275H144.734ZM153.067 275L155.72 271.227L153.266 267.74H154.804L155.918 269.442C156.128 269.766 156.296 270.037 156.424 270.256C156.624 269.955 156.809 269.688 156.978 269.456L158.201 267.74H159.671L157.162 271.158L159.862 275H158.352L156.861 272.744L156.465 272.136L154.558 275H153.067ZM165.625 274.104C165.169 274.492 164.729 274.765 164.306 274.925C163.886 275.084 163.435 275.164 162.952 275.164C162.155 275.164 161.542 274.97 161.113 274.583C160.685 274.191 160.471 273.692 160.471 273.086C160.471 272.73 160.55 272.407 160.71 272.115C160.874 271.819 161.086 271.582 161.346 271.404C161.61 271.227 161.906 271.092 162.234 271.001C162.476 270.937 162.84 270.876 163.328 270.816C164.322 270.698 165.053 270.557 165.522 270.393C165.527 270.224 165.529 270.117 165.529 270.071C165.529 269.57 165.413 269.217 165.181 269.012C164.866 268.734 164.399 268.595 163.779 268.595C163.201 268.595 162.772 268.697 162.494 268.902C162.221 269.103 162.018 269.461 161.886 269.976L160.683 269.812C160.792 269.297 160.972 268.882 161.223 268.567C161.473 268.248 161.836 268.005 162.31 267.836C162.784 267.663 163.333 267.576 163.957 267.576C164.577 267.576 165.08 267.649 165.468 267.795C165.855 267.941 166.14 268.125 166.322 268.349C166.505 268.567 166.632 268.845 166.705 269.183C166.746 269.392 166.767 269.771 166.767 270.317V271.958C166.767 273.102 166.792 273.826 166.842 274.132C166.896 274.433 167.001 274.722 167.156 275H165.871C165.743 274.745 165.661 274.446 165.625 274.104ZM165.522 271.356C165.076 271.539 164.406 271.694 163.513 271.821C163.007 271.894 162.649 271.976 162.439 272.067C162.23 272.159 162.068 272.293 161.954 272.471C161.84 272.644 161.783 272.838 161.783 273.052C161.783 273.38 161.906 273.653 162.152 273.872C162.403 274.091 162.768 274.2 163.246 274.2C163.72 274.2 164.142 274.098 164.511 273.893C164.88 273.683 165.151 273.398 165.324 273.038C165.456 272.76 165.522 272.35 165.522 271.808V271.356ZM168.681 275V267.74H169.781V268.759C170.009 268.403 170.312 268.118 170.69 267.904C171.069 267.686 171.499 267.576 171.982 267.576C172.52 267.576 172.96 267.688 173.302 267.911C173.648 268.134 173.892 268.447 174.033 268.848C174.607 268 175.355 267.576 176.275 267.576C176.995 267.576 177.549 267.777 177.937 268.178C178.324 268.574 178.518 269.187 178.518 270.017V275H177.294V270.427C177.294 269.935 177.253 269.581 177.171 269.367C177.093 269.148 176.95 268.973 176.74 268.841C176.531 268.709 176.285 268.643 176.002 268.643C175.492 268.643 175.068 268.813 174.73 269.155C174.393 269.493 174.225 270.035 174.225 270.782V275H172.994V270.283C172.994 269.736 172.894 269.326 172.693 269.053C172.493 268.779 172.165 268.643 171.709 268.643C171.363 268.643 171.041 268.734 170.745 268.916C170.453 269.098 170.242 269.365 170.109 269.716C169.977 270.067 169.911 270.573 169.911 271.233V275H168.681ZM180.343 277.782V267.74H181.464V268.684C181.728 268.314 182.027 268.039 182.359 267.856C182.692 267.67 183.095 267.576 183.569 267.576C184.189 267.576 184.736 267.736 185.21 268.055C185.684 268.374 186.042 268.825 186.283 269.408C186.525 269.987 186.646 270.623 186.646 271.315C186.646 272.058 186.511 272.728 186.242 273.325C185.978 273.918 185.59 274.373 185.08 274.692C184.574 275.007 184.041 275.164 183.48 275.164C183.07 275.164 182.701 275.077 182.373 274.904C182.049 274.731 181.783 274.512 181.573 274.248V277.782H180.343ZM181.457 271.411C181.457 272.345 181.646 273.036 182.024 273.482C182.403 273.929 182.861 274.152 183.398 274.152C183.945 274.152 184.412 273.922 184.8 273.462C185.192 272.997 185.388 272.279 185.388 271.309C185.388 270.383 185.196 269.691 184.813 269.23C184.435 268.77 183.982 268.54 183.453 268.54C182.929 268.54 182.464 268.786 182.059 269.278C181.658 269.766 181.457 270.477 181.457 271.411ZM188.108 275V264.979H189.339V275H188.108ZM196.223 272.662L197.494 272.819C197.294 273.562 196.922 274.139 196.38 274.549C195.838 274.959 195.145 275.164 194.302 275.164C193.24 275.164 192.397 274.838 191.772 274.187C191.153 273.53 190.843 272.612 190.843 271.432C190.843 270.21 191.157 269.262 191.786 268.588C192.415 267.913 193.231 267.576 194.233 267.576C195.204 267.576 195.997 267.907 196.612 268.567C197.228 269.228 197.535 270.158 197.535 271.356C197.535 271.429 197.533 271.539 197.528 271.685H192.114C192.16 272.482 192.385 273.093 192.791 273.517C193.197 273.94 193.702 274.152 194.309 274.152C194.76 274.152 195.145 274.034 195.464 273.797C195.783 273.56 196.036 273.182 196.223 272.662ZM192.183 270.673H196.236C196.182 270.062 196.027 269.604 195.771 269.299C195.38 268.825 194.871 268.588 194.247 268.588C193.682 268.588 193.206 268.777 192.818 269.155C192.436 269.534 192.224 270.039 192.183 270.673Z" fill="#212121"/>
<g opacity="0.85" filter="url(#filter2_d_2_941)">
<mask id="path-10-inside-1_2_941" fill="white">
<path d="M50 310C50 305.582 53.5817 302 58 302H522C526.418 302 530 305.582 530 310V342C530 346.418 526.418 350 522 350H58C53.5817 350 50 346.418 50 342V310Z"/>
</mask>
<path d="M50 310C50 305.582 53.5817 302 58 302H522C526.418 302 530 305.582 530 310V342C530 346.418 526.418 350 522 350H58C53.5817 350 50 346.418 50 342V310Z" fill="white"/>
<path d="M46 310C46 303.373 51.3726 298 58 298H522C528.627 298 534 303.373 534 310H526C526 307.791 524.209 306 522 306H58C55.7909 306 54 307.791 54 310H46ZM534 342C534 348.627 528.627 354 522 354H58C51.3726 354 46 348.627 46 342H54C54 344.209 55.7909 346 58 346H522C524.209 346 526 344.209 526 342H534ZM58 354C51.3726 354 46 348.627 46 342V310C46 303.373 51.3726 298 58 298V306C55.7909 306 54 307.791 54 310V342C54 344.209 55.7909 346 58 346V354ZM522 298C528.627 298 534 303.373 534 310V342C534 348.627 528.627 354 522 354V346C524.209 346 526 344.209 526 342V310C526 307.791 524.209 306 522 306V298Z" fill="#8FD7FF" mask="url(#path-10-inside-1_2_941)"/>
</g>
<g filter="url(#filter3_d_2_941)">
<rect x="57" y="310" width="192" height="32" rx="7" fill="#519EE6"/>
</g>
<defs>
<filter id="filter0_d_2_941" x="49" y="94" width="482" height="34" filterUnits="userSpaceOnUse" color-interpolation-filters="sRGB">
<feFlood flood-opacity="0" result="BackgroundImageFix"/>
<feColorMatrix in="SourceAlpha" type="matrix" values="0 0 0 0 0 0 0 0 0 0 0 0 0 0 0 0 0 0 127 0" result="hardAlpha"/>
<feOffset dy="1"/>
<feGaussianBlur stdDeviation="0.5"/>
<feComposite in2="hardAlpha" operator="out"/>
<feColorMatrix type="matrix" values="0 0 0 0 0 0 0 0 0 0.1169 0 0 0 0 0.4175 0 0 0 0.6 0"/>
<feBlend mode="normal" in2="BackgroundImageFix" result="effect1_dropShadow_2_941"/>
<feBlend mode="normal" in="SourceGraphic" in2="effect1_dropShadow_2_941" result="shape"/>
</filter>
<filter id="filter1_d_2_941" x="49" y="190" width="482" height="50" filterUnits="userSpaceOnUse" color-interpolation-filters="sRGB">
<feFlood flood-opacity="0" result="BackgroundImageFix"/>
<feColorMatrix in="SourceAlpha" type="matrix" values="0 0 0 0 0 0 0 0 0 0 0 0 0 0 0 0 0 0 127 0" result="hardAlpha"/>
<feOffset dy="1"/>
<feGaussianBlur stdDeviation="0.5"/>
<feComposite in2="hardAlpha" operator="out"/>
<feColorMatrix type="matrix" values="0 0 0 0 0 0 0 0 0 0.1169 0 0 0 0 0.4175 0 0 0 0.6 0"/>
<feBlend mode="normal" in2="BackgroundImageFix" result="effect1_dropShadow_2_941"/>
<feBlend mode="normal" in="SourceGraphic" in2="effect1_dropShadow_2_941" result="shape"/>
</filter>
<filter id="filter2_d_2_941" x="48" y="301" width="484" height="52" filterUnits="userSpaceOnUse" color-interpolation-filters="sRGB">
<feFlood flood-opacity="0" result="BackgroundImageFix"/>
<feColorMatrix in="SourceAlpha" type="matrix" values="0 0 0 0 0 0 0 0 0 0 0 0 0 0 0 0 0 0 127 0" result="hardAlpha"/>
<feOffset dy="1"/>
<feGaussianBlur stdDeviation="1"/>
<feComposite in2="hardAlpha" operator="out"/>
<feColorMatrix type="matrix" values="0 0 0 0 0 0 0 0 0 0 0 0 0 0 0 0 0 0 0.4 0"/>
<feBlend mode="normal" in2="BackgroundImageFix" result="effect1_dropShadow_2_941"/>
<feBlend mode="normal" in="SourceGraphic" in2="effect1_dropShadow_2_941" result="shape"/>
</filter>
<filter id="filter3_d_2_941" x="56" y="310" width="194" height="34" filterUnits="userSpaceOnUse" color-interpolation-filters="sRGB">
<feFlood flood-opacity="0" result="BackgroundImageFix"/>
<feColorMatrix in="SourceAlpha" type="matrix" values="0 0 0 0 0 0 0 0 0 0 0 0 0 0 0 0 0 0 127 0" result="hardAlpha"/>
<feOffset dy="1"/>
<feGaussianBlur stdDeviation="0.5"/>
<feComposite in2="hardAlpha" operator="out"/>
<feColorMatrix type="matrix" values="0 0 0 0 0 0 0 0 0 0.1169 0 0 0 0 0.4175 0 0 0 0.6 0"/>
<feBlend mode="normal" in2="BackgroundImageFix" result="effect1_dropShadow_2_941"/>
<feBlend mode="normal" in="SourceGraphic" in2="effect1_dropShadow_2_941" result="shape"/>
</filter>
</defs>
</svg>
