<svg width="474" height="422" viewBox="0 0 474 422" fill="none" xmlns="http://www.w3.org/2000/svg">
<rect x="50" y="50" width="81" height="24" rx="4" fill="#FED70A"/>
<path d="M58.6289 63.7803L59.8799 63.6709C59.9391 64.1722 60.0758 64.5846 60.29 64.9082C60.5088 65.2272 60.846 65.487 61.3018 65.6875C61.7575 65.8835 62.2702 65.9814 62.8398 65.9814C63.3457 65.9814 63.7923 65.9062 64.1797 65.7559C64.5671 65.6055 64.8542 65.4004 65.041 65.1406C65.2324 64.8763 65.3281 64.5892 65.3281 64.2793C65.3281 63.9648 65.237 63.6914 65.0547 63.459C64.8724 63.222 64.5716 63.0238 64.1523 62.8643C63.8835 62.7594 63.2887 62.5977 62.3682 62.3789C61.4476 62.1556 60.8027 61.946 60.4336 61.75C59.9551 61.4993 59.5973 61.1895 59.3604 60.8203C59.1279 60.4466 59.0117 60.0296 59.0117 59.5693C59.0117 59.0635 59.1553 58.5918 59.4424 58.1543C59.7295 57.7122 60.1488 57.3773 60.7002 57.1494C61.2516 56.9215 61.8646 56.8076 62.5391 56.8076C63.2819 56.8076 63.9359 56.9284 64.501 57.1699C65.0706 57.4069 65.5081 57.7578 65.8135 58.2227C66.1188 58.6875 66.2829 59.2139 66.3057 59.8018L65.0342 59.8975C64.9658 59.264 64.7334 58.7855 64.3369 58.4619C63.945 58.1383 63.3639 57.9766 62.5938 57.9766C61.7917 57.9766 61.2061 58.1247 60.8369 58.4209C60.4723 58.7126 60.29 59.0658 60.29 59.4805C60.29 59.8405 60.4199 60.1367 60.6797 60.3691C60.9349 60.6016 61.6003 60.8408 62.6758 61.0869C63.7559 61.3285 64.4964 61.5404 64.8975 61.7227C65.4808 61.9915 65.9115 62.3333 66.1895 62.748C66.4674 63.1582 66.6064 63.6322 66.6064 64.1699C66.6064 64.7031 66.4538 65.2067 66.1484 65.6807C65.8431 66.1501 65.4033 66.5169 64.8291 66.7812C64.2594 67.041 63.6169 67.1709 62.9014 67.1709C61.9945 67.1709 61.2334 67.0387 60.6182 66.7744C60.0075 66.5101 59.5267 66.1136 59.1758 65.585C58.8294 65.0518 58.6471 64.4502 58.6289 63.7803ZM70.9473 65.8994L71.125 66.9863C70.7786 67.0592 70.4688 67.0957 70.1953 67.0957C69.7487 67.0957 69.4023 67.0251 69.1562 66.8838C68.9102 66.7425 68.737 66.5579 68.6367 66.3301C68.5365 66.0977 68.4863 65.6123 68.4863 64.874V60.6973H67.584V59.7402H68.4863V57.9424L69.71 57.2041V59.7402H70.9473V60.6973H69.71V64.9424C69.71 65.2933 69.7305 65.5189 69.7715 65.6191C69.8171 65.7194 69.8877 65.7992 69.9834 65.8584C70.0837 65.9176 70.2249 65.9473 70.4072 65.9473C70.5439 65.9473 70.724 65.9313 70.9473 65.8994ZM76.8945 66.1045C76.4388 66.4919 75.999 66.7653 75.5752 66.9248C75.1559 67.0843 74.7048 67.1641 74.2217 67.1641C73.4242 67.1641 72.8112 66.9704 72.3828 66.583C71.9544 66.1911 71.7402 65.6921 71.7402 65.0859C71.7402 64.7305 71.82 64.4069 71.9795 64.1152C72.1436 63.819 72.3555 63.582 72.6152 63.4043C72.8796 63.2266 73.1758 63.0921 73.5039 63.001C73.7454 62.9372 74.11 62.8757 74.5977 62.8164C75.5911 62.6979 76.3226 62.5566 76.792 62.3926C76.7965 62.224 76.7988 62.1169 76.7988 62.0713C76.7988 61.57 76.6826 61.2168 76.4502 61.0117C76.1357 60.7337 75.6686 60.5947 75.0488 60.5947C74.4701 60.5947 74.0417 60.6973 73.7637 60.9023C73.4902 61.1029 73.2874 61.4606 73.1553 61.9756L71.9521 61.8115C72.0615 61.2965 72.2415 60.8818 72.4922 60.5674C72.7428 60.2484 73.1051 60.0046 73.5791 59.8359C74.0531 59.6628 74.6022 59.5762 75.2266 59.5762C75.8464 59.5762 76.3499 59.6491 76.7373 59.7949C77.1247 59.9408 77.4095 60.1253 77.5918 60.3486C77.7741 60.5674 77.9017 60.8454 77.9746 61.1826C78.0156 61.3923 78.0361 61.7705 78.0361 62.3174V63.958C78.0361 65.1019 78.0612 65.8265 78.1113 66.1318C78.166 66.4326 78.2708 66.722 78.4258 67H77.1406C77.013 66.7448 76.931 66.4463 76.8945 66.1045ZM76.792 63.3564C76.3454 63.5387 75.6755 63.6937 74.7822 63.8213C74.2764 63.8942 73.9186 63.9762 73.709 64.0674C73.4993 64.1585 73.3376 64.293 73.2236 64.4707C73.1097 64.6439 73.0527 64.8376 73.0527 65.0518C73.0527 65.3799 73.1758 65.6533 73.4219 65.8721C73.6725 66.0908 74.0371 66.2002 74.5156 66.2002C74.9896 66.2002 75.4111 66.0977 75.7803 65.8926C76.1494 65.6829 76.4206 65.3981 76.5938 65.0381C76.7259 64.7601 76.792 64.3499 76.792 63.8076V63.3564ZM79.9365 67V59.7402H81.0439V60.8408C81.3265 60.3258 81.5863 59.9863 81.8232 59.8223C82.0648 59.6582 82.3291 59.5762 82.6162 59.5762C83.0309 59.5762 83.4525 59.7083 83.8809 59.9727L83.457 61.1143C83.1562 60.9365 82.8555 60.8477 82.5547 60.8477C82.2858 60.8477 82.0443 60.9297 81.8301 61.0938C81.6159 61.2533 81.4632 61.4766 81.3721 61.7637C81.2354 62.2012 81.167 62.6797 81.167 63.1992V67H79.9365ZM83.6895 67.1709L86.5947 56.8076H87.5791L84.6807 67.1709H83.6895ZM88.2148 63.7803L89.4658 63.6709C89.5251 64.1722 89.6618 64.5846 89.876 64.9082C90.0947 65.2272 90.432 65.487 90.8877 65.6875C91.3434 65.8835 91.8561 65.9814 92.4258 65.9814C92.9316 65.9814 93.3783 65.9062 93.7656 65.7559C94.153 65.6055 94.4401 65.4004 94.627 65.1406C94.8184 64.8763 94.9141 64.5892 94.9141 64.2793C94.9141 63.9648 94.8229 63.6914 94.6406 63.459C94.4583 63.222 94.1576 63.0238 93.7383 62.8643C93.4694 62.7594 92.8747 62.5977 91.9541 62.3789C91.0335 62.1556 90.3887 61.946 90.0195 61.75C89.541 61.4993 89.1833 61.1895 88.9463 60.8203C88.7139 60.4466 88.5977 60.0296 88.5977 59.5693C88.5977 59.0635 88.7412 58.5918 89.0283 58.1543C89.3154 57.7122 89.7347 57.3773 90.2861 57.1494C90.8376 56.9215 91.4505 56.8076 92.125 56.8076C92.8678 56.8076 93.5218 56.9284 94.0869 57.1699C94.6566 57.4069 95.0941 57.7578 95.3994 58.2227C95.7048 58.6875 95.8688 59.2139 95.8916 59.8018L94.6201 59.8975C94.5518 59.264 94.3193 58.7855 93.9229 58.4619C93.5309 58.1383 92.9499 57.9766 92.1797 57.9766C91.3776 57.9766 90.792 58.1247 90.4229 58.4209C90.0583 58.7126 89.876 59.0658 89.876 59.4805C89.876 59.8405 90.0059 60.1367 90.2656 60.3691C90.5208 60.6016 91.1862 60.8408 92.2617 61.0869C93.3418 61.3285 94.0824 61.5404 94.4834 61.7227C95.0667 61.9915 95.4974 62.3333 95.7754 62.748C96.0534 63.1582 96.1924 63.6322 96.1924 64.1699C96.1924 64.7031 96.0397 65.2067 95.7344 65.6807C95.429 66.1501 94.9893 66.5169 94.415 66.7812C93.8454 67.041 93.2028 67.1709 92.4873 67.1709C91.5804 67.1709 90.8193 67.0387 90.2041 66.7744C89.5934 66.5101 89.1126 66.1136 88.7617 65.585C88.4154 65.0518 88.2331 64.4502 88.2148 63.7803ZM97.8467 67V59.7402H98.9473V60.7588C99.1751 60.4033 99.4782 60.1185 99.8564 59.9043C100.235 59.6855 100.665 59.5762 101.148 59.5762C101.686 59.5762 102.126 59.6878 102.468 59.9111C102.814 60.1344 103.058 60.4466 103.199 60.8477C103.773 60 104.521 59.5762 105.441 59.5762C106.161 59.5762 106.715 59.7767 107.103 60.1777C107.49 60.5742 107.684 61.1872 107.684 62.0166V67H106.46V62.4268C106.46 61.9346 106.419 61.5814 106.337 61.3672C106.259 61.1484 106.116 60.973 105.906 60.8408C105.697 60.7087 105.451 60.6426 105.168 60.6426C104.658 60.6426 104.234 60.8135 103.896 61.1553C103.559 61.4925 103.391 62.0348 103.391 62.7822V67H102.16V62.2832C102.16 61.7363 102.06 61.3262 101.859 61.0527C101.659 60.7793 101.331 60.6426 100.875 60.6426C100.529 60.6426 100.207 60.7337 99.9111 60.916C99.6195 61.0983 99.4076 61.3649 99.2754 61.7158C99.1432 62.0667 99.0771 62.5726 99.0771 63.2334V67H97.8467ZM114.246 66.1045C113.79 66.4919 113.351 66.7653 112.927 66.9248C112.507 67.0843 112.056 67.1641 111.573 67.1641C110.776 67.1641 110.163 66.9704 109.734 66.583C109.306 66.1911 109.092 65.6921 109.092 65.0859C109.092 64.7305 109.172 64.4069 109.331 64.1152C109.495 63.819 109.707 63.582 109.967 63.4043C110.231 63.2266 110.527 63.0921 110.855 63.001C111.097 62.9372 111.462 62.8757 111.949 62.8164C112.943 62.6979 113.674 62.5566 114.144 62.3926C114.148 62.224 114.15 62.1169 114.15 62.0713C114.15 61.57 114.034 61.2168 113.802 61.0117C113.487 60.7337 113.02 60.5947 112.4 60.5947C111.822 60.5947 111.393 60.6973 111.115 60.9023C110.842 61.1029 110.639 61.4606 110.507 61.9756L109.304 61.8115C109.413 61.2965 109.593 60.8818 109.844 60.5674C110.094 60.2484 110.457 60.0046 110.931 59.8359C111.405 59.6628 111.954 59.5762 112.578 59.5762C113.198 59.5762 113.701 59.6491 114.089 59.7949C114.476 59.9408 114.761 60.1253 114.943 60.3486C115.126 60.5674 115.253 60.8454 115.326 61.1826C115.367 61.3923 115.388 61.7705 115.388 62.3174V63.958C115.388 65.1019 115.413 65.8265 115.463 66.1318C115.518 66.4326 115.622 66.722 115.777 67H114.492C114.365 66.7448 114.283 66.4463 114.246 66.1045ZM114.144 63.3564C113.697 63.5387 113.027 63.6937 112.134 63.8213C111.628 63.8942 111.27 63.9762 111.061 64.0674C110.851 64.1585 110.689 64.293 110.575 64.4707C110.461 64.6439 110.404 64.8376 110.404 65.0518C110.404 65.3799 110.527 65.6533 110.773 65.8721C111.024 66.0908 111.389 66.2002 111.867 66.2002C112.341 66.2002 112.763 66.0977 113.132 65.8926C113.501 65.6829 113.772 65.3981 113.945 65.0381C114.077 64.7601 114.144 64.3499 114.144 63.8076V63.3564ZM117.274 67V56.9785H118.505V67H117.274ZM120.392 67V56.9785H121.622V67H120.392Z" fill="#212121"/>
<g filter="url(#filter0_d_2_559)">
<path d="M59.0651 95.0363C59.5167 93.6546 61.4833 93.6546 61.9349 95.0363L63.3793 99.4548C63.5813 100.073 64.1606 100.491 64.8142 100.491H69.4883C70.9499 100.491 71.5576 102.35 70.3752 103.204L66.5938 105.935C66.0649 106.317 65.8437 106.994 66.0457 107.612L67.49 112.03C67.9417 113.412 66.3507 114.561 65.1683 113.707L61.3868 110.976C60.858 110.594 60.142 110.594 59.6132 110.976L55.8317 113.707C54.6493 114.561 53.0583 113.412 53.51 112.03L54.9543 107.612C55.1563 106.994 54.9351 106.317 54.4063 105.935L50.6248 103.204C49.4424 102.35 50.0501 100.491 51.5117 100.491H56.1858C56.8394 100.491 57.4187 100.073 57.6207 99.4548L59.0651 95.0363Z" fill="#3574BF"/>
</g>
<g filter="url(#filter1_d_2_559)">
<path d="M100.065 95.0363C100.517 93.6546 102.483 93.6546 102.935 95.0363L104.379 99.4548C104.581 100.073 105.161 100.491 105.814 100.491H110.488C111.95 100.491 112.558 102.35 111.375 103.204L107.594 105.935C107.065 106.317 106.844 106.994 107.046 107.612L108.49 112.03C108.942 113.412 107.351 114.561 106.168 113.707L102.387 110.976C101.858 110.594 101.142 110.594 100.613 110.976L96.8317 113.707C95.6493 114.561 94.0583 113.412 94.51 112.03L95.9543 107.612C96.1563 106.994 95.9351 106.317 95.4063 105.935L91.6248 103.204C90.4424 102.35 91.0501 100.491 92.5117 100.491H97.1858C97.8394 100.491 98.4187 100.073 98.6207 99.4548L100.065 95.0363Z" fill="#F8E71C"/>
</g>
<rect x="50" y="134" width="96" height="24" rx="4" fill="#FED70A"/>
<path d="M58.6289 147.78L59.8799 147.671C59.9391 148.172 60.0758 148.585 60.29 148.908C60.5088 149.227 60.846 149.487 61.3018 149.688C61.7575 149.883 62.2702 149.981 62.8398 149.981C63.3457 149.981 63.7923 149.906 64.1797 149.756C64.5671 149.605 64.8542 149.4 65.041 149.141C65.2324 148.876 65.3281 148.589 65.3281 148.279C65.3281 147.965 65.237 147.691 65.0547 147.459C64.8724 147.222 64.5716 147.024 64.1523 146.864C63.8835 146.759 63.2887 146.598 62.3682 146.379C61.4476 146.156 60.8027 145.946 60.4336 145.75C59.9551 145.499 59.5973 145.189 59.3604 144.82C59.1279 144.447 59.0117 144.03 59.0117 143.569C59.0117 143.063 59.1553 142.592 59.4424 142.154C59.7295 141.712 60.1488 141.377 60.7002 141.149C61.2516 140.922 61.8646 140.808 62.5391 140.808C63.2819 140.808 63.9359 140.928 64.501 141.17C65.0706 141.407 65.5081 141.758 65.8135 142.223C66.1188 142.688 66.2829 143.214 66.3057 143.802L65.0342 143.897C64.9658 143.264 64.7334 142.785 64.3369 142.462C63.945 142.138 63.3639 141.977 62.5938 141.977C61.7917 141.977 61.2061 142.125 60.8369 142.421C60.4723 142.713 60.29 143.066 60.29 143.48C60.29 143.84 60.4199 144.137 60.6797 144.369C60.9349 144.602 61.6003 144.841 62.6758 145.087C63.7559 145.328 64.4964 145.54 64.8975 145.723C65.4808 145.992 65.9115 146.333 66.1895 146.748C66.4674 147.158 66.6064 147.632 66.6064 148.17C66.6064 148.703 66.4538 149.207 66.1484 149.681C65.8431 150.15 65.4033 150.517 64.8291 150.781C64.2594 151.041 63.6169 151.171 62.9014 151.171C61.9945 151.171 61.2334 151.039 60.6182 150.774C60.0075 150.51 59.5267 150.114 59.1758 149.585C58.8294 149.052 58.6471 148.45 58.6289 147.78ZM70.9473 149.899L71.125 150.986C70.7786 151.059 70.4688 151.096 70.1953 151.096C69.7487 151.096 69.4023 151.025 69.1562 150.884C68.9102 150.743 68.737 150.558 68.6367 150.33C68.5365 150.098 68.4863 149.612 68.4863 148.874V144.697H67.584V143.74H68.4863V141.942L69.71 141.204V143.74H70.9473V144.697H69.71V148.942C69.71 149.293 69.7305 149.519 69.7715 149.619C69.8171 149.719 69.8877 149.799 69.9834 149.858C70.0837 149.918 70.2249 149.947 70.4072 149.947C70.5439 149.947 70.724 149.931 70.9473 149.899ZM76.8945 150.104C76.4388 150.492 75.999 150.765 75.5752 150.925C75.1559 151.084 74.7048 151.164 74.2217 151.164C73.4242 151.164 72.8112 150.97 72.3828 150.583C71.9544 150.191 71.7402 149.692 71.7402 149.086C71.7402 148.73 71.82 148.407 71.9795 148.115C72.1436 147.819 72.3555 147.582 72.6152 147.404C72.8796 147.227 73.1758 147.092 73.5039 147.001C73.7454 146.937 74.11 146.876 74.5977 146.816C75.5911 146.698 76.3226 146.557 76.792 146.393C76.7965 146.224 76.7988 146.117 76.7988 146.071C76.7988 145.57 76.6826 145.217 76.4502 145.012C76.1357 144.734 75.6686 144.595 75.0488 144.595C74.4701 144.595 74.0417 144.697 73.7637 144.902C73.4902 145.103 73.2874 145.461 73.1553 145.976L71.9521 145.812C72.0615 145.297 72.2415 144.882 72.4922 144.567C72.7428 144.248 73.1051 144.005 73.5791 143.836C74.0531 143.663 74.6022 143.576 75.2266 143.576C75.8464 143.576 76.3499 143.649 76.7373 143.795C77.1247 143.941 77.4095 144.125 77.5918 144.349C77.7741 144.567 77.9017 144.845 77.9746 145.183C78.0156 145.392 78.0361 145.771 78.0361 146.317V147.958C78.0361 149.102 78.0612 149.826 78.1113 150.132C78.166 150.433 78.2708 150.722 78.4258 151H77.1406C77.013 150.745 76.931 150.446 76.8945 150.104ZM76.792 147.356C76.3454 147.539 75.6755 147.694 74.7822 147.821C74.2764 147.894 73.9186 147.976 73.709 148.067C73.4993 148.159 73.3376 148.293 73.2236 148.471C73.1097 148.644 73.0527 148.838 73.0527 149.052C73.0527 149.38 73.1758 149.653 73.4219 149.872C73.6725 150.091 74.0371 150.2 74.5156 150.2C74.9896 150.2 75.4111 150.098 75.7803 149.893C76.1494 149.683 76.4206 149.398 76.5938 149.038C76.7259 148.76 76.792 148.35 76.792 147.808V147.356ZM79.9365 151V143.74H81.0439V144.841C81.3265 144.326 81.5863 143.986 81.8232 143.822C82.0648 143.658 82.3291 143.576 82.6162 143.576C83.0309 143.576 83.4525 143.708 83.8809 143.973L83.457 145.114C83.1562 144.937 82.8555 144.848 82.5547 144.848C82.2858 144.848 82.0443 144.93 81.8301 145.094C81.6159 145.253 81.4632 145.477 81.3721 145.764C81.2354 146.201 81.167 146.68 81.167 147.199V151H79.9365ZM83.6895 151.171L86.5947 140.808H87.5791L84.6807 151.171H83.6895ZM88.625 151V140.979H90.6211L92.9932 148.074C93.2119 148.735 93.3714 149.229 93.4717 149.558C93.5856 149.193 93.7633 148.658 94.0049 147.951L96.4043 140.979H98.1885V151H96.9102V142.612L93.998 151H92.8018L89.9033 142.469V151H88.625ZM105.141 148.662L106.412 148.819C106.212 149.562 105.84 150.139 105.298 150.549C104.756 150.959 104.063 151.164 103.22 151.164C102.158 151.164 101.315 150.838 100.69 150.187C100.071 149.53 99.7607 148.612 99.7607 147.432C99.7607 146.21 100.075 145.262 100.704 144.588C101.333 143.913 102.149 143.576 103.151 143.576C104.122 143.576 104.915 143.907 105.53 144.567C106.146 145.228 106.453 146.158 106.453 147.356C106.453 147.429 106.451 147.539 106.446 147.685H101.032C101.078 148.482 101.303 149.093 101.709 149.517C102.115 149.94 102.62 150.152 103.227 150.152C103.678 150.152 104.063 150.034 104.382 149.797C104.701 149.56 104.954 149.182 105.141 148.662ZM101.101 146.673H105.154C105.1 146.062 104.945 145.604 104.689 145.299C104.298 144.825 103.789 144.588 103.165 144.588C102.6 144.588 102.124 144.777 101.736 145.155C101.354 145.534 101.142 146.039 101.101 146.673ZM112.674 151V150.084C112.214 150.804 111.537 151.164 110.644 151.164C110.065 151.164 109.532 151.005 109.044 150.686C108.561 150.367 108.185 149.922 107.916 149.353C107.652 148.778 107.52 148.12 107.52 147.377C107.52 146.652 107.64 145.996 107.882 145.408C108.123 144.816 108.486 144.362 108.969 144.048C109.452 143.733 109.992 143.576 110.589 143.576C111.026 143.576 111.416 143.67 111.758 143.856C112.1 144.039 112.378 144.278 112.592 144.574V140.979H113.815V151H112.674ZM108.784 147.377C108.784 148.307 108.98 149.002 109.372 149.462C109.764 149.922 110.227 150.152 110.76 150.152C111.298 150.152 111.753 149.934 112.127 149.496C112.505 149.054 112.694 148.382 112.694 147.479C112.694 146.486 112.503 145.757 112.12 145.292C111.737 144.827 111.266 144.595 110.705 144.595C110.158 144.595 109.7 144.818 109.331 145.265C108.966 145.711 108.784 146.415 108.784 147.377ZM115.764 142.394V140.979H116.994V142.394H115.764ZM115.764 151V143.74H116.994V151H115.764ZM123.632 151V149.934C123.067 150.754 122.299 151.164 121.328 151.164C120.9 151.164 120.499 151.082 120.125 150.918C119.756 150.754 119.48 150.549 119.298 150.303C119.12 150.052 118.995 149.747 118.922 149.387C118.872 149.145 118.847 148.762 118.847 148.238V143.74H120.077V147.767C120.077 148.409 120.102 148.842 120.152 149.065C120.23 149.389 120.394 149.644 120.645 149.831C120.895 150.013 121.205 150.104 121.574 150.104C121.943 150.104 122.29 150.011 122.613 149.824C122.937 149.633 123.165 149.375 123.297 149.052C123.434 148.724 123.502 148.25 123.502 147.63V143.74H124.732V151H123.632ZM126.667 151V143.74H127.768V144.759C127.995 144.403 128.299 144.118 128.677 143.904C129.055 143.686 129.486 143.576 129.969 143.576C130.507 143.576 130.946 143.688 131.288 143.911C131.634 144.134 131.878 144.447 132.02 144.848C132.594 144 133.341 143.576 134.262 143.576C134.982 143.576 135.535 143.777 135.923 144.178C136.31 144.574 136.504 145.187 136.504 146.017V151H135.28V146.427C135.28 145.935 135.239 145.581 135.157 145.367C135.08 145.148 134.936 144.973 134.727 144.841C134.517 144.709 134.271 144.643 133.988 144.643C133.478 144.643 133.054 144.813 132.717 145.155C132.38 145.493 132.211 146.035 132.211 146.782V151H130.98V146.283C130.98 145.736 130.88 145.326 130.68 145.053C130.479 144.779 130.151 144.643 129.695 144.643C129.349 144.643 129.028 144.734 128.731 144.916C128.44 145.098 128.228 145.365 128.096 145.716C127.964 146.067 127.897 146.573 127.897 147.233V151H126.667Z" fill="#212121"/>
<g filter="url(#filter2_d_2_559)">
<path d="M67.6985 180.073C68.5803 177.309 72.4197 177.309 73.3015 180.073L76.1215 188.91C76.5159 190.145 77.6469 190.982 78.923 190.982H88.0486C90.9022 190.982 92.0887 194.7 89.7801 196.408L82.3973 201.87C81.3649 202.633 80.9329 203.987 81.3272 205.223L84.1472 214.06C85.029 216.824 81.9228 219.121 79.6142 217.414L72.2314 211.952C71.199 211.188 69.801 211.188 68.7686 211.952L61.3858 217.414C59.0772 219.121 55.971 216.824 56.8528 214.06L59.6728 205.223C60.0671 203.987 59.6351 202.633 58.6027 201.87L51.2199 196.408C48.9113 194.7 50.0978 190.982 52.9514 190.982H62.077C63.3531 190.982 64.4841 190.145 64.8785 188.91L67.6985 180.073Z" fill="#3574BF"/>
</g>
<g filter="url(#filter3_d_2_559)">
<path d="M129.698 180.073C130.58 177.309 134.42 177.309 135.302 180.073L138.122 188.91C138.516 190.145 139.647 190.982 140.923 190.982H150.049C152.902 190.982 154.089 194.7 151.78 196.408L144.397 201.87C143.365 202.633 142.933 203.987 143.327 205.223L146.147 214.06C147.029 216.824 143.923 219.121 141.614 217.414L134.231 211.952C133.199 211.188 131.801 211.188 130.769 211.952L123.386 217.414C121.077 219.121 117.971 216.824 118.853 214.06L121.673 205.223C122.067 203.987 121.635 202.633 120.603 201.87L113.22 196.408C110.911 194.7 112.098 190.982 114.951 190.982H124.077C125.353 190.982 126.484 190.145 126.878 188.91L129.698 180.073Z" fill="#F8E71C"/>
</g>
<rect x="50" y="238" width="82" height="24" rx="4" fill="#FED70A"/>
<path d="M58.6289 251.78L59.8799 251.671C59.9391 252.172 60.0758 252.585 60.29 252.908C60.5088 253.227 60.846 253.487 61.3018 253.688C61.7575 253.883 62.2702 253.981 62.8398 253.981C63.3457 253.981 63.7923 253.906 64.1797 253.756C64.5671 253.605 64.8542 253.4 65.041 253.141C65.2324 252.876 65.3281 252.589 65.3281 252.279C65.3281 251.965 65.237 251.691 65.0547 251.459C64.8724 251.222 64.5716 251.024 64.1523 250.864C63.8835 250.759 63.2887 250.598 62.3682 250.379C61.4476 250.156 60.8027 249.946 60.4336 249.75C59.9551 249.499 59.5973 249.189 59.3604 248.82C59.1279 248.447 59.0117 248.03 59.0117 247.569C59.0117 247.063 59.1553 246.592 59.4424 246.154C59.7295 245.712 60.1488 245.377 60.7002 245.149C61.2516 244.922 61.8646 244.808 62.5391 244.808C63.2819 244.808 63.9359 244.928 64.501 245.17C65.0706 245.407 65.5081 245.758 65.8135 246.223C66.1188 246.688 66.2829 247.214 66.3057 247.802L65.0342 247.897C64.9658 247.264 64.7334 246.785 64.3369 246.462C63.945 246.138 63.3639 245.977 62.5938 245.977C61.7917 245.977 61.2061 246.125 60.8369 246.421C60.4723 246.713 60.29 247.066 60.29 247.48C60.29 247.84 60.4199 248.137 60.6797 248.369C60.9349 248.602 61.6003 248.841 62.6758 249.087C63.7559 249.328 64.4964 249.54 64.8975 249.723C65.4808 249.992 65.9115 250.333 66.1895 250.748C66.4674 251.158 66.6064 251.632 66.6064 252.17C66.6064 252.703 66.4538 253.207 66.1484 253.681C65.8431 254.15 65.4033 254.517 64.8291 254.781C64.2594 255.041 63.6169 255.171 62.9014 255.171C61.9945 255.171 61.2334 255.039 60.6182 254.774C60.0075 254.51 59.5267 254.114 59.1758 253.585C58.8294 253.052 58.6471 252.45 58.6289 251.78ZM70.9473 253.899L71.125 254.986C70.7786 255.059 70.4688 255.096 70.1953 255.096C69.7487 255.096 69.4023 255.025 69.1562 254.884C68.9102 254.743 68.737 254.558 68.6367 254.33C68.5365 254.098 68.4863 253.612 68.4863 252.874V248.697H67.584V247.74H68.4863V245.942L69.71 245.204V247.74H70.9473V248.697H69.71V252.942C69.71 253.293 69.7305 253.519 69.7715 253.619C69.8171 253.719 69.8877 253.799 69.9834 253.858C70.0837 253.918 70.2249 253.947 70.4072 253.947C70.5439 253.947 70.724 253.931 70.9473 253.899ZM76.8945 254.104C76.4388 254.492 75.999 254.765 75.5752 254.925C75.1559 255.084 74.7048 255.164 74.2217 255.164C73.4242 255.164 72.8112 254.97 72.3828 254.583C71.9544 254.191 71.7402 253.692 71.7402 253.086C71.7402 252.73 71.82 252.407 71.9795 252.115C72.1436 251.819 72.3555 251.582 72.6152 251.404C72.8796 251.227 73.1758 251.092 73.5039 251.001C73.7454 250.937 74.11 250.876 74.5977 250.816C75.5911 250.698 76.3226 250.557 76.792 250.393C76.7965 250.224 76.7988 250.117 76.7988 250.071C76.7988 249.57 76.6826 249.217 76.4502 249.012C76.1357 248.734 75.6686 248.595 75.0488 248.595C74.4701 248.595 74.0417 248.697 73.7637 248.902C73.4902 249.103 73.2874 249.461 73.1553 249.976L71.9521 249.812C72.0615 249.297 72.2415 248.882 72.4922 248.567C72.7428 248.248 73.1051 248.005 73.5791 247.836C74.0531 247.663 74.6022 247.576 75.2266 247.576C75.8464 247.576 76.3499 247.649 76.7373 247.795C77.1247 247.941 77.4095 248.125 77.5918 248.349C77.7741 248.567 77.9017 248.845 77.9746 249.183C78.0156 249.392 78.0361 249.771 78.0361 250.317V251.958C78.0361 253.102 78.0612 253.826 78.1113 254.132C78.166 254.433 78.2708 254.722 78.4258 255H77.1406C77.013 254.745 76.931 254.446 76.8945 254.104ZM76.792 251.356C76.3454 251.539 75.6755 251.694 74.7822 251.821C74.2764 251.894 73.9186 251.976 73.709 252.067C73.4993 252.159 73.3376 252.293 73.2236 252.471C73.1097 252.644 73.0527 252.838 73.0527 253.052C73.0527 253.38 73.1758 253.653 73.4219 253.872C73.6725 254.091 74.0371 254.2 74.5156 254.2C74.9896 254.2 75.4111 254.098 75.7803 253.893C76.1494 253.683 76.4206 253.398 76.5938 253.038C76.7259 252.76 76.792 252.35 76.792 251.808V251.356ZM79.9365 255V247.74H81.0439V248.841C81.3265 248.326 81.5863 247.986 81.8232 247.822C82.0648 247.658 82.3291 247.576 82.6162 247.576C83.0309 247.576 83.4525 247.708 83.8809 247.973L83.457 249.114C83.1562 248.937 82.8555 248.848 82.5547 248.848C82.2858 248.848 82.0443 248.93 81.8301 249.094C81.6159 249.253 81.4632 249.477 81.3721 249.764C81.2354 250.201 81.167 250.68 81.167 251.199V255H79.9365ZM83.6895 255.171L86.5947 244.808H87.5791L84.6807 255.171H83.6895ZM88.6113 255V244.979H89.9375V253.817H94.873V255H88.6113ZM101.039 254.104C100.583 254.492 100.144 254.765 99.7197 254.925C99.3005 255.084 98.8493 255.164 98.3662 255.164C97.5687 255.164 96.9557 254.97 96.5273 254.583C96.099 254.191 95.8848 253.692 95.8848 253.086C95.8848 252.73 95.9645 252.407 96.124 252.115C96.2881 251.819 96.5 251.582 96.7598 251.404C97.0241 251.227 97.3203 251.092 97.6484 251.001C97.89 250.937 98.2546 250.876 98.7422 250.816C99.7357 250.698 100.467 250.557 100.937 250.393C100.941 250.224 100.943 250.117 100.943 250.071C100.943 249.57 100.827 249.217 100.595 249.012C100.28 248.734 99.8132 248.595 99.1934 248.595C98.6146 248.595 98.1862 248.697 97.9082 248.902C97.6348 249.103 97.432 249.461 97.2998 249.976L96.0967 249.812C96.2061 249.297 96.3861 248.882 96.6367 248.567C96.8874 248.248 97.2497 248.005 97.7236 247.836C98.1976 247.663 98.7467 247.576 99.3711 247.576C99.9909 247.576 100.494 247.649 100.882 247.795C101.269 247.941 101.554 248.125 101.736 248.349C101.919 248.567 102.046 248.845 102.119 249.183C102.16 249.392 102.181 249.771 102.181 250.317V251.958C102.181 253.102 102.206 253.826 102.256 254.132C102.311 254.433 102.415 254.722 102.57 255H101.285C101.158 254.745 101.076 254.446 101.039 254.104ZM100.937 251.356C100.49 251.539 99.82 251.694 98.9268 251.821C98.4209 251.894 98.0632 251.976 97.8535 252.067C97.6439 252.159 97.4821 252.293 97.3682 252.471C97.2542 252.644 97.1973 252.838 97.1973 253.052C97.1973 253.38 97.3203 253.653 97.5664 253.872C97.8171 254.091 98.1816 254.2 98.6602 254.2C99.1341 254.2 99.5557 254.098 99.9248 253.893C100.294 253.683 100.565 253.398 100.738 253.038C100.87 252.76 100.937 252.35 100.937 251.808V251.356ZM104.081 255V247.74H105.188V248.841C105.471 248.326 105.731 247.986 105.968 247.822C106.209 247.658 106.474 247.576 106.761 247.576C107.175 247.576 107.597 247.708 108.025 247.973L107.602 249.114C107.301 248.937 107 248.848 106.699 248.848C106.43 248.848 106.189 248.93 105.975 249.094C105.76 249.253 105.608 249.477 105.517 249.764C105.38 250.201 105.312 250.68 105.312 251.199V255H104.081ZM108.531 255.602L109.728 255.779C109.778 256.148 109.917 256.417 110.145 256.586C110.45 256.814 110.867 256.928 111.396 256.928C111.965 256.928 112.405 256.814 112.715 256.586C113.025 256.358 113.234 256.039 113.344 255.629C113.408 255.378 113.437 254.852 113.433 254.05C112.895 254.683 112.225 255 111.423 255C110.425 255 109.652 254.64 109.105 253.92C108.559 253.2 108.285 252.336 108.285 251.329C108.285 250.636 108.41 249.998 108.661 249.415C108.912 248.827 109.274 248.374 109.748 248.055C110.227 247.736 110.787 247.576 111.43 247.576C112.286 247.576 112.993 247.923 113.549 248.615V247.74H114.684V254.016C114.684 255.146 114.567 255.946 114.335 256.415C114.107 256.889 113.743 257.263 113.241 257.536C112.744 257.81 112.132 257.946 111.402 257.946C110.536 257.946 109.837 257.75 109.304 257.358C108.771 256.971 108.513 256.385 108.531 255.602ZM109.55 251.24C109.55 252.193 109.739 252.888 110.117 253.325C110.495 253.763 110.969 253.981 111.539 253.981C112.104 253.981 112.578 253.765 112.961 253.332C113.344 252.895 113.535 252.211 113.535 251.281C113.535 250.393 113.337 249.723 112.94 249.271C112.549 248.82 112.075 248.595 111.519 248.595C110.972 248.595 110.507 248.818 110.124 249.265C109.741 249.707 109.55 250.365 109.55 251.24ZM121.52 252.662L122.791 252.819C122.59 253.562 122.219 254.139 121.677 254.549C121.134 254.959 120.442 255.164 119.599 255.164C118.537 255.164 117.694 254.838 117.069 254.187C116.45 253.53 116.14 252.612 116.14 251.432C116.14 250.21 116.454 249.262 117.083 248.588C117.712 247.913 118.528 247.576 119.53 247.576C120.501 247.576 121.294 247.907 121.909 248.567C122.524 249.228 122.832 250.158 122.832 251.356C122.832 251.429 122.83 251.539 122.825 251.685H117.411C117.457 252.482 117.682 253.093 118.088 253.517C118.493 253.94 118.999 254.152 119.605 254.152C120.057 254.152 120.442 254.034 120.761 253.797C121.08 253.56 121.333 253.182 121.52 252.662ZM117.479 250.673H121.533C121.479 250.062 121.324 249.604 121.068 249.299C120.676 248.825 120.168 248.588 119.544 248.588C118.979 248.588 118.503 248.777 118.115 249.155C117.732 249.534 117.521 250.039 117.479 250.673Z" fill="#212121"/>
<path d="M90.6794 289.418C92.6081 286.107 97.3919 286.107 99.3206 289.418L108.439 305.073C109.145 306.286 110.329 307.146 111.701 307.443L129.408 311.277C133.153 312.088 134.631 316.638 132.078 319.496L120.007 333.005C119.071 334.052 118.619 335.444 118.761 336.84L120.586 354.865C120.972 358.678 117.101 361.489 113.595 359.944L97.0162 352.638C95.7317 352.072 94.2683 352.072 92.9838 352.638L76.4052 359.944C72.8985 361.489 69.0284 358.678 69.4144 354.865L71.2394 336.84C71.3808 335.444 70.9286 334.052 69.9933 333.005L57.9222 319.496C55.3689 316.638 56.8472 312.088 60.5925 311.277L78.2989 307.443C79.6709 307.146 80.8547 306.286 81.5612 305.073L90.6794 289.418Z" fill="#519EE6"/>
<g clip-path="url(#clip0_2_559)">
<g filter="url(#filter4_d_2_559)">
<path d="M90.6794 289.418C92.6081 286.107 97.3919 286.107 99.3206 289.418L108.439 305.073C109.145 306.286 110.329 307.146 111.701 307.443L129.408 311.277C133.153 312.088 134.631 316.638 132.078 319.496L120.007 333.005C119.071 334.052 118.619 335.444 118.761 336.84L120.586 354.865C120.972 358.678 117.101 361.489 113.595 359.944L97.0162 352.638C95.7317 352.072 94.2683 352.072 92.9838 352.638L76.4052 359.944C72.8985 361.489 69.0284 358.678 69.4144 354.865L71.2394 336.84C71.3808 335.444 70.9286 334.052 69.9933 333.005L57.9222 319.496C55.3689 316.638 56.8472 312.088 60.5925 311.277L78.2989 307.443C79.6709 307.146 80.8547 306.286 81.5612 305.073L90.6794 289.418Z" fill="#519EE6"/>
</g>
</g>
<g filter="url(#filter5_i_2_559)">
<g filter="url(#filter6_d_2_559)">
<path d="M92.2761 298.58C93.3757 296.347 96.5592 296.347 97.6588 298.58L104.237 311.938C104.673 312.824 105.518 313.439 106.496 313.581L121.215 315.724C123.674 316.083 124.657 319.103 122.879 320.839L112.22 331.252C111.515 331.941 111.193 332.933 111.359 333.904L113.874 348.601C114.294 351.053 111.72 352.921 109.519 351.761L96.3658 344.831C95.4906 344.37 94.4443 344.37 93.569 344.831L80.4158 351.761C78.2153 352.921 75.6408 351.053 76.0604 348.601L78.5756 333.904C78.7419 332.933 78.4202 331.941 77.715 331.252L67.0555 320.839C65.2782 319.103 66.261 316.083 68.7196 315.724L83.4391 313.581C84.4168 313.439 85.2616 312.824 85.6981 311.938L92.2761 298.58Z" fill="#3574BF"/>
</g>
</g>
<path d="M200.679 289.418C202.608 286.107 207.392 286.107 209.321 289.418L218.439 305.073C219.145 306.286 220.329 307.146 221.701 307.443L239.408 311.277C243.153 312.088 244.631 316.638 242.078 319.496L230.007 333.005C229.071 334.052 228.619 335.444 228.761 336.84L230.586 354.865C230.972 358.678 227.101 361.489 223.595 359.944L207.016 352.638C205.732 352.072 204.268 352.072 202.984 352.638L186.405 359.944C182.899 361.489 179.028 358.678 179.414 354.865L181.239 336.84C181.381 335.444 180.929 334.052 179.993 333.005L167.922 319.496C165.369 316.638 166.847 312.088 170.592 311.277L188.299 307.443C189.671 307.146 190.855 306.286 191.561 305.073L200.679 289.418Z" fill="#519EE6"/>
<g clip-path="url(#clip1_2_559)">
<g filter="url(#filter7_d_2_559)">
<path d="M200.679 289.418C202.608 286.107 207.392 286.107 209.321 289.418L218.439 305.073C219.145 306.286 220.329 307.146 221.701 307.443L239.408 311.277C243.153 312.088 244.631 316.638 242.078 319.496L230.007 333.005C229.071 334.052 228.619 335.444 228.761 336.84L230.586 354.865C230.972 358.678 227.101 361.489 223.595 359.944L207.016 352.638C205.732 352.072 204.268 352.072 202.984 352.638L186.405 359.944C182.899 361.489 179.028 358.678 179.414 354.865L181.239 336.84C181.381 335.444 180.929 334.052 179.993 333.005L167.922 319.496C165.369 316.638 166.847 312.088 170.592 311.277L188.299 307.443C189.671 307.146 190.855 306.286 191.561 305.073L200.679 289.418Z" fill="#519EE6"/>
</g>
</g>
<g filter="url(#filter8_d_2_559)">
<path d="M202.276 298.58C203.376 296.347 206.559 296.347 207.659 298.58L214.237 311.938C214.673 312.824 215.518 313.439 216.496 313.581L231.215 315.724C233.674 316.083 234.657 319.103 232.879 320.839L222.22 331.252C221.515 331.941 221.193 332.933 221.359 333.904L223.874 348.601C224.294 351.053 221.72 352.921 219.519 351.761L206.366 344.831C205.491 344.37 204.444 344.37 203.569 344.831L190.416 351.761C188.215 352.921 185.641 351.053 186.06 348.601L188.576 333.904C188.742 332.933 188.42 331.941 187.715 331.252L177.056 320.839C175.278 319.103 176.261 316.083 178.72 315.724L193.439 313.581C194.417 313.439 195.262 312.824 195.698 311.938L202.276 298.58Z" fill="#F8E71C"/>
</g>
<rect x="300" y="50" width="124" height="24" rx="4" fill="#FED70A"/>
<path d="M308.629 63.7803L309.88 63.6709C309.939 64.1722 310.076 64.5846 310.29 64.9082C310.509 65.2272 310.846 65.487 311.302 65.6875C311.757 65.8835 312.27 65.9814 312.84 65.9814C313.346 65.9814 313.792 65.9062 314.18 65.7559C314.567 65.6055 314.854 65.4004 315.041 65.1406C315.232 64.8763 315.328 64.5892 315.328 64.2793C315.328 63.9648 315.237 63.6914 315.055 63.459C314.872 63.222 314.572 63.0238 314.152 62.8643C313.883 62.7594 313.289 62.5977 312.368 62.3789C311.448 62.1556 310.803 61.946 310.434 61.75C309.955 61.4993 309.597 61.1895 309.36 60.8203C309.128 60.4466 309.012 60.0296 309.012 59.5693C309.012 59.0635 309.155 58.5918 309.442 58.1543C309.729 57.7122 310.149 57.3773 310.7 57.1494C311.252 56.9215 311.865 56.8076 312.539 56.8076C313.282 56.8076 313.936 56.9284 314.501 57.1699C315.071 57.4069 315.508 57.7578 315.813 58.2227C316.119 58.6875 316.283 59.2139 316.306 59.8018L315.034 59.8975C314.966 59.264 314.733 58.7855 314.337 58.4619C313.945 58.1383 313.364 57.9766 312.594 57.9766C311.792 57.9766 311.206 58.1247 310.837 58.4209C310.472 58.7126 310.29 59.0658 310.29 59.4805C310.29 59.8405 310.42 60.1367 310.68 60.3691C310.935 60.6016 311.6 60.8408 312.676 61.0869C313.756 61.3285 314.496 61.5404 314.897 61.7227C315.481 61.9915 315.911 62.3333 316.189 62.748C316.467 63.1582 316.606 63.6322 316.606 64.1699C316.606 64.7031 316.454 65.2067 316.148 65.6807C315.843 66.1501 315.403 66.5169 314.829 66.7812C314.259 67.041 313.617 67.1709 312.901 67.1709C311.994 67.1709 311.233 67.0387 310.618 66.7744C310.007 66.5101 309.527 66.1136 309.176 65.585C308.829 65.0518 308.647 64.4502 308.629 63.7803ZM320.947 65.8994L321.125 66.9863C320.779 67.0592 320.469 67.0957 320.195 67.0957C319.749 67.0957 319.402 67.0251 319.156 66.8838C318.91 66.7425 318.737 66.5579 318.637 66.3301C318.536 66.0977 318.486 65.6123 318.486 64.874V60.6973H317.584V59.7402H318.486V57.9424L319.71 57.2041V59.7402H320.947V60.6973H319.71V64.9424C319.71 65.2933 319.73 65.5189 319.771 65.6191C319.817 65.7194 319.888 65.7992 319.983 65.8584C320.084 65.9176 320.225 65.9473 320.407 65.9473C320.544 65.9473 320.724 65.9313 320.947 65.8994ZM326.895 66.1045C326.439 66.4919 325.999 66.7653 325.575 66.9248C325.156 67.0843 324.705 67.1641 324.222 67.1641C323.424 67.1641 322.811 66.9704 322.383 66.583C321.954 66.1911 321.74 65.6921 321.74 65.0859C321.74 64.7305 321.82 64.4069 321.979 64.1152C322.144 63.819 322.355 63.582 322.615 63.4043C322.88 63.2266 323.176 63.0921 323.504 63.001C323.745 62.9372 324.11 62.8757 324.598 62.8164C325.591 62.6979 326.323 62.5566 326.792 62.3926C326.797 62.224 326.799 62.1169 326.799 62.0713C326.799 61.57 326.683 61.2168 326.45 61.0117C326.136 60.7337 325.669 60.5947 325.049 60.5947C324.47 60.5947 324.042 60.6973 323.764 60.9023C323.49 61.1029 323.287 61.4606 323.155 61.9756L321.952 61.8115C322.062 61.2965 322.242 60.8818 322.492 60.5674C322.743 60.2484 323.105 60.0046 323.579 59.8359C324.053 59.6628 324.602 59.5762 325.227 59.5762C325.846 59.5762 326.35 59.6491 326.737 59.7949C327.125 59.9408 327.41 60.1253 327.592 60.3486C327.774 60.5674 327.902 60.8454 327.975 61.1826C328.016 61.3923 328.036 61.7705 328.036 62.3174V63.958C328.036 65.1019 328.061 65.8265 328.111 66.1318C328.166 66.4326 328.271 66.722 328.426 67H327.141C327.013 66.7448 326.931 66.4463 326.895 66.1045ZM326.792 63.3564C326.345 63.5387 325.675 63.6937 324.782 63.8213C324.276 63.8942 323.919 63.9762 323.709 64.0674C323.499 64.1585 323.338 64.293 323.224 64.4707C323.11 64.6439 323.053 64.8376 323.053 65.0518C323.053 65.3799 323.176 65.6533 323.422 65.8721C323.673 66.0908 324.037 66.2002 324.516 66.2002C324.99 66.2002 325.411 66.0977 325.78 65.8926C326.149 65.6829 326.421 65.3981 326.594 65.0381C326.726 64.7601 326.792 64.3499 326.792 63.8076V63.3564ZM329.937 67V59.7402H331.044V60.8408C331.326 60.3258 331.586 59.9863 331.823 59.8223C332.065 59.6582 332.329 59.5762 332.616 59.5762C333.031 59.5762 333.452 59.7083 333.881 59.9727L333.457 61.1143C333.156 60.9365 332.855 60.8477 332.555 60.8477C332.286 60.8477 332.044 60.9297 331.83 61.0938C331.616 61.2533 331.463 61.4766 331.372 61.7637C331.235 62.2012 331.167 62.6797 331.167 63.1992V67H329.937ZM333.689 67.1709L336.595 56.8076H337.579L334.681 67.1709H333.689ZM338.215 63.7803L339.466 63.6709C339.525 64.1722 339.662 64.5846 339.876 64.9082C340.095 65.2272 340.432 65.487 340.888 65.6875C341.343 65.8835 341.856 65.9814 342.426 65.9814C342.932 65.9814 343.378 65.9062 343.766 65.7559C344.153 65.6055 344.44 65.4004 344.627 65.1406C344.818 64.8763 344.914 64.5892 344.914 64.2793C344.914 63.9648 344.823 63.6914 344.641 63.459C344.458 63.222 344.158 63.0238 343.738 62.8643C343.469 62.7594 342.875 62.5977 341.954 62.3789C341.034 62.1556 340.389 61.946 340.02 61.75C339.541 61.4993 339.183 61.1895 338.946 60.8203C338.714 60.4466 338.598 60.0296 338.598 59.5693C338.598 59.0635 338.741 58.5918 339.028 58.1543C339.315 57.7122 339.735 57.3773 340.286 57.1494C340.838 56.9215 341.451 56.8076 342.125 56.8076C342.868 56.8076 343.522 56.9284 344.087 57.1699C344.657 57.4069 345.094 57.7578 345.399 58.2227C345.705 58.6875 345.869 59.2139 345.892 59.8018L344.62 59.8975C344.552 59.264 344.319 58.7855 343.923 58.4619C343.531 58.1383 342.95 57.9766 342.18 57.9766C341.378 57.9766 340.792 58.1247 340.423 58.4209C340.058 58.7126 339.876 59.0658 339.876 59.4805C339.876 59.8405 340.006 60.1367 340.266 60.3691C340.521 60.6016 341.186 60.8408 342.262 61.0869C343.342 61.3285 344.082 61.5404 344.483 61.7227C345.067 61.9915 345.497 62.3333 345.775 62.748C346.053 63.1582 346.192 63.6322 346.192 64.1699C346.192 64.7031 346.04 65.2067 345.734 65.6807C345.429 66.1501 344.989 66.5169 344.415 66.7812C343.845 67.041 343.203 67.1709 342.487 67.1709C341.58 67.1709 340.819 67.0387 340.204 66.7744C339.593 66.5101 339.113 66.1136 338.762 65.585C338.415 65.0518 338.233 64.4502 338.215 63.7803ZM347.847 67V59.7402H348.947V60.7588C349.175 60.4033 349.478 60.1185 349.856 59.9043C350.235 59.6855 350.665 59.5762 351.148 59.5762C351.686 59.5762 352.126 59.6878 352.468 59.9111C352.814 60.1344 353.058 60.4466 353.199 60.8477C353.773 60 354.521 59.5762 355.441 59.5762C356.161 59.5762 356.715 59.7767 357.103 60.1777C357.49 60.5742 357.684 61.1872 357.684 62.0166V67H356.46V62.4268C356.46 61.9346 356.419 61.5814 356.337 61.3672C356.259 61.1484 356.116 60.973 355.906 60.8408C355.697 60.7087 355.451 60.6426 355.168 60.6426C354.658 60.6426 354.234 60.8135 353.896 61.1553C353.559 61.4925 353.391 62.0348 353.391 62.7822V67H352.16V62.2832C352.16 61.7363 352.06 61.3262 351.859 61.0527C351.659 60.7793 351.331 60.6426 350.875 60.6426C350.529 60.6426 350.207 60.7337 349.911 60.916C349.619 61.0983 349.408 61.3649 349.275 61.7158C349.143 62.0667 349.077 62.5726 349.077 63.2334V67H347.847ZM364.246 66.1045C363.79 66.4919 363.351 66.7653 362.927 66.9248C362.507 67.0843 362.056 67.1641 361.573 67.1641C360.776 67.1641 360.163 66.9704 359.734 66.583C359.306 66.1911 359.092 65.6921 359.092 65.0859C359.092 64.7305 359.172 64.4069 359.331 64.1152C359.495 63.819 359.707 63.582 359.967 63.4043C360.231 63.2266 360.527 63.0921 360.855 63.001C361.097 62.9372 361.462 62.8757 361.949 62.8164C362.943 62.6979 363.674 62.5566 364.144 62.3926C364.148 62.224 364.15 62.1169 364.15 62.0713C364.15 61.57 364.034 61.2168 363.802 61.0117C363.487 60.7337 363.02 60.5947 362.4 60.5947C361.822 60.5947 361.393 60.6973 361.115 60.9023C360.842 61.1029 360.639 61.4606 360.507 61.9756L359.304 61.8115C359.413 61.2965 359.593 60.8818 359.844 60.5674C360.094 60.2484 360.457 60.0046 360.931 59.8359C361.405 59.6628 361.954 59.5762 362.578 59.5762C363.198 59.5762 363.701 59.6491 364.089 59.7949C364.476 59.9408 364.761 60.1253 364.943 60.3486C365.126 60.5674 365.253 60.8454 365.326 61.1826C365.367 61.3923 365.388 61.7705 365.388 62.3174V63.958C365.388 65.1019 365.413 65.8265 365.463 66.1318C365.518 66.4326 365.622 66.722 365.777 67H364.492C364.365 66.7448 364.283 66.4463 364.246 66.1045ZM364.144 63.3564C363.697 63.5387 363.027 63.6937 362.134 63.8213C361.628 63.8942 361.27 63.9762 361.061 64.0674C360.851 64.1585 360.689 64.293 360.575 64.4707C360.461 64.6439 360.404 64.8376 360.404 65.0518C360.404 65.3799 360.527 65.6533 360.773 65.8721C361.024 66.0908 361.389 66.2002 361.867 66.2002C362.341 66.2002 362.763 66.0977 363.132 65.8926C363.501 65.6829 363.772 65.3981 363.945 65.0381C364.077 64.7601 364.144 64.3499 364.144 63.8076V63.3564ZM367.274 67V56.9785H368.505V67H367.274ZM370.392 67V56.9785H371.622V67H370.392ZM372.613 67.1709L375.519 56.8076H376.503L373.604 67.1709H372.613ZM382.279 63.0693V61.8936L386.524 61.8867V65.6055C385.873 66.125 385.201 66.5169 384.508 66.7812C383.815 67.041 383.104 67.1709 382.375 67.1709C381.391 67.1709 380.495 66.9613 379.688 66.542C378.886 66.1182 378.28 65.5075 377.87 64.71C377.46 63.9124 377.255 63.0215 377.255 62.0371C377.255 61.0618 377.458 60.1527 377.863 59.3096C378.273 58.4619 378.861 57.833 379.627 57.4229C380.393 57.0127 381.274 56.8076 382.272 56.8076C382.997 56.8076 383.651 56.9261 384.234 57.1631C384.822 57.3955 385.283 57.7214 385.615 58.1406C385.948 58.5599 386.201 59.1068 386.374 59.7812L385.178 60.1094C385.027 59.599 384.84 59.1979 384.617 58.9062C384.394 58.6146 384.075 58.3822 383.66 58.209C383.245 58.0312 382.785 57.9424 382.279 57.9424C381.673 57.9424 381.149 58.0358 380.707 58.2227C380.265 58.4049 379.907 58.6465 379.634 58.9473C379.365 59.248 379.155 59.5785 379.005 59.9385C378.75 60.5583 378.622 61.2305 378.622 61.9551C378.622 62.8483 378.775 63.5957 379.08 64.1973C379.39 64.7988 379.839 65.2454 380.427 65.5371C381.015 65.8288 381.639 65.9746 382.3 65.9746C382.874 65.9746 383.435 65.8652 383.981 65.6465C384.528 65.4232 384.943 65.1862 385.226 64.9355V63.0693H382.279ZM388.315 67V59.7402H389.423V60.8408C389.705 60.3258 389.965 59.9863 390.202 59.8223C390.444 59.6582 390.708 59.5762 390.995 59.5762C391.41 59.5762 391.831 59.7083 392.26 59.9727L391.836 61.1143C391.535 60.9365 391.234 60.8477 390.934 60.8477C390.665 60.8477 390.423 60.9297 390.209 61.0938C389.995 61.2533 389.842 61.4766 389.751 61.7637C389.614 62.2012 389.546 62.6797 389.546 63.1992V67H388.315ZM392.533 63.3701C392.533 62.0257 392.907 61.0299 393.654 60.3828C394.279 59.8451 395.04 59.5762 395.938 59.5762C396.936 59.5762 397.751 59.9043 398.385 60.5605C399.018 61.2122 399.335 62.1146 399.335 63.2676C399.335 64.2018 399.194 64.9378 398.911 65.4756C398.633 66.0088 398.225 66.4235 397.688 66.7197C397.154 67.016 396.571 67.1641 395.938 67.1641C394.921 67.1641 394.099 66.8382 393.47 66.1865C392.845 65.5348 392.533 64.596 392.533 63.3701ZM393.798 63.3701C393.798 64.2998 394.001 64.9971 394.406 65.4619C394.812 65.9222 395.322 66.1523 395.938 66.1523C396.548 66.1523 397.056 65.9199 397.462 65.4551C397.868 64.9902 398.07 64.2816 398.07 63.3291C398.07 62.4313 397.865 61.7523 397.455 61.292C397.049 60.8271 396.544 60.5947 395.938 60.5947C395.322 60.5947 394.812 60.8249 394.406 61.2852C394.001 61.7454 393.798 62.4404 393.798 63.3701ZM405.542 67V65.9336C404.977 66.7539 404.209 67.1641 403.238 67.1641C402.81 67.1641 402.409 67.082 402.035 66.918C401.666 66.7539 401.39 66.5488 401.208 66.3027C401.03 66.0521 400.905 65.7467 400.832 65.3867C400.782 65.1452 400.757 64.7624 400.757 64.2383V59.7402H401.987V63.7666C401.987 64.4092 402.012 64.8421 402.062 65.0654C402.14 65.389 402.304 65.6442 402.555 65.8311C402.805 66.0133 403.115 66.1045 403.484 66.1045C403.854 66.1045 404.2 66.0111 404.523 65.8242C404.847 65.6328 405.075 65.3753 405.207 65.0518C405.344 64.7236 405.412 64.2497 405.412 63.6299V59.7402H406.643V67H405.542ZM408.577 69.7822V59.7402H409.698V60.6836C409.963 60.3145 410.261 60.0387 410.594 59.8564C410.926 59.6696 411.33 59.5762 411.804 59.5762C412.424 59.5762 412.97 59.7357 413.444 60.0547C413.918 60.3737 414.276 60.8249 414.518 61.4082C414.759 61.987 414.88 62.6227 414.88 63.3154C414.88 64.0583 414.745 64.7282 414.477 65.3252C414.212 65.9176 413.825 66.3734 413.314 66.6924C412.809 67.0068 412.275 67.1641 411.715 67.1641C411.305 67.1641 410.936 67.0775 410.607 66.9043C410.284 66.7311 410.017 66.5124 409.808 66.248V69.7822H408.577ZM409.691 63.4111C409.691 64.3454 409.881 65.0358 410.259 65.4824C410.637 65.929 411.095 66.1523 411.633 66.1523C412.18 66.1523 412.647 65.9222 413.034 65.4619C413.426 64.9971 413.622 64.2793 413.622 63.3086C413.622 62.3835 413.431 61.6908 413.048 61.2305C412.67 60.7702 412.216 60.54 411.688 60.54C411.163 60.54 410.699 60.7861 410.293 61.2783C409.892 61.766 409.691 62.4769 409.691 63.4111Z" fill="#212121"/>
<g clip-path="url(#clip2_2_559)">
<g filter="url(#filter9_d_2_559)">
<path d="M309.065 95.0363C309.517 93.6546 311.483 93.6546 311.935 95.0363L313.379 99.4548C313.581 100.073 314.161 100.491 314.814 100.491H319.488C320.95 100.491 321.558 102.35 320.375 103.204L316.594 105.935C316.065 106.317 315.844 106.994 316.046 107.612L317.49 112.03C317.942 113.412 316.351 114.561 315.168 113.707L311.387 110.976C310.858 110.594 310.142 110.594 309.613 110.976L305.832 113.707C304.649 114.561 303.058 113.412 303.51 112.03L304.954 107.612C305.156 106.994 304.935 106.317 304.406 105.935L300.625 103.204C299.442 102.35 300.05 100.491 301.512 100.491H306.186C306.839 100.491 307.419 100.073 307.621 99.4548L309.065 95.0363Z" fill="#3574BF"/>
</g>
<g filter="url(#filter10_d_2_559)">
<path d="M332.065 95.0363C332.517 93.6546 334.483 93.6546 334.935 95.0363L336.379 99.4548C336.581 100.073 337.161 100.491 337.814 100.491H342.488C343.95 100.491 344.558 102.35 343.375 103.204L339.594 105.935C339.065 106.317 338.844 106.994 339.046 107.612L340.49 112.03C340.942 113.412 339.351 114.561 338.168 113.707L334.387 110.976C333.858 110.594 333.142 110.594 332.613 110.976L328.832 113.707C327.649 114.561 326.058 113.412 326.51 112.03L327.954 107.612C328.156 106.994 327.935 106.317 327.406 105.935L323.625 103.204C322.442 102.35 323.05 100.491 324.512 100.491H329.186C329.839 100.491 330.419 100.073 330.621 99.4548L332.065 95.0363Z" fill="#3574BF"/>
</g>
<g filter="url(#filter11_d_2_559)">
<path d="M355.065 95.0363C355.517 93.6546 357.483 93.6546 357.935 95.0363L359.379 99.4548C359.581 100.073 360.161 100.491 360.814 100.491H365.488C366.95 100.491 367.558 102.35 366.375 103.204L362.594 105.935C362.065 106.317 361.844 106.994 362.046 107.612L363.49 112.03C363.942 113.412 362.351 114.561 361.168 113.707L357.387 110.976C356.858 110.594 356.142 110.594 355.613 110.976L351.832 113.707C350.649 114.561 349.058 113.412 349.51 112.03L350.954 107.612C351.156 106.994 350.935 106.317 350.406 105.935L346.625 103.204C345.442 102.35 346.05 100.491 347.512 100.491H352.186C352.839 100.491 353.419 100.073 353.621 99.4548L355.065 95.0363Z" fill="#3574BF"/>
</g>
<g filter="url(#filter12_d_2_559)">
<path d="M309.065 135.036C309.517 133.655 311.483 133.655 311.935 135.036L313.379 139.455C313.581 140.073 314.161 140.491 314.814 140.491H319.488C320.95 140.491 321.558 142.35 320.375 143.204L316.594 145.935C316.065 146.317 315.844 146.994 316.046 147.612L317.49 152.03C317.942 153.412 316.351 154.561 315.168 153.707L311.387 150.976C310.858 150.594 310.142 150.594 309.613 150.976L305.832 153.707C304.649 154.561 303.058 153.412 303.51 152.03L304.954 147.612C305.156 146.994 304.935 146.317 304.406 145.935L300.625 143.204C299.442 142.35 300.05 140.491 301.512 140.491H306.186C306.839 140.491 307.419 140.073 307.621 139.455L309.065 135.036Z" fill="#F8E71C"/>
</g>
<g filter="url(#filter13_d_2_559)">
<path d="M332.065 135.036C332.517 133.655 334.483 133.655 334.935 135.036L336.379 139.455C336.581 140.073 337.161 140.491 337.814 140.491H342.488C343.95 140.491 344.558 142.35 343.375 143.204L339.594 145.935C339.065 146.317 338.844 146.994 339.046 147.612L340.49 152.03C340.942 153.412 339.351 154.561 338.168 153.707L334.387 150.976C333.858 150.594 333.142 150.594 332.613 150.976L328.832 153.707C327.649 154.561 326.058 153.412 326.51 152.03L327.954 147.612C328.156 146.994 327.935 146.317 327.406 145.935L323.625 143.204C322.442 142.35 323.05 140.491 324.512 140.491H329.186C329.839 140.491 330.419 140.073 330.621 139.455L332.065 135.036Z" fill="#F8E71C"/>
</g>
<g filter="url(#filter14_d_2_559)">
<path d="M355.065 135.036C355.517 133.655 357.483 133.655 357.935 135.036L359.379 139.455C359.581 140.073 360.161 140.491 360.814 140.491H365.488C366.95 140.491 367.558 142.35 366.375 143.204L362.594 145.935C362.065 146.317 361.844 146.994 362.046 147.612L363.49 152.03C363.942 153.412 362.351 154.561 361.168 153.707L357.387 150.976C356.858 150.594 356.142 150.594 355.613 150.976L351.832 153.707C350.649 154.561 349.058 153.412 349.51 152.03L350.954 147.612C351.156 146.994 350.935 146.317 350.406 145.935L346.625 143.204C345.442 142.35 346.05 140.491 347.512 140.491H352.186C352.839 140.491 353.419 140.073 353.621 139.455L355.065 135.036Z" fill="#F8E71C"/>
</g>
<g filter="url(#filter15_d_2_559)">
<path d="M309.065 175.036C309.517 173.655 311.483 173.655 311.935 175.036L313.379 179.455C313.581 180.073 314.161 180.491 314.814 180.491H319.488C320.95 180.491 321.558 182.35 320.375 183.204L316.594 185.935C316.065 186.317 315.844 186.994 316.046 187.612L317.49 192.03C317.942 193.412 316.351 194.561 315.168 193.707L311.387 190.976C310.858 190.594 310.142 190.594 309.613 190.976L305.832 193.707C304.649 194.561 303.058 193.412 303.51 192.03L304.954 187.612C305.156 186.994 304.935 186.317 304.406 185.935L300.625 183.204C299.442 182.35 300.05 180.491 301.512 180.491H306.186C306.839 180.491 307.419 180.073 307.621 179.455L309.065 175.036Z" fill="#3574BF"/>
</g>
<g filter="url(#filter16_d_2_559)">
<path d="M332.065 175.036C332.517 173.655 334.483 173.655 334.935 175.036L336.379 179.455C336.581 180.073 337.161 180.491 337.814 180.491H342.488C343.95 180.491 344.558 182.35 343.375 183.204L339.594 185.935C339.065 186.317 338.844 186.994 339.046 187.612L340.49 192.03C340.942 193.412 339.351 194.561 338.168 193.707L334.387 190.976C333.858 190.594 333.142 190.594 332.613 190.976L328.832 193.707C327.649 194.561 326.058 193.412 326.51 192.03L327.954 187.612C328.156 186.994 327.935 186.317 327.406 185.935L323.625 183.204C322.442 182.35 323.05 180.491 324.512 180.491H329.186C329.839 180.491 330.419 180.073 330.621 179.455L332.065 175.036Z" fill="#3574BF"/>
</g>
<g filter="url(#filter17_d_2_559)">
<path d="M355.065 175.036C355.517 173.655 357.483 173.655 357.935 175.036L359.379 179.455C359.581 180.073 360.161 180.491 360.814 180.491H365.488C366.95 180.491 367.558 182.35 366.375 183.204L362.594 185.935C362.065 186.317 361.844 186.994 362.046 187.612L363.49 192.03C363.942 193.412 362.351 194.561 361.168 193.707L357.387 190.976C356.858 190.594 356.142 190.594 355.613 190.976L351.832 193.707C350.649 194.561 349.058 193.412 349.51 192.03L350.954 187.612C351.156 186.994 350.935 186.317 350.406 185.935L346.625 183.204C345.442 182.35 346.05 180.491 347.512 180.491H352.186C352.839 180.491 353.419 180.073 353.621 179.455L355.065 175.036Z" fill="#3574BF"/>
</g>
<g filter="url(#filter18_d_2_559)">
<path d="M309.065 175.036C309.517 173.655 311.483 173.655 311.935 175.036L313.379 179.455C313.581 180.073 314.161 180.491 314.814 180.491H319.488C320.95 180.491 321.558 182.35 320.375 183.204L316.594 185.935C316.065 186.317 315.844 186.994 316.046 187.612L317.49 192.03C317.942 193.412 316.351 194.561 315.168 193.707L311.387 190.976C310.858 190.594 310.142 190.594 309.613 190.976L305.832 193.707C304.649 194.561 303.058 193.412 303.51 192.03L304.954 187.612C305.156 186.994 304.935 186.317 304.406 185.935L300.625 183.204C299.442 182.35 300.05 180.491 301.512 180.491H306.186C306.839 180.491 307.419 180.073 307.621 179.455L309.065 175.036Z" fill="#F8E71C"/>
</g>
<g filter="url(#filter19_d_2_559)">
<path d="M332.065 175.036C332.517 173.655 334.483 173.655 334.935 175.036L336.379 179.455C336.581 180.073 337.161 180.491 337.814 180.491H342.488C343.95 180.491 344.558 182.35 343.375 183.204L339.594 185.935C339.065 186.317 338.844 186.994 339.046 187.612L340.49 192.03C340.942 193.412 339.351 194.561 338.168 193.707L334.387 190.976C333.858 190.594 333.142 190.594 332.613 190.976L328.832 193.707C327.649 194.561 326.058 193.412 326.51 192.03L327.954 187.612C328.156 186.994 327.935 186.317 327.406 185.935L323.625 183.204C322.442 182.35 323.05 180.491 324.512 180.491H329.186C329.839 180.491 330.419 180.073 330.621 179.455L332.065 175.036Z" fill="#F8E71C"/>
</g>
<g filter="url(#filter20_d_2_559)">
<path d="M309.065 215.036C309.517 213.655 311.483 213.655 311.935 215.036L313.379 219.455C313.581 220.073 314.161 220.491 314.814 220.491H319.488C320.95 220.491 321.558 222.35 320.375 223.204L316.594 225.935C316.065 226.317 315.844 226.994 316.046 227.612L317.49 232.03C317.942 233.412 316.351 234.561 315.168 233.707L311.387 230.976C310.858 230.594 310.142 230.594 309.613 230.976L305.832 233.707C304.649 234.561 303.058 233.412 303.51 232.03L304.954 227.612C305.156 226.994 304.935 226.317 304.406 225.935L300.625 223.204C299.442 222.35 300.05 220.491 301.512 220.491H306.186C306.839 220.491 307.419 220.073 307.621 219.455L309.065 215.036Z" fill="#3574BF"/>
</g>
<g filter="url(#filter21_d_2_559)">
<path d="M332.065 215.036C332.517 213.655 334.483 213.655 334.935 215.036L336.379 219.455C336.581 220.073 337.161 220.491 337.814 220.491H342.488C343.95 220.491 344.558 222.35 343.375 223.204L339.594 225.935C339.065 226.317 338.844 226.994 339.046 227.612L340.49 232.03C340.942 233.412 339.351 234.561 338.168 233.707L334.387 230.976C333.858 230.594 333.142 230.594 332.613 230.976L328.832 233.707C327.649 234.561 326.058 233.412 326.51 232.03L327.954 227.612C328.156 226.994 327.935 226.317 327.406 225.935L323.625 223.204C322.442 222.35 323.05 220.491 324.512 220.491H329.186C329.839 220.491 330.419 220.073 330.621 219.455L332.065 215.036Z" fill="#3574BF"/>
</g>
<g filter="url(#filter22_d_2_559)">
<path d="M355.065 215.036C355.517 213.655 357.483 213.655 357.935 215.036L359.379 219.455C359.581 220.073 360.161 220.491 360.814 220.491H365.488C366.95 220.491 367.558 222.35 366.375 223.204L362.594 225.935C362.065 226.317 361.844 226.994 362.046 227.612L363.49 232.03C363.942 233.412 362.351 234.561 361.168 233.707L357.387 230.976C356.858 230.594 356.142 230.594 355.613 230.976L351.832 233.707C350.649 234.561 349.058 233.412 349.51 232.03L350.954 227.612C351.156 226.994 350.935 226.317 350.406 225.935L346.625 223.204C345.442 222.35 346.05 220.491 347.512 220.491H352.186C352.839 220.491 353.419 220.073 353.621 219.455L355.065 215.036Z" fill="#3574BF"/>
</g>
<g filter="url(#filter23_d_2_559)">
<path d="M309.065 215.036C309.517 213.655 311.483 213.655 311.935 215.036L313.379 219.455C313.581 220.073 314.161 220.491 314.814 220.491H319.488C320.95 220.491 321.558 222.35 320.375 223.204L316.594 225.935C316.065 226.317 315.844 226.994 316.046 227.612L317.49 232.03C317.942 233.412 316.351 234.561 315.168 233.707L311.387 230.976C310.858 230.594 310.142 230.594 309.613 230.976L305.832 233.707C304.649 234.561 303.058 233.412 303.51 232.03L304.954 227.612C305.156 226.994 304.935 226.317 304.406 225.935L300.625 223.204C299.442 222.35 300.05 220.491 301.512 220.491H306.186C306.839 220.491 307.419 220.073 307.621 219.455L309.065 215.036Z" fill="#F8E71C"/>
</g>
</g>
<defs>
<filter id="filter0_d_2_559" x="49" y="94" width="23" height="22" filterUnits="userSpaceOnUse" color-interpolation-filters="sRGB">
<feFlood flood-opacity="0" result="BackgroundImageFix"/>
<feColorMatrix in="SourceAlpha" type="matrix" values="0 0 0 0 0 0 0 0 0 0 0 0 0 0 0 0 0 0 127 0" result="hardAlpha"/>
<feOffset dy="1"/>
<feGaussianBlur stdDeviation="0.5"/>
<feComposite in2="hardAlpha" operator="out"/>
<feColorMatrix type="matrix" values="0 0 0 0 0 0 0 0 0 0.1169 0 0 0 0 0.4175 0 0 0 0.6 0"/>
<feBlend mode="normal" in2="BackgroundImageFix" result="effect1_dropShadow_2_559"/>
<feBlend mode="normal" in="SourceGraphic" in2="effect1_dropShadow_2_559" result="shape"/>
</filter>
<filter id="filter1_d_2_559" x="90" y="94" width="23" height="22" filterUnits="userSpaceOnUse" color-interpolation-filters="sRGB">
<feFlood flood-opacity="0" result="BackgroundImageFix"/>
<feColorMatrix in="SourceAlpha" type="matrix" values="0 0 0 0 0 0 0 0 0 0 0 0 0 0 0 0 0 0 127 0" result="hardAlpha"/>
<feOffset dy="1"/>
<feGaussianBlur stdDeviation="0.5"/>
<feComposite in2="hardAlpha" operator="out"/>
<feColorMatrix type="matrix" values="0 0 0 0 0 0 0 0 0 0.1169 0 0 0 0 0.4175 0 0 0 0.6 0"/>
<feBlend mode="normal" in2="BackgroundImageFix" result="effect1_dropShadow_2_559"/>
<feBlend mode="normal" in="SourceGraphic" in2="effect1_dropShadow_2_559" result="shape"/>
</filter>
<filter id="filter2_d_2_559" x="49" y="178" width="43" height="42" filterUnits="userSpaceOnUse" color-interpolation-filters="sRGB">
<feFlood flood-opacity="0" result="BackgroundImageFix"/>
<feColorMatrix in="SourceAlpha" type="matrix" values="0 0 0 0 0 0 0 0 0 0 0 0 0 0 0 0 0 0 127 0" result="hardAlpha"/>
<feOffset dy="1"/>
<feGaussianBlur stdDeviation="0.5"/>
<feComposite in2="hardAlpha" operator="out"/>
<feColorMatrix type="matrix" values="0 0 0 0 0 0 0 0 0 0.1169 0 0 0 0 0.4175 0 0 0 0.6 0"/>
<feBlend mode="normal" in2="BackgroundImageFix" result="effect1_dropShadow_2_559"/>
<feBlend mode="normal" in="SourceGraphic" in2="effect1_dropShadow_2_559" result="shape"/>
</filter>
<filter id="filter3_d_2_559" x="111" y="178" width="43" height="42" filterUnits="userSpaceOnUse" color-interpolation-filters="sRGB">
<feFlood flood-opacity="0" result="BackgroundImageFix"/>
<feColorMatrix in="SourceAlpha" type="matrix" values="0 0 0 0 0 0 0 0 0 0 0 0 0 0 0 0 0 0 127 0" result="hardAlpha"/>
<feOffset dy="1"/>
<feGaussianBlur stdDeviation="0.5"/>
<feComposite in2="hardAlpha" operator="out"/>
<feColorMatrix type="matrix" values="0 0 0 0 0 0 0 0 0 0.1169 0 0 0 0 0.4175 0 0 0 0.6 0"/>
<feBlend mode="normal" in2="BackgroundImageFix" result="effect1_dropShadow_2_559"/>
<feBlend mode="normal" in="SourceGraphic" in2="effect1_dropShadow_2_559" result="shape"/>
</filter>
<filter id="filter4_d_2_559" x="55.6465" y="286.934" width="78.707" height="75.4416" filterUnits="userSpaceOnUse" color-interpolation-filters="sRGB">
<feFlood flood-opacity="0" result="BackgroundImageFix"/>
<feColorMatrix in="SourceAlpha" type="matrix" values="0 0 0 0 0 0 0 0 0 0 0 0 0 0 0 0 0 0 127 0" result="hardAlpha"/>
<feOffset dy="1"/>
<feGaussianBlur stdDeviation="0.5"/>
<feComposite in2="hardAlpha" operator="out"/>
<feColorMatrix type="matrix" values="0 0 0 0 0.0123999 0 0 0 0 0.414312 0 0 0 0 0.892778 0 0 0 1 0"/>
<feBlend mode="normal" in2="BackgroundImageFix" result="effect1_dropShadow_2_559"/>
<feBlend mode="normal" in="SourceGraphic" in2="effect1_dropShadow_2_559" result="shape"/>
</filter>
<filter id="filter5_i_2_559" x="64.625" y="295.5" width="61.875" height="60.625" filterUnits="userSpaceOnUse" color-interpolation-filters="sRGB">
<feFlood flood-opacity="0" result="BackgroundImageFix"/>
<feBlend mode="normal" in="SourceGraphic" in2="BackgroundImageFix" result="shape"/>
<feColorMatrix in="SourceAlpha" type="matrix" values="0 0 0 0 0 0 0 0 0 0 0 0 0 0 0 0 0 0 127 0" result="hardAlpha"/>
<feOffset dy="1"/>
<feGaussianBlur stdDeviation="1"/>
<feComposite in2="hardAlpha" operator="arithmetic" k2="-1" k3="1"/>
<feColorMatrix type="matrix" values="0 0 0 0 0 0 0 0 0 0.28 0 0 0 0 0.613333 0 0 0 1 0"/>
<feBlend mode="normal" in2="shape" result="effect1_innerShadow_2_559"/>
</filter>
<filter id="filter6_d_2_559" x="65.1487" y="296.906" width="59.6375" height="57.2083" filterUnits="userSpaceOnUse" color-interpolation-filters="sRGB">
<feFlood flood-opacity="0" result="BackgroundImageFix"/>
<feColorMatrix in="SourceAlpha" type="matrix" values="0 0 0 0 0 0 0 0 0 0 0 0 0 0 0 0 0 0 127 0" result="hardAlpha"/>
<feOffset dy="1"/>
<feGaussianBlur stdDeviation="0.5"/>
<feComposite in2="hardAlpha" operator="out"/>
<feColorMatrix type="matrix" values="0 0 0 0 0 0 0 0 0 0.253478 0 0 0 0 0.905278 0 0 0 0.6 0"/>
<feBlend mode="normal" in2="BackgroundImageFix" result="effect1_dropShadow_2_559"/>
<feBlend mode="normal" in="SourceGraphic" in2="effect1_dropShadow_2_559" result="shape"/>
</filter>
<filter id="filter7_d_2_559" x="165.646" y="286.934" width="78.707" height="75.4416" filterUnits="userSpaceOnUse" color-interpolation-filters="sRGB">
<feFlood flood-opacity="0" result="BackgroundImageFix"/>
<feColorMatrix in="SourceAlpha" type="matrix" values="0 0 0 0 0 0 0 0 0 0 0 0 0 0 0 0 0 0 127 0" result="hardAlpha"/>
<feOffset dy="1"/>
<feGaussianBlur stdDeviation="0.5"/>
<feComposite in2="hardAlpha" operator="out"/>
<feColorMatrix type="matrix" values="0 0 0 0 0.0123999 0 0 0 0 0.414312 0 0 0 0 0.892778 0 0 0 1 0"/>
<feBlend mode="normal" in2="BackgroundImageFix" result="effect1_dropShadow_2_559"/>
<feBlend mode="normal" in="SourceGraphic" in2="effect1_dropShadow_2_559" result="shape"/>
</filter>
<filter id="filter8_d_2_559" x="175.149" y="296.906" width="59.6375" height="57.2083" filterUnits="userSpaceOnUse" color-interpolation-filters="sRGB">
<feFlood flood-opacity="0" result="BackgroundImageFix"/>
<feColorMatrix in="SourceAlpha" type="matrix" values="0 0 0 0 0 0 0 0 0 0 0 0 0 0 0 0 0 0 127 0" result="hardAlpha"/>
<feOffset dy="1"/>
<feGaussianBlur stdDeviation="0.5"/>
<feComposite in2="hardAlpha" operator="out"/>
<feColorMatrix type="matrix" values="0 0 0 0 0 0 0 0 0 0.253478 0 0 0 0 0.905278 0 0 0 0.6 0"/>
<feBlend mode="normal" in2="BackgroundImageFix" result="effect1_dropShadow_2_559"/>
<feBlend mode="normal" in="SourceGraphic" in2="effect1_dropShadow_2_559" result="shape"/>
</filter>
<filter id="filter9_d_2_559" x="299" y="94" width="23" height="22" filterUnits="userSpaceOnUse" color-interpolation-filters="sRGB">
<feFlood flood-opacity="0" result="BackgroundImageFix"/>
<feColorMatrix in="SourceAlpha" type="matrix" values="0 0 0 0 0 0 0 0 0 0 0 0 0 0 0 0 0 0 127 0" result="hardAlpha"/>
<feOffset dy="1"/>
<feGaussianBlur stdDeviation="0.5"/>
<feComposite in2="hardAlpha" operator="out"/>
<feColorMatrix type="matrix" values="0 0 0 0 0 0 0 0 0 0.1169 0 0 0 0 0.4175 0 0 0 0.6 0"/>
<feBlend mode="normal" in2="BackgroundImageFix" result="effect1_dropShadow_2_559"/>
<feBlend mode="normal" in="SourceGraphic" in2="effect1_dropShadow_2_559" result="shape"/>
</filter>
<filter id="filter10_d_2_559" x="322" y="94" width="23" height="22" filterUnits="userSpaceOnUse" color-interpolation-filters="sRGB">
<feFlood flood-opacity="0" result="BackgroundImageFix"/>
<feColorMatrix in="SourceAlpha" type="matrix" values="0 0 0 0 0 0 0 0 0 0 0 0 0 0 0 0 0 0 127 0" result="hardAlpha"/>
<feOffset dy="1"/>
<feGaussianBlur stdDeviation="0.5"/>
<feComposite in2="hardAlpha" operator="out"/>
<feColorMatrix type="matrix" values="0 0 0 0 0 0 0 0 0 0.1169 0 0 0 0 0.4175 0 0 0 0.6 0"/>
<feBlend mode="normal" in2="BackgroundImageFix" result="effect1_dropShadow_2_559"/>
<feBlend mode="normal" in="SourceGraphic" in2="effect1_dropShadow_2_559" result="shape"/>
</filter>
<filter id="filter11_d_2_559" x="345" y="94" width="23" height="22" filterUnits="userSpaceOnUse" color-interpolation-filters="sRGB">
<feFlood flood-opacity="0" result="BackgroundImageFix"/>
<feColorMatrix in="SourceAlpha" type="matrix" values="0 0 0 0 0 0 0 0 0 0 0 0 0 0 0 0 0 0 127 0" result="hardAlpha"/>
<feOffset dy="1"/>
<feGaussianBlur stdDeviation="0.5"/>
<feComposite in2="hardAlpha" operator="out"/>
<feColorMatrix type="matrix" values="0 0 0 0 0 0 0 0 0 0.1169 0 0 0 0 0.4175 0 0 0 0.6 0"/>
<feBlend mode="normal" in2="BackgroundImageFix" result="effect1_dropShadow_2_559"/>
<feBlend mode="normal" in="SourceGraphic" in2="effect1_dropShadow_2_559" result="shape"/>
</filter>
<filter id="filter12_d_2_559" x="299" y="134" width="23" height="22" filterUnits="userSpaceOnUse" color-interpolation-filters="sRGB">
<feFlood flood-opacity="0" result="BackgroundImageFix"/>
<feColorMatrix in="SourceAlpha" type="matrix" values="0 0 0 0 0 0 0 0 0 0 0 0 0 0 0 0 0 0 127 0" result="hardAlpha"/>
<feOffset dy="1"/>
<feGaussianBlur stdDeviation="0.5"/>
<feComposite in2="hardAlpha" operator="out"/>
<feColorMatrix type="matrix" values="0 0 0 0 0 0 0 0 0 0.1169 0 0 0 0 0.4175 0 0 0 0.6 0"/>
<feBlend mode="normal" in2="BackgroundImageFix" result="effect1_dropShadow_2_559"/>
<feBlend mode="normal" in="SourceGraphic" in2="effect1_dropShadow_2_559" result="shape"/>
</filter>
<filter id="filter13_d_2_559" x="322" y="134" width="23" height="22" filterUnits="userSpaceOnUse" color-interpolation-filters="sRGB">
<feFlood flood-opacity="0" result="BackgroundImageFix"/>
<feColorMatrix in="SourceAlpha" type="matrix" values="0 0 0 0 0 0 0 0 0 0 0 0 0 0 0 0 0 0 127 0" result="hardAlpha"/>
<feOffset dy="1"/>
<feGaussianBlur stdDeviation="0.5"/>
<feComposite in2="hardAlpha" operator="out"/>
<feColorMatrix type="matrix" values="0 0 0 0 0 0 0 0 0 0.1169 0 0 0 0 0.4175 0 0 0 0.6 0"/>
<feBlend mode="normal" in2="BackgroundImageFix" result="effect1_dropShadow_2_559"/>
<feBlend mode="normal" in="SourceGraphic" in2="effect1_dropShadow_2_559" result="shape"/>
</filter>
<filter id="filter14_d_2_559" x="345" y="134" width="23" height="22" filterUnits="userSpaceOnUse" color-interpolation-filters="sRGB">
<feFlood flood-opacity="0" result="BackgroundImageFix"/>
<feColorMatrix in="SourceAlpha" type="matrix" values="0 0 0 0 0 0 0 0 0 0 0 0 0 0 0 0 0 0 127 0" result="hardAlpha"/>
<feOffset dy="1"/>
<feGaussianBlur stdDeviation="0.5"/>
<feComposite in2="hardAlpha" operator="out"/>
<feColorMatrix type="matrix" values="0 0 0 0 0 0 0 0 0 0.1169 0 0 0 0 0.4175 0 0 0 0.6 0"/>
<feBlend mode="normal" in2="BackgroundImageFix" result="effect1_dropShadow_2_559"/>
<feBlend mode="normal" in="SourceGraphic" in2="effect1_dropShadow_2_559" result="shape"/>
</filter>
<filter id="filter15_d_2_559" x="299" y="174" width="23" height="22" filterUnits="userSpaceOnUse" color-interpolation-filters="sRGB">
<feFlood flood-opacity="0" result="BackgroundImageFix"/>
<feColorMatrix in="SourceAlpha" type="matrix" values="0 0 0 0 0 0 0 0 0 0 0 0 0 0 0 0 0 0 127 0" result="hardAlpha"/>
<feOffset dy="1"/>
<feGaussianBlur stdDeviation="0.5"/>
<feComposite in2="hardAlpha" operator="out"/>
<feColorMatrix type="matrix" values="0 0 0 0 0 0 0 0 0 0.1169 0 0 0 0 0.4175 0 0 0 0.6 0"/>
<feBlend mode="normal" in2="BackgroundImageFix" result="effect1_dropShadow_2_559"/>
<feBlend mode="normal" in="SourceGraphic" in2="effect1_dropShadow_2_559" result="shape"/>
</filter>
<filter id="filter16_d_2_559" x="322" y="174" width="23" height="22" filterUnits="userSpaceOnUse" color-interpolation-filters="sRGB">
<feFlood flood-opacity="0" result="BackgroundImageFix"/>
<feColorMatrix in="SourceAlpha" type="matrix" values="0 0 0 0 0 0 0 0 0 0 0 0 0 0 0 0 0 0 127 0" result="hardAlpha"/>
<feOffset dy="1"/>
<feGaussianBlur stdDeviation="0.5"/>
<feComposite in2="hardAlpha" operator="out"/>
<feColorMatrix type="matrix" values="0 0 0 0 0 0 0 0 0 0.1169 0 0 0 0 0.4175 0 0 0 0.6 0"/>
<feBlend mode="normal" in2="BackgroundImageFix" result="effect1_dropShadow_2_559"/>
<feBlend mode="normal" in="SourceGraphic" in2="effect1_dropShadow_2_559" result="shape"/>
</filter>
<filter id="filter17_d_2_559" x="345" y="174" width="23" height="22" filterUnits="userSpaceOnUse" color-interpolation-filters="sRGB">
<feFlood flood-opacity="0" result="BackgroundImageFix"/>
<feColorMatrix in="SourceAlpha" type="matrix" values="0 0 0 0 0 0 0 0 0 0 0 0 0 0 0 0 0 0 127 0" result="hardAlpha"/>
<feOffset dy="1"/>
<feGaussianBlur stdDeviation="0.5"/>
<feComposite in2="hardAlpha" operator="out"/>
<feColorMatrix type="matrix" values="0 0 0 0 0 0 0 0 0 0.1169 0 0 0 0 0.4175 0 0 0 0.6 0"/>
<feBlend mode="normal" in2="BackgroundImageFix" result="effect1_dropShadow_2_559"/>
<feBlend mode="normal" in="SourceGraphic" in2="effect1_dropShadow_2_559" result="shape"/>
</filter>
<filter id="filter18_d_2_559" x="299" y="174" width="23" height="22" filterUnits="userSpaceOnUse" color-interpolation-filters="sRGB">
<feFlood flood-opacity="0" result="BackgroundImageFix"/>
<feColorMatrix in="SourceAlpha" type="matrix" values="0 0 0 0 0 0 0 0 0 0 0 0 0 0 0 0 0 0 127 0" result="hardAlpha"/>
<feOffset dy="1"/>
<feGaussianBlur stdDeviation="0.5"/>
<feComposite in2="hardAlpha" operator="out"/>
<feColorMatrix type="matrix" values="0 0 0 0 0 0 0 0 0 0.1169 0 0 0 0 0.4175 0 0 0 0.6 0"/>
<feBlend mode="normal" in2="BackgroundImageFix" result="effect1_dropShadow_2_559"/>
<feBlend mode="normal" in="SourceGraphic" in2="effect1_dropShadow_2_559" result="shape"/>
</filter>
<filter id="filter19_d_2_559" x="322" y="174" width="23" height="22" filterUnits="userSpaceOnUse" color-interpolation-filters="sRGB">
<feFlood flood-opacity="0" result="BackgroundImageFix"/>
<feColorMatrix in="SourceAlpha" type="matrix" values="0 0 0 0 0 0 0 0 0 0 0 0 0 0 0 0 0 0 127 0" result="hardAlpha"/>
<feOffset dy="1"/>
<feGaussianBlur stdDeviation="0.5"/>
<feComposite in2="hardAlpha" operator="out"/>
<feColorMatrix type="matrix" values="0 0 0 0 0 0 0 0 0 0.1169 0 0 0 0 0.4175 0 0 0 0.6 0"/>
<feBlend mode="normal" in2="BackgroundImageFix" result="effect1_dropShadow_2_559"/>
<feBlend mode="normal" in="SourceGraphic" in2="effect1_dropShadow_2_559" result="shape"/>
</filter>
<filter id="filter20_d_2_559" x="299" y="214" width="23" height="22" filterUnits="userSpaceOnUse" color-interpolation-filters="sRGB">
<feFlood flood-opacity="0" result="BackgroundImageFix"/>
<feColorMatrix in="SourceAlpha" type="matrix" values="0 0 0 0 0 0 0 0 0 0 0 0 0 0 0 0 0 0 127 0" result="hardAlpha"/>
<feOffset dy="1"/>
<feGaussianBlur stdDeviation="0.5"/>
<feComposite in2="hardAlpha" operator="out"/>
<feColorMatrix type="matrix" values="0 0 0 0 0 0 0 0 0 0.1169 0 0 0 0 0.4175 0 0 0 0.6 0"/>
<feBlend mode="normal" in2="BackgroundImageFix" result="effect1_dropShadow_2_559"/>
<feBlend mode="normal" in="SourceGraphic" in2="effect1_dropShadow_2_559" result="shape"/>
</filter>
<filter id="filter21_d_2_559" x="322" y="214" width="23" height="22" filterUnits="userSpaceOnUse" color-interpolation-filters="sRGB">
<feFlood flood-opacity="0" result="BackgroundImageFix"/>
<feColorMatrix in="SourceAlpha" type="matrix" values="0 0 0 0 0 0 0 0 0 0 0 0 0 0 0 0 0 0 127 0" result="hardAlpha"/>
<feOffset dy="1"/>
<feGaussianBlur stdDeviation="0.5"/>
<feComposite in2="hardAlpha" operator="out"/>
<feColorMatrix type="matrix" values="0 0 0 0 0 0 0 0 0 0.1169 0 0 0 0 0.4175 0 0 0 0.6 0"/>
<feBlend mode="normal" in2="BackgroundImageFix" result="effect1_dropShadow_2_559"/>
<feBlend mode="normal" in="SourceGraphic" in2="effect1_dropShadow_2_559" result="shape"/>
</filter>
<filter id="filter22_d_2_559" x="345" y="214" width="23" height="22" filterUnits="userSpaceOnUse" color-interpolation-filters="sRGB">
<feFlood flood-opacity="0" result="BackgroundImageFix"/>
<feColorMatrix in="SourceAlpha" type="matrix" values="0 0 0 0 0 0 0 0 0 0 0 0 0 0 0 0 0 0 127 0" result="hardAlpha"/>
<feOffset dy="1"/>
<feGaussianBlur stdDeviation="0.5"/>
<feComposite in2="hardAlpha" operator="out"/>
<feColorMatrix type="matrix" values="0 0 0 0 0 0 0 0 0 0.1169 0 0 0 0 0.4175 0 0 0 0.6 0"/>
<feBlend mode="normal" in2="BackgroundImageFix" result="effect1_dropShadow_2_559"/>
<feBlend mode="normal" in="SourceGraphic" in2="effect1_dropShadow_2_559" result="shape"/>
</filter>
<filter id="filter23_d_2_559" x="299" y="214" width="23" height="22" filterUnits="userSpaceOnUse" color-interpolation-filters="sRGB">
<feFlood flood-opacity="0" result="BackgroundImageFix"/>
<feColorMatrix in="SourceAlpha" type="matrix" values="0 0 0 0 0 0 0 0 0 0 0 0 0 0 0 0 0 0 127 0" result="hardAlpha"/>
<feOffset dy="1"/>
<feGaussianBlur stdDeviation="0.5"/>
<feComposite in2="hardAlpha" operator="out"/>
<feColorMatrix type="matrix" values="0 0 0 0 0 0 0 0 0 0.1169 0 0 0 0 0.4175 0 0 0 0.6 0"/>
<feBlend mode="normal" in2="BackgroundImageFix" result="effect1_dropShadow_2_559"/>
<feBlend mode="normal" in="SourceGraphic" in2="effect1_dropShadow_2_559" result="shape"/>
</filter>
<clipPath id="clip0_2_559">
<rect width="90" height="54" fill="white" transform="translate(50 318)"/>
</clipPath>
<clipPath id="clip1_2_559">
<rect width="90" height="54" fill="white" transform="translate(160 318)"/>
</clipPath>
<clipPath id="clip2_2_559">
<rect width="67" height="140" fill="white" transform="translate(300 94)"/>
</clipPath>
</defs>
</svg>
