<svg width="83" height="83" viewBox="0 0 83 83" fill="none" xmlns="http://www.w3.org/2000/svg">
<g filter="url(#filter0_d_2_543)">
<mask id="path-1-outside-1_2_543" maskUnits="userSpaceOnUse" x="1" y="0" width="81" height="81" fill="black">
<rect fill="white" x="1" width="81" height="81"/>
<path d="M5 11C5 7.68629 7.68629 5 11 5H72C75.3137 5 78 7.68629 78 11V70C78 73.3137 75.3137 76 72 76H11C7.68629 76 5 73.3137 5 70V11Z"/>
</mask>
<path d="M5 11C5 7.68629 7.68629 5 11 5H72C75.3137 5 78 7.68629 78 11V70C78 73.3137 75.3137 76 72 76H11C7.68629 76 5 73.3137 5 70V11Z" fill="#519EE6"/>
<path d="M1 10C1 4.47715 5.47715 0 11 0H72C77.5229 0 82 4.47715 82 10L74 11C74 10.4477 73.1046 10 72 10H11C9.89543 10 9 10.4477 9 11L1 10ZM82 71C82 76.5229 77.5229 81 72 81H11C5.47715 81 1 76.5229 1 71L9 70C9 70.5523 9.89543 71 11 71H72C73.1046 71 74 70.5523 74 70L82 71ZM11 81C5.47715 81 1 76.5229 1 71V10C1 4.47715 5.47715 0 11 0V10C9.89543 10 9 10.4477 9 11V70C9 70.5523 9.89543 71 11 71V81ZM72 0C77.5229 0 82 4.47715 82 10V71C82 76.5229 77.5229 81 72 81V71C73.1046 71 74 70.5523 74 70V11C74 10.4477 73.1046 10 72 10V0Z" fill="#8FD7FF" mask="url(#path-1-outside-1_2_543)"/>
</g>
<defs>
<filter id="filter0_d_2_543" x="0" y="0" width="83" height="83" filterUnits="userSpaceOnUse" color-interpolation-filters="sRGB">
<feFlood flood-opacity="0" result="BackgroundImageFix"/>
<feColorMatrix in="SourceAlpha" type="matrix" values="0 0 0 0 0 0 0 0 0 0 0 0 0 0 0 0 0 0 127 0" result="hardAlpha"/>
<feOffset dy="1"/>
<feGaussianBlur stdDeviation="0.5"/>
<feComposite in2="hardAlpha" operator="out"/>
<feColorMatrix type="matrix" values="0 0 0 0 0 0 0 0 0 0.1169 0 0 0 0 0.4175 0 0 0 0.6 0"/>
<feBlend mode="normal" in2="BackgroundImageFix" result="effect1_dropShadow_2_543"/>
<feBlend mode="normal" in="SourceGraphic" in2="effect1_dropShadow_2_543" result="shape"/>
</filter>
</defs>
</svg>
